<svg
  width="24"
  height="24"
  viewBox="0 0 24 24"
  fill="none"
  xmlns="http://www.w3.org/2000/svg"
  stroke="currentColor"
  stroke-width="0"
  stroke-linecap="round"
  stroke-linejoin="round"
>
  <path
    d="M16.0707 12.4775L22.2184 1.52848C22.3625 1.28408 22.3625 1.03968 22.2184 0.795284C22.0743 0.599764 21.8342 0.453125 21.594 0.453125L8.91432 0.453125C8.67418 0.453125 8.43403 0.599764 8.28994 0.795284L1.75797 12.0865C1.61388 12.3309 1.61388 12.6242 1.75797 12.8197L8.28994 24.1109C8.43403 24.3553 8.67418 24.4531 8.91432 24.4531H21.594C21.8342 24.4531 22.0743 24.3065 22.2184 24.1109C22.3625 23.8665 22.3625 23.6221 22.2184 23.3777L16.0707 12.4775ZM15.2542 11.0111L10.1631 1.91953H20.3933L15.2542 11.0111ZM8.86629 2.65271L14.3896 12.4775L8.86629 22.3024L3.19884 12.4775L8.86629 2.65271ZM10.1631 22.9867L15.2542 13.8951L20.3453 22.9867H10.1631Z"
    fill="currentColor"
  />
</svg>
