<svg
  width="24"
  height="24"
  viewBox="0 0 24 24"
  fill="none"
  xmlns="http://www.w3.org/2000/svg"
>
  <path
    fill-rule="evenodd"
    clip-rule="evenodd"
    d="M23.5756 16.7412C23.1029 18.4549 21.4483 20.1685 19.6756 20.7595C16.3664 21.8231 9.03903 21.5868 5.37533 21.0549C2.18437 20.6413 0.707075 19.1049 0.293432 17.3912C-0.00202693 16.2685 -0.0611152 14.3185 0.0570685 13.1366C0.352528 8.9411 3.18893 7.5229 5.19806 6.7547C7.85719 5.80923 17.1937 3.50465 19.9119 4.09557C21.9211 4.50921 23.3983 6.0456 23.7529 7.87745C24.1075 9.70929 24.1075 14.7912 23.5756 16.7412ZM12.8629 10.5057C13.9681 10.5057 14.6312 10.5057 15.2943 10.6146C15.4238 10.6146 15.5154 10.5772 15.5912 10.5462C15.6448 10.5243 15.6906 10.5057 15.7364 10.5057C15.7364 10.3967 15.7917 10.0154 15.8469 9.63412C15.9022 9.25282 15.9575 8.87153 15.9575 8.76259C15.9575 8.54471 15.8469 8.43576 15.5154 8.32682C14.9628 8.10894 13.8576 8 12.6419 8C9.76833 8 8 9.74306 8 12.9024V14.5365C8 17.6958 9.87885 19.4388 12.6419 19.4388C13.8576 19.4388 14.9627 19.221 15.5153 19.112L15.5154 19.112C15.8469 19.0031 15.9575 18.8941 15.9575 18.6763C15.9575 18.5673 15.9022 18.186 15.8469 17.8047C15.7917 17.4234 15.7364 17.0421 15.7364 16.9332C15.7364 16.7153 15.5154 16.6064 15.2943 16.6064C15.226 16.6064 15.0733 16.6168 14.8622 16.6311C14.3902 16.6633 13.6266 16.7153 12.8629 16.7153C11.9787 16.7153 11.2051 16.1706 11.2051 14.4275V12.7934C11.2051 11.0504 11.9787 10.5057 12.8629 10.5057Z"
    fill="#000A8C"
  />
</svg>
