<svg
  width="24"
  height="24"
  viewBox="0 0 24 24"
  fill="none"
  xmlns="http://www.w3.org/2000/svg"
>
  <path
    d="M12 2.61612C15.204 2.61612 15.584 2.62812 16.85 2.68612C20.102 2.83412 21.621 4.37712 21.769 7.60512C21.827 8.87012 21.838 9.25012 21.838 12.4541C21.838 15.6591 21.826 16.0381 21.769 17.3031C21.62 20.5281 20.105 22.0741 16.85 22.2221C15.584 22.2801 15.206 22.2921 12 22.2921C8.796 22.2921 8.416 22.2801 7.151 22.2221C3.891 22.0731 2.38 20.5231 2.232 17.3021C2.174 16.0371 2.162 15.6581 2.162 12.4531C2.162 9.24912 2.175 8.87012 2.232 7.60412C2.381 4.37712 3.896 2.83312 7.151 2.68512C8.417 2.62812 8.796 2.61612 12 2.61612ZM12 0.453125C8.741 0.453125 8.333 0.467125 7.053 0.525125C2.695 0.725125 0.273 3.14312 0.073 7.50512C0.014 8.78612 4.0703e-09 9.19412 5.58788e-09 12.4531C7.10545e-09 15.7121 0.014 16.1211 0.072 17.4011C0.272 21.7591 2.69 24.1811 7.052 24.3811C8.333 24.4391 8.741 24.4531 12 24.4531C15.259 24.4531 15.668 24.4391 16.948 24.3811C21.302 24.1811 23.73 21.7631 23.927 17.4011C23.986 16.1211 24 15.7121 24 12.4531C24 9.19412 23.986 8.78612 23.928 7.50612C23.732 3.15212 21.311 0.726125 16.949 0.526125C15.668 0.467125 15.259 0.453125 12 0.453125V0.453125ZM12 6.29112C8.597 6.29112 5.838 9.05012 5.838 12.4531C5.838 15.8561 8.597 18.6161 12 18.6161C15.403 18.6161 18.162 15.8571 18.162 12.4531C18.162 9.05012 15.403 6.29112 12 6.29112ZM12 16.4531C9.791 16.4531 8 14.6631 8 12.4531C8 10.2441 9.791 8.45312 12 8.45312C14.209 8.45312 16 10.2441 16 12.4531C16 14.6631 14.209 16.4531 12 16.4531ZM18.406 4.60812C17.61 4.60812 16.965 5.25312 16.965 6.04812C16.965 6.84312 17.61 7.48812 18.406 7.48812C19.201 7.48812 19.845 6.84312 19.845 6.04812C19.845 5.25312 19.201 4.60812 18.406 4.60812Z"
    fill="currentColor"
  />
</svg>
