<svg
  width="24"
  height="24"
  viewBox="0 0 24 24"
  fill="none"
  xmlns="http://www.w3.org/2000/svg"
>
  <path
    d="M22.5 24.4531C22.5 24.4531 18.9645 23.0619 16.1048 21.9481H4.07775C2.655 21.9481 1.5 20.7226 1.5 19.2129L1.5 3.18613C1.5 1.67788 2.655 0.453125 4.07775 0.453125H19.9215C21.345 0.453125 22.4993 1.67712 22.4993 3.18687L22.4993 16.9899H22.5L22.5 24.4531ZM19.3958 15.4666C19.3396 15.3945 19.2691 15.3349 19.1886 15.2915C19.1082 15.248 19.0197 15.2218 18.9286 15.2144C18.8375 15.207 18.7458 15.2186 18.6594 15.2484C18.5731 15.2783 18.4938 15.3258 18.4268 15.3879C18.4043 15.4074 16.1655 17.3986 11.9993 17.3986C7.88475 17.3986 5.6115 15.4216 5.571 15.3856C5.50386 15.3239 5.42464 15.2767 5.33835 15.2471C5.25206 15.2175 5.16057 15.2061 5.06966 15.2137C4.97875 15.2212 4.89039 15.2475 4.81015 15.2909C4.72992 15.3343 4.65955 15.3939 4.6035 15.4659C4.48345 15.6157 4.42474 15.8055 4.43925 15.9969C4.45193 16.1873 4.53731 16.3656 4.67775 16.4949C4.78425 16.5909 7.3305 18.8574 11.9993 18.8574C16.6688 18.8574 19.215 16.5909 19.3215 16.4949C19.4617 16.3655 19.5468 16.1872 19.5593 15.9969C19.5738 15.8058 19.5154 15.6163 19.3958 15.4666Z"
    fill="currentColor"
  />
</svg>
