<svg
  width="24"
  height="24"
  viewBox="0 0 24 24"
  fill="none"
  xmlns="http://www.w3.org/2000/svg"
>
  <path
    d="M20.9915 0.457656L2.99167 0.537478C1.33494 0.544825 -0.00234408 1.89402 0.00500286 3.55075L0.0848247 21.5506C0.0921716 23.2073 1.44137 24.5446 3.0981 24.5372L21.0979 24.4574C22.7547 24.4501 24.0919 23.1009 24.0846 21.4441L24.0048 3.44432C23.9974 1.78759 22.6482 0.450309 20.9915 0.457656ZM15.2106 4.88359C15.2086 4.44184 15.5655 4.08175 16.0073 4.07979C16.449 4.07783 16.8091 4.43474 16.811 4.87649L16.8584 15.5646C16.8604 16.0064 16.5035 16.3665 16.0618 16.3684C15.62 16.3704 15.2599 16.0135 15.258 15.5717L15.2106 4.88359ZM11.2091 4.49633C11.2071 4.05458 11.564 3.69449 12.0057 3.69254C12.4475 3.69058 12.8076 4.04748 12.8095 4.48923L12.861 16.0894C12.8629 16.5311 12.506 16.8912 12.0643 16.8932C11.6225 16.8951 11.2625 16.5382 11.2605 16.0965L11.2091 4.49633ZM7.21114 4.91906C7.20918 4.47731 7.56609 4.11723 8.00783 4.11527C8.44958 4.11331 8.80892 4.47022 8.81088 4.91197L8.85827 15.6001C8.86023 16.0419 8.50408 16.4019 8.06233 16.4039C7.62058 16.4059 7.2605 16.0489 7.25854 15.6072L7.21114 4.91906ZM3.21853 6.53653C3.21657 6.09478 3.57272 5.7347 4.01447 5.73274C4.45621 5.73078 4.8163 6.08769 4.81826 6.52944L4.85017 13.7249C4.85213 14.1666 4.49522 14.5267 4.05347 14.5287C3.61173 14.5306 3.25239 14.1737 3.25043 13.732L3.21853 6.53653ZM20.593 18.6621C20.4704 18.7691 17.5175 21.2685 12.0838 21.2926C6.6501 21.3167 3.67661 18.8436 3.55163 18.7377C3.21511 18.4519 3.17313 17.9473 3.45963 17.6101C3.74465 17.2743 4.24847 17.2323 4.58498 17.5173C4.63166 17.5561 7.288 19.7141 12.076 19.6929C16.9239 19.6714 19.5197 17.4744 19.5451 17.4525C19.8783 17.163 20.3847 17.1998 20.6727 17.5337C20.963 17.8685 20.9269 18.3734 20.593 18.6621ZM20.8498 13.6539C20.8517 14.0957 20.4948 14.4557 20.0531 14.4577C19.6113 14.4597 19.252 14.1028 19.25 13.661L19.2181 6.46558C19.2162 6.02383 19.5723 5.66375 20.0141 5.66179C20.4558 5.65983 20.8159 6.01674 20.8179 6.45848L20.8498 13.6539Z"
    fill="currentColor"
  />
</svg>
