<svg
  width="24"
  height="24"
  viewBox="0 0 24 24"
  fill="none"
  xmlns="http://www.w3.org/2000/svg"
>
  <path
    fill-rule="evenodd"
    clip-rule="evenodd"
    d="M3.7086 1.45312C2.07108 1.45312 1 2.52721 1 3.93967C1 5.32135 2.04009 6.42803 3.64507 6.42803H3.67704C5.34628 6.42803 6.38439 5.32156 6.38439 3.93967C6.35294 2.52721 5.34628 1.45312 3.7086 1.45312ZM23.3257 14.5326V22.7865H18.5406V15.0854C18.5406 13.1508 17.8485 11.8305 16.1164 11.8305C14.7942 11.8305 14.0074 12.7203 13.6612 13.581C13.535 13.8887 13.5025 14.317 13.5025 14.7477V22.7865H8.71582C8.71582 22.7865 8.78029 9.74337 8.71582 8.392H13.5021V10.4324C13.4975 10.4396 13.4922 10.447 13.487 10.4545L13.487 10.4545C13.4812 10.4628 13.4754 10.4711 13.4706 10.4789H13.5021V10.4324C14.1379 9.45295 15.2736 8.05383 17.8155 8.05383C20.9648 8.05378 23.3257 10.1112 23.3257 14.5326ZM6.06906 22.7866H1.28418V8.39209H6.06906V22.7866Z"
    fill="currentColor"
  />
</svg>
