<svg
  width="24"
  height="24"
  viewBox="0 0 24 24"
  fill="none"
  xmlns="http://www.w3.org/2000/svg"
>
  <path
    fill-rule="evenodd"
    clip-rule="evenodd"
    d="M18.1592 4.16588C18.3999 4.02024 18.6331 3.86686 18.8586 3.70643C19.0125 3.59681 19.0358 3.37596 18.9062 3.23855C18.2835 2.57857 17.6093 1.94213 16.8907 1.3356C16.1482 0.708584 15.1491 0.463896 14.1998 0.678379C13.1889 0.906816 12.209 1.19186 11.2724 1.5306C9.87943 2.0345 8.54326 2.67091 7.30115 3.42226C7.07315 3.56007 6.8472 3.70278 6.6233 3.84986C6.49454 3.93454 6.50064 4.12503 6.63301 4.20382C10.07 6.24892 14.499 6.37976 18.1592 4.16588ZM4.14509 6.29099C4.30624 6.51575 4.46013 6.74797 4.60626 6.988C6.82759 10.6357 6.69617 15.0497 4.64398 18.475C4.56492 18.6069 4.37361 18.613 4.28882 18.4848C4.14123 18.2615 3.99805 18.0364 3.85977 17.8093C3.1059 16.5713 2.46719 15.2399 1.96177 13.8514C1.62191 12.9181 1.33592 11.9415 1.10674 10.934C0.891551 9.98799 1.1371 8.99228 1.76629 8.25227C2.3749 7.53633 3.01371 6.86434 3.67579 6.24359C3.81367 6.11461 4.03527 6.13761 4.14509 6.29099ZM9.17464 10.3695C8.06306 12.389 8.80472 14.9242 10.8311 16.0318C12.8574 17.1397 15.4013 16.4005 16.5129 14.3808C17.6245 12.3615 16.8828 9.82613 14.8565 8.71855C12.8301 7.61081 10.2862 8.35003 9.17464 10.3695ZM7.43791 20.5849C7.19723 20.7304 6.96421 20.8841 6.73868 21.0444C6.58461 21.1542 6.56152 21.3749 6.6911 21.5124C7.31378 22.1723 7.98787 22.8087 8.70641 23.4152C9.4491 24.0421 10.4482 24.2869 11.3973 24.0723C12.4082 23.8442 13.3882 23.559 14.3247 23.2202C15.7177 22.7163 17.0539 22.0799 18.2961 21.3286C18.5241 21.1906 18.7501 21.0481 18.9738 20.9011C19.1026 20.8165 19.0965 20.6258 18.9641 20.547C15.5273 18.5019 11.0981 18.3709 7.43791 20.5849ZM21.5423 18.4592C21.3812 18.2345 21.2273 18.0023 21.0811 17.7624C18.8598 14.1147 18.9912 9.70057 21.0434 6.27541C21.1225 6.14349 21.3138 6.13741 21.3986 6.26556C21.5462 6.48869 21.6893 6.71387 21.8276 6.94109C22.5815 8.17912 23.2202 9.51072 23.7256 10.899C24.0655 11.8323 24.3515 12.8089 24.5807 13.8164C24.7958 14.7623 24.5503 15.758 23.9211 16.4981C23.3125 17.2141 22.6737 17.8859 22.0116 18.5067C21.8737 18.6356 21.6521 18.6128 21.5423 18.4592Z"
    fill="currentColor"
  />
</svg>
