<svg
  width="24"
  height="24"
  viewBox="0 0 24 24"
  fill="none"
  xmlns="http://www.w3.org/2000/svg"
>
  <path
    d="M13.9858 0.547674C11.114 1.05822 8.60378 2.52604 6.15742 5.16385C4.26415 7.20603 3.3707 8.6313 2.37088 11.2478C1.73271 12.9071 1.60507 13.5453 1.51998 15.4386C1.37107 18.7145 2.0518 20.9269 3.64725 22.3947L4.1578 22.884L5.15761 21.4374C6.75306 19.1825 7.22106 18.0551 7.36997 16.098L7.4976 14.3749L6.54033 14.3749C5.43415 14.3749 5.2427 14.2473 5.54052 13.7155C5.68942 13.4176 5.98724 13.3113 6.58288 13.3113L7.43378 13.3113L7.43378 11.9286L7.43378 10.5458L6.5616 9.99275C5.45542 9.31202 5.71069 8.80148 6.83815 9.4822L7.58269 9.90766L7.83796 9.05675C8.13578 8.0782 8.94414 7.03584 9.79505 6.61039C10.6034 6.18493 12.1138 6.20621 12.6669 6.67421C13.6241 7.44002 13.7092 8.3122 12.986 9.67365C12.6456 10.3118 11.2203 10.9713 10.0929 11.0351L9.1356 11.0777L9.1356 12.1838L9.1356 13.3113L11.0501 13.3113C12.2414 13.3113 12.9647 13.3964 12.9647 13.5453C12.9647 13.9282 11.5394 14.3749 10.3056 14.3749L9.1356 14.3749L9.1356 15.4811C9.1356 16.5447 8.96542 17.502 8.62506 18.5656C8.47615 19.0549 8.47615 19.0549 10.88 19.0549C12.4754 19.0549 13.3901 18.9698 13.5603 18.7996C14.0283 18.3316 13.8581 19.374 13.3689 19.9909C12.9434 20.544 12.9221 20.544 10.0078 20.544L7.07215 20.544L6.24252 21.4587C5.26397 22.5649 4.66834 23.2882 4.66834 23.3945C4.66834 23.4371 5.17888 23.6924 5.77452 23.9476C7.22106 24.5645 9.77378 24.6283 11.4756 24.0753C15.326 22.8202 18.7934 19.6505 20.8356 15.5449C22.1332 12.9496 22.6012 11.0564 22.5799 8.52492C22.5587 4.73839 20.8568 1.93039 17.8361 0.802946C16.9852 0.462582 15.0919 0.35622 13.9858 0.547674Z"
    fill="currentColor"
  />
  <path
    d="M10.0069 7.71575C9.60276 8.05611 9.15604 9.26865 9.13477 10.0983C9.13477 10.5876 11.1769 10.2897 11.7938 9.69411C12.3682 9.14102 12.5171 8.05611 12.0704 7.60939C11.6875 7.22648 10.5175 7.2903 10.0069 7.71575Z"
    fill="currentColor"
  />
</svg>
