<svg
  width="24"
  height="24"
  viewBox="0 0 24 24"
  fill="none"
  xmlns="http://www.w3.org/2000/svg"
>
  <path
    fill-rule="evenodd"
    clip-rule="evenodd"
    d="M13.6944 2.97909L11.9632 0.753174L11.2327 1.77641L10.3008 3.03599L4.55537 1.16015V7.20753L1.83671 8.07285L2.8679 9.51692L3.50248 10.366L0 15.3205L5.7416 17.1941V20.0366L8.47405 19.1669L12.0285 24.0702L15.5968 19.1718L18.3162 20.0373V17.2114L18.9091 16.9961L24 15.3202L20.4911 10.421L22.0981 8.13463L20.2738 7.52681L19.4428 7.21627V1.16258L13.6944 2.97909ZM15.6225 5.72751L14.514 4.22941L18.0203 3.13032V6.79942L17.306 6.57624L16.2339 6.17562L15.9581 6.56159L15.3532 6.15849L15.6225 5.72751ZM5.97785 6.79279V3.13378L9.48484 4.28545L8.36672 5.79635L8.6212 6.13498L8.64302 6.16778L8.04402 6.60723L7.77399 6.17505L5.97785 6.79279ZM10.5602 6.48735L10.0563 5.79431L11.9728 3.13278L13.8894 5.79431L13.3855 6.48735L16.2274 8.53356L16.7299 7.84253L19.817 8.85417L17.8976 11.5198L17.0809 11.2688L16.3176 13.6295L16.0287 14.6423L16.4432 14.7467L16.893 14.838V18.1274L13.7479 17.1143V16.2353H10.2517V17.0927L9.90571 17.1914L7.10448 18.0697V14.824L7.92094 14.5731L6.86421 11.2047L6.14744 11.4439L6.03427 11.5005L4.12864 8.85417L7.21577 7.84253L7.71827 8.53356L10.5602 6.48735ZM5.02468 15.4736L2.28795 14.5432L4.43291 11.5611L4.94273 12.3025L5.4914 13.1227L5.79788 13.0201L5.97459 12.9611L6.10302 13.4329L6.17079 13.6358L5.7416 13.7996V15.6976L5.02468 15.4736ZM18.9302 12.4891L19.5625 11.6165L20.2493 12.5485L21.7058 14.5406L19.2104 15.3544L18.2566 15.6881V13.794L17.7651 13.6299L17.8937 13.2016L17.9619 12.9625L18.1408 13.0223L18.4379 13.1217L18.9302 12.4891ZM11.6124 18.1451V17.6585H12.3219V18.1451L14.1147 18.7052L13.7201 19.2756L11.9703 21.6307L9.82686 18.7031L11.6124 18.1451ZM16.389 9.99534L11.9695 6.82239L7.54932 9.99751L9.23056 15.1641H14.7077L16.389 9.99534ZM10.2591 13.6849L9.21217 10.4902L11.9688 8.50514L14.7418 10.502L13.6806 13.6849H10.2591Z"
    fill="currentColor"
  />
</svg>
