<svg
  width="24"
  height="24"
  viewBox="0 0 24 24"
  fill="none"
  xmlns="http://www.w3.org/2000/svg"
>
  <path
    fill-rule="evenodd"
    clip-rule="evenodd"
    d="M10.3434 7.60038C10.3434 6.57181 11.1774 6.1762 12.5586 6.1762C14.5392 6.1762 17.0411 6.78279 19.0217 7.86411L19.0217 1.66631C16.8586 0.795982 14.7216 0.453125 12.5586 0.453125C7.26822 0.453125 3.75 3.24873 3.75 7.91686C3.75 15.196 13.6531 14.0355 13.6531 17.174C13.6531 18.3872 12.6107 18.7828 11.1513 18.7828C8.98824 18.7828 6.22579 17.8861 4.03667 16.6729L4.03667 22.9498C6.46033 24.0048 8.91006 24.4531 11.1513 24.4531C16.572 24.4531 20.2987 21.7366 20.2987 17.0158C20.2726 9.15642 10.3434 10.5542 10.3434 7.60038Z"
    fill="currentColor"
  />
</svg>
