<svg
  width="24"
  height="24"
  viewBox="0 0 24 24"
  fill="none"
  xmlns="http://www.w3.org/2000/svg"
>
  <path
    d="M19 1H5C2.791 1 1 2.791 1 5V19C1 21.209 2.791 23 5 23H19C21.209 23 23 21.209 23 19V5C23 2.791 21.209 1 19 1ZM17 13H13V17C13 17.552 12.553 18 12 18C11.724 18 11.474 17.888 11.293 17.707C11.112 17.526 11 17.276 11 17V13H7C6.724 13 6.474 12.888 6.293 12.707C6.112 12.526 6 12.276 6 12C6 11.448 6.448 11 7 11H11V7C11 6.448 11.447 6 12 6C12.553 6 13 6.448 13 7V11H17C17.552 11 18 11.448 18 12C18 12.552 17.552 13 17 13Z"
    fill="currentColor"
  />
</svg>
