<svg
  width="24"
  height="24"
  viewBox="0 0 24 24"
  fill="none"
  xmlns="http://www.w3.org/2000/svg"
>
  <path
    fill-rule="evenodd"
    d="M20.485 3.51499C15.799 -1.17101 8.20101 -1.17101 3.51401 3.51499C-1.17199 8.20199 -1.17199 15.799 3.51401 20.486C8.20001 25.173 15.798 25.172 20.485 20.486C25.172 15.799 25.172 8.20099 20.485 3.51499ZM17 13H13V17C13 17.553 12.553 18 12 18C11.724 18 11.474 17.888 11.293 17.707C11.112 17.526 11 17.276 11 17V13H7.00001C6.72401 13 6.47401 12.888 6.29301 12.707C6.11201 12.526 6.00001 12.276 6.00001 12C6.00001 11.448 6.44801 11 7.00001 11H11V6.99999C11 6.44799 11.447 5.99999 12 5.99999C12.553 5.99999 13 6.44799 13 6.99999V11H17C17.552 11 18 11.448 18 12C18 12.553 17.552 13 17 13Z"
    fill="currentColor"
  />
</svg>
