<svg
  width="24"
  height="24"
  viewBox="0 0 24 24"
  fill="none"
  xmlns="http://www.w3.org/2000/svg"
>
  <path
    fill-rule="evenodd"
    d="M12 0C5.373 0 0 5.373 0 12C0 18.63 5.373 24 12 24C18.627 24 24 18.63 24 12C24 5.373 18.627 0 12 0ZM11 6C11 5.448 11.448 5 12 5C12.552 5 13 5.447 13 6V13C13 13.552 12.552 14 12 14C11.448 14 11 13.553 11 13V6ZM12 19C11.172 19 10.5 18.328 10.5 17.5C10.5 16.672 11.172 16 12 16C12.828 16 13.5 16.672 13.5 17.5C13.5 18.328 12.828 19 12 19Z"
    fill="currentColor"
  />
</svg>
