<svg
  width="24"
  height="24"
  viewBox="0 0 24 24"
  fill="none"
  xmlns="http://www.w3.org/2000/svg"
>
  <path
    d="M7.586 13.586L3.851 17.32L1.85 15.32C1.167 14.637 0 15.121 0 16.086V24H7.914C8.88 24 9.363 22.833 8.681 22.149L6.68 20.148L10.415 16.414C11.196 15.633 11.196 14.367 10.415 13.586C9.634 12.805 8.367 12.805 7.586 13.586ZM16.086 0C15.12 0 14.637 1.167 15.319 1.851L17.32 3.852L13.585 7.586C12.804 8.367 12.804 9.633 13.585 10.414C13.977 10.805 14.488 11 15 11C15.512 11 16.023 10.805 16.414 10.414L20.149 6.68L22.15 8.68C22.833 9.363 24 8.879 24 7.914V0H16.086Z"
    fill="currentColor"
  />
</svg>
