<svg
  width="24"
  height="24"
  viewBox="0 0 24 24"
  fill="none"
  xmlns="http://www.w3.org/2000/svg"
>
  <path
    d="M2.31975 14.851L4.32075 16.852L0.58575 20.586C-0.19525 21.367 -0.19525 22.633 0.58575 23.414C1.36675 24.195 2.63275 24.195 3.41375 23.414L7.14875 19.68L9.14975 21.68C9.83275 22.363 10.9998 21.879 10.9998 20.914V13H3.08575C2.11975 13 1.63675 14.167 2.31975 14.851ZM23.4137 0.586C23.0227 0.195 22.5117 0 21.9998 0C21.4878 0 20.9768 0.195 20.5858 0.586L16.8507 4.32L14.8498 2.32C14.1668 1.637 12.9998 2.121 12.9998 3.086V11H20.9137C21.8797 11 22.3627 9.833 21.6807 9.149L19.6798 7.148L23.4148 3.414C24.1948 2.633 24.1947 1.367 23.4137 0.586Z"
    fill="currentColor"
  />
</svg>
