<svg
  width="24"
  height="24"
  viewBox="0 0 24 24"
  fill="none"
  xmlns="http://www.w3.org/2000/svg"
>
  <path
    fill-rule="evenodd"
    d="M5.681 16.9998H2C0.896 16.9998 0 17.8958 0 18.9998C0 20.1038 0.896 20.9998 2 20.9998H8.319L8.912 19.6158L6.736 14.5388L5.681 16.9998ZM17 15.0118V16.9998H14.319L12.176 11.9998L14.319 6.99981H17V8.98781C17 9.88781 18.185 10.3378 18.878 9.70181L24 4.99981L18.878 0.297813C18.185 -0.338187 17 0.111813 17 1.01181V2.99981H11.681L10 6.92281L8.319 2.99981H2C0.896 2.99981 0 3.89581 0 4.99981C0 6.10381 0.896 6.99981 2 6.99981H5.681L10 17.0768L11.681 20.9998H17V22.9878C17 23.8878 18.185 24.3378 18.878 23.7018L24 18.9998L18.878 14.2978C18.185 13.6618 17 14.1118 17 15.0118Z"
    fill="currentColor"
  />
</svg>
