<svg
  width="24"
  height="24"
  viewBox="0 0 24 24"
  fill="none"
  xmlns="http://www.w3.org/2000/svg"
>
  <path
    fill-rule="evenodd"
    d="M20.7215 3.768L22.7005 1.79C23.3615 1.129 22.8935 0 21.9585 0H14.0035V7.952C14.0035 8.886 15.1335 9.353 15.7935 8.693L17.8905 6.597C20.7725 9.733 20.7025 14.623 17.6625 17.662C14.5405 20.781 9.46152 20.782 6.34052 17.662C3.21952 14.542 3.21952 9.465 6.34052 6.345C7.12252 5.564 7.12252 4.297 6.34052 3.516C5.55852 2.735 4.29152 2.735 3.51052 3.516C-1.17148 8.196 -1.17148 15.811 3.51052 20.491C5.85152 22.83 8.92752 24 12.0025 24C15.0775 24 18.1525 22.83 20.4935 20.49C25.0945 15.892 25.1635 8.465 20.7215 3.768Z"
    fill="currentColor"
  />
</svg>
