<svg
  width="24"
  height="24"
  viewBox="0 0 24 24"
  fill="none"
  xmlns="http://www.w3.org/2000/svg"
>
  <path
    fill-rule="evenodd"
    d="M15 4L18 0H6L9 4H15ZM15 6H9C4.943 8.184 0 13.235 0 17.75C0 19.108 0.27 20.167 0.75 21.003V21.056C0.75 21.04 0.752 21.025 0.754 21.01C2.28 23.659 5.969 24 10.286 24H13.715C19.395 24 24 23.421 24 17.75C24 13.235 19.057 8.184 15 6ZM15.447 12.895C14.954 13.143 14.352 12.941 14.106 12.447C13.957 12.15 13.623 12 13.111 12C12.499 12 12 12.499 12 13.111V14H13C13.552 14 14 14.448 14 15C14 15.552 13.552 16 13 16H12V17H14C14.552 17 15 17.448 15 18C15 18.552 14.552 19 14 19H9C8.448 19 8 18.552 8 18C8 17.448 8.448 17 9 17H10V16H9C8.448 16 8 15.552 8 15C8 14.448 8.448 14 9 14H10V13.111C10 11.396 11.396 10 13.111 10C14.386 10 15.401 10.566 15.894 11.553C16.142 12.047 15.941 12.647 15.447 12.895Z"
    fill="currentColor"
  />
</svg>
