<svg
  width="24"
  height="24"
  viewBox="0 0 24 24"
  fill="none"
  xmlns="http://www.w3.org/2000/svg"
>
  <path
    d="M22.461 2.20302C16.015 0.95402 7.613 5.93202 1.228 4.47702C0.599 4.33402 0 4.79702 0 5.44202V19.85C0 20.777 0.629 21.62 1.539 21.796C7.988 23.046 16.39 18.068 22.772 19.523C23.401 19.667 24 19.204 24 18.558V4.15002C24 3.28002 23.315 2.36902 22.461 2.20302ZM15.447 9.89502C14.954 10.143 14.352 9.94102 14.106 9.44702C13.957 9.15002 13.623 9.00002 13.111 9.00002C12.499 9.00002 12 9.49902 12 10.111V11H13C13.552 11 14 11.448 14 12C14 12.552 13.552 13 13 13H12V14H14C14.552 14 15 14.448 15 15C15 15.552 14.552 16 14 16H9C8.448 16 8 15.552 8 15C8 14.448 8.448 14 9 14H10V13H9C8.448 13 8 12.552 8 12C8 11.448 8.448 11 9 11H10V10.111C10 8.39602 11.396 7.00002 13.111 7.00002C14.386 7.00002 15.401 7.56602 15.894 8.55302C16.142 9.04702 15.941 9.64802 15.447 9.89502Z"
    fill="currentColor"
  />
</svg>
