<svg
  width="24"
  height="24"
  viewBox="0 0 24 24"
  fill="none"
  xmlns="http://www.w3.org/2000/svg"
>
  <path
    fill-rule="evenodd"
    d="M12 17.595C11.285 17.595 10.57 17.442 9.905 17.135L0 12.563V22C0 23.105 0.896 24 2 24H22C23.104 24 24 23.105 24 22V12.563L14.095 17.135C13.43 17.442 12.715 17.595 12 17.595ZM22 6H17.999V3.001C17.999 1.346 16.653 0 14.998 0H9C7.345 0 6 1.346 6 3.001V6H2C0.896 6 0 6.895 0 8V10.36L10.743 15.318C11.542 15.686 12.459 15.687 13.258 15.318L24 10.36V8C24 6.895 23.104 6 22 6ZM16 6H7.999V3.001C7.999 2.449 8.448 2 9 2H15C15.552 2 16 2.448 16 3V6Z"
    fill="currentColor"
  />
</svg>
