<svg width="24" height="24" viewBox="0 0 24 24" fill="none" xmlns="http://www.w3.org/2000/svg">
    <path
        d="M12 0C18.6274 0 24 5.37258 24 12C24 18.6274 18.6274 24 12 24C5.37261 24 2.53183e-05 18.6274 0 12C0 5.37262 5.37261 4.31815e-05 12 0ZM11.251 6.33984L15.1084 10.0449L4.95703 10L4.94824 12.9277L15.0996 12.9443L11.2344 16.6123L13.2686 18.6582L18.543 13.416C19.1494 12.8132 19.5942 12.2791 19.5967 11.4854C19.5989 10.7466 19.1428 10.1962 18.5537 9.60352L13.2979 4.31543V4.30566L11.251 6.33984Z"
        fill='currentColor' />
</svg>