<svg
  width="24"
  height="24"
  viewBox="0 0 24 24"
  fill="none"
  xmlns="http://www.w3.org/2000/svg"
>
  <path
    fill-rule="evenodd"
    d="M22 0H2C0.896 0 0 0.896 0 2V3H24V2C24 0.896 23.104 0 22 0ZM0 22C0 23.105 0.896 24 2 24H22C23.105 24 24 23.104 24 22V5H0V22ZM19.5 8C20.328 8 21 8.672 21 9.5C21 10.328 20.328 11 19.5 11C18.672 11 18 10.328 18 9.5C18 8.672 18.672 8 19.5 8ZM19.5 13C20.328 13 21 13.672 21 14.5C21 15.328 20.328 16 19.5 16C18.672 16 18 15.328 18 14.5C18 13.672 18.672 13 19.5 13ZM14.5 8C15.328 8 16 8.672 16 9.5C16 10.328 15.328 11 14.5 11C13.672 11 13 10.328 13 9.5C13 8.672 13.672 8 14.5 8ZM14.5 13C15.328 13 16 13.672 16 14.5C16 15.328 15.328 16 14.5 16C13.672 16 13 15.328 13 14.5C13 13.672 13.672 13 14.5 13ZM14.5 18C15.328 18 16 18.672 16 19.5C16 20.328 15.328 21 14.5 21C13.672 21 13 20.328 13 19.5C13 18.672 13.672 18 14.5 18ZM9.5 8C10.328 8 11 8.672 11 9.5C11 10.328 10.328 11 9.5 11C8.672 11 8 10.328 8 9.5C8 8.672 8.672 8 9.5 8ZM9.5 13C10.328 13 11 13.672 11 14.5C11 15.328 10.328 16 9.5 16C8.672 16 8 15.328 8 14.5C8 13.672 8.672 13 9.5 13ZM9.5 18C10.328 18 11 18.672 11 19.5C11 20.328 10.328 21 9.5 21C8.672 21 8 20.328 8 19.5C8 18.672 8.672 18 9.5 18ZM4.5 8C5.328 8 6 8.672 6 9.5C6 10.328 5.328 11 4.5 11C3.672 11 3 10.328 3 9.5C3 8.672 3.672 8 4.5 8ZM4.5 13C5.328 13 6 13.672 6 14.5C6 15.328 5.328 16 4.5 16C3.672 16 3 15.328 3 14.5C3 13.672 3.672 13 4.5 13ZM4.5 18C5.328 18 6 18.672 6 19.5C6 20.328 5.328 21 4.5 21C3.672 21 3 20.328 3 19.5C3 18.672 3.672 18 4.5 18Z"
    fill="currentColor"
  />
</svg>
