<svg
  width="24"
  height="24"
  viewBox="0 0 24 24"
  fill="none"
  xmlns="http://www.w3.org/2000/svg"
>
  <path
    fill-rule="evenodd"
    d="M22 2H19V1C19 0.448 18.552 0 18 0C17.448 0 17 0.448 17 1V2H7V1C7 0.448 6.552 0 6 0C5.448 0 5 0.448 5 1V2H2C0.896 2 0 2.896 0 4V22C0 23.105 0.896 24 2 24H22C23.105 24 24 23.104 24 22V4C24 2.896 23.104 2 22 2ZM6 7C5.448 7 5 6.552 5 6C5 5.448 5.448 5 6 5C6.552 5 7 5.448 7 6C7 6.552 6.552 7 6 7ZM10.625 19.781C10.44 19.928 10.22 20 10.001 20C9.707 20 9.417 19.872 9.219 19.625C8.874 19.194 8.945 18.564 9.375 18.22L13.399 15L9.375 11.781C8.944 11.436 8.874 10.807 9.219 10.376C9.566 9.945 10.194 9.875 10.625 10.22L16.601 15L10.625 19.781ZM18 7C17.448 7 17 6.552 17 6C17 5.448 17.448 5 18 5C18.552 5 19 5.448 19 6C19 6.552 18.552 7 18 7Z"
    fill="currentColor"
  />
</svg>
