<svg
  width="24"
  height="24"
  viewBox="0 0 24 24"
  fill="none"
  xmlns="http://www.w3.org/2000/svg"
>
  <path
    fill-rule="evenodd"
    d="M22 2H19V1C19 0.448 18.552 0 18 0C17.448 0 17 0.448 17 1V2H7V1C7 0.448 6.552 0 6 0C5.448 0 5 0.448 5 1V2H2C0.896 2 0 2.896 0 4V22C0 23.105 0.896 24 2 24H22C23.105 24 24 23.104 24 22V4C24 2.896 23.104 2 22 2ZM12 9C13.654 9 15 10.346 15 12C15 13.654 13.654 15 12 15C10.346 15 9 13.654 9 12C9 10.346 10.346 9 12 9ZM6 7C5.448 7 5 6.552 5 6C5 5.448 5.448 5 6 5C6.552 5 7 5.448 7 6C7 6.552 6.552 7 6 7ZM17 21H7V20.244C7 18.455 9.243 17 12 17C14.757 17 17 18.455 17 20.244V21ZM18 7C17.448 7 17 6.552 17 6C17 5.448 17.448 5 18 5C18.552 5 19 5.448 19 6C19 6.552 18.552 7 18 7Z"
    fill="currentColor"
  />
</svg>
