<svg
  width="24"
  height="24"
  viewBox="0 0 24 24"
  fill="none"
  xmlns="http://www.w3.org/2000/svg"
>
  <path
    fill-rule="evenodd"
    d="M22 2H19V1C19 0.448 18.552 0 18 0C17.448 0 17 0.448 17 1V2H7V1C7 0.448 6.552 0 6 0C5.448 0 5 0.448 5 1V2H2C0.896 2 0 2.896 0 4V22C0 23.105 0.896 24 2 24H22C23.105 24 24 23.104 24 22V4C24 2.896 23.104 2 22 2ZM6 7C5.448 7 5 6.552 5 6C5 5.448 5.448 5 6 5C6.552 5 7 5.448 7 6C7 6.552 6.552 7 6 7ZM15.832 12.168L11.277 19L7.445 16.445C6.985 16.139 6.861 15.518 7.168 15.058C7.473 14.598 8.093 14.474 8.555 14.781L10.723 16.226L14.168 11.058C14.474 10.598 15.093 10.474 15.555 10.781C16.015 11.087 16.139 11.708 15.832 12.168ZM18 7C17.448 7 17 6.552 17 6C17 5.448 17.448 5 18 5C18.552 5 19 5.448 19 6C19 6.552 18.552 7 18 7Z"
    fill="currentColor"
  />
</svg>
