<svg
  width="24"
  height="24"
  viewBox="0 0 24 24"
  fill="none"
  xmlns="http://www.w3.org/2000/svg"
>
  <path
    fill-rule="evenodd"
    d="M22 2H19V1C19 0.448 18.552 0 18 0C17.448 0 17 0.448 17 1V2H7V1C7 0.448 6.552 0 6 0C5.448 0 5 0.448 5 1V2H2C0.896 2 0 2.896 0 4V22C0 23.105 0.896 24 2 24H22C23.105 24 24 23.104 24 22V4C24 2.896 23.104 2 22 2ZM5 6C5 5.448 5.448 5 6 5C6.552 5 7 5.448 7 6C7 6.552 6.552 7 6 7C5.448 7 5 6.552 5 6ZM10 19C10 19.553 9.552 20 9 20C8.448 20 8 19.553 8 19V12.618L7.447 12.894C6.951 13.14 6.352 12.941 6.105 12.447C5.858 11.953 6.058 11.352 6.552 11.105L8.552 10.105C8.862 9.951 9.23 9.966 9.525 10.149C9.82 10.332 10 10.653 10 11V19ZM15 20H13C12.448 20 12 19.553 12 19C12 18.447 12.448 18 13 18H15C15.551 18 16 17.552 16 17C16 16.448 15.551 16 15 16H13C12.448 16 12 15.553 12 15V11C12 10.447 12.448 10 13 10H16.5C17.052 10 17.5 10.447 17.5 11C17.5 11.553 17.052 12 16.5 12H14V14H15C16.654 14 18 15.346 18 17C18 18.654 16.654 20 15 20ZM18 7C17.448 7 17 6.552 17 6C17 5.448 17.448 5 18 5C18.552 5 19 5.448 19 6C19 6.552 18.552 7 18 7Z"
    fill="currentColor"
  />
</svg>
