<svg
  width="24"
  height="24"
  viewBox="0 0 24 24"
  fill="none"
  xmlns="http://www.w3.org/2000/svg"
>
  <path
    fill-rule="evenodd"
    d="M22 2H19V1C19 0.448 18.552 0 18 0C17.448 0 17 0.448 17 1V2H7V1C7 0.448 6.552 0 6 0C5.448 0 5 0.448 5 1V2H2C0.896 2 0 2.896 0 4V22C0 23.105 0.896 24 2 24H22C23.105 24 24 23.104 24 22V4C24 2.896 23.104 2 22 2ZM6 7C5.448 7 5 6.552 5 6C5 5.448 5.448 5 6 5C6.552 5 7 5.448 7 6C7 6.552 6.552 7 6 7ZM16 16H13V19C13 19.55 12.55 20 12 20C11.45 20 11 19.55 11 19V16H8C7.45 16 7 15.55 7 15C7 14.45 7.45 14 8 14H11V11C11 10.45 11.45 10 12 10C12.55 10 13 10.45 13 11V14H16C16.55 14 17 14.45 17 15C17 15.55 16.55 16 16 16ZM18 7C17.448 7 17 6.552 17 6C17 5.448 17.448 5 18 5C18.552 5 19 5.448 19 6C19 6.552 18.552 7 18 7Z"
    fill="currentColor"
  />
</svg>
