<svg
  width="24"
  height="24"
  viewBox="0 0 24 24"
  fill="none"
  xmlns="http://www.w3.org/2000/svg"
>
  <path
    fill-rule="evenodd"
    d="M22 2H19V1C19 0.448 18.552 0 18 0C17.448 0 17 0.448 17 1V2H7V1C7 0.448 6.552 0 6 0C5.448 0 5 0.448 5 1V2H2C0.896 2 0 2.896 0 4V22C0 23.105 0.896 24 2 24H22C23.105 24 24 23.104 24 22V4C24 2.896 23.104 2 22 2ZM6 7C5.448 7 5 6.552 5 6C5 5.448 5.448 5 6 5C6.552 5 7 5.448 7 6C7 6.552 6.552 7 6 7ZM15.536 18.536C15.147 18.925 14.511 18.925 14.122 18.536L12 16.414L9.879 18.535C9.49 18.924 8.854 18.924 8.465 18.535C8.076 18.146 8.076 17.51 8.465 17.121L10.586 15L8.465 12.879C8.076 12.49 8.076 11.854 8.465 11.465C8.854 11.076 9.49 11.076 9.879 11.465L12 13.586L14.121 11.465C14.51 11.076 15.146 11.076 15.535 11.465C15.924 11.854 15.924 12.49 15.535 12.879L13.415 15L15.536 17.121C15.925 17.51 15.925 18.147 15.536 18.536ZM18 7C17.448 7 17 6.552 17 6C17 5.448 17.448 5 18 5C18.552 5 19 5.448 19 6C19 6.552 18.552 7 18 7Z"
    fill="currentColor"
  />
</svg>
