<svg
  width="24"
  height="24"
  viewBox="0 0 24 24"
  fill="none"
  xmlns="http://www.w3.org/2000/svg"
>
  <path
    d="M14.8278 12L19.4137 7.41399C20.1947 6.63299 20.1947 5.36699 19.4137 4.58599C18.6337 3.80499 17.3658 3.80499 16.5858 4.58599L11.9998 9.17199L7.41375 4.58599C6.63375 3.80499 5.36575 3.80499 4.58575 4.58599C3.80475 5.36699 3.80475 6.63299 4.58575 7.41399L9.17175 12L4.58575 16.586C3.80475 17.367 3.80475 18.633 4.58575 19.414C4.97575 19.805 5.48775 20 5.99975 20C6.51175 20 7.02375 19.805 7.41375 19.414L11.9998 14.828L16.5858 19.414C16.9758 19.805 17.4878 20 17.9998 20C18.5118 20 19.0237 19.805 19.4137 19.414C20.1947 18.633 20.1947 17.367 19.4137 16.586L14.8278 12Z"
    fill="currentColor"
  />
</svg>
