<svg
  width="24"
  height="24"
  viewBox="0 0 24 24"
  fill="none"
  xmlns="http://www.w3.org/2000/svg"
>
  <path
    d="M14.8282 12L19.4142 7.41399C20.1952 6.63299 20.1952 5.36699 19.4142 4.58599C18.6342 3.80499 17.3662 3.80499 16.5862 4.58599L12.0002 9.17199L7.41424 4.58599C6.63424 3.80499 5.36624 3.80499 4.58624 4.58599C3.80524 5.36699 3.80524 6.63299 4.58624 7.41399L9.17224 12L4.58624 16.586C3.80524 17.367 3.80524 18.633 4.58624 19.414C4.97624 19.805 5.48824 20 6.00024 20C6.51224 20 7.02424 19.805 7.41424 19.414L12.0002 14.828L16.5862 19.414C16.9762 19.805 17.4882 20 18.0002 20C18.5122 20 19.0242 19.805 19.4142 19.414C20.1952 18.633 20.1952 17.367 19.4142 16.586L14.8282 12Z"
    fill="currentColor"
  />
</svg>
