<svg
  width="24"
  height="24"
  viewBox="0 0 24 24"
  fill="none"
  xmlns="http://www.w3.org/2000/svg"
>
  <path
    fill-rule="evenodd"
    d="M22 10.555V6C22 2.686 19.314 0 16 0H8C4.686 0 2 2.686 2 6V10.555C0.809 11.248 0 12.523 0 14V22C0 23.104 0.895 24 2 24C3.104 24 4 23.104 4 22V20H20V22C20 23.104 20.896 24 22 24C23.104 24 24 23.104 24 22V14C24 12.523 23.191 11.248 22 10.555ZM5 6C5 4.346 6.346 3 8 3H16C17.654 3 19 4.346 19 6V10H5V6ZM5 17C3.896 17 3 16.104 3 15C3 13.896 3.896 13 5 13C6.104 13 7 13.896 7 15C7 16.104 6.104 17 5 17ZM19 17C17.896 17 17 16.104 17 15C17 13.896 17.896 13 19 13C20.104 13 21 13.896 21 15C21 16.104 20.104 17 19 17Z"
    fill="currentColor"
  />
</svg>
