<svg
  width="24"
  height="24"
  viewBox="0 0 24 24"
  fill="none"
  xmlns="http://www.w3.org/2000/svg"
>
  <path
    fill-rule="evenodd"
    d="M22.828 6.23401L17.765 1.17101C16.203 -0.390988 13.67 -0.390988 12.108 1.17101L9.256 4.02401C7.854 5.42601 7.721 7.60301 8.835 9.16501L0 18V24H6V21H9V18H12L14.835 15.165C16.397 16.279 18.574 16.145 19.976 14.744L22.829 11.891C24.391 10.329 24.391 7.79601 22.828 6.23401ZM20.297 9.36001C19.906 9.75001 19.273 9.75001 18.883 9.36001L14.64 5.11701C14.249 4.72601 14.249 4.09301 14.64 3.70301C15.031 3.31301 15.664 3.31301 16.054 3.70301L20.297 7.94601C20.688 8.33601 20.688 8.96901 20.297 9.36001Z"
    fill="currentColor"
  />
</svg>
