<svg
  width="24"
  height="24"
  viewBox="0 0 24 24"
  fill="none"
  xmlns="http://www.w3.org/2000/svg"
>
  <path
    d="M23.578 8.156L21.106 3.212C20.428 1.856 19.043 1 17.528 1H6.472C4.957 1 3.572 1.856 2.894 3.211L0.422 8.156C0.145 8.711 0 9.323 0 9.944V21C0 22.104 0.896 23 2 23C3.104 23 4 22.104 4 21V19H20V21C20 22.104 20.896 23 22 23C23.104 23 24 22.104 24 21V9.944C24 9.323 23.855 8.711 23.578 8.156ZM5.578 4.553C5.748 4.212 6.091 4 6.472 4H17.528C17.909 4 18.252 4.212 18.423 4.553L20.646 9H3.354L5.578 4.553ZM5 16C3.896 16 3 15.104 3 14C3 12.896 3.896 12 5 12C6.104 12 7 12.896 7 14C7 15.104 6.104 16 5 16ZM19 16C17.896 16 17 15.104 17 14C17 12.896 17.896 12 19 12C20.104 12 21 12.896 21 14C21 15.104 20.104 16 19 16Z"
    fill="currentColor"
  />
</svg>
