<svg
  width="24"
  height="24"
  viewBox="0 0 24 24"
  fill="none"
  xmlns="http://www.w3.org/2000/svg"
>
  <path
    d="M11.595 7.414L16.254 12L11.595 16.586C11.211 16.964 11 17.466 11 18C11 18.534 11.211 19.036 11.595 19.414C11.979 19.792 12.489 20 13.032 20C13.575 20 14.085 19.792 14.469 19.414L22 12L14.468 4.586C14.084 4.208 13.574 4 13.032 4C12.49 4 11.979 4.208 11.595 4.586C10.804 5.365 10.804 6.635 11.595 7.414ZM13 12L5.468 4.586C5.084 4.208 4.574 4 4.032 4C3.49 4 2.979 4.208 2.595 4.586C1.803 5.365 1.803 6.635 2.595 7.414L7.254 12L2.595 16.586C2.211 16.964 2 17.466 2 18C2 18.534 2.211 19.036 2.595 19.414C2.979 19.792 3.489 20 4.032 20C4.575 20 5.085 19.792 5.469 19.414L13 12Z"
    fill="currentColor"
  />
</svg>
