<svg
  width="24"
  height="24"
  viewBox="0 0 24 24"
  fill="none"
  xmlns="http://www.w3.org/2000/svg"
>
  <path
    fill-rule="evenodd"
    d="M12 0C5.373 0 0 5.373 0 12C0 18.627 5.373 24 12 24C18.627 24 24 18.627 24 12C24 5.373 18.627 0 12 0ZM17.793 10.04L12 17.57L6.207 10.04C5.871 9.602 5.951 8.974 6.391 8.637C6.828 8.301 7.456 8.383 7.793 8.82L12 14.29L16.207 8.82C16.544 8.382 17.172 8.3 17.609 8.637C17.866 8.834 18 9.131 18 9.43C18 9.643 17.933 9.858 17.793 10.04Z"
    fill="currentColor"
  />
</svg>
