<svg
  width="24"
  height="24"
  viewBox="0 0 24 24"
  fill="none"
  xmlns="http://www.w3.org/2000/svg"
>
  <path
    fill-rule="evenodd"
    d="M12 0C5.373 0 0 5.373 0 12C0 18.627 5.373 24 12 24C18.627 24 24 18.627 24 12C24 5.373 18.627 0 12 0ZM14.61 16.207C15.048 16.544 15.13 17.172 14.793 17.609C14.596 17.866 14.299 18 14 18C13.787 18 13.573 17.933 13.391 17.793L5.86 12L13.39 6.207C13.828 5.871 14.456 5.951 14.792 6.391C15.129 6.829 15.047 7.456 14.609 7.793L9.14 12L14.61 16.207Z"
    fill="currentColor"
  />
</svg>
