<svg
  width="24"
  height="24"
  viewBox="0 0 24 24"
  fill="none"
  xmlns="http://www.w3.org/2000/svg"
>
  <path
    fill-rule="evenodd"
    d="M12 0C5.373 0 0 5.373 0 12C0 18.627 5.373 24 12 24C18.627 24 24 18.627 24 12C24 5.373 18.627 0 12 0ZM10.61 17.793C10.172 18.129 9.544 18.049 9.208 17.609C8.871 17.171 8.953 16.544 9.391 16.207L14.86 12L9.39 7.793C8.952 7.456 8.87 6.828 9.207 6.391C9.404 6.134 9.701 6 10 6C10.213 6 10.427 6.067 10.609 6.207L18.14 12L10.61 17.793Z"
    fill="currentColor"
  />
</svg>
