<svg
  width="24"
  height="24"
  viewBox="0 0 24 24"
  fill="none"
  xmlns="http://www.w3.org/2000/svg"
>
  <path
    d="M12.405 16.586L7.746 12L12.405 7.414C12.789 7.036 13 6.534 13 6C13 5.466 12.789 4.964 12.405 4.586C12.021 4.208 11.511 4 10.968 4C10.425 4 9.916 4.208 9.532 4.586L2 12L9.532 19.414C9.916 19.792 10.426 20 10.968 20C11.51 20 12.021 19.792 12.405 19.414C13.196 18.635 13.196 17.365 12.405 16.586ZM11 12L18.532 19.414C18.916 19.792 19.426 20 19.968 20C20.511 20 21.021 19.792 21.405 19.414C22.197 18.635 22.197 17.365 21.405 16.586L16.746 12L21.405 7.414C21.789 7.036 22 6.534 22 6C22 5.466 21.789 4.964 21.405 4.586C21.021 4.208 20.511 4 19.968 4C19.425 4 18.915 4.208 18.531 4.586L11 12Z"
    fill="currentColor"
  />
</svg>
