<svg
  width="24"
  height="24"
  viewBox="0 0 24 24"
  fill="none"
  xmlns="http://www.w3.org/2000/svg"
>
  <path
    d="M7.414 12.405L12 7.746L16.586 12.405C16.964 12.789 17.466 13 18 13C18.534 13 19.036 12.789 19.414 12.405C19.792 12.021 20 11.511 20 10.968C20 10.425 19.792 9.915 19.414 9.531L12 2L4.586 9.532C4.208 9.916 4 10.426 4 10.968C4 11.51 4.208 12.021 4.586 12.405C5.365 13.196 6.635 13.196 7.414 12.405ZM12 11L4.586 18.532C4.208 18.916 4 19.426 4 19.968C4 20.511 4.208 21.021 4.586 21.405C5.365 22.197 6.635 22.197 7.414 21.405L12 16.746L16.586 21.405C16.964 21.789 17.466 22 18 22C18.534 22 19.036 21.789 19.414 21.405C19.792 21.021 20 20.511 20 19.968C20 19.425 19.792 18.915 19.414 18.531L12 11Z"
    fill="currentColor"
  />
</svg>
