<svg
  width="24"
  height="24"
  viewBox="0 0 24 24"
  fill="none"
  xmlns="http://www.w3.org/2000/svg"
>
  <path
    fill-rule="evenodd"
    d="M12 0C5.373 0 0 5.373 0 12C0 18.627 5.373 24 12 24C18.627 24 24 18.627 24 12C24 5.373 18.627 0 12 0ZM17.609 15.363C17.171 15.7 16.544 15.618 16.207 15.18L12 9.71L7.793 15.18C7.456 15.618 6.828 15.7 6.391 15.363C6.134 15.166 6 14.869 6 14.57C6 14.357 6.067 14.143 6.207 13.961L12 6.43L17.793 13.96C18.129 14.398 18.049 15.026 17.609 15.363Z"
    fill="currentColor"
  />
</svg>
