<svg
  width="24"
  height="24"
  viewBox="0 0 24 24"
  fill="none"
  xmlns="http://www.w3.org/2000/svg"
>
  <path
    d="M16.586 11.595L12 16.254L7.414 11.595C7.036 11.211 6.534 11 6 11C5.466 11 4.964 11.211 4.586 11.595C4.208 11.979 4 12.489 4 13.032C4 13.575 4.208 14.085 4.586 14.469L12 22L19.414 14.468C19.792 14.084 20 13.574 20 13.032C20 12.49 19.792 11.979 19.414 11.595C18.635 10.804 17.365 10.804 16.586 11.595ZM12 13L19.414 5.468C19.792 5.084 20 4.574 20 4.032C20 3.49 19.792 2.979 19.414 2.595C18.635 1.803 17.365 1.803 16.586 2.595L12 7.254L7.414 2.595C7.036 2.211 6.534 2 6 2C5.466 2 4.964 2.211 4.586 2.595C4.208 2.979 4 3.489 4 4.032C4 4.575 4.208 5.085 4.586 5.469L12 13Z"
    fill="currentColor"
  />
</svg>
