<svg
  width="24"
  height="24"
  viewBox="0 0 24 24"
  fill="none"
  xmlns="http://www.w3.org/2000/svg"
>
  <path
    fill-rule="evenodd"
    d="M10 18C8.343 18 7 19.343 7 21C7 22.657 8.343 24 10 24C11.657 24 13 22.657 13 21C13 19.343 11.657 18 10 18ZM18 18C16.343 18 15 19.343 15 21C15 22.657 16.343 24 18 24C19.657 24 21 22.657 21 21C21 19.343 19.657 18 18 18ZM5.134 4L3.705 0H1C0.447 0 0 0.448 0 1C0 1.552 0.447 2 1 2H2.295L6.585 14.009C7.01 15.2 8.145 16 9.409 16H18.741C20.076 16 21.231 15.141 21.629 13.81L24 4H5.134ZM17 11H15V13C15 13.55 14.55 14 14 14C13.45 14 13 13.55 13 13V11H11C10.45 11 10 10.55 10 10C10 9.45 10.45 9 11 9H13V7C13 6.45 13.45 6 14 6C14.55 6 15 6.45 15 7V9H17C17.55 9 18 9.45 18 10C18 10.55 17.55 11 17 11Z"
    fill="currentColor"
  />
</svg>
