<svg
  width="24"
  height="24"
  viewBox="0 0 24 24"
  fill="none"
  xmlns="http://www.w3.org/2000/svg"
>
  <path
    fill-rule="evenodd"
    d="M18 18C16.343 18 15 19.343 15 21C15 22.657 16.343 24 18 24C19.657 24 21 22.657 21 21C21 19.343 19.657 18 18 18ZM10 18C8.343 18 7 19.343 7 21C7 22.657 8.343 24 10 24C11.657 24 13 22.657 13 21C13 19.343 11.657 18 10 18ZM5.134 4L3.705 0H1C0.447 0 0 0.448 0 1C0 1.552 0.447 2 1 2H2.295L6.585 14.009C7.01 15.2 8.145 16 9.409 16H18.741C20.076 16 21.231 15.141 21.629 13.81L24 4H5.134Z"
    fill="currentColor"
  />
</svg>
