<svg
  width="24"
  height="24"
  viewBox="0 0 24 24"
  fill="none"
  xmlns="http://www.w3.org/2000/svg"
>
  <path
    fill-rule="evenodd"
    d="M15 0H9C4.029 0 0 4.029 0 9C0 13.282 2.993 16.859 7 17.769V24L14 18H15C19.971 18 24 13.971 24 9C24 4.029 19.971 0 15 0ZM11 4C11 3.448 11.448 3 12 3C12.552 3 13 3.448 13 4V9C13 9.552 12.552 10 12 10C11.448 10 11 9.552 11 9V4ZM12 15C11.172 15 10.5 14.328 10.5 13.5C10.5 12.672 11.172 12 12 12C12.828 12 13.5 12.672 13.5 13.5C13.5 14.328 12.828 15 12 15Z"
    fill="currentColor"
  />
</svg>
