<svg width="24" height="24" viewBox="0 0 24 24" fill="none" xmlns="http://www.w3.org/2000/svg">
    <path
        d="M12 24C5.37256 24 0 18.6274 0 12C2.47955e-05 5.3726 5.37258 0 12 0C18.6274 4.3869e-05 24 5.37264 24 12C24 18.6274 18.6274 24 12 24ZM13.333 16.667H14C17.3139 16.667 19.9998 13.9808 20 10.667C20 7.35299 17.314 4.66699 14 4.66699H10C6.686 4.66699 4 7.35299 4 10.667C4.00015 13.5215 5.99576 15.9061 8.66699 16.5127V20.667L13.333 16.667ZM15.667 11.667C15.1151 11.667 14.6672 11.2188 14.667 10.667C14.667 10.115 15.115 9.66699 15.667 9.66699C16.2188 9.66717 16.667 10.1151 16.667 10.667C16.6668 11.2187 16.2187 11.6668 15.667 11.667ZM12 11.667C11.4481 11.667 11.0002 11.2188 11 10.667C11 10.115 11.448 9.66699 12 9.66699C12.552 9.66699 13 10.115 13 10.667C12.9998 11.2188 12.5519 11.667 12 11.667ZM8.33301 11.667C7.78127 11.6668 7.33318 11.2187 7.33301 10.667C7.33301 10.1151 7.78116 9.66717 8.33301 9.66699C8.88501 9.66699 9.33301 10.115 9.33301 10.667C9.33283 11.2188 8.8849 11.667 8.33301 11.667Z"
        fill='currentColor' />
</svg>