<svg
  width="24"
  height="24"
  viewBox="0 0 24 24"
  fill="none"
  xmlns="http://www.w3.org/2000/svg"
>
  <path
    fill-rule="evenodd"
    d="M22 0H2C0.896 0 0 0.896 0 2V17C0 18.104 0.896 19 2 19H8L12 24L16 19H22C23.104 19 24 18.104 24 17V2C24 0.896 23.104 0 22 0ZM11 5C11 4.448 11.448 4 12 4C12.552 4 13 4.448 13 5V10C13 10.552 12.552 11 12 11C11.448 11 11 10.552 11 10V5ZM12 16C11.172 16 10.5 15.328 10.5 14.5C10.5 13.672 11.172 13 12 13C12.828 13 13.5 13.672 13.5 14.5C13.5 15.328 12.828 16 12 16Z"
    fill="currentColor"
  />
</svg>
