<svg
  width="24"
  height="24"
  viewBox="0 0 24 24"
  fill="none"
  xmlns="http://www.w3.org/2000/svg"
>
  <path
    fill-rule="evenodd"
    d="M22 0H2C0.896 0 0 0.896 0 2V17C0 18.104 0.896 19 2 19H8L12 24L16 19H22C23.104 19 24 18.104 24 17V2C24 0.896 23.104 0 22 0ZM6.5 10.5C5.672 10.5 5 9.828 5 9C5 8.172 5.672 7.5 6.5 7.5C7.328 7.5 8 8.172 8 9C8 9.828 7.328 10.5 6.5 10.5ZM12 10.5C11.172 10.5 10.5 9.828 10.5 9C10.5 8.172 11.172 7.5 12 7.5C12.828 7.5 13.5 8.172 13.5 9C13.5 9.828 12.828 10.5 12 10.5ZM17.5 10.5C16.672 10.5 16 9.828 16 9C16 8.172 16.672 7.5 17.5 7.5C18.328 7.5 19 8.172 19 9C19 9.828 18.328 10.5 17.5 10.5Z"
    fill="currentColor"
  />
</svg>
