<svg
  width="24"
  height="24"
  viewBox="0 0 24 24"
  fill="none"
  xmlns="http://www.w3.org/2000/svg"
>
  <path
    fill-rule="evenodd"
    d="M20.485 3.51499C15.799 -1.17101 8.20101 -1.17101 3.51401 3.51499C-1.17199 8.20199 -1.17199 15.799 3.51401 20.486C8.20001 25.172 15.798 25.172 20.485 20.486C25.172 15.8 25.172 8.20099 20.485 3.51499ZM17.759 8.65099L11.149 16.362L6.40001 12.8C5.95801 12.469 5.86901 11.842 6.20001 11.4C6.53101 10.959 7.15701 10.868 7.60001 11.2L10.85 13.638L16.24 7.34899C16.6 6.93099 17.232 6.88199 17.65 7.24099C18.07 7.59999 18.119 8.23199 17.759 8.65099Z"
    fill="currentColor"
  />
</svg>
