<svg
  width="24"
  height="24"
  viewBox="0 0 24 24"
  fill="none"
  xmlns="http://www.w3.org/2000/svg"
>
  <path
    d="M16.241 7.349L10.851 13.638L7.6 11.2C7.157 10.868 6.531 10.959 6.2 11.4C5.868 11.842 5.958 12.469 6.4 12.8L11.15 16.362L17.76 8.651C18.119 8.232 18.071 7.6 17.652 7.241C17.233 6.882 16.601 6.931 16.241 7.349ZM19 1H5C2.791 1 1 2.791 1 5V19C1 21.209 2.791 23 5 23H19C21.209 23 23 21.209 23 19V5C23 2.791 21.209 1 19 1ZM20 18C20 19.104 19.105 20 18 20H6C4.895 20 4 19.104 4 18V6C4 4.896 4.895 4 6 4H18C19.105 4 20 4.896 20 6V18Z"
    fill="currentColor"
  />
</svg>
