<svg
  width="24"
  height="24"
  viewBox="0 0 24 24"
  fill="none"
  xmlns="http://www.w3.org/2000/svg"
>
  <path
    fill-rule="evenodd"
    clip-rule="evenodd"
    d="M7.87359 3.48032C8.66015 1.95915 10.2558 1 12 1C13.7441 1 15.3399 1.95915 16.1264 3.48032L23.6134 17.9598C24.808 20.2703 23.0896 23 20.4405 23H3.55952C0.910354 23 -0.808041 20.2703 0.386645 17.9598L7.87359 3.48032ZM14 14C14 15.1046 13.1046 16 12 16C10.8954 16 10 15.1046 10 14C10 12.8954 10.8954 12 12 12C13.1046 12 14 12.8954 14 14ZM16 14C16 16.2091 14.2091 18 12 18C9.79086 18 8 16.2091 8 14C8 11.7909 9.79086 10 12 10C14.2091 10 16 11.7909 16 14Z"
    fill="currentColor"
  />
</svg>
