<svg
  width="24"
  height="24"
  viewBox="0 0 24 24"
  fill="none"
  xmlns="http://www.w3.org/2000/svg"
>
  <path
    d="M20 4H16C16 1.791 14.209 0 12 0C9.791 0 8 1.791 8 4H4C2.9 4 2 4.9 2 6V22C2 23.1 2.9 24 4 24H20C21.1 24 22 23.1 22 22V6C22 4.9 21.1 4 20 4ZM12 2C13.104 2 14 2.896 14 4C14 5.104 13.104 6 12 6C10.896 6 10 5.104 10 4C10 2.896 10.896 2 12 2ZM16 16H13V19C13 19.55 12.55 20 12 20C11.45 20 11 19.55 11 19V16H8C7.45 16 7 15.55 7 15C7 14.45 7.45 14 8 14H11V11C11 10.45 11.45 10 12 10C12.55 10 13 10.45 13 11V14H16C16.55 14 17 14.45 17 15C17 15.55 16.55 16 16 16Z"
    fill="currentColor"
  />
</svg>
