<svg
  width="24"
  height="24"
  viewBox="0 0 24 24"
  fill="none"
  xmlns="http://www.w3.org/2000/svg"
>
  <path
    d="M20 4H16C16 1.791 14.209 0 12 0C9.791 0 8 1.791 8 4H4C2.9 4 2 4.9 2 6V22C2 23.1 2.9 24 4 24H20C21.1 24 22 23.1 22 22V6C22 4.9 21.1 4 20 4ZM12 2C13.104 2 14 2.896 14 4C14 5.104 13.104 6 12 6C10.896 6 10 5.104 10 4C10 2.896 10.896 2 12 2ZM15.536 18.536C15.147 18.925 14.511 18.925 14.122 18.536L12 16.414L9.879 18.536C9.49 18.925 8.854 18.925 8.465 18.536C8.076 18.147 8.076 17.511 8.465 17.122L10.586 15L8.465 12.879C8.076 12.49 8.076 11.854 8.465 11.465C8.854 11.076 9.49 11.076 9.879 11.465L12 13.586L14.121 11.465C14.51 11.076 15.146 11.076 15.535 11.465C15.924 11.854 15.924 12.49 15.535 12.879L13.415 15L15.536 17.121C15.925 17.51 15.925 18.146 15.536 18.536Z"
    fill="currentColor"
  />
</svg>
