<svg
  width="24"
  height="24"
  viewBox="0 0 24 24"
  fill="none"
  xmlns="http://www.w3.org/2000/svg"
>
  <path
    d="M20 4H16C16 1.791 14.209 0 12 0C9.791 0 8 1.791 8 4H4C2.9 4 2 4.9 2 6V22C2 23.1 2.9 24 4 24H20C21.1 24 22 23.1 22 22V6C22 4.9 21.1 4 20 4ZM12 2C13.104 2 14 2.895 14 4C14 5.105 13.104 6 12 6C10.896 6 10 5.105 10 4C10 2.895 10.896 2 12 2ZM15.832 12.168L11.277 19L7.445 16.445C6.985 16.139 6.861 15.518 7.168 15.058C7.473 14.598 8.093 14.474 8.555 14.781L10.723 16.226L14.168 11.058C14.474 10.598 15.093 10.474 15.555 10.781C16.015 11.087 16.139 11.708 15.832 12.168Z"
    fill="currentColor"
  />
</svg>
