<svg
  width="24"
  height="24"
  viewBox="0 0 24 24"
  fill="none"
  xmlns="http://www.w3.org/2000/svg"
>
  <path
    d="M20 4H16C16 1.791 14.209 0 12 0C9.791 0 8 1.791 8 4H4C2.9 4 2 4.9 2 6V22C2 23.1 2.9 24 4 24H20C21.1 24 22 23.1 22 22V6C22 4.9 21.1 4 20 4ZM12 21C11.172 21 10.5 20.328 10.5 19.5C10.5 18.672 11.172 18 12 18C12.828 18 13.5 18.672 13.5 19.5C13.5 20.328 12.828 21 12 21ZM11 15V10C11 9.448 11.448 9 12 9C12.552 9 13 9.448 13 10V15C13 15.552 12.552 16 12 16C11.448 16 11 15.552 11 15ZM12 6C10.896 6 10 5.104 10 4C10 2.896 10.896 2 12 2C13.104 2 14 2.896 14 4C14 5.104 13.104 6 12 6Z"
    fill="currentColor"
  />
</svg>
