<svg
  width="24"
  height="24"
  viewBox="0 0 24 24"
  fill="none"
  xmlns="http://www.w3.org/2000/svg"
>
  <path
    d="M20 4H16C16 1.791 14.209 0 12 0C9.791 0 8 1.791 8 4H4C2.9 4 2 4.9 2 6V22C2 23.1 2.9 24 4 24H20C21.1 24 22 23.1 22 22V6C22 4.9 21.1 4 20 4ZM12 2C13.104 2 14 2.895 14 4C14 5.105 13.104 6 12 6C10.896 6 10 5.105 10 4C10 2.895 10.896 2 12 2ZM17 19H7C6.45 19 6 18.55 6 18C6 17.45 6.45 17 7 17H17C17.55 17 18 17.45 18 18C18 18.55 17.55 19 17 19ZM17 13H7C6.45 13 6 12.55 6 12C6 11.45 6.45 11 7 11H17C17.55 11 18 11.45 18 12C18 12.55 17.55 13 17 13Z"
    fill="currentColor"
  />
</svg>
