<svg
  width="24"
  height="24"
  viewBox="0 0 24 24"
  fill="none"
  xmlns="http://www.w3.org/2000/svg"
>
  <path
    d="M20 4H16C16 1.791 14.209 0 12 0C9.791 0 8 1.791 8 4H4C2.9 4 2 4.9 2 6V22C2 23.1 2.9 24 4 24H20C21.1 24 22 23.1 22 22V6C22 4.9 21.1 4 20 4ZM12 2C13.104 2 14 2.896 14 4C14 5.104 13.104 6 12 6C10.896 6 10 5.104 10 4C10 2.896 10.896 2 12 2ZM12 9C13.654 9 15 10.346 15 12C15 13.654 13.654 15 12 15C10.346 15 9 13.654 9 12C9 10.346 10.346 9 12 9ZM17 21H7V20.244C7 18.455 9.243 17 12 17C14.757 17 17 18.455 17 20.244V21Z"
    fill="currentColor"
  />
</svg>
