<svg
  width="24"
  height="24"
  viewBox="0 0 24 24"
  fill="none"
  xmlns="http://www.w3.org/2000/svg"
>
  <path
    d="M6 14H18C20.761 14 23 11.761 23 9C23 6.239 20.761 4 18 4H17.288C16.634 1.693 14.517 0 12 0C9.483 0 7.366 1.693 6.712 4H6C3.239 4 1 6.239 1 9C1 11.761 3.239 14 6 14ZM1.5 21.085C1.5 22.801 2.528 24 4 24C5.472 24 6.5 22.801 6.5 21.085C6.5 19.368 4 16 4 16C4 16 1.5 19.368 1.5 21.085ZM9.5 21.085C9.5 22.801 10.528 24 12 24C13.472 24 14.5 22.801 14.5 21.085C14.5 19.368 12 16 12 16C12 16 9.5 19.368 9.5 21.085ZM17.5 21.085C17.5 22.801 18.528 24 20 24C21.472 24 22.5 22.801 22.5 21.085C22.5 19.368 20 16 20 16C20 16 17.5 19.368 17.5 21.085Z"
    fill="currentColor"
  />
</svg>
