<svg
  width="24"
  height="24"
  viewBox="0 0 24 24"
  fill="none"
  xmlns="http://www.w3.org/2000/svg"
>
  <path
    fill-rule="evenodd"
    d="M13.903 15.041C13.455 12.739 11.433 11 9 11C6.567 11 4.545 12.739 4.097 15.041C1.803 15.248 0 17.153 0 19.5C0 21.985 2.015 24 4.5 24H13.5C15.985 24 18 21.985 18 19.5C18 17.153 16.197 15.248 13.903 15.041ZM23.353 13.333C19.303 13.333 16.02 10.05 16.02 6C16.02 3.561 17.215 1.406 19.047 0.073C18.709 0.03 18.368 0 18.019 0C13.601 0 10.019 3.582 10.019 8C10.019 8.371 10.053 8.733 10.102 9.091C12.502 9.475 14.539 11.088 15.464 13.322C16.916 13.775 18.118 14.721 18.925 15.947C20.939 15.718 22.722 14.739 23.999 13.3C23.786 13.319 23.571 13.333 23.353 13.333Z"
    fill="currentColor"
  />
</svg>
