<svg
  width="24"
  height="24"
  viewBox="0 0 24 24"
  fill="none"
  xmlns="http://www.w3.org/2000/svg"
>
  <path
    fill-rule="evenodd"
    d="M19.903 15.041C19.455 12.739 17.433 11 15 11C12.567 11 10.545 12.739 10.097 15.041C7.803 15.248 6 17.153 6 19.5C6 21.985 8.015 24 10.5 24H19.5C21.985 24 24 21.985 24 19.5C24 17.153 22.197 15.248 19.903 15.041ZM15 9C16.007 9 16.968 9.227 17.843 9.618C17.935 9.259 18 8.888 18 8.5C18 6.153 16.197 4.248 13.903 4.041C13.455 1.739 11.433 0 9 0C6.567 0 4.545 1.739 4.097 4.041C1.803 4.248 0 6.153 0 8.5C0 10.985 2.015 13 4.5 13H8.698C9.836 10.612 12.258 9 15 9Z"
    fill="currentColor"
  />
</svg>
