<svg
  width="24"
  height="24"
  viewBox="0 0 24 24"
  fill="none"
  xmlns="http://www.w3.org/2000/svg"
>
  <path
    d="M10.464 18C10.187 17.521 9.577 17.357 9.098 17.634L8 18.268V17C8 16.447 7.552 16 7 16C6.448 16 6 16.447 6 17V18.268L4.902 17.634C4.422 17.358 3.812 17.523 3.536 18C3.26 18.479 3.424 19.09 3.902 19.366L5 20L3.902 20.634C3.423 20.91 3.26 21.521 3.536 22C3.722 22.321 4.057 22.5 4.403 22.5C4.572 22.5 4.744 22.457 4.902 22.366L6 21.732V23C6 23.553 6.448 24 7 24C7.552 24 8 23.553 8 23V21.732L9.098 22.366C9.256 22.457 9.428 22.5 9.597 22.5C9.943 22.5 10.279 22.32 10.464 22C10.74 21.521 10.576 20.91 10.098 20.634L9 20L10.098 19.366C10.577 19.09 10.74 18.479 10.464 18ZM20.464 18C20.187 17.521 19.577 17.357 19.098 17.634L18 18.268V17C18 16.447 17.552 16 17 16C16.448 16 16 16.447 16 17V18.268L14.902 17.634C14.422 17.358 13.812 17.523 13.536 18C13.26 18.479 13.424 19.09 13.902 19.366L15 20L13.902 20.634C13.423 20.91 13.26 21.521 13.536 22C13.722 22.321 14.057 22.5 14.403 22.5C14.572 22.5 14.744 22.457 14.902 22.366L16 21.732V23C16 23.553 16.448 24 17 24C17.552 24 18 23.553 18 23V21.732L19.098 22.366C19.256 22.457 19.428 22.5 19.597 22.5C19.943 22.5 20.279 22.32 20.464 22C20.74 21.521 20.576 20.91 20.098 20.634L19 20L20.098 19.366C20.577 19.09 20.74 18.479 20.464 18ZM18 4H17.288C16.634 1.693 14.517 0 12 0C9.483 0 7.366 1.693 6.712 4H6C3.239 4 1 6.239 1 9C1 11.761 3.239 14 6 14H18C20.761 14 23 11.761 23 9C23 6.239 20.761 4 18 4Z"
    fill="currentColor"
  />
</svg>
