<svg
  width="24"
  height="24"
  viewBox="0 0 24 24"
  fill="none"
  xmlns="http://www.w3.org/2000/svg"
>
  <path
    fill-rule="evenodd"
    d="M12 0C5.373 0 0 5.373 0 12C0 18.627 5.373 24 12 24C18.627 24 24 18.627 24 12C24 5.373 18.627 0 12 0ZM15.447 9.895C14.954 10.143 14.352 9.941 14.106 9.447C13.957 9.15 13.623 9 13.111 9C12.499 9 12 9.499 12 10.111V11H13C13.552 11 14 11.448 14 12C14 12.552 13.552 13 13 13H12V14H14C14.552 14 15 14.448 15 15C15 15.552 14.552 16 14 16H9C8.448 16 8 15.552 8 15C8 14.448 8.448 14 9 14H10V13H9C8.448 13 8 12.552 8 12C8 11.448 8.448 11 9 11H10V10.111C10 8.396 11.396 7 13.111 7C14.386 7 15.401 7.566 15.894 8.553C16.142 9.047 15.941 9.647 15.447 9.895Z"
    fill="currentColor"
  />
</svg>
