<svg
  width="24"
  height="24"
  viewBox="0 0 24 24"
  fill="none"
  xmlns="http://www.w3.org/2000/svg"
>
  <path
    d="M0 19.003C0 20.106 0.894 21 1.997 21H22.003C23.106 21 24 20.106 24 19.003V11H0V19.003ZM9.5 14.5C10.328 14.5 11 15.171 11 16C11 16.829 10.328 17.5 9.5 17.5C8.672 17.5 8 16.829 8 16C8 15.171 8.672 14.5 9.5 14.5ZM4.5 14.5C5.328 14.5 6 15.171 6 16C6 16.829 5.328 17.5 4.5 17.5C3.672 17.5 3 16.829 3 16C3 15.171 3.672 14.5 4.5 14.5ZM21.999 3H2.001C0.896 3 0 3.896 0 5.001V7H24V5.001C24 3.896 23.104 3 21.999 3Z"
    fill="currentColor"
  />
</svg>
