<svg
  width="24"
  height="24"
  viewBox="0 0 24 24"
  fill="none"
  xmlns="http://www.w3.org/2000/svg"
>
  <path
    d="M22 24L17 17H7L2 24H8V23C8 20.791 9.791 19 12 19C14.209 19 16 20.791 16 23V24H22ZM8 15H16C16.55 15 17 14.55 17 14C17 13.45 16.55 13 16 13H15.556L14.422 7.898C14.761 7.738 15 7.398 15 7C15 6.45 14.55 6 14 6H13V1C13 0.45 12.55 0 12 0C11.45 0 11 0.45 11 1V6H10C9.45 6 9 6.45 9 7C9 7.398 9.239 7.738 9.578 7.898L8.444 13H8C7.45 13 7 13.45 7 14C7 14.55 7.45 15 8 15ZM11.604 8H12.395L13.506 13H10.492L11.604 8Z"
    fill="currentColor"
  />
</svg>
