<svg
  width="24"
  height="24"
  viewBox="0 0 24 24"
  fill="none"
  xmlns="http://www.w3.org/2000/svg"
>
  <path
    fill-rule="evenodd"
    d="M23.252 9.015L12.026 0L0.751 9.015C0.276 9.394 0 9.969 0 10.577V22.5C0 23.328 0.672 24 1.5 24H22.5C23.328 24 24 23.328 24 22.5V10.574C24 9.968 23.725 9.394 23.252 9.015ZM21.75 11.258C21.75 11.661 21.542 12.035 21.201 12.249L12.794 17.502C12.551 17.654 12.275 17.73 12 17.73C11.725 17.73 11.446 17.654 11.203 17.502L2.799 12.25C2.457 12.036 2.25 11.662 2.25 11.259C2.25 10.904 2.411 10.568 2.689 10.346L12.023 2.883L21.313 10.343C21.589 10.565 21.75 10.9 21.75 11.254V11.258Z"
    fill="currentColor"
  />
</svg>
