<svg
  width="24"
  height="24"
  viewBox="0 0 24 24"
  fill="none"
  xmlns="http://www.w3.org/2000/svg"
>
  <path
    fill-rule="evenodd"
    d="M19.4108 17.997C22.2018 15.729 23.9998 12.866 23.9998 12C23.9998 10.5 18.6268 3.00001 11.9998 3.00001C9.90776 3.00001 7.94476 3.75001 6.23476 4.82101L1.70676 0.293006C1.31576 -0.0979941 0.683762 -0.0979941 0.292762 0.293006C-0.0982383 0.684006 -0.0982383 1.31601 0.292762 1.70701L22.2928 23.707C22.4878 23.902 22.7438 24 22.9998 24C23.2558 24 23.5118 23.902 23.7068 23.707C24.0978 23.316 24.0978 22.684 23.7068 22.293L19.4108 17.997ZM15.4398 14.025L9.97476 8.56101C10.5668 8.20601 11.2578 8.00001 11.9998 8.00001C14.2088 8.00001 15.9998 9.79101 15.9998 12C15.9998 12.742 15.7938 13.433 15.4398 14.025ZM9.00276 14.624L2.43676 8.05801C0.913762 9.76 -0.000238292 11.385 -0.000238292 12C-0.000238292 13.5 5.37276 21 11.9998 21C13.0008 21 13.9668 20.813 14.8968 20.518L9.37576 14.997C9.24276 14.88 9.11876 14.757 9.00276 14.624Z"
    fill="currentColor"
  />
</svg>
