<svg
  width="24"
  height="24"
  viewBox="0 0 24 24"
  fill="none"
  xmlns="http://www.w3.org/2000/svg"
>
  <path
    d="M16 0V6H22L16 0ZM7 13.75H5.75V16.25H7C7.138 16.25 7.25 16.138 7.25 16V14C7.25 13.862 7.138 13.75 7 13.75ZM11.75 13.75V18.25H13C13.138 18.25 13.25 18.138 13.25 18V14C13.25 13.862 13.138 13.75 13 13.75H11.75ZM14 0H4C2.896 0 2 0.896 2 2V22C2 23.104 2.896 24 4 24H20C21.104 24 22 23.104 22 22V8H14V0ZM8.75 16C8.75 16.965 7.965 17.75 7 17.75H5.75V19C5.75 19.414 5.414 19.75 5 19.75C4.586 19.75 4.25 19.414 4.25 19V12.25H7C7.965 12.25 8.75 13.035 8.75 14V16ZM16.25 12.25H19C19.414 12.25 19.75 12.586 19.75 13C19.75 13.414 19.414 13.75 19 13.75H17.75V15.301C17.829 15.273 17.911 15.25 18 15.25H19C19.414 15.25 19.75 15.586 19.75 16C19.75 16.414 19.414 16.75 19 16.75H18C17.911 16.75 17.829 16.728 17.75 16.699V19C17.75 19.414 17.414 19.75 17 19.75C16.586 19.75 16.25 19.414 16.25 19V12.25ZM14.75 14V18C14.75 18.965 13.965 19.75 13 19.75H10.25V12.25H13C13.965 12.25 14.75 13.035 14.75 14Z"
    fill="currentColor"
  />
</svg>
