<svg
  width="24"
  height="24"
  viewBox="0 0 24 24"
  fill="none"
  xmlns="http://www.w3.org/2000/svg"
>
  <path
    d="M16 0V6H22L16 0ZM14 0H4C2.896 0 2 0.896 2 2V22C2 23.104 2.896 24 4 24H20C21.104 24 22 23.104 22 22V8H14V0ZM6.25 15.25C7.215 15.25 8 16.035 8 17V18C8 18.965 7.215 19.75 6.25 19.75H5.25C4.836 19.75 4.5 19.414 4.5 19C4.5 18.586 4.836 18.25 5.25 18.25H6.25C6.388 18.25 6.5 18.138 6.5 18V17C6.5 16.862 6.388 16.75 6.25 16.75C5.285 16.75 4.5 15.965 4.5 15V14C4.5 13.035 5.285 12.25 6.25 12.25H7.25C7.664 12.25 8 12.586 8 13C8 13.414 7.664 13.75 7.25 13.75H6.25C6.112 13.75 6 13.862 6 14V15C6 15.138 6.112 15.25 6.25 15.25ZM15 14C15 13.035 15.785 12.25 16.75 12.25H17.75C18.164 12.25 18.5 12.586 18.5 13C18.5 13.414 18.164 13.75 17.75 13.75H16.75C16.612 13.75 16.5 13.862 16.5 14V18C16.5 18.138 16.612 18.25 16.75 18.25H17.75C17.888 18.25 18 18.138 18 18V17C18 16.586 18.336 16.25 18.75 16.25C19.164 16.25 19.5 16.586 19.5 17V18C19.5 18.965 18.715 19.75 17.75 19.75H16.75C15.785 19.75 15 18.965 15 18V14ZM14.462 13.237L12.462 19.237C12.359 19.543 12.073 19.75 11.75 19.75C11.427 19.75 11.141 19.543 11.038 19.237L9.038 13.237C8.907 12.843 9.12 12.42 9.513 12.288C9.908 12.16 10.33 12.369 10.462 12.763L11.75 16.628L13.038 12.763C13.169 12.37 13.589 12.16 13.987 12.288C14.38 12.42 14.593 12.844 14.462 13.237Z"
    fill="currentColor"
  />
</svg>
