<svg
  width="24"
  height="24"
  viewBox="0 0 24 24"
  fill="none"
  xmlns="http://www.w3.org/2000/svg"
>
  <path
    d="M16 0V6H22L16 0ZM7 13.75H5.75V16.25H7C7.138 16.25 7.25 16.138 7.25 16V14C7.25 13.862 7.138 13.75 7 13.75ZM14 0H4C2.896 0 2 0.896 2 2V22C2 23.104 2.896 24 4 24H20C21.104 24 22 23.104 22 22V8H14V0ZM8.75 16C8.75 16.965 7.965 17.75 7 17.75H5.75V19C5.75 19.414 5.414 19.75 5 19.75C4.586 19.75 4.25 19.414 4.25 19V12.25H7C7.965 12.25 8.75 13.035 8.75 14V16ZM16.25 14C16.25 13.035 17.035 12.25 18 12.25H19C19.414 12.25 19.75 12.586 19.75 13C19.75 13.414 19.414 13.75 19 13.75H18C17.862 13.75 17.75 13.862 17.75 14V18C17.75 18.138 17.862 18.25 18 18.25H19C19.138 18.25 19.25 18.138 19.25 18V17C19.25 16.586 19.586 16.25 20 16.25C20.414 16.25 20.75 16.586 20.75 17V18C20.75 18.965 19.965 19.75 19 19.75H18C17.035 19.75 16.25 18.965 16.25 18V14ZM14.75 13V19C14.75 19.348 14.511 19.65 14.172 19.73C14.115 19.744 14.057 19.75 14 19.75C13.721 19.75 13.458 19.594 13.329 19.335L11.75 16.177V19C11.75 19.414 11.414 19.75 11 19.75C10.586 19.75 10.25 19.414 10.25 19V13C10.25 12.652 10.489 12.35 10.828 12.27C11.164 12.189 11.516 12.354 11.671 12.665L13.25 15.823V13C13.25 12.586 13.586 12.25 14 12.25C14.414 12.25 14.75 12.586 14.75 13Z"
    fill="currentColor"
  />
</svg>
