<svg
  width="24"
  height="24"
  viewBox="0 0 24 24"
  fill="none"
  xmlns="http://www.w3.org/2000/svg"
>
  <path
    d="M22 5H11L9 2H2C0.896 2 0 2.896 0 4V20C0 21.104 0.896 22 2 22H22C23.104 22 24 21.104 24 20V7C24 5.896 23.104 5 22 5ZM15.536 17.536C15.147 17.925 14.511 17.925 14.122 17.536L12 15.414L9.879 17.536C9.49 17.925 8.854 17.925 8.465 17.536C8.076 17.147 8.076 16.511 8.465 16.122L10.586 14L8.465 11.879C8.076 11.49 8.076 10.854 8.465 10.465C8.854 10.076 9.49 10.076 9.879 10.465L12 12.586L14.121 10.465C14.51 10.076 15.146 10.076 15.535 10.465C15.924 10.854 15.924 11.49 15.535 11.879L13.414 14L15.535 16.121C15.925 16.51 15.925 17.146 15.536 17.536Z"
    fill="currentColor"
  />
</svg>
