<svg
  width="24"
  height="24"
  viewBox="0 0 24 24"
  fill="none"
  xmlns="http://www.w3.org/2000/svg"
>
  <path
    d="M22 5H11L9 2H2C0.896 2 0 2.896 0 4V20C0 21.104 0.896 22 2 22H22C23.104 22 24 21.104 24 20V7C24 5.896 23.104 5 22 5ZM15.832 11.168L11.277 18L7.445 15.445C6.985 15.139 6.861 14.518 7.168 14.058C7.473 13.598 8.093 13.474 8.555 13.781L10.723 15.226L14.168 10.058C14.474 9.598 15.093 9.474 15.555 9.781C16.015 10.087 16.139 10.708 15.832 11.168Z"
    fill="currentColor"
  />
</svg>
