<svg
  width="24"
  height="24"
  viewBox="0 0 24 24"
  fill="none"
  xmlns="http://www.w3.org/2000/svg"
>
  <path
    fill-rule="evenodd"
    d="M3.27804 3.768L1.29904 1.789C0.638039 1.129 1.10604 0 2.04104 0H9.99604V7.952C9.99604 8.886 8.86604 9.353 8.20604 8.693L6.10804 6.597C3.22604 9.733 3.29604 14.623 6.33604 17.662C9.45804 20.781 14.537 20.782 17.658 17.662C20.779 14.542 20.779 9.465 17.658 6.345C16.876 5.564 16.876 4.297 17.658 3.516C18.44 2.735 19.707 2.735 20.488 3.516C25.17 8.196 25.17 15.811 20.488 20.491C18.148 22.83 15.072 24 11.997 24C8.92204 24 5.84704 22.83 3.50604 20.49C-1.09496 15.892 -1.16396 8.465 3.27804 3.768Z"
    fill="currentColor"
  />
</svg>
