<svg
  width="24"
  height="24"
  viewBox="0 0 24 24"
  fill="none"
  xmlns="http://www.w3.org/2000/svg"
>
  <path
    d="M20.754 6C20.904 5.592 21 5.162 21 4.719C21 2.528 18.85 1 16.92 1C14.988 1 13.257 2.504 12 4.027C10.744 2.504 9.013 1 7.081 1C5.151 1 3 2.528 3 4.719C3 5.162 3.096 5.592 3.247 6H0V10H24V6H20.754ZM5.57 6C5.215 5.678 5 5.214 5 4.719C5 3.767 6.138 3 7.081 3C8.677 3 10.447 5.241 11 6H5.57ZM18.43 6H13C13.554 5.241 15.324 3 16.919 3C17.862 3 19 3.767 19 4.719C19 5.214 18.786 5.678 18.43 6ZM1 21C1 22.104 1.896 23 3 23H10V12H1V21ZM14 23H21C22.104 23 23 22.104 23 21V12H14V23Z"
    fill="currentColor"
  />
</svg>
