<svg
  width="24"
  height="24"
  viewBox="0 0 24 24"
  fill="none"
  xmlns="http://www.w3.org/2000/svg"
>
  <path
    d="M12.038 7C9.41 7 7.272 8.327 7.076 10H17C16.804 8.327 14.667 7 12.038 7ZM12.038 6C13.692 6 15.038 4.654 15.038 3C15.038 1.346 13.692 0 12.038 0C10.384 0 9.038 1.346 9.038 3C9.038 4.654 10.384 6 12.038 6ZM15 15C15 16.654 16.346 18 18 18C19.654 18 21 16.654 21 15C21 13.346 19.654 12 18 12C16.346 12 15 13.346 15 15ZM6 18C7.654 18 9 16.654 9 15C9 13.346 7.654 12 6 12C4.346 12 3 13.346 3 15C3 16.654 4.346 18 6 18ZM18 19C15.243 19 13 20.455 13 22.244V24H23V22.244C23 20.455 20.757 19 18 19ZM6 19C3.243 19 1 20.455 1 22.244V24H11V22.244C11 20.455 8.757 19 6 19Z"
    fill="currentColor"
  />
</svg>
