<svg
  width="24"
  height="24"
  viewBox="0 0 24 24"
  fill="none"
  xmlns="http://www.w3.org/2000/svg"
>
  <path
    fill-rule="evenodd"
    clip-rule="evenodd"
    d="M0 12C0 5.383 5.383 0 12 0C18.617 0 24 5.383 24 12C24 18.617 18.617 24 12 24C5.383 24 0 18.617 0 12ZM12.6358 14.032V14.128H10.9078C10.8758 13.92 10.8438 13.712 10.8438 13.472C10.8438 12.624 11.1958 11.84 12.1078 11.152L12.8758 10.576C13.3558 10.224 13.5638 9.792 13.5638 9.312C13.5638 8.576 13.0358 7.872 11.9638 7.872C10.8278 7.872 10.3318 8.784 10.3318 9.68C10.3318 9.872 10.3478 10.048 10.3958 10.192L8.3798 10.112C8.3158 9.888 8.2998 9.632 8.2998 9.392C8.2998 7.664 9.59581 6 11.9638 6C14.4438 6 15.7398 7.568 15.7398 9.184C15.7398 10.448 15.0998 11.344 14.1558 12.016L13.4998 12.48C12.9398 12.88 12.6358 13.376 12.6358 14.032ZM13.0838 16.448C13.0838 17.152 12.5078 17.712 11.8038 17.712C11.0998 17.712 10.5398 17.152 10.5398 16.448C10.5398 15.744 11.0998 15.168 11.8038 15.168C12.5078 15.168 13.0838 15.744 13.0838 16.448Z"
    fill="currentColor"
  />
</svg>
