<svg
  width="24"
  height="24"
  viewBox="0 0 24 24"
  fill="none"
  xmlns="http://www.w3.org/2000/svg"
>
  <path
    d="M11.9996 8C11.4476 8 10.9996 8.448 10.9996 9V14H15.9996C16.5516 14 16.9996 13.552 16.9996 13C16.9996 12.448 16.5516 12 15.9996 12H12.9996V9C12.9996 8.448 12.5516 8 11.9996 8ZM13.2496 1C7.65159 1 3.04458 5.402 2.54958 11H1.02358C0.0895849 11 -0.354415 12.125 0.336585 12.74L3.99958 16L7.66358 12.74C8.35458 12.125 7.90958 11 6.97558 11H5.56658C6.04558 7.06 9.30459 4 13.2496 4C17.5226 4 20.9996 7.589 20.9996 12C20.9996 16.411 17.5226 20 13.2496 20C12.4216 20 11.7496 20.671 11.7496 21.5C11.7496 22.329 12.4216 23 13.2496 23C19.1776 23 23.9996 18.065 23.9996 12C23.9996 5.935 19.1776 1 13.2496 1Z"
    fill="currentColor"
  />
</svg>
