<svg
  width="24"
  height="24"
  viewBox="0 0 24 24"
  fill="none"
  xmlns="http://www.w3.org/2000/svg"
>
  <path
    fill-rule="evenodd"
    d="M23.6325 9.518L21.9995 8.181V2H17.9995V4.909L11.9995 0L0.366514 9.518C-0.0604858 9.869 -0.123486 10.498 0.225514 10.925C0.575514 11.354 1.20451 11.414 1.63251 11.067L1.99951 10.766V22C1.99951 23.104 2.89451 24 3.99951 24H19.9995C21.1045 24 21.9995 23.104 21.9995 22V10.766L22.3665 11.066C22.5525 11.217 22.7765 11.292 22.9995 11.292C23.2895 11.292 23.5765 11.167 23.7735 10.925C24.1235 10.498 24.0605 9.868 23.6325 9.518ZM14.9995 17H8.99951V11H14.9995V17Z"
    fill="currentColor"
  />
</svg>
