<svg
  width="24"
  height="24"
  viewBox="0 0 24 24"
  fill="none"
  xmlns="http://www.w3.org/2000/svg"
>
  <path
    fill-rule="evenodd"
    d="M20.4888 3.51101C15.8068 -1.17099 8.19177 -1.17099 3.50977 3.51101C-1.17123 8.19201 -1.17123 15.809 3.50977 20.489C5.85177 22.831 8.92477 24 11.9998 24C15.0748 24 18.1478 22.831 20.4888 20.49C25.1698 15.809 25.1698 8.19201 20.4888 3.51101ZM12.9998 18.006C12.9998 18.558 12.5518 19.006 11.9998 19.006C11.4478 19.006 10.9998 18.558 10.9998 18.006C10.9998 18.004 11.0008 18.002 11.0008 18C11.0008 17.998 10.9998 17.997 10.9998 17.995C10.9998 17.443 11.4478 16.995 11.9998 16.995C12.5518 16.995 12.9998 17.443 12.9998 17.995C12.9998 17.997 12.9988 17.999 12.9988 18.001C12.9988 18.003 12.9998 18.004 12.9998 18.006ZM16.9998 9.99501C16.9998 10.933 16.5518 11.83 15.8008 12.394L12.5998 14.794C12.4198 14.929 12.2098 14.994 12.0008 14.994C11.6958 14.994 11.3968 14.856 11.1998 14.594C10.8678 14.152 10.9578 13.525 11.3998 13.194L14.5998 10.794C14.8498 10.606 14.9988 10.307 14.9988 9.99401V8.99401C14.9988 8.44301 14.5508 7.99401 13.9988 7.99401H10.9988C10.4468 7.99401 9.99877 8.44301 9.99877 8.99401C9.99877 9.54601 9.55177 9.99401 8.99877 9.99401C8.44577 9.99401 7.99877 9.54601 7.99877 8.99401C7.99877 7.34001 9.34477 5.99401 10.9988 5.99401H13.9988C15.6528 5.99401 16.9988 7.34001 16.9988 8.99401L16.9998 9.99501Z"
    fill="currentColor"
  />
</svg>
