<svg
  width="24"
  height="24"
  viewBox="0 0 24 24"
  fill="none"
  xmlns="http://www.w3.org/2000/svg"
>
  <path
    d="M19 1H5C2.791 1 1 2.791 1 5V19C1 21.209 2.791 23 5 23H19C21.209 23 23 21.209 23 19V5C23 2.791 21.209 1 19 1ZM7.75 14C7.75 14.965 6.965 15.75 6 15.75H5C4.586 15.75 4.25 15.414 4.25 15C4.25 14.586 4.586 14.25 5 14.25H6C6.138 14.25 6.25 14.138 6.25 14V9C6.25 8.586 6.586 8.25 7 8.25C7.414 8.25 7.75 8.586 7.75 9V14ZM13.75 12C13.75 12.965 12.965 13.75 12 13.75H10.75V15C10.75 15.414 10.414 15.75 10 15.75C9.586 15.75 9.25 15.414 9.25 15V8.25H12C12.965 8.25 13.75 9.035 13.75 10V12ZM19.75 14C19.75 14.965 18.965 15.75 18 15.75H17C16.035 15.75 15.25 14.965 15.25 14V10C15.25 9.035 16.035 8.25 17 8.25H18C18.414 8.25 18.75 8.586 18.75 9C18.75 9.414 18.414 9.75 18 9.75H17C16.862 9.75 16.75 9.862 16.75 10V14C16.75 14.138 16.862 14.25 17 14.25H18C18.138 14.25 18.25 14.138 18.25 14V13C18.25 12.586 18.586 12.25 19 12.25C19.414 12.25 19.75 12.586 19.75 13V14ZM12 9.75H10.75V12.25H12C12.138 12.25 12.25 12.138 12.25 12V10C12.25 9.862 12.138 9.75 12 9.75Z"
    fill="currentColor"
  />
</svg>
