<svg
  width="24"
  height="24"
  viewBox="0 0 24 24"
  fill="none"
  xmlns="http://www.w3.org/2000/svg"
>
  <path
    d="M2 10C0.896 10 0 10.896 0 12C0 13.104 0.896 14 2 14C3.104 14 4 13.104 4 12C4 10.896 3.104 10 2 10ZM2 2C0.896 2 0 2.896 0 4C0 5.104 0.896 6 2 6C3.104 6 4 5.104 4 4C4 2.896 3.104 2 2 2ZM2 18C0.896 18 0 18.896 0 20C0 21.104 0.896 22 2 22C3.104 22 4 21.104 4 20C4 18.896 3.104 18 2 18ZM10 6H22C23.104 6 24 5.105 24 4C24 2.895 23.104 2 22 2H10C8.896 2 8 2.895 8 4C8 5.105 8.896 6 10 6ZM22 10H10C8.896 10 8 10.895 8 12C8 13.105 8.896 14 10 14H22C23.104 14 24 13.105 24 12C24 10.895 23.104 10 22 10ZM22 18H10C8.896 18 8 18.895 8 20C8 21.105 8.896 22 10 22H22C23.104 22 24 21.105 24 20C24 18.895 23.104 18 22 18Z"
    fill="currentColor"
  />
</svg>
