<svg
  width="24"
  height="24"
  viewBox="0 0 24 24"
  fill="none"
  xmlns="http://www.w3.org/2000/svg"
>
  <path
    fill-rule="evenodd"
    d="M12 8C9.791 8 8 9.791 8 12C8 14.209 9.791 16 12 16C14.209 16 16 14.209 16 12C16 9.791 14.209 8 12 8ZM23 11H21.949C21.48 6.276 17.724 2.52 13 2.051V1C13 0.448 12.552 0 12 0C11.448 0 11 0.448 11 1V2.051C6.276 2.52 2.52 6.276 2.051 11H1C0.448 11 0 11.448 0 12C0 12.552 0.448 13 1 13H2.051C2.52 17.724 6.276 21.48 11 21.949V23C11 23.552 11.448 24 12 24C12.552 24 13 23.552 13 23V21.949C17.724 21.48 21.48 17.724 21.949 13H23C23.552 13 24 12.552 24 12C24 11.448 23.552 11 23 11ZM12 19C8.14 19 5 15.86 5 12C5 8.14 8.14 5 12 5C15.86 5 19 8.14 19 12C19 15.86 15.86 19 12 19Z"
    fill="currentColor"
  />
</svg>
