<svg
  width="24"
  height="24"
  viewBox="0 0 24 24"
  fill="none"
  xmlns="http://www.w3.org/2000/svg"
>
  <path
    fill-rule="evenodd"
    d="M20.4845 3.51499C15.7985 -1.17101 8.20052 -1.17101 3.51352 3.51499C-1.17248 8.20199 -1.17248 15.799 3.51352 20.486C8.19952 25.173 15.7975 25.172 20.4845 20.486C25.1715 15.799 25.1715 8.20099 20.4845 3.51499ZM16.9995 13H6.99952C6.72352 13 6.47352 12.888 6.29252 12.707C6.11152 12.526 5.99952 12.276 5.99952 12C5.99952 11.448 6.44752 11 6.99952 11H16.9995C17.5515 11 17.9995 11.448 17.9995 12C17.9995 12.553 17.5525 13 16.9995 13Z"
    fill="currentColor"
  />
</svg>
