<svg
  width="24"
  height="24"
  viewBox="0 0 24 24"
  fill="none"
  xmlns="http://www.w3.org/2000/svg"
>
  <path
    d="M18 9.48V6C18 2.691 15.309 0 12 0C8.691 0 6 2.691 6 6V9.48C4.456 11.019 3.5 13.147 3.5 15.5C3.5 20.194 7.306 24 12 24C16.694 24 20.5 20.194 20.5 15.5C20.5 13.147 19.544 11.019 18 9.48ZM12 17.5C10.896 17.5 10 16.604 10 15.5C10 14.396 10.896 13.5 12 13.5C13.104 13.5 14 14.396 14 15.5C14 16.604 13.104 17.5 12 17.5ZM16 8.001C14.808 7.364 13.447 7 12 7C10.553 7 9.192 7.364 8 8.001V6C8 3.794 9.794 2 12 2C14.206 2 16 3.794 16 6V8.001Z"
    fill="currentColor"
  />
</svg>
