<svg
  width="24"
  height="24"
  viewBox="0 0 24 24"
  fill="none"
  xmlns="http://www.w3.org/2000/svg"
>
  <path
    d="M20 8H8V6C8 3.794 9.794 2 12 2C13.269 2 14.435 2.583 15.198 3.598C15.531 4.039 16.157 4.129 16.598 3.796C17.039 3.464 17.128 2.837 16.796 2.396C15.651 0.873 13.903 0 12 0C8.691 0 6 2.691 6 6V8H4C2.896 8 2 8.896 2 10V22C2 23.104 2.896 24 4 24H20C21.104 24 22 23.104 22 22V10C22 8.896 21.104 8 20 8ZM12 19C10.343 19 9 17.657 9 16C9 14.343 10.343 13 12 13C13.657 13 15 14.343 15 16C15 17.657 13.657 19 12 19Z"
    fill="currentColor"
  />
</svg>
