<svg
  width="24"
  height="24"
  viewBox="0 0 24 24"
  fill="none"
  xmlns="http://www.w3.org/2000/svg"
>
  <path
    d="M19 1H5C2.791 1 1 2.791 1 5V19C1 21.209 2.791 23 5 23H19C21.209 23 23 21.209 23 19V5C23 2.791 21.209 1 19 1ZM8.75 12C8.75 12.965 7.965 13.75 7 13.75H5.75V15C5.75 15.414 5.414 15.75 5 15.75C4.586 15.75 4.25 15.414 4.25 15V8.25H7C7.965 8.25 8.75 9.035 8.75 10V12ZM14.75 15C14.75 15.348 14.511 15.65 14.172 15.73C14.115 15.744 14.057 15.75 14 15.75C13.721 15.75 13.458 15.594 13.329 15.335L11.75 12.177V15C11.75 15.414 11.414 15.75 11 15.75C10.586 15.75 10.25 15.414 10.25 15V9C10.25 8.652 10.489 8.35 10.828 8.27C11.164 8.189 11.516 8.354 11.671 8.665L13.25 11.823V9C13.25 8.586 13.586 8.25 14 8.25C14.414 8.25 14.75 8.586 14.75 9V15ZM20.75 14C20.75 14.965 19.965 15.75 19 15.75H18C17.035 15.75 16.25 14.965 16.25 14V10C16.25 9.035 17.035 8.25 18 8.25H19C19.414 8.25 19.75 8.586 19.75 9C19.75 9.414 19.414 9.75 19 9.75H18C17.862 9.75 17.75 9.862 17.75 10V14C17.75 14.138 17.862 14.25 18 14.25H19C19.138 14.25 19.25 14.138 19.25 14V13C19.25 12.586 19.586 12.25 20 12.25C20.414 12.25 20.75 12.586 20.75 13V14ZM7 9.75H5.75V12.25H7C7.138 12.25 7.25 12.138 7.25 12V10C7.25 9.862 7.138 9.75 7 9.75Z"
    fill="currentColor"
  />
</svg>
