<svg
  width="24"
  height="24"
  viewBox="0 0 24 24"
  fill="none"
  xmlns="http://www.w3.org/2000/svg"
>
  <path
    d="M18 18H12V14H15C15.552 14 16 13.552 16 13C16 12.448 15.552 12 15 12H12V8.5C12 7.122 13.122 6 14.5 6C15.335 6 16.112 6.415 16.579 7.11C17.194 8.027 18.437 8.272 19.354 7.655C20.271 7.039 20.515 5.797 19.899 4.88C18.688 3.077 16.67 2 14.5 2C10.916 2 8 4.916 8 8.5V12H5C4.448 12 4 12.448 4 13C4 13.552 4.448 14 5 14H8V18H6C4.896 18 4 18.896 4 20C4 21.104 4.896 22 6 22H18C19.104 22 20 21.104 20 20C20 18.896 19.104 18 18 18Z"
    fill="currentColor"
  />
</svg>
