<svg
  width="24"
  height="24"
  viewBox="0 0 24 24"
  fill="none"
  xmlns="http://www.w3.org/2000/svg"
>
  <path
    fill-rule="evenodd"
    d="M8.46548 8.464C6.51248 10.417 6.51248 13.582 8.46548 15.535C10.4185 17.488 13.5845 17.487 15.5365 15.535C17.4895 13.582 17.4895 10.416 15.5365 8.464C13.5835 6.512 10.4175 6.512 8.46548 8.464ZM20.4855 3.515C18.1425 1.171 15.0715 0 12.0005 0C8.92948 0 5.85848 1.171 3.51548 3.515C-1.17052 8.201 -1.17052 15.799 3.51548 20.486C5.85848 22.828 8.92948 24 12.0005 24C15.0725 24 18.1425 22.829 20.4855 20.485C25.1725 15.799 25.1725 8.201 20.4855 3.515ZM18.3645 18.364C16.6645 20.064 14.4045 21 12.0005 21C9.59648 21 7.33648 20.064 5.63648 18.364C2.12748 14.855 2.12748 9.145 5.63648 5.636C7.33648 3.936 9.59648 3 12.0005 3C14.4045 3 16.6645 3.936 18.3645 5.636C21.8735 9.145 21.8735 14.855 18.3645 18.364Z"
    fill="currentColor"
  />
</svg>
