<svg
  width="24"
  height="24"
  viewBox="0 0 24 24"
  fill="none"
  xmlns="http://www.w3.org/2000/svg"
>
  <path
    fill-rule="evenodd"
    d="M20.485 3.515C18.142 1.171 15.071 0 12 0C8.92899 0 5.85799 1.171 3.51499 3.515C-1.17101 8.201 -1.17101 15.799 3.51499 20.486C5.85799 22.828 8.92899 24 12 24C15.072 24 18.142 22.829 20.485 20.485C25.172 15.799 25.172 8.201 20.485 3.515ZM18.364 18.364C16.664 20.064 14.404 21 12 21C9.59599 21 7.33599 20.064 5.63599 18.364C2.12699 14.855 2.12699 9.145 5.63599 5.636C7.33599 3.936 9.59599 3 12 3C14.404 3 16.664 3.936 18.364 5.636C21.873 9.145 21.873 14.855 18.364 18.364Z"
    fill="currentColor"
  />
</svg>
