<svg
  width="24"
  height="24"
  viewBox="0 0 24 24"
  fill="none"
  xmlns="http://www.w3.org/2000/svg"
>
  <path
    fill-rule="evenodd"
    d="M1.309 1.789L3.414 3.894C1.259 6.109 0 9.094 0 12.225C0 17.143 2.991 21.368 7.248 23.195C8.548 23.753 10 22.807 10 21.392V21.32C10 20.513 9.493 19.819 8.754 19.493C5.958 18.261 4 15.471 4 12.225C4 10.159 4.825 8.188 6.238 6.718L8.211 8.691C8.871 9.351 10 8.884 10 7.95V0H2.05C1.116 0 0.649 1.129 1.309 1.789ZM20.585 20.105C22.74 17.891 24 14.905 24 11.774C24 6.856 21.009 2.631 16.752 0.804C15.452 0.247 14 1.193 14 2.608V2.68C14 3.487 14.507 4.181 15.246 4.507C18.042 5.739 20 8.529 20 11.775C20 13.841 19.175 15.811 17.762 17.282L15.789 15.309C15.129 14.649 14 15.116 14 16.05V24H21.95C22.884 24 23.351 22.871 22.691 22.211L20.585 20.105Z"
    fill="currentColor"
  />
</svg>
