<svg
  width="24"
  height="24"
  viewBox="0 0 24 24"
  fill="none"
  xmlns="http://www.w3.org/2000/svg"
>
  <path
    d="M22.414 19.586L17.613 14.785C18.487 13.398 19 11.761 19 10C19 5.029 14.971 1 10 1C5.029 1 1 5.03 1 10C1 14.971 5.029 19 10 19C11.761 19 13.398 18.487 14.785 17.613L19.586 22.414C19.976 22.805 20.488 23 21 23C21.512 23 22.024 22.805 22.414 22.414C23.195 21.633 23.195 20.367 22.414 19.586ZM10 15C7.243 15 5 12.757 5 10C5 7.243 7.243 5 10 5C12.757 5 15 7.243 15 10C15 12.757 12.757 15 10 15Z"
    fill="currentColor"
  />
</svg>
