<svg
  width="24"
  height="24"
  viewBox="0 0 24 24"
  fill="none"
  xmlns="http://www.w3.org/2000/svg"
>
  <path
    d="M18.554 10L12.832 1.41702C12.461 0.860018 11.539 0.860018 11.168 1.41702L5.446 10H0L4 23H20L24 10H18.554ZM5 14C4.448 14 4 13.552 4 13C4 12.448 4.448 12 5 12C5.552 12 6 12.448 6 13C6 13.552 5.552 14 5 14ZM7.85 10L12 3.77502L16.15 10H7.85ZM19 14C18.448 14 18 13.552 18 13C18 12.448 18.448 12 19 12C19.552 12 20 12.448 20 13C20 13.552 19.552 14 19 14Z"
    fill="currentColor"
  />
</svg>
