<svg
  width="24"
  height="24"
  viewBox="0 0 24 24"
  fill="none"
  xmlns="http://www.w3.org/2000/svg"
>
  <path
    d="M18.554 10L12.832 1.41702C12.461 0.860018 11.539 0.860018 11.168 1.41702L5.446 10H0L4 23H20L24 10H18.554ZM12 3.77502L16.15 10H7.85L12 3.77502ZM8 19C8 19.55 7.55 20 7 20C6.45 20 6 19.55 6 19V14C6 13.45 6.45 13 7 13C7.55 13 8 13.45 8 14V19ZM13 19C13 19.55 12.55 20 12 20C11.45 20 11 19.55 11 19V14C11 13.45 11.45 13 12 13C12.55 13 13 13.45 13 14V19ZM18 19C18 19.55 17.55 20 17 20C16.45 20 16 19.55 16 19V14C16 13.45 16.45 13 17 13C17.55 13 18 13.45 18 14V19Z"
    fill="currentColor"
  />
</svg>
