<svg
  width="24"
  height="24"
  viewBox="0 0 24 24"
  fill="none"
  xmlns="http://www.w3.org/2000/svg"
>
  <path
    fill-rule="evenodd"
    d="M24 8.29L20.567 5.776L19.055 2.291L15.273 1.927L12 0L8.727 1.927L4.946 2.291L3.433 5.776L0 8.29L1.411 12L0 15.71L3.433 18.224L4.945 21.709L8.727 22.073L9.736 22.667L12 24L14.264 22.667L15.273 22.073L19.055 21.709L20.568 18.225L24 15.71L22.589 12L24 8.29ZM11 7C11 6.448 11.448 6 12 6C12.552 6 13 6.448 13 7V12C13 12.552 12.552 13 12 13C11.448 13 11 12.552 11 12V7ZM12 18C11.172 18 10.5 17.328 10.5 16.5C10.5 15.672 11.172 15 12 15C12.828 15 13.5 15.672 13.5 16.5C13.5 17.328 12.828 18 12 18Z"
    fill="currentColor"
  />
</svg>
