<svg
  width="24"
  height="24"
  viewBox="0 0 24 24"
  fill="none"
  xmlns="http://www.w3.org/2000/svg"
>
  <path
    fill-rule="evenodd"
    d="M24 8.29L20.567 5.776L19.055 2.291L15.274 1.927L12 0L8.727 1.927L4.946 2.291L3.433 5.776L0 8.29L1.411 12L0 15.709L3.433 18.223L4.945 21.708L8.726 22.072L9.735 22.666L12 24L14.264 22.667L15.273 22.073L19.054 21.709L20.567 18.225L24 15.709L22.589 12L24 8.29ZM8.5 7C9.328 7 10 7.672 10 8.5C10 9.328 9.328 10 8.5 10C7.672 10 7 9.328 7 8.5C7 7.672 7.672 7 8.5 7ZM15.5 17C14.672 17 14 16.328 14 15.5C14 14.672 14.672 14 15.5 14C16.328 14 17 14.672 17 15.5C17 16.328 16.328 17 15.5 17ZM16.707 8.707L8.707 16.707C8.512 16.902 8.256 17 8 17C7.744 17 7.488 16.902 7.293 16.707C6.902 16.316 6.902 15.684 7.293 15.293L15.293 7.293C15.684 6.902 16.316 6.902 16.707 7.293C17.098 7.684 17.098 8.316 16.707 8.707Z"
    fill="currentColor"
  />
</svg>
