<svg
  width="24"
  height="24"
  viewBox="0 0 24 24"
  fill="none"
  xmlns="http://www.w3.org/2000/svg"
>
  <path
    fill-rule="evenodd"
    d="M24 8.29L20.567 5.776L19.055 2.291L15.274 1.927L12 0L8.727 1.927L4.946 2.291L3.433 5.776L0 8.29L1.411 12L0 15.709L3.433 18.223L4.945 21.708L8.726 22.072L9.735 22.666L12 24L14.264 22.667L15.273 22.073L19.054 21.709L20.567 18.225L24 15.709L22.589 12L24 8.29ZM15.832 9.668L11.277 16.5L7.445 13.945C6.985 13.639 6.861 13.018 7.168 12.558C7.473 12.098 8.093 11.974 8.555 12.281L10.723 13.726L14.168 8.558C14.474 8.098 15.093 7.974 15.555 8.281C16.015 8.587 16.139 9.208 15.832 9.668Z"
    fill="currentColor"
  />
</svg>
