<svg
  width="24"
  height="24"
  viewBox="0 0 24 24"
  fill="none"
  xmlns="http://www.w3.org/2000/svg"
>
  <path
    fill-rule="evenodd"
    d="M23.3061 17.851L20.4211 16.613L12.6731 19.383L12.0001 19.624L11.3271 19.383L3.57909 16.613L0.694086 17.851C-0.261914 18.261 -0.219914 19.631 0.760086 19.981L12.0001 24L23.2411 19.981C24.2201 19.631 24.2631 18.261 23.3061 17.851ZM0.760086 6.981L12.0001 11L23.2401 6.981C24.2201 6.631 24.2621 5.261 23.3061 4.851L12.0001 0L0.693086 4.851C-0.262914 5.261 -0.219914 6.631 0.760086 6.981ZM23.3061 11.351L20.4211 10.113L12.6731 12.883L12.0001 13.124L11.3271 12.883L3.57909 10.113L0.694086 11.351C-0.261914 11.761 -0.219914 13.131 0.760086 13.481L12.0001 17.5L23.2411 13.481C24.2201 13.131 24.2631 11.761 23.3061 11.351Z"
    fill="currentColor"
  />
</svg>
