<svg
  width="24"
  height="24"
  viewBox="0 0 24 24"
  fill="none"
  xmlns="http://www.w3.org/2000/svg"
>
  <path
    fill-rule="evenodd"
    d="M23.951 9.191C23.817 8.779 23.433 8.5 23 8.5H15.387L12.948 1.184C12.812 0.775 12.431 0.5 12 0.5C11.569 0.5 11.187 0.775 11.051 1.184L8.61304 8.5H1.00004C0.567039 8.5 0.183039 8.779 0.0490388 9.191C-0.0849612 9.603 0.0620388 10.054 0.412039 10.309L6.52704 14.757L4.05104 22.184C3.91404 22.595 4.05704 23.047 4.40504 23.305C4.75404 23.563 5.22804 23.566 5.58004 23.315L12 18.729L18.419 23.314C18.593 23.438 18.796 23.5 19 23.5C19.209 23.5 19.417 23.435 19.594 23.304C19.942 23.047 20.085 22.595 19.948 22.183L17.472 14.756L23.587 10.308C23.938 10.054 24.085 9.602 23.951 9.191Z"
    fill="currentColor"
  />
</svg>
