<svg
  width="24"
  height="24"
  viewBox="0 0 24 24"
  fill="none"
  xmlns="http://www.w3.org/2000/svg"
>
  <path
    fill-rule="evenodd"
    d="M12 0C5.373 0 0 5.373 0 12C0 18.627 5.373 24 12 24C18.627 24 24 18.627 24 12C24 5.373 18.627 0 12 0ZM12 3C16.274 3 19.855 5.998 20.768 10C18.733 10 16.715 9.387 15.133 8.108C14.277 7.415 13.188 7 12 7C10.812 7 9.723 7.415 8.866 8.108C7.284 9.387 5.266 10 3.232 10C4.145 5.998 7.726 3 12 3ZM10 20.768C6.642 20.002 3.998 17.358 3.232 14H7.422C7.926 15.151 8.849 16.074 10 16.578V20.768ZM12 14C10.896 14 10 13.104 10 12C10 10.896 10.896 10 12 10C13.104 10 14 10.896 14 12C14 13.104 13.104 14 12 14ZM14 20.768V16.578C15.151 16.074 16.074 15.151 16.578 14H20.768C20.002 17.358 17.358 20.002 14 20.768Z"
    fill="currentColor"
  />
</svg>
