<svg
  width="24"
  height="24"
  viewBox="0 0 24 24"
  fill="none"
  xmlns="http://www.w3.org/2000/svg"
>
  <path
    fill-rule="evenodd"
    d="M17.999 3.001C17.999 1.346 16.653 0 14.998 0H9C7.345 0 5.999 1.346 5.999 3.001V5L6 24H18V6L17.999 3.001ZM15.999 6H7.999V3.001C7.999 2.449 8.448 2 9 2H14.998C15.55 2 15.999 2.449 15.999 3.001V6ZM0 8V22C0 23.104 0.896 24 2 24H4V6H2C0.896 6 0 6.896 0 8ZM22 6H20V24H22C23.104 24 24 23.104 24 22V8C24 6.896 23.104 6 22 6Z"
    fill="currentColor"
  />
</svg>
