<svg
  width="24"
  height="24"
  viewBox="0 0 24 24"
  fill="none"
  xmlns="http://www.w3.org/2000/svg"
>
  <path
    fill-rule="evenodd"
    d="M3.99912 11.9311C3.92612 9.76806 5.93212 8.00006 8.09612 8.00006H14.0001V11.2801C14.0001 11.9211 14.7741 12.2411 15.2271 11.7881L21.0001 6.00006L15.2511 0.216056C14.7901 -0.245944 14.0001 0.0810561 14.0001 0.735056V4.00006H8.00012C3.62212 4.00006 0.0531219 7.53606 0.000121879 11.9021C-0.0108781 12.8251 0.724122 13.8061 1.63312 13.9681C2.92212 14.1971 4.04112 13.1881 3.99912 11.9311ZM20.0011 12.0691C20.0731 14.2321 18.0681 16.0001 15.9031 16.0001H10.0001V12.7201C10.0001 12.0791 9.22612 11.7591 8.77312 12.2121L3.00012 18.0001L8.74912 23.7841C9.21012 24.2461 10.0001 23.9191 10.0001 23.2651V20.0001H16.0001C20.3781 20.0001 23.9471 16.4641 24.0001 12.0981C24.0111 11.1751 23.2761 10.1941 22.3671 10.0321C21.0771 9.80306 19.9591 10.8121 20.0011 12.0691Z"
    fill="currentColor"
  />
</svg>
