<svg
  width="24"
  height="24"
  viewBox="0 0 24 24"
  fill="none"
  xmlns="http://www.w3.org/2000/svg"
>
  <path
    fill-rule="evenodd"
    d="M21.392 14H21.32C20.513 14 19.819 14.507 19.493 15.246C18.262 18.042 15.471 20 12.225 20C10.159 20 8.188 19.175 6.718 17.762L8.691 15.789C9.351 15.129 8.884 14 7.95 14H0V21.95C0 22.884 1.129 23.351 1.789 22.691L3.894 20.586C6.109 22.741 9.094 24 12.225 24C17.143 24 21.368 21.009 23.195 16.752C23.753 15.452 22.807 14 21.392 14ZM22.211 1.309L20.106 3.414C17.891 1.259 14.906 0 11.775 0C6.857 0 2.632 2.991 0.805 7.248C0.247 8.548 1.193 10 2.608 10H2.68C3.487 10 4.181 9.493 4.507 8.754C5.738 5.958 8.529 4 11.775 4C13.841 4 15.811 4.825 17.282 6.238L15.309 8.211C14.649 8.871 15.117 10 16.05 10H24V2.05C24 1.116 22.871 0.649 22.211 1.309Z"
    fill="currentColor"
  />
</svg>
