<svg
  width="24"
  height="24"
  viewBox="0 0 24 24"
  fill="none"
  xmlns="http://www.w3.org/2000/svg"
>
  <path
    d="M23.414 12.414L19.587 8.587C19.211 8.211 18.702 8 18.171 8H14V15H12V0H2V7H3C3.552 7 4 7.449 4 8C4 8.551 3.552 9 3 9H1C0.448 9 0 9.448 0 10C0 10.552 0.448 11 1 11H3C4.654 11 6 9.654 6 8C6 6.696 5.164 5.584 4 5.171V2H10V10.2L2 15V20C2.252 22.244 4.139 24 6.449 24C8.759 24 10.646 22.244 10.898 20H15.1C15.353 22.244 17.239 24 19.549 24C21.859 24 23.746 22.244 23.998 20V13.829C24 13.298 23.789 12.789 23.414 12.414ZM6.449 22C5.07 22 3.949 20.878 3.949 19.5C3.949 18.122 5.07 17 6.449 17C7.827 17 8.949 18.122 8.949 19.5C8.949 20.878 7.828 22 6.449 22ZM16 13V10L18.172 10.001L21.171 13H16ZM19.551 22C18.173 22 17.051 20.878 17.051 19.5C17.051 18.122 18.173 17 19.551 17C20.93 17 22.051 18.122 22.051 19.5C22.051 20.878 20.929 22 19.551 22Z"
    fill="currentColor"
    fill-rule="evenodd"
  />
</svg>
