<svg
  width="24"
  height="24"
  viewBox="0 0 24 24"
  fill="none"
  xmlns="http://www.w3.org/2000/svg"
>
  <path
    d="M8 10.7859V7.99995H18C19.104 7.99995 20 7.10395 20 5.99995C20 4.89595 19.104 3.99995 18 3.99995H8V1.21395C8 0.133949 6.646 -0.407051 5.854 0.356949L0 5.99995L5.854 11.6429C6.646 12.4059 8 11.865 8 10.7859ZM18.146 12.3579C17.354 11.5939 16 12.1349 16 13.2139V15.9999H6C4.896 15.9999 4 16.8959 4 17.9999C4 19.1039 4.896 19.9999 6 19.9999H16V22.7859C16 23.8659 17.354 24.4059 18.146 23.6429L24 17.9999L18.146 12.3579Z"
    fill="currentColor"
    fill-rule="evenodd"
  />
</svg>
