<svg
  width="24"
  height="24"
  viewBox="0 0 24 24"
  fill="none"
  xmlns="http://www.w3.org/2000/svg"
>
  <path
    d="M8 13.2139V15.9999H2C0.896 15.9999 0 16.8959 0 17.9999C0 19.1039 0.896 19.9999 2 19.9999H8V22.7859C8 23.8659 9.354 24.4059 10.146 23.6429L16 17.9999L10.146 12.3569C9.354 11.594 8 12.1349 8 13.2139ZM22 3.99995H16V1.21395C16 0.133949 14.646 -0.407051 13.854 0.356949L8 5.99995L13.854 11.6429C14.646 12.4059 16 11.865 16 10.7859V7.99995H22C23.104 7.99995 24 7.10395 24 5.99995C24 4.89595 23.104 3.99995 22 3.99995Z"
    fill="currentColor"
    fill-rule="evenodd"
  />
</svg>
