<svg
  width="24"
  height="24"
  viewBox="0 0 24 24"
  fill="none"
  xmlns="http://www.w3.org/2000/svg"
>
  <path
    fill-rule="evenodd"
    d="M12 0C5.373 0 0 5.373 0 12C0 18.627 5.373 24 12 24C18.627 24 24 18.627 24 12C24 5.373 18.627 0 12 0ZM12 5C14.481 5 16.5 7.019 16.5 9.5C16.5 11.981 14.481 14 12 14C9.519 14 7.5 11.981 7.5 9.5C7.5 7.019 9.519 5 12 5ZM12 22C9.42 22 7.073 21.01 5.297 19.399C6.143 17.441 8.816 16 12 16C15.184 16 17.857 17.441 18.703 19.399C16.927 21.01 14.58 22 12 22Z"
    fill="currentColor"
  />
</svg>
