<svg
  width="24"
  height="24"
  viewBox="0 0 24 24"
  fill="none"
  xmlns="http://www.w3.org/2000/svg"
>
  <path
    d="M8 14C3.588 14 0 16.411 0 19.375V23H16V19.375C16 16.411 12.411 14 8 14ZM8 12C11.032 12 13.5 9.533 13.5 6.5C13.5 3.467 11.032 1 8 1C4.968 1 2.5 3.467 2.5 6.5C2.5 9.533 4.968 12 8 12ZM23.555 9.168C23.094 8.86 22.474 8.986 22.168 9.445L19.294 13.756L17.555 12.596C17.095 12.288 16.475 12.414 16.168 12.873C15.862 13.332 15.986 13.954 16.445 14.26L19.848 16.529L23.831 10.554C24.138 10.095 24.014 9.474 23.555 9.168Z"
    fill="currentColor"
  />
</svg>
