<svg
  width="24"
  height="24"
  viewBox="0 0 24 24"
  fill="none"
  xmlns="http://www.w3.org/2000/svg"
>
  <path
    d="M7.5 12C10.532 12 13 9.533 13 6.5C13 3.467 10.532 1 7.5 1C4.468 1 2 3.467 2 6.5C2 9.533 4.468 12 7.5 12ZM17 12C19.757 12 22 9.757 22 7C22 4.243 19.757 2 17 2C15.917 2 14.92 2.355 14.101 2.942C14.674 4.002 15 5.213 15 6.5C15 8.065 14.517 9.519 13.694 10.722C14.578 11.508 15.728 12 17 12ZM16.5 14C16.004 14 15.519 14.037 15.05 14.103C16.879 15.432 18 17.288 18 19.375V23H24V19.375C24 16.411 20.636 14 16.5 14ZM8 14C3.589 14 0 16.411 0 19.375V23H16V19.375C16 16.411 12.412 14 8 14Z"
    fill="currentColor"
  />
</svg>
