<svg
  width="24"
  height="24"
  viewBox="0 0 24 24"
  fill="none"
  xmlns="http://www.w3.org/2000/svg"
>
  <path
    fill-rule="evenodd"
    d="M8 12C11.032 12 13.5 9.533 13.5 6.5C13.5 3.467 11.032 1 8 1C4.968 1 2.5 3.467 2.5 6.5C2.5 9.533 4.968 12 8 12ZM22.294 12.12L23.709 10.706C24.098 10.317 24.098 9.681 23.709 9.291C23.32 8.902 22.684 8.902 22.294 9.291L20.88 10.706L19.466 9.291C19.077 8.902 18.441 8.902 18.052 9.291C17.663 9.68 17.663 10.316 18.052 10.706L19.466 12.12L18.052 13.534C17.663 13.923 17.663 14.559 18.052 14.948C18.441 15.337 19.077 15.337 19.466 14.948L20.88 13.534L22.294 14.948C22.683 15.337 23.319 15.337 23.709 14.948C24.098 14.559 24.098 13.923 23.709 13.534L22.294 12.12ZM8 14C3.588 14 0 16.411 0 19.375V23H16V19.375C16 16.411 12.411 14 8 14Z"
    fill="currentColor"
  />
</svg>
