<svg
  width="24"
  height="24"
  viewBox="0 0 24 24"
  fill="none"
  xmlns="http://www.w3.org/2000/svg"
>
  <path
    d="M9.349 7.647L11.157 10.135C11.426 10.056 11.705 10 12 10C12.295 10 12.574 10.056 12.844 10.136L14.651 7.648C12.979 6.823 11.02 6.823 9.349 7.647ZM6 13C6 13.295 6.028 13.586 6.07 13.873L9.008 12.918C9.024 12.319 9.212 11.763 9.531 11.301L7.716 8.802C6.61 9.93 6 11.418 6 13ZM12 12C11.448 12 11 12.448 11 13C11 13.552 11.448 14 12 14C12.552 14 13 13.552 13 13C13 12.448 12.552 12 12 12ZM14.469 11.301C14.788 11.763 14.976 12.319 14.992 12.918L17.93 13.873C17.972 13.586 18 13.295 18 13C18 11.418 17.39 9.93 16.284 8.802L14.469 11.301ZM22.354 19.036C23.392 17.261 24 15.205 24 13C24 6.373 18.627 1 12 1C5.373 1 0 6.373 0 13C0 15.205 0.608 17.261 1.646 19.036C0.714 19.205 0 20.021 0 21C0 22.1 0.9 23 2 23H22C23.1 23 24 22.1 24 21C24 20.021 23.286 19.205 22.354 19.036ZM17.657 18.657C17.462 18.852 17.206 18.95 16.95 18.95C16.694 18.95 16.438 18.852 16.243 18.657C15.852 18.266 15.852 17.634 16.243 17.243C16.681 16.805 17.04 16.311 17.319 15.778L14.369 14.82C13.82 15.532 12.967 16 12 16C11.033 16 10.18 15.532 9.631 14.819L6.681 15.777C6.96 16.31 7.319 16.805 7.757 17.242C8.148 17.633 8.148 18.265 7.757 18.656C7.366 19.047 6.734 19.047 6.343 18.656C3.224 15.537 3.224 10.462 6.343 7.343C9.462 4.224 14.538 4.224 17.657 7.343C20.776 10.462 20.776 15.538 17.657 18.657Z"
    fill="currentColor"
  />
</svg>
