<svg
  width="24"
  height="24"
  viewBox="0 0 24 24"
  fill="none"
  xmlns="http://www.w3.org/2000/svg"
>
  <path
    d="M22.414 19.586L17.613 14.785C18.487 13.398 19 11.76 19 10C19 5.029 14.971 1 10 1C5.029 1 1 5.029 1 10C1 14.971 5.029 19 10 19C11.761 19 13.398 18.487 14.785 17.613L19.586 22.414C19.976 22.805 20.488 23 21 23C21.512 23 22.024 22.805 22.414 22.414C23.195 21.633 23.195 20.367 22.414 19.586ZM14 11H11V14C11 14.55 10.55 15 10 15C9.45 15 9 14.55 9 14V11H6C5.45 11 5 10.55 5 10C5 9.45 5.45 9 6 9H9V6C9 5.45 9.45 5 10 5C10.55 5 11 5.45 11 6V9H14C14.55 9 15 9.45 15 10C15 10.55 14.55 11 14 11Z"
    fill="currentColor"
  />
</svg>
