<svg
  xmlns="http://www.w3.org/2000/svg"
  width="24"
  height="24"
  viewBox="0 0 24 24"
  fill="none"
  stroke="currentColor"
  stroke-width="0"
  stroke-linecap="round"
  stroke-linejoin="round"
>
  <path
    fill-rule="evenodd"
    d="M23.114 9.386 L12.605 0.788 C12.253 0.500 11.747 0.500 11.394 0.788 L0.886 9.386 C0.665 9.567 0.536 9.839 0.536 10.125 V20.634 C0.536 22.214 1.822 23.500 3.402 23.500 H20.598 C22.178 23.500 23.464 22.214 23.464 20.634 V10.125 C23.464 9.839 23.335 9.567 23.114 9.386 Z M21.553 20.634 C21.553 21.161 21.125 21.589 20.598 21.589 H3.402 C2.875 21.589 2.447 21.161 2.447 20.634 V10.578 L12.000 2.761 L21.553 10.578 V20.634 Z M9.665 10.125 C7.758 10.125 6.375 11.652 6.375 13.755 C6.375 16.744 9.692 18.843 11.651 19.613 C11.763 19.657 11.882 19.679 12.000 19.679 C12.118 19.679 12.237 19.657 12.349 19.613 C14.309 18.843 17.625 16.744 17.625 13.755 C17.625 11.652 16.241 10.125 14.335 10.125 C13.278 10.125 12.535 10.513 12.000 10.931 C11.465 10.513 10.722 10.125 9.665 10.125 Z M14.335 12.036 C15.676 12.036 15.714 13.579 15.714 13.755 C15.714 15.274 13.860 16.861 11.999 17.688 C10.138 16.861 8.284 15.274 8.284 13.755 C8.284 13.579 8.323 12.036 9.663 12.036 C10.413 12.036 10.805 12.377 11.318 12.898 C11.677 13.262 12.320 13.262 12.679 12.898 C13.193 12.377 13.586 12.036 14.335 12.036 Z"
    fill="currentColor"
  />
</svg>
