<svg
  xmlns="http://www.w3.org/2000/svg"
  width="24"
  height="24"
  viewBox="0 0 24 24"
  fill="none"
  stroke="currentColor"
  stroke-width="0"
  stroke-linecap="round"
  stroke-linejoin="round"
>
  <path
    fill-rule="evenodd"
    d="M12.000 4.324 C11.470 4.324 11.042 4.753 11.042 5.282 V5.292 C11.042 5.821 11.470 6.245 12.000 6.245 C12.530 6.245 12.958 5.811 12.958 5.282 C12.958 4.753 12.530 4.324 12.000 4.324 Z M18.708 3.375 H16.378 C15.626 1.651 13.920 0.500 12.000 0.500 C10.080 0.500 8.374 1.651 7.622 3.375 H5.292 C3.707 3.375 2.417 4.665 2.417 6.250 V20.625 C2.417 22.210 3.707 23.500 5.292 23.500 H18.708 C20.293 23.500 21.583 22.210 21.583 20.625 V6.250 C21.583 4.665 20.293 3.375 18.708 3.375 Z M19.667 20.625 C19.667 21.153 19.237 21.583 18.708 21.583 H5.292 C4.763 21.583 4.333 21.153 4.333 20.625 V17.750 H6.250 C6.613 17.750 6.945 17.545 7.108 17.220 L9.125 13.184 L11.142 17.220 C11.305 17.545 11.637 17.750 12.000 17.750 H16.792 C17.322 17.750 17.750 17.321 17.750 16.792 C17.750 16.263 17.322 15.833 16.792 15.833 H12.592 L9.982 10.613 C9.656 9.964 8.593 9.964 8.267 10.613 L5.658 15.833 H4.333 V6.250 C4.333 5.722 4.763 5.292 5.292 5.292 H8.303 C8.740 5.292 9.121 4.997 9.230 4.574 C9.559 3.304 10.699 2.417 12.000 2.417 C13.301 2.417 14.441 3.304 14.771 4.574 C14.880 4.997 15.260 5.292 15.697 5.292 H18.708 C19.237 5.292 19.667 5.722 19.667 6.250 V20.625 Z"
    fill="currentColor"
  />
</svg>
