<svg
  xmlns="http://www.w3.org/2000/svg"
  width="24"
  height="24"
  viewBox="0 0 24 24"
  fill="none"
>
  <path
    fill-rule="evenodd"
    clip-rule="evenodd"
    d="M17.750 10.772 C18.207 10.609 18.688 10.509 19.188 10.509 C21.565 10.509 23.500 12.444 23.500 14.821 C23.500 17.199 21.565 19.134 19.188 19.134 C18.688 19.134 18.207 19.033 17.750 18.870 V22.542 C17.750 23.072 17.322 23.500 16.792 23.500 H11.467 C11.342 23.500 11.216 23.475 11.099 23.426 C10.981 23.376 10.876 23.304 10.787 23.214 L10.783 23.212 C10.770 23.198 10.762 23.183 10.754 23.168 C10.747 23.155 10.740 23.143 10.731 23.132 C10.674 23.061 10.617 22.988 10.582 22.902 C10.554 22.835 10.546 22.764 10.537 22.694 C10.535 22.683 10.534 22.672 10.533 22.661 C10.531 22.644 10.526 22.628 10.521 22.612 C10.515 22.589 10.509 22.567 10.509 22.542 C10.509 22.541 10.509 22.540 10.509 22.539 C10.510 22.538 10.510 22.537 10.510 22.536 C10.511 22.411 10.535 22.288 10.584 22.171 C10.632 22.053 10.705 21.948 10.794 21.860 L10.797 21.856 C11.263 21.400 11.521 20.793 11.521 20.146 C11.521 18.824 10.447 17.750 9.125 17.750 C7.803 17.750 6.729 18.824 6.729 20.146 C6.729 20.793 6.987 21.400 7.453 21.856 L7.456 21.860 C7.545 21.948 7.618 22.053 7.666 22.171 C7.715 22.288 7.739 22.411 7.740 22.536 C7.740 22.537 7.740 22.538 7.741 22.539 C7.741 22.540 7.741 22.541 7.741 22.542 C7.741 22.567 7.735 22.590 7.728 22.613 C7.723 22.629 7.719 22.645 7.716 22.662 C7.715 22.675 7.713 22.687 7.712 22.700 C7.703 22.769 7.695 22.837 7.668 22.902 C7.633 22.988 7.576 23.061 7.519 23.133 C7.510 23.144 7.503 23.156 7.497 23.168 C7.489 23.184 7.481 23.199 7.468 23.212 L7.464 23.214 C7.376 23.304 7.272 23.376 7.154 23.425 C7.037 23.474 6.912 23.498 6.788 23.499 C6.787 23.499 6.786 23.499 6.785 23.500 C6.785 23.500 6.784 23.500 6.783 23.500 H1.458 C0.928 23.500 0.500 23.072 0.500 22.542 V7.208 C0.500 6.678 0.928 6.250 1.458 6.250 H5.076 C4.913 5.793 4.812 5.312 4.812 4.813 C4.812 2.435 6.747 0.500 9.125 0.500 C11.503 0.500 13.438 2.435 13.438 4.813 C13.438 5.312 13.337 5.793 13.174 6.250 H16.792 C17.322 6.250 17.750 6.678 17.750 7.208 V10.772 Z M17.477 16.494 C17.932 16.960 18.540 17.217 19.188 17.217 C20.509 17.217 21.582 16.143 21.582 14.821 C21.582 13.500 20.508 12.425 19.187 12.425 C18.540 12.425 17.933 12.683 17.476 13.149 C17.476 13.150 17.475 13.150 17.474 13.150 C17.474 13.151 17.473 13.151 17.472 13.152 C17.384 13.241 17.279 13.314 17.163 13.363 C17.046 13.412 16.921 13.436 16.796 13.437 C16.796 13.437 16.795 13.437 16.794 13.437 C16.793 13.437 16.793 13.437 16.792 13.437 C16.770 13.437 16.750 13.432 16.730 13.426 C16.715 13.422 16.700 13.418 16.684 13.415 C16.678 13.415 16.673 13.414 16.667 13.414 C16.586 13.405 16.506 13.396 16.430 13.365 C16.345 13.330 16.273 13.274 16.201 13.216 C16.190 13.207 16.178 13.200 16.165 13.194 C16.150 13.185 16.135 13.177 16.122 13.164 C16.121 13.164 16.121 13.163 16.120 13.162 C16.120 13.162 16.119 13.161 16.119 13.161 C16.030 13.072 15.957 12.968 15.908 12.850 C15.859 12.733 15.835 12.609 15.834 12.485 C15.834 12.484 15.834 12.483 15.834 12.482 C15.834 12.481 15.833 12.480 15.833 12.479 V8.167 H11.521 C11.516 8.167 11.512 8.165 11.507 8.164 C11.503 8.163 11.499 8.162 11.495 8.162 C11.490 8.162 11.486 8.163 11.481 8.164 C11.477 8.165 11.472 8.167 11.467 8.167 C11.219 8.167 10.971 8.070 10.782 7.878 C10.413 7.501 10.419 6.894 10.797 6.523 C11.263 6.067 11.521 5.459 11.521 4.813 C11.521 3.491 10.447 2.417 9.125 2.417 C7.803 2.417 6.729 3.491 6.729 4.813 C6.729 5.459 6.987 6.067 7.453 6.523 C7.453 6.523 7.453 6.524 7.454 6.525 C7.454 6.525 7.454 6.526 7.456 6.527 C7.545 6.615 7.618 6.720 7.666 6.837 C7.715 6.954 7.739 7.078 7.740 7.203 C7.740 7.204 7.740 7.205 7.741 7.205 C7.741 7.206 7.741 7.207 7.741 7.208 C7.741 7.234 7.735 7.257 7.728 7.280 C7.723 7.296 7.719 7.312 7.716 7.329 C7.715 7.342 7.713 7.354 7.712 7.367 C7.703 7.435 7.695 7.504 7.668 7.569 C7.633 7.655 7.576 7.728 7.519 7.800 C7.510 7.811 7.503 7.823 7.497 7.835 C7.489 7.850 7.481 7.865 7.468 7.878 C7.466 7.879 7.465 7.880 7.464 7.881 C7.376 7.970 7.272 8.043 7.154 8.092 C7.037 8.141 6.912 8.165 6.788 8.166 C6.787 8.166 6.786 8.166 6.785 8.166 C6.785 8.166 6.784 8.167 6.783 8.167 H2.417 V21.583 H5.075 C4.912 21.126 4.812 20.645 4.812 20.146 C4.812 17.768 6.746 15.833 9.124 15.833 C11.502 15.833 13.437 17.768 13.437 20.146 C13.437 20.645 13.336 21.126 13.173 21.583 H15.832 V17.163 C15.832 17.161 15.833 17.161 15.833 17.160 C15.833 17.159 15.833 17.158 15.833 17.158 C15.834 17.033 15.858 16.909 15.907 16.792 C15.957 16.675 16.029 16.570 16.118 16.482 C16.118 16.482 16.119 16.481 16.119 16.480 C16.120 16.480 16.120 16.479 16.121 16.478 C16.134 16.466 16.149 16.457 16.164 16.449 C16.176 16.443 16.188 16.436 16.199 16.427 C16.271 16.370 16.344 16.313 16.430 16.278 C16.506 16.247 16.584 16.238 16.664 16.229 C16.669 16.228 16.675 16.228 16.681 16.227 C16.696 16.225 16.711 16.221 16.726 16.217 C16.747 16.211 16.768 16.205 16.791 16.205 C16.792 16.205 16.793 16.205 16.794 16.206 C16.795 16.206 16.796 16.206 16.796 16.206 C16.922 16.207 17.047 16.231 17.164 16.280 C17.280 16.330 17.385 16.402 17.473 16.491 C17.474 16.492 17.476 16.493 17.477 16.494 Z"
    fill="currentColor"
  />
</svg>
