<svg
  xmlns="http://www.w3.org/2000/svg"
  width="24"
  height="24"
  viewBox="0 0 24 24"
  fill="none"
>
  <path
    fill-rule="evenodd"
    clip-rule="evenodd"
    d="M19.412 5.098 C15.326 1.012 8.674 1.011 4.587 5.098 C0.500 9.186 0.500 15.836 4.587 19.924 C6.630 21.967 9.315 22.989 11.999 22.989 C14.683 22.989 17.368 21.968 19.412 19.924 C23.500 15.836 23.500 9.185 19.412 5.098 Z M15.495 11.637 H12.874 V9.016 C12.874 8.534 12.482 8.143 12.000 8.143 C11.518 8.143 11.127 8.534 11.127 9.016 V11.637 H8.506 C8.024 11.637 7.632 12.028 7.632 12.511 C7.632 12.993 8.024 13.384 8.506 13.384 H11.127 V16.005 C11.127 16.487 11.518 16.879 12.000 16.879 C12.482 16.879 12.874 16.487 12.874 16.005 V13.384 H15.495 C15.977 13.384 16.368 12.993 16.368 12.511 C16.368 12.028 15.977 11.637 15.495 11.637 Z M5.822 18.688 C9.228 22.094 14.771 22.093 18.177 18.688 C21.583 15.282 21.583 9.740 18.177 6.333 C16.475 4.631 14.237 3.779 12.000 3.779 C9.763 3.779 7.525 4.630 5.822 6.333 C2.417 9.739 2.417 15.282 5.822 18.688 Z"
    fill="currentColor"
  />
</svg>
