<svg
  xmlns="http://www.w3.org/2000/svg"
  width="24"
  height="24"
  viewBox="0 0 24 24"
  fill="none"
>
  <path
    fill-rule="evenodd"
    clip-rule="evenodd"
    d="M20.625 0.500 H3.375 C1.790 0.500 0.500 1.790 0.500 3.375 V15.833 C0.500 17.418 1.790 18.708 3.375 18.708 H7.707 L11.252 23.141 C11.434 23.368 11.709 23.500 12.000 23.500 C12.291 23.500 12.566 23.368 12.748 23.141 L16.293 18.708 H20.625 C22.210 18.708 23.500 17.418 23.500 15.833 V3.375 C23.500 1.790 22.210 0.500 20.625 0.500 Z M11.042 6.250 C11.042 5.721 11.470 5.292 12.000 5.292 C12.530 5.292 12.958 5.721 12.958 6.250 V10.083 C12.958 10.612 12.530 11.042 12.000 11.042 C11.470 11.042 11.042 10.612 11.042 10.083 V6.250 Z M11.042 12.949 C11.042 12.420 11.470 11.990 12.000 11.990 C12.530 11.990 12.958 12.420 12.958 12.949 C12.958 13.478 12.530 13.912 12.000 13.912 C11.470 13.912 11.042 13.487 11.042 12.958 V12.949 Z M20.625 16.792 C21.154 16.792 21.583 16.361 21.583 15.833 V3.375 C21.583 2.847 21.154 2.417 20.625 2.417 H3.375 C2.846 2.417 2.417 2.847 2.417 3.375 V15.833 C2.417 16.361 2.846 16.792 3.375 16.792 H8.167 C8.458 16.792 8.733 16.924 8.915 17.151 L12.000 21.007 L15.085 17.151 C15.267 16.924 15.542 16.792 15.833 16.792 H20.625 Z"
    fill="currentColor"
  />
</svg>
