<svg
  width="24"
  height="24"
  viewBox="0 0 24 24"
  fill="none"
  xmlns="http://www.w3.org/2000/svg"
>
  <path
    fill-rule="evenodd"
    clip-rule="evenodd"
    d="M4.15059 4.64875C4.57651 5.00032 4.63678 5.63061 4.2852 6.05654C2.85752 7.78612 2 10.0019 2 12.4199C2 14.838 2.85752 17.0538 4.2852 18.7834C4.63678 19.2093 4.57651 19.8396 4.15059 20.1912C3.72466 20.5427 3.09437 20.4825 2.7428 20.0565C1.03048 17.9821 0 15.3199 0 12.4199C0 9.52 1.03048 6.85778 2.7428 4.78336C3.09437 4.35744 3.72466 4.29717 4.15059 4.64875Z"
    fill="currentColor"
  />
  <path
    fill-rule="evenodd"
    clip-rule="evenodd"
    d="M19.8493 4.64875C20.2752 4.29717 20.9055 4.35744 21.2571 4.78336C22.9694 6.85778 23.9999 9.52 23.9999 12.4199C23.9999 15.3199 22.9694 17.9821 21.2571 20.0565C20.9055 20.4825 20.2752 20.5427 19.8493 20.1912C19.4234 19.8396 19.3631 19.2093 19.7147 18.7834C21.1423 17.0538 21.9999 14.838 21.9999 12.4199C21.9999 10.0019 21.1423 7.78612 19.7147 6.05654C19.3631 5.63061 19.4234 5.00032 19.8493 4.64875Z"
    fill="currentColor"
  />
  <path
    fill-rule="evenodd"
    clip-rule="evenodd"
    d="M12 6.41992C8.68629 6.41992 6 9.10621 6 12.4199C6 15.7336 8.68629 18.4199 12 18.4199C15.3137 18.4199 18 15.7336 18 12.4199C18 9.10621 15.3137 6.41992 12 6.41992ZM4 12.4199C4 8.00164 7.58172 4.41992 12 4.41992C16.4183 4.41992 20 8.00164 20 12.4199C20 16.8382 16.4183 20.4199 12 20.4199C7.58172 20.4199 4 16.8382 4 12.4199Z"
    fill="currentColor"
  />
  <path
    fill-rule="evenodd"
    clip-rule="evenodd"
    d="M12 14.4199C12.5523 14.4199 13 14.8676 13 15.4199V15.4299C13 15.9822 12.5523 16.4299 12 16.4299C11.4477 16.4299 11 15.9822 11 15.4299V15.4199C11 14.8676 11.4477 14.4199 12 14.4199Z"
    fill="currentColor"
  />
  <path
    fill-rule="evenodd"
    clip-rule="evenodd"
    d="M12 8.41992C12.5523 8.41992 13 8.86764 13 9.41992V12.4199C13 12.9722 12.5523 13.4199 12 13.4199C11.4477 13.4199 11 12.9722 11 12.4199V9.41992C11 8.86764 11.4477 8.41992 12 8.41992Z"
    fill="currentColor"
  />
</svg>
