<svg
  width="24"
  height="24"
  viewBox="0 0 24 24"
  fill="none"
  xmlns="http://www.w3.org/2000/svg"
>
  <path
    d="M4.34077 12.5586C4.75777 12.9216 5.38777 12.8796 5.75177 12.4646L10.9998 6.46764L10.9998 21.8066C10.9998 22.3586 11.4478 22.8066 11.9998 22.8066C12.5518 22.8066 12.9998 22.3586 12.9998 21.8066L12.9998 6.46764L18.2478 12.4646C18.6118 12.8806 19.2438 12.9226 19.6588 12.5586C20.0748 12.1946 20.1168 11.5636 19.7528 11.1476L12.7528 3.14764C12.7458 3.13964 12.7348 3.13664 12.7278 3.12864C12.6608 3.05664 12.5788 3.00364 12.4928 2.95464C12.4608 2.93564 12.4358 2.90764 12.4018 2.89364C12.2778 2.83864 12.1428 2.80664 11.9998 2.80664C11.8568 2.80664 11.7218 2.83864 11.5988 2.89364C11.5648 2.90864 11.5398 2.93664 11.5078 2.95464C11.4218 3.00464 11.3398 3.05664 11.2728 3.12864C11.2658 3.13664 11.2548 3.13964 11.2478 3.14764L4.24777 11.1476C3.88377 11.5636 3.92577 12.1956 4.34077 12.5586Z"
    fill="currentColor"
  />
</svg>
