<svg
  width="24"
  height="24"
  viewBox="0 0 24 24"
  fill="none"
  xmlns="http://www.w3.org/2000/svg"
>
  <path
    fill-rule="evenodd"
    clip-rule="evenodd"
    d="M20.7499 2.5083C20.7499 1.9553 21.1979 1.5083 21.7499 1.5083C22.3019 1.5083 22.7499 1.9553 22.7499 2.5083V9.5083C22.7499 10.0613 22.3019 10.5083 21.7499 10.5083H14.7499C14.1979 10.5083 13.7499 10.0613 13.7499 9.5083C13.7499 8.9553 14.1979 8.5083 14.7499 8.5083H19.4579C17.8099 5.4293 14.7679 3.5083 11.3749 3.5083C7.51186 3.5083 4.10186 5.9983 2.68886 9.8523C2.49886 10.3703 1.92586 10.6383 1.40586 10.4463C0.886863 10.2573 0.620863 9.6823 0.810863 9.1633C2.51586 4.5133 6.66286 1.5083 11.3749 1.5083C15.2129 1.5083 18.6759 3.5033 20.7499 6.7563V2.5083ZM20.811 15.1643C21.001 14.6463 21.575 14.3793 22.094 14.5703C22.613 14.7593 22.879 15.3343 22.689 15.8533C20.984 20.5033 16.837 23.5083 12.125 23.5083C8.287 23.5083 4.824 21.5133 2.75 18.2603V22.5083C2.75 23.0613 2.302 23.5083 1.75 23.5083C1.198 23.5083 0.75 23.0613 0.75 22.5083V15.5083C0.75 14.9553 1.198 14.5083 1.75 14.5083H8.75C9.302 14.5083 9.75 14.9553 9.75 15.5083C9.75 16.0613 9.302 16.5083 8.75 16.5083H4.042C5.69 19.5873 8.732 21.5083 12.125 21.5083C15.988 21.5083 19.398 19.0183 20.811 15.1643Z"
    fill="currentColor"
  />
</svg>
