<svg
  width="24"
  height="24"
  viewBox="0 0 24 24"
  fill="none"
  xmlns="http://www.w3.org/2000/svg"
>
  <path
    d="M21.9228 17.8941C22.0257 17.6481 22.0257 17.37 21.9228 17.1225C21.8709 16.9999 21.7967 16.8879 21.7031 16.7952L16.6614 11.8035C16.2638 11.4099 15.6185 11.4099 15.2209 11.8035C14.8233 12.1972 14.8233 12.8361 15.2209 13.2297L18.5239 16.5H8.01843C7.4552 16.5 7 16.9507 7 17.5083C7 17.7864 7.1138 18.0388 7.29818 18.2214C7.48256 18.404 7.73753 18.5166 8.01843 18.5166H18.5239L15.2209 21.7869C14.8233 22.1805 14.8233 22.8194 15.2209 23.2131C15.6185 23.6067 16.2638 23.6067 16.6614 23.2131L21.7031 18.2214C21.7967 18.1287 21.8709 18.0167 21.9228 17.8941Z"
    fill="currentColor"
  />
  <path
    d="M5.4765 6.50003H15.9816C16.5448 6.50003 17 6.95068 17 7.5083C17 8.06592 16.5448 8.51657 15.9816 8.51657H5.4765L8.77942 11.7867C9.17698 12.1803 9.1777 12.8185 8.77942 13.2128C8.38114 13.6071 7.73654 13.6064 7.33898 13.2128L2.29745 8.22137C2.20382 8.12867 2.12964 8.01672 2.07778 7.89407C1.97407 7.64735 1.97407 7.36925 2.07778 7.12253C2.12964 6.99989 2.20382 6.88793 2.29745 6.79524L7.33898 1.80378C7.73726 1.40945 8.38186 1.41017 8.77942 1.80378C9.17698 2.19739 9.1777 2.83558 8.77942 3.22991L5.4765 6.50003Z"
    fill="currentColor"
  />
</svg>
