<svg
  width="24"
  height="24"
  viewBox="0 0 24 24"
  fill="none"
  xmlns="http://www.w3.org/2000/svg"
>
  <path
    d="M12 2.20996C6.486 2.20996 2 6.69596 2 12.21C2 17.724 6.486 22.21 12 22.21C12.552 22.21 13 21.763 13 21.21C13 20.657 12.552 20.21 12 20.21C7.589 20.21 4 16.621 4 12.21C4 7.79896 7.589 4.20996 12 4.20996C16.411 4.20996 20 7.79896 20 12.21C20 13.313 19.103 14.21 18 14.21C16.897 14.21 16 13.313 16 12.21C16 10.004 14.206 8.20996 12 8.20996C9.794 8.20996 8 10.004 8 12.21C8 14.416 9.794 16.21 12 16.21C13.2 16.21 14.266 15.668 15 14.828C15.734 15.668 16.8 16.21 18 16.21C20.206 16.21 22 14.416 22 12.21C22 6.69596 17.514 2.20996 12 2.20996ZM12 14.21C10.897 14.21 10 13.313 10 12.21C10 11.107 10.897 10.21 12 10.21C13.103 10.21 14 11.107 14 12.21C14 13.313 13.103 14.21 12 14.21Z"
    fill="currentColor"
  />
</svg>
