<svg
  width="24"
  height="24"
  viewBox="0 0 24 24"
  fill="none"
  xmlns="http://www.w3.org/2000/svg"
>
  <path
    fill-rule="evenodd"
    d="M22 4.0498H16V3.0498C16 1.3958 14.654 0.0498047 13 0.0498047H11C9.346 0.0498047 8 1.3958 8 3.0498V4.0498H2C1.447 4.0498 1 4.4978 1 5.0498V9.0498C1 10.1658 1.38 11.1858 2 12.0188V19.0498C2 21.8068 4.243 24.0498 7 24.0498H17C19.757 24.0498 22 21.8068 22 19.0498V12.0188C22.62 11.1858 23 10.1648 23 9.0498V5.0498C23 4.4978 22.553 4.0498 22 4.0498ZM10 3.0498C10 2.4988 10.448 2.0498 11 2.0498H13C13.552 2.0498 14 2.4988 14 3.0498V4.0498H10V3.0498ZM20 19.0498C20 20.7038 18.654 22.0498 17 22.0498H7C5.346 22.0498 4 20.7038 4 19.0498V13.6258C4.614 13.8958 5.288 14.0498 6 14.0498V15.0498C6 15.6018 6.447 16.0498 7 16.0498C7.553 16.0498 8 15.6018 8 15.0498V14.0498H16V15.0498C16 15.6018 16.447 16.0498 17 16.0498C17.553 16.0498 18 15.6018 18 15.0498V14.0498C18.712 14.0498 19.386 13.8958 20 13.6258V19.0498ZM21 9.0498C21 10.7038 19.654 12.0498 18 12.0498V11.0498C18 10.4978 17.553 10.0498 17 10.0498C16.447 10.0498 16 10.4978 16 11.0498V12.0498H8V11.0498C8 10.4978 7.553 10.0498 7 10.0498C6.447 10.0498 6 10.4978 6 11.0498V12.0498C4.346 12.0498 3 10.7038 3 9.0498V6.0498H21V9.0498ZM15 18.0498H9C8.447 18.0498 8 18.4978 8 19.0498C8 19.6018 8.447 20.0498 9 20.0498H15C15.553 20.0498 16 19.6018 16 19.0498C16 18.4978 15.553 18.0498 15 18.0498Z"
    fill="currentColor"
  />
</svg>
