<svg
  xmlns="http://www.w3.org/2000/svg"
  width="24"
  height="24"
  viewBox="0 0 24 24"
  fill="none"
>
  <path
    fill-rule="evenodd"
    clip-rule="evenodd"
    d="M12.000 2.681 L2.036 8.116 C1.578 8.367 1.002 8.197 0.751 7.738 C0.500 7.278 0.670 6.704 1.130 6.453 L11.547 0.770 C11.829 0.616 12.172 0.616 12.454 0.770 L22.871 6.453 C23.330 6.704 23.500 7.278 23.249 7.738 C23.077 8.053 22.752 8.231 22.417 8.231 C22.263 8.231 22.108 8.194 21.964 8.116 L12.000 2.681 Z M20.523 18.649 C20.523 19.172 20.100 19.596 19.576 19.596 C19.053 19.596 18.629 19.172 18.629 18.649 V11.072 H16.735 V18.649 C16.735 19.172 16.312 19.596 15.788 19.596 C15.264 19.596 14.841 19.172 14.841 18.649 V11.072 H12.947 V18.649 C12.947 19.172 12.524 19.596 12.000 19.596 C11.476 19.596 11.053 19.172 11.053 18.649 V11.072 H9.159 V18.649 C9.159 19.172 8.736 19.596 8.212 19.596 C7.688 19.596 7.265 19.172 7.265 18.649 V11.072 H5.371 V18.649 C5.371 19.172 4.947 19.596 4.424 19.596 C3.900 19.596 3.477 19.172 3.477 18.649 V10.125 C3.477 9.603 3.900 9.178 4.424 9.178 H19.576 C20.100 9.178 20.523 9.603 20.523 10.125 V18.649 Z M1.582 21.490 C1.059 21.490 0.635 21.914 0.635 22.437 C0.635 22.960 1.059 23.384 1.582 23.384 H22.418 C22.941 23.384 23.365 22.960 23.365 22.437 C23.365 21.914 22.941 21.490 22.418 21.490 H1.582 Z M12.000 5.381 C12.524 5.381 12.947 5.805 12.947 6.328 C12.947 6.850 12.524 7.279 12.000 7.279 C11.476 7.279 11.053 6.860 11.053 6.337 V6.328 C11.053 5.805 11.476 5.381 12.000 5.381 Z"
    fill="currentColor"
  />
</svg>
