<svg
  width="24"
  height="24"
  viewBox="0 0 24 24"
  fill="none"
  xmlns="http://www.w3.org/2000/svg"
>
  <path
    d="M16 19.7514C16.553 19.7514 17 19.3044 17 18.7514V15.7514C17 15.1984 16.553 14.7514 16 14.7514C15.447 14.7514 15 15.1984 15 15.7514V18.7514C15 19.3044 15.447 19.7514 16 19.7514ZM12 19.7514C12.553 19.7514 13 19.3044 13 18.7514V15.7514C13 15.1984 12.553 14.7514 12 14.7514C11.447 14.7514 11 15.1984 11 15.7514V18.7514C11 19.3044 11.447 19.7514 12 19.7514ZM8.00001 19.7514C8.55301 19.7514 9.00001 19.3044 9.00001 18.7514V15.7514C9.00001 15.1984 8.55301 14.7514 8.00001 14.7514C7.44701 14.7514 7.00001 15.1984 7.00001 15.7514V18.7514C7.00001 19.3044 7.44701 19.7514 8.00001 19.7514ZM23.308 11.1614C23.119 10.9034 22.819 10.7514 22.5 10.7514H18.542L13.048 2.32139C12.585 1.60639 11.413 1.60839 10.954 2.31939L5.45801 10.7514H1.50001C1.18101 10.7514 0.881008 10.9034 0.692008 11.1614C0.504008 11.4184 0.450008 11.7504 0.546008 12.0544L4.04601 23.0544C4.17901 23.4694 4.56401 23.7514 5.00001 23.7514H19C19.436 23.7514 19.821 23.4694 19.953 23.0544L23.453 12.0544C23.55 11.7504 23.495 11.4184 23.308 11.1614ZM12 4.37739L16.155 10.7514H7.84501L12 4.37739ZM18.269 21.7514H5.73101L2.86701 12.7514H21.133L18.269 21.7514Z"
    fill="currentColor"
  />
</svg>
