<svg
  width="24"
  height="24"
  viewBox="0 0 24 24"
  fill="none"
  xmlns="http://www.w3.org/2000/svg"
>
  <path
    d="M18.653 11.4377L15.539 4.42969H17C17.552 4.42969 18 3.98169 18 3.42969C18 2.87769 17.552 2.42969 17 2.42969H14C13.662 2.42969 13.346 2.60069 13.162 2.88469C12.978 3.16869 12.949 3.52669 13.087 3.83569L14.239 6.42969H5.512L4.92 5.03869C4.764 4.66969 4.401 4.42969 4 4.42969H2C1.448 4.42969 1 4.87769 1 5.42969C1 5.98169 1.448 6.42969 2 6.42969H3.338L5.464 11.4317C2.448 11.4507 0 13.9087 0 16.9297C0 19.9627 2.467 22.4297 5.5 22.4297C8.533 22.4297 11 19.9627 11 16.9297C11 16.0367 10.781 15.1947 10.402 14.4477L15.268 8.74269L16.613 11.7697C14.508 12.5427 13 14.5607 13 16.9297C13 19.9627 15.467 22.4297 18.5 22.4297C21.533 22.4297 24 19.9627 24 16.9297C24 13.9487 21.615 11.5197 18.653 11.4377ZM5.5 20.4297C3.57 20.4297 2 18.8597 2 16.9297C2 14.9997 3.57 13.4297 5.5 13.4297C5.957 13.4297 6.392 13.5237 6.793 13.6837C6.811 13.6897 6.829 13.6957 6.847 13.7007C8.11 14.2297 9 15.4777 9 16.9297C9 18.8597 7.43 20.4297 5.5 20.4297ZM9.153 12.8297C8.768 12.4867 8.337 12.1977 7.867 11.9727L6.362 8.42969H12.907L9.153 12.8297ZM18.5 20.4297C16.57 20.4297 15 18.8597 15 16.9297C15 14.9997 16.57 13.4297 18.5 13.4297C20.43 13.4297 22 14.9997 22 16.9297C22 18.8597 20.43 20.4297 18.5 20.4297Z"
    fill="currentColor"
  />
</svg>
