<svg
  width="24"
  height="24"
  viewBox="0 0 24 24"
  fill="none"
  xmlns="http://www.w3.org/2000/svg"
>
  <path
    d="M12 1.70166C5.935 1.70166 1 6.63666 1 12.7017C1 18.7667 5.935 23.7017 12 23.7017C18.065 23.7017 23 18.7667 23 12.7017C23 6.63666 18.065 1.70166 12 1.70166ZM12 21.7017C7.037 21.7017 3 17.6647 3 12.7017C3 10.5797 3.742 8.63066 4.975 7.09066L17.611 19.7267C16.071 20.9597 14.122 21.7017 12 21.7017ZM19.025 18.3127L6.389 5.67666C7.929 4.44366 9.878 3.70166 12 3.70166C16.963 3.70166 21 7.73966 21 12.7017C21 14.8237 20.258 16.7727 19.025 18.3127Z"
    fill="currentColor"
  />
</svg>
