<svg
  width="24"
  height="24"
  viewBox="0 0 24 24"
  fill="none"
  xmlns="http://www.w3.org/2000/svg"
>
  <path
    d="M21 1.0498H3C1.346 1.0498 0 2.3958 0 4.0498V8.0498C0 8.6018 0.448 9.0498 1 9.0498V20.0498C1 21.7038 2.346 23.0498 4 23.0498H20C21.654 23.0498 23 21.7038 23 20.0498V9.0498C23.552 9.0498 24 8.6018 24 8.0498V4.0498C24 2.3958 22.654 1.0498 21 1.0498ZM21 20.0498C21 20.6008 20.551 21.0498 20 21.0498H4C3.449 21.0498 3 20.6008 3 20.0498V9.0498H7V11.0498C7 12.1528 7.897 13.0498 9 13.0498H15C16.103 13.0498 17 12.1528 17 11.0498V9.0498H21V20.0498ZM9 11.0498V9.0498H15V11.0498H9ZM22 7.0498H2V4.0498C2 3.4988 2.449 3.0498 3 3.0498H21C21.551 3.0498 22 3.4988 22 4.0498V7.0498Z"
    fill="currentColor"
  />
</svg>
