<svg
  xmlns="http://www.w3.org/2000/svg"
  width="24"
  height="24"
  viewBox="0 0 24 24"
  fill="none"
>
  <path
    fill-rule="evenodd"
    clip-rule="evenodd"
    d="M22.177 5.362 C22.049 5.094 21.799 4.905 21.507 4.854 C21.219 4.802 20.916 4.898 20.706 5.108 L17.624 8.186 L16.348 7.761 L15.923 6.489 L18.995 3.421 C19.204 3.211 19.300 2.910 19.249 2.618 C19.198 2.325 19.008 2.074 18.738 1.948 C16.348 0.820 13.459 1.076 11.370 2.599 C9.062 4.283 7.966 7.075 8.491 9.831 L2.233 16.078 C0.622 17.687 0.500 20.210 1.956 21.826 C2.716 22.668 3.759 23.149 4.891 23.178 C4.927 23.180 4.962 23.180 4.997 23.180 C6.076 23.180 7.125 22.748 7.890 21.985 L14.276 15.607 C16.618 16.049 19.064 15.310 20.761 13.615 C22.931 11.449 23.500 8.132 22.177 5.362 Z M19.469 12.323 C18.106 13.684 16.094 14.220 14.222 13.722 C13.905 13.635 13.571 13.727 13.340 13.958 L6.597 20.690 C6.156 21.133 5.564 21.375 4.939 21.351 C4.312 21.335 3.736 21.069 3.315 20.602 C2.525 19.726 2.620 18.277 3.526 17.373 L10.141 10.768 C10.371 10.537 10.463 10.200 10.378 9.885 C9.794 7.699 10.608 5.418 12.450 4.076 C13.355 3.414 14.469 3.076 15.595 3.076 C15.949 3.076 16.302 3.109 16.653 3.176 L14.229 5.596 C13.984 5.841 13.899 6.203 14.009 6.532 L14.758 8.774 C14.849 9.047 15.063 9.261 15.336 9.352 L17.581 10.099 C17.909 10.207 18.270 10.122 18.515 9.879 L20.955 7.442 C21.297 9.187 20.765 11.029 19.469 12.323 Z M4.605 18.619 C4.605 18.114 5.013 17.701 5.519 17.701 C6.024 17.701 6.433 18.105 6.433 18.610 V18.619 C6.433 19.125 6.024 19.533 5.519 19.533 C5.013 19.533 4.605 19.125 4.605 18.619 Z"
    fill="currentColor"
  />
</svg>
