<svg
  xmlns="http://www.w3.org/2000/svg"
  width="24"
  height="24"
  viewBox="0 0 24 24"
  fill="none"
>
  <path
    fill-rule="evenodd"
    clip-rule="evenodd"
    d="M15.923 2.147 C17.556 0.514 20.202 0.514 21.834 2.147 C23.467 3.779 23.467 6.425 21.834 8.058 L20.229 9.663 C19.869 10.023 19.285 10.023 18.926 9.663 C18.566 9.303 18.566 8.720 18.926 8.360 L20.531 6.754 C21.444 5.842 21.444 4.363 20.531 3.450 C19.618 2.537 18.139 2.537 17.227 3.450 L14.678 5.999 C14.318 6.359 13.734 6.359 13.374 5.999 C13.014 5.639 13.014 5.056 13.374 4.696 L15.923 2.147 Z"
    fill="currentColor"
  />
  <path
    fill-rule="evenodd"
    clip-rule="evenodd"
    d="M6.773 1.978 L16.315 11.529 C18.376 11.183 20.592 11.952 21.975 13.847 C23.235 15.575 23.377 17.863 22.496 19.729 C22.367 20.000 22.115 20.192 21.820 20.243 C21.524 20.294 21.222 20.199 21.010 19.986 L18.749 17.723 L18.005 17.972 L17.756 18.719 L20.025 20.990 C20.237 21.202 20.332 21.503 20.282 21.798 C20.231 22.093 20.040 22.345 19.770 22.473 C17.619 23.500 14.964 23.130 13.179 21.343 C11.800 19.963 11.267 18.064 11.566 16.281 L1.925 6.631 C0.533 5.238 0.620 2.926 2.180 1.649 C3.585 0.500 5.586 0.789 6.773 1.978 Z M3.347 3.075 C2.639 3.656 2.600 4.699 3.229 5.328 L13.224 15.333 C13.457 15.566 13.548 15.904 13.463 16.222 C13.110 17.545 13.451 19.008 14.482 20.040 M3.347 3.075 C3.917 2.609 4.854 2.664 5.469 3.280 L15.366 13.187 C15.599 13.419 15.938 13.510 16.256 13.426 C17.763 13.023 19.455 13.521 20.486 14.934 C21.043 15.697 21.280 16.642 21.199 17.568 L19.650 16.017 C19.403 15.770 19.038 15.684 18.706 15.794 L16.984 16.369 C16.709 16.461 16.493 16.677 16.402 16.952 L15.828 18.676 C15.717 19.007 15.803 19.372 16.050 19.619 L17.611 21.181 C16.490 21.277 15.339 20.897 14.482 20.040"
    fill="currentColor"
  />
  <path
    fill-rule="evenodd"
    clip-rule="evenodd"
    d="M4.800 14.202 C4.975 13.983 5.239 13.856 5.519 13.856 H6.441 C6.950 13.856 7.362 14.268 7.362 14.777 C7.362 15.286 6.950 15.699 6.441 15.699 H5.962 L3.068 19.317 L4.665 20.914 L8.283 18.020 V17.541 C8.283 17.032 8.696 16.619 9.204 16.619 C9.713 16.619 10.126 17.032 10.126 17.541 V18.462 C10.126 18.742 9.999 19.007 9.780 19.182 L5.237 22.817 C4.837 23.136 4.256 23.110 3.887 22.742 L1.240 20.095 C0.871 19.726 0.845 19.145 1.165 18.745 L4.800 14.202 Z"
    fill="currentColor"
  />
</svg>
