<svg
  xmlns="http://www.w3.org/2000/svg"
  width="24"
  height="24"
  viewBox="0 0 24 24"
  fill="none"
>
  <path
    d="M20.625 6.250 H17.750 V3.376 C17.750 1.790 16.459 0.500 14.874 0.500 H9.126 C7.541 0.500 6.250 1.790 6.250 3.376 V6.250 H3.375 C1.790 6.250 0.500 7.540 0.500 9.125 V20.625 C0.500 22.210 1.790 23.500 3.375 23.500 H20.625 C22.210 23.500 23.500 22.210 23.500 20.625 V9.125 C23.500 7.540 22.210 6.250 20.625 6.250 Z M8.167 3.376 C8.167 2.847 8.597 2.417 9.126 2.417 H14.874 C15.403 2.417 15.833 2.847 15.833 3.376 V6.250 H8.167 V3.376 Z M21.583 20.625 C21.583 21.153 21.154 21.583 20.625 21.583 H3.375 C2.846 21.583 2.417 21.153 2.417 20.625 V13.424 L9.992 16.921 C10.631 17.215 11.315 17.362 12.000 17.362 C12.685 17.362 13.369 17.215 14.008 16.920 L21.583 13.423 V20.625 Z M21.583 11.313 L13.205 15.180 C12.439 15.533 11.561 15.533 10.795 15.180 L2.417 11.313 V9.125 C2.417 8.597 2.846 8.167 3.375 8.167 H20.625 C21.154 8.167 21.583 8.597 21.583 9.125 V11.313 Z"
    fill="currentColor"
  />
</svg>
