<svg
  xmlns="http://www.w3.org/2000/svg"
  width="24"
  height="24"
  viewBox="0 0 24 24"
  fill="none"
>
  <path
    fill-rule="evenodd"
    d="M20.625 2.417 H18.708 V1.458 C18.708 0.929 18.279 0.500 17.750 0.500 C17.221 0.500 16.792 0.929 16.792 1.458 V2.417 H7.208 V1.458 C7.208 0.929 6.779 0.500 6.250 0.500 C5.721 0.500 5.292 0.929 5.292 1.458 V2.417 H3.375 C1.790 2.417 0.500 3.707 0.500 5.292 V20.625 C0.500 22.210 1.790 23.500 3.375 23.500 H20.625 C22.210 23.500 23.500 22.210 23.500 20.625 V5.292 C23.500 3.707 22.210 2.417 20.625 2.417 Z M21.583 20.625 C21.583 21.154 21.153 21.583 20.625 21.583 H3.375 C2.846 21.583 2.417 21.153 2.417 20.625 V11.042 H21.583 V20.625 Z M21.583 9.125 H2.417 V5.292 C2.417 4.763 2.847 4.333 3.375 4.333 H5.292 V6.250 C5.292 6.779 5.721 7.208 6.250 7.208 C6.779 7.208 7.208 6.779 7.208 6.250 V4.333 H16.792 V6.250 C16.792 6.779 17.221 7.208 17.750 7.208 C18.279 7.208 18.708 6.779 18.708 6.250 V4.333 H20.625 C21.154 4.333 21.583 4.764 21.583 5.292 V9.125 Z M16.312 19.667 C18.162 19.667 19.667 18.162 19.667 16.312 C19.667 14.463 18.162 12.958 16.312 12.958 C14.463 12.958 12.958 14.463 12.958 16.312 C12.958 18.162 14.463 19.667 16.312 19.667 Z M16.312 14.875 C17.105 14.875 17.750 15.520 17.750 16.312 C17.750 17.105 17.105 17.750 16.312 17.750 C15.520 17.750 14.875 17.105 14.875 16.312 C14.875 15.520 15.520 14.875 16.312 14.875 Z"
    fill="currentColor"
  />
</svg>
