<svg
  xmlns="http://www.w3.org/2000/svg"
  width="24"
  height="24"
  viewBox="0 0 24 24"
  fill="none"
>
  <path
    fill-rule="evenodd"
    d="M20.625 2.417 H18.708 V1.458 C18.708 0.929 18.279 0.500 17.750 0.500 C17.221 0.500 16.792 0.929 16.792 1.458 V2.417 H7.208 V1.458 C7.208 0.929 6.779 0.500 6.250 0.500 C5.721 0.500 5.292 0.929 5.292 1.458 V2.417 H3.375 C1.790 2.417 0.500 3.707 0.500 5.292 V20.625 C0.500 22.210 1.790 23.500 3.375 23.500 H20.625 C22.210 23.500 23.500 22.210 23.500 20.625 V5.292 C23.500 3.707 22.210 2.417 20.625 2.417 Z M21.583 20.625 C21.583 21.154 21.153 21.583 20.625 21.583 H3.375 C2.846 21.583 2.417 21.153 2.417 20.625 V11.042 H21.583 V20.625 Z M21.583 9.125 H2.417 V5.292 C2.417 4.763 2.847 4.333 3.375 4.333 H5.292 V6.250 C5.292 6.779 5.721 7.208 6.250 7.208 C6.779 7.208 7.208 6.779 7.208 6.250 V4.333 H16.792 V6.250 C16.792 6.779 17.221 7.208 17.750 7.208 C18.279 7.208 18.708 6.779 18.708 6.250 V4.333 H20.625 C21.154 4.333 21.583 4.764 21.583 5.292 V9.125 Z"
    fill="currentColor"
  />
  <path
    fill-rule="evenodd"
    d="M16.708 16.672 L18.746 14.834 C18.855 14.734 18.855 14.571 18.746 14.471 C18.637 14.371 18.460 14.371 18.351 14.471 L16.312 16.309 L14.274 14.471 C14.165 14.371 13.988 14.371 13.879 14.471 C13.770 14.571 13.770 14.734 13.879 14.834 L15.917 16.672 L13.879 18.510 C13.770 18.610 13.770 18.772 13.879 18.873 C13.933 18.923 14.005 18.948 14.076 18.948 C14.148 18.948 14.220 18.923 14.274 18.873 L16.312 17.035 L18.351 18.873 C18.405 18.923 18.477 18.948 18.549 18.948 C18.620 18.948 18.692 18.923 18.746 18.873 C18.855 18.772 18.855 18.610 18.746 18.510 L16.708 16.672 Z"
    fill="currentColor"
    stroke="currentColor"
  />
</svg>
