<svg
  width="24"
  height="24"
  viewBox="0 0 24 24"
  fill="none"
  xmlns="http://www.w3.org/2000/svg"
>
  <path
    d="M12 8.75146C8.967 8.75146 6.5 11.2185 6.5 14.2515C6.5 17.2845 8.967 19.7515 12 19.7515C15.033 19.7515 17.5 17.2845 17.5 14.2515C17.5 11.2185 15.033 8.75146 12 8.75146ZM12 17.7515C10.07 17.7515 8.5 16.1815 8.5 14.2515C8.5 12.3215 10.07 10.7515 12 10.7515C13.93 10.7515 15.5 12.3215 15.5 14.2515C15.5 16.1815 13.93 17.7515 12 17.7515ZM21 4.75146H18.535L16.832 2.19646C16.646 1.91846 16.334 1.75146 16 1.75146H8C7.666 1.75146 7.354 1.91846 7.168 2.19646L5.465 4.75146H3C1.346 4.75146 0 6.09746 0 7.75146V20.7515C0 22.4055 1.346 23.7515 3 23.7515H21C22.654 23.7515 24 22.4055 24 20.7515V7.75146C24 6.09746 22.654 4.75146 21 4.75146ZM22 20.7515C22 21.3025 21.551 21.7515 21 21.7515H3C2.449 21.7515 2 21.3025 2 20.7515V7.75146C2 7.20046 2.449 6.75146 3 6.75146H6C6.334 6.75146 6.646 6.58446 6.832 6.30646L8.536 3.75146H15.465L17.168 6.30646C17.354 6.58446 17.666 6.75146 18 6.75146H21C21.551 6.75146 22 7.20046 22 7.75146V20.7515ZM19 8.74646C18.448 8.74646 18 9.19946 18 9.75146C18 10.3035 18.448 10.7515 19 10.7515C19.552 10.7515 20 10.3035 20 9.75146V9.74146C20 9.18946 19.552 8.74646 19 8.74646Z"
    fill="currentColor"
  />
</svg>
