<svg
  xmlns="http://www.w3.org/2000/svg"
  width="24"
  height="24"
  viewBox="0 0 24 24"
  fill="none"
>
  <path
    fill-rule="evenodd"
    clip-rule="evenodd"
    d="M20.625 10.490 V5.292 C20.625 2.650 18.475 0.500 15.833 0.500 H8.167 C5.525 0.500 3.375 2.650 3.375 5.292 V10.490 C1.685 11.231 0.500 12.915 0.500 14.875 V18.708 C0.500 19.237 0.929 19.667 1.458 19.667 H2.417 V22.542 C2.417 23.071 2.846 23.500 3.375 23.500 C3.904 23.500 4.333 23.071 4.333 22.542 V19.667 H19.667 V22.542 C19.667 23.071 20.096 23.500 20.625 23.500 C21.154 23.500 21.583 23.071 21.583 22.542 V19.667 H22.542 C23.071 19.667 23.500 19.237 23.500 18.708 V14.875 C23.500 12.915 22.315 11.231 20.625 10.490 Z M5.292 13.912 C4.763 13.912 4.333 14.346 4.333 14.875 C4.333 15.404 4.763 15.833 5.292 15.833 C5.821 15.833 6.250 15.404 6.250 14.875 V14.865 C6.250 14.336 5.821 13.912 5.292 13.912 Z M8.167 2.417 C6.582 2.417 5.292 3.707 5.292 5.292 V10.083 H18.708 V5.292 C18.708 3.707 17.418 2.417 15.833 2.417 H8.167 Z M21.583 17.750 H2.417 V14.875 C2.417 13.290 3.707 12.000 5.292 12.000 H18.708 C20.293 12.000 21.583 13.290 21.583 14.875 V17.750 Z M17.750 14.875 C17.750 14.346 18.179 13.912 18.708 13.912 C19.237 13.912 19.667 14.336 19.667 14.865 V14.875 C19.667 15.404 19.237 15.833 18.708 15.833 C18.179 15.833 17.750 15.404 17.750 14.875 Z"
    fill="currentColor"
  />
</svg>
