<svg
  width="24"
  height="24"
  viewBox="0 0 24 24"
  fill="none"
  xmlns="http://www.w3.org/2000/svg"
>
  <path
    d="M8 17.0116C8.553 17.0116 9 16.5586 9 16.0066C9 15.4546 8.553 15.0066 8 15.0066C7.447 15.0066 7 15.4546 7 16.0066V16.0166C7 16.5686 7.447 17.0116 8 17.0116ZM21 3.0166H3C1.346 3.0166 0 4.3626 0 6.0166V18.0166C0 19.6706 1.346 21.0166 3 21.0166H21C22.654 21.0166 24 19.6706 24 18.0166V6.0166C24 4.3626 22.654 3.0166 21 3.0166ZM22 18.0166C22 18.5676 21.552 19.0166 21 19.0166H3C2.448 19.0166 2 18.5676 2 18.0166V11.0166H22V18.0166ZM22 9.0166H2V6.0166C2 5.4656 2.448 5.0166 3 5.0166H21C21.552 5.0166 22 5.4656 22 6.0166V9.0166ZM5 17.0116C5.553 17.0116 6 16.5586 6 16.0066C6 15.4546 5.553 15.0066 5 15.0066C4.447 15.0066 4 15.4546 4 16.0066V16.0166C4 16.5686 4.447 17.0116 5 17.0116Z"
    fill="currentColor"
  />
</svg>
