<svg
  width="24"
  height="24"
  viewBox="0 0 24 24"
  fill="none"
  xmlns="http://www.w3.org/2000/svg"
>
  <path
    fill-rule="evenodd"
    clip-rule="evenodd"
    d="M11.2929 4.09953C11.6834 3.70901 12.3166 3.70901 12.7071 4.09953L16.7071 8.09953C17.0976 8.49006 17.0976 9.12322 16.7071 9.51375C16.3166 9.90427 15.6834 9.90427 15.2929 9.51375L12 6.22085L8.70711 9.51375C8.31658 9.90427 7.68342 9.90427 7.29289 9.51375C6.90237 9.12322 6.90237 8.49006 7.29289 8.09953L11.2929 4.09953Z"
    fill="currentColor"
  />
  <path
    fill-rule="evenodd"
    clip-rule="evenodd"
    d="M12.7071 21.5137C12.3166 21.9043 11.6834 21.9043 11.2929 21.5137L7.29289 17.5137C6.90237 17.1232 6.90237 16.4901 7.29289 16.0995C7.68342 15.709 8.31658 15.709 8.70711 16.0995L12 19.3924L15.2929 16.0995C15.6834 15.709 16.3166 15.709 16.7071 16.0995C17.0976 16.4901 17.0976 17.1232 16.7071 17.5137L12.7071 21.5137Z"
    fill="currentColor"
  />
</svg>
