<svg
  width="24"
  height="24"
  viewBox="0 0 24 24"
  fill="none"
  xmlns="http://www.w3.org/2000/svg"
>
  <path
    fill-rule="evenodd"
    clip-rule="evenodd"
    d="M3 5.0166C2.44728 5.0166 2 5.46389 2 6.0166V18.0166C2 18.5693 2.44728 19.0166 3 19.0166H21C21.5527 19.0166 22 18.5693 22 18.0166V6.0166C22 5.46389 21.5527 5.0166 21 5.0166H3ZM0 6.0166C0 4.35932 1.34272 3.0166 3 3.0166H21C22.6573 3.0166 24 4.35932 24 6.0166V18.0166C24 19.6739 22.6573 21.0166 21 21.0166H3C1.34272 21.0166 0 19.6739 0 18.0166V6.0166Z"
    fill="currentColor"
  />
  <path
    fill-rule="evenodd"
    clip-rule="evenodd"
    d="M11.7572 14.7605C11.4844 14.4487 11.516 13.9749 11.8278 13.7022L13.7541 12.0166L11.8278 10.331C11.516 10.0583 11.4844 9.58444 11.7572 9.27271C12.03 8.96098 12.5038 8.9294 12.8155 9.20216L15.3869 11.4522C15.5497 11.5946 15.6431 11.8003 15.6431 12.0166C15.6431 12.2329 15.5497 12.4386 15.3869 12.581L12.8155 14.831C12.5038 15.1038 12.03 15.0722 11.7572 14.7605Z"
    fill="currentColor"
  />
  <path
    fill-rule="evenodd"
    clip-rule="evenodd"
    d="M15.6431 12.0166C15.6431 12.4308 15.3073 12.7666 14.8931 12.7666L9.10735 12.7666C8.69314 12.7666 8.35735 12.4308 8.35735 12.0166C8.35735 11.6024 8.69314 11.2666 9.10735 11.2666L14.8931 11.2666C15.3073 11.2666 15.6431 11.6024 15.6431 12.0166Z"
    fill="currentColor"
  />
</svg>
