<svg
  xmlns="http://www.w3.org/2000/svg"
  width="24"
  height="24"
  viewBox="0 0 24 24"
  fill="none"
>
  <path
    fill-rule="evenodd"
    clip-rule="evenodd"
    d="M0.500 10.057 C0.500 5.029 4.576 0.952 9.604 0.952 H14.396 C19.424 0.952 23.500 5.029 23.500 10.057 C23.500 15.084 19.424 19.161 14.396 19.161 H14.207 L8.698 22.833 C8.404 23.029 8.026 23.048 7.714 22.881 C7.403 22.714 7.208 22.389 7.208 22.036 V18.834 C3.345 17.782 0.500 14.257 0.500 10.057 Z M9.604 2.869 C5.635 2.869 2.417 6.087 2.417 10.057 C2.417 13.590 4.970 16.524 8.335 17.125 C8.792 17.206 9.125 17.604 9.125 18.068 V20.245 L13.385 17.405 C13.543 17.300 13.727 17.244 13.917 17.244 H14.396 C18.365 17.244 21.583 14.026 21.583 10.057 C21.583 6.087 18.365 2.869 14.396 2.869 H9.604 Z"
    fill="currentColor"
  />
  <path
    fill-rule="evenodd"
    clip-rule="evenodd"
    d="M7.208 9.577 C7.738 9.577 8.167 10.007 8.167 10.536 V10.545 C8.167 11.075 7.738 11.504 7.208 11.504 C6.679 11.504 6.250 11.075 6.250 10.545 V10.536 C6.250 10.007 6.679 9.577 7.208 9.577 Z"
    fill="currentColor"
  />
  <path
    fill-rule="evenodd"
    clip-rule="evenodd"
    d="M12.000 9.577 C12.529 9.577 12.958 10.007 12.958 10.536 V10.545 C12.958 11.075 12.529 11.504 12.000 11.504 C11.471 11.504 11.042 11.075 11.042 10.545 V10.536 C11.042 10.007 11.471 9.577 12.000 9.577 Z"
    fill="currentColor"
  />
  <path
    fill-rule="evenodd"
    clip-rule="evenodd"
    d="M16.792 9.577 C17.321 9.577 17.750 10.007 17.750 10.536 V10.545 C17.750 11.075 17.321 11.504 16.792 11.504 C16.262 11.504 15.833 11.075 15.833 10.545 V10.536 C15.833 10.007 16.262 9.577 16.792 9.577 Z"
    fill="currentColor"
  />
</svg>
