<svg
  xmlns="http://www.w3.org/2000/svg"
  width="24"
  height="24"
  viewBox="0 0 24 24"
  fill="none"
>
  <path
    fill-rule="evenodd"
    clip-rule="evenodd"
    d="M7.252 0.500 C6.728 0.500 6.303 0.929 6.303 1.458 V7.208 H4.404 V3.375 C4.404 2.846 3.979 2.417 3.454 2.417 C2.930 2.417 2.505 2.846 2.505 3.375 V7.208 H1.555 C1.031 7.208 0.606 7.637 0.606 8.167 V12.000 V15.833 V22.542 C0.606 23.071 1.031 23.500 1.555 23.500 H7.250 L7.252 23.500 H16.748 L16.750 23.500 H22.445 C22.969 23.500 23.394 23.071 23.394 22.542 V15.833 V12.000 V8.167 C23.394 7.637 22.969 7.208 22.445 7.208 H17.697 V1.458 C17.697 0.929 17.272 0.500 16.748 0.500 H7.252 Z M2.505 16.792 H3.454 C3.979 16.792 4.404 16.363 4.404 15.833 C4.404 15.304 3.979 14.875 3.454 14.875 H2.505 V12.958 H3.454 C3.979 12.958 4.404 12.529 4.404 12.000 C4.404 11.471 3.979 11.042 3.454 11.042 H2.505 V9.125 H3.453 L3.454 9.125 L3.455 9.125 H6.303 V21.583 H2.505 V16.792 Z M21.495 11.042 H20.546 C20.021 11.042 19.596 11.471 19.596 12.000 C19.596 12.529 20.021 12.958 20.546 12.958 H21.495 V14.875 H20.546 C20.021 14.875 19.596 15.304 19.596 15.833 C19.596 16.363 20.021 16.792 20.546 16.792 H21.495 V21.583 H17.697 V9.125 H21.495 V11.042 Z M8.202 21.583 H15.798 V8.167 V2.417 H8.202 V8.167 V21.583 Z M11.050 4.333 C10.526 4.333 10.101 4.762 10.101 5.292 C10.101 5.821 10.526 6.250 11.050 6.250 H12.950 C13.474 6.250 13.899 5.821 13.899 5.292 C13.899 4.762 13.474 4.333 12.950 4.333 H11.050 Z M10.101 9.125 C10.101 8.596 10.526 8.167 11.050 8.167 H12.950 C13.474 8.167 13.899 8.596 13.899 9.125 C13.899 9.654 13.474 10.083 12.950 10.083 H11.050 C10.526 10.083 10.101 9.654 10.101 9.125 Z M11.050 12.000 C10.526 12.000 10.101 12.429 10.101 12.958 C10.101 13.488 10.526 13.917 11.050 13.917 H12.950 C13.474 13.917 13.899 13.488 13.899 12.958 C13.899 12.429 13.474 12.000 12.950 12.000 H11.050 Z"
    fill="currentColor"
  />
</svg>
