<svg
  xmlns="http://www.w3.org/2000/svg"
  width="24"
  height="24"
  viewBox="0 0 24 24"
  fill="none"
>
  <path
    fill-rule="evenodd"
    clip-rule="evenodd"
    d="M21.003 18.054 L14.281 5.054 C13.846 4.213 12.964 3.683 12.000 3.683 C11.036 3.683 10.154 4.213 9.719 5.054 L2.997 18.054 C2.461 19.092 3.232 20.317 4.422 20.317 H19.579 C20.768 20.317 21.539 19.092 21.003 18.054 Z M12.000 2.123 C10.434 2.123 9.001 2.985 8.295 4.350 L1.573 17.351 C0.500 19.426 2.043 21.877 4.422 21.877 H19.579 C21.957 21.877 23.500 19.426 22.427 17.351 L15.705 4.350 C14.999 2.985 13.566 2.123 12.000 2.123 Z"
    fill="currentColor"
  />
  <path
    fill-rule="evenodd"
    clip-rule="evenodd"
    d="M12.000 15.591 C12.992 15.591 13.796 14.788 13.796 13.796 C13.796 12.804 12.992 12.000 12.000 12.000 C11.008 12.000 10.204 12.804 10.204 13.796 C10.204 14.788 11.008 15.591 12.000 15.591 Z M12.000 17.387 C13.984 17.387 15.592 15.779 15.592 13.796 C15.592 11.812 13.984 10.204 12.000 10.204 C10.016 10.204 8.409 11.812 8.409 13.796 C8.409 15.779 10.016 17.387 12.000 17.387 Z"
    fill="currentColor"
  />
</svg>
