<svg
  xmlns="http://www.w3.org/2000/svg"
  width="24"
  height="24"
  viewBox="0 0 24 24"
  fill="none"
>
  <path
    fill-rule="evenodd"
    d="M12.000 6.245 C12.529 6.245 12.958 5.811 12.958 5.282 C12.958 4.753 12.529 4.324 12.000 4.324 C11.471 4.324 11.042 4.753 11.042 5.282 V5.292 C11.042 5.821 11.471 6.245 12.000 6.245 Z M14.557 10.510 L11.255 15.462 L9.178 14.078 C8.736 13.784 8.142 13.902 7.849 14.343 C7.555 14.784 7.674 15.378 8.114 15.672 L10.989 17.589 C11.153 17.697 11.338 17.750 11.520 17.750 C11.829 17.750 12.133 17.601 12.318 17.324 L16.151 11.574 C16.445 11.134 16.326 10.538 15.886 10.244 C15.444 9.950 14.850 10.069 14.557 10.510 Z M18.708 3.375 H16.378 C15.627 1.651 13.920 0.500 12.000 0.500 C10.080 0.500 8.373 1.651 7.622 3.375 H5.292 C3.707 3.375 2.417 4.665 2.417 6.250 V20.625 C2.417 22.210 3.707 23.500 5.292 23.500 H18.708 C20.293 23.500 21.583 22.210 21.583 20.625 V6.250 C21.583 4.665 20.293 3.375 18.708 3.375 Z M19.667 20.625 C19.667 21.154 19.236 21.583 18.708 21.583 H5.292 C4.764 21.583 4.333 21.154 4.333 20.625 V6.250 C4.333 5.722 4.764 5.292 5.292 5.292 H8.303 C8.739 5.292 9.121 4.996 9.230 4.573 C9.559 3.303 10.698 2.417 12.000 2.417 C13.302 2.417 14.441 3.304 14.771 4.574 C14.880 4.996 15.261 5.292 15.698 5.292 H18.708 C19.236 5.292 19.667 5.722 19.667 6.250 V20.625 Z"
    fill="currentColor"
  />
</svg>
