<svg
  xmlns="http://www.w3.org/2000/svg"
  width="24"
  height="24"
  viewBox="0 0 24 24"
  fill="none"
>
  <path
    d="M12.000 0.500 C5.659 0.500 0.500 5.659 0.500 12.000 C0.500 18.341 5.659 23.500 12.000 23.500 C18.341 23.500 23.500 18.341 23.500 12.000 C23.500 5.659 18.341 0.500 12.000 0.500 Z M12.000 21.583 C6.716 21.583 2.417 17.284 2.417 12.000 C2.417 6.716 6.716 2.417 12.000 2.417 C17.284 2.417 21.583 6.716 21.583 12.000 C21.583 17.284 17.284 21.583 12.000 21.583 Z M12.000 6.250 C11.471 6.250 11.042 6.678 11.042 7.208 V12.000 H8.167 C7.638 12.000 7.208 12.428 7.208 12.958 C7.208 13.488 7.638 13.917 8.167 13.917 H12.000 C12.529 13.917 12.958 13.488 12.958 12.958 V7.208 C12.958 6.678 12.529 6.250 12.000 6.250 Z"
    fill="currentColor"
  />
</svg>
