<svg
  width="24"
  height="24"
  viewBox="0 0 24 24"
  fill="none"
  xmlns="http://www.w3.org/2000/svg"
>
  <path
    d="M13.4139 11.5L20.7068 3.82913C21.0977 3.41022 21.0977 2.7331 20.7068 2.31418C20.3158 1.89527 19.6838 1.89527 19.2928 2.31418L12 9.98505L4.70719 2.31418C4.3162 1.89527 3.68423 1.89527 3.29324 2.31418C2.90225 2.7331 2.90225 3.41022 3.29324 3.82913L10.5861 11.5L3.29324 19.1709C2.90225 19.5898 2.90225 20.2669 3.29324 20.6858C3.48823 20.8947 3.74422 20.9997 4.00021 20.9997C4.2562 20.9997 4.5122 20.8947 4.70719 20.6858L12 13.0149L19.2928 20.6858C19.4878 20.8947 19.7438 20.9997 19.9998 20.9997C20.2558 20.9997 20.5118 20.8947 20.7068 20.6858C21.0977 20.2669 21.0977 19.5898 20.7068 19.1709L13.4139 11.5Z"
    fill="currentColor"
  />
</svg>
