<svg
  xmlns="http://www.w3.org/2000/svg"
  width="24"
  height="24"
  viewBox="0 0 24 24"
  fill="none"
>
  <path
    fill-rule="evenodd"
    clip-rule="evenodd"
    d="M5.292 0.500 C3.704 0.500 2.417 1.787 2.417 3.375 V14.875 C2.417 16.463 3.704 17.750 5.292 17.750 H6.250 C6.779 17.750 7.208 17.321 7.208 16.792 C7.208 16.262 6.779 15.833 6.250 15.833 H5.292 C4.762 15.833 4.333 15.404 4.333 14.875 V3.375 C4.333 2.846 4.762 2.417 5.292 2.417 H12.958 C13.488 2.417 13.917 2.846 13.917 3.375 V4.333 C13.917 4.863 14.346 5.292 14.875 5.292 C15.404 5.292 15.833 4.863 15.833 4.333 V3.375 C15.833 1.787 14.546 0.500 12.958 0.500 H5.292 Z M11.042 6.250 C9.454 6.250 8.167 7.537 8.167 9.125 V20.625 C8.167 22.213 9.454 23.500 11.042 23.500 H18.708 C20.296 23.500 21.583 22.213 21.583 20.625 V9.125 C21.583 7.537 20.296 6.250 18.708 6.250 H11.042 Z M10.083 9.125 C10.083 8.596 10.512 8.167 11.042 8.167 H18.708 C19.238 8.167 19.667 8.596 19.667 9.125 V20.625 C19.667 21.154 19.238 21.583 18.708 21.583 H11.042 C10.512 21.583 10.083 21.154 10.083 20.625 V9.125 Z"
    fill="currentColor"
  />
</svg>
