<svg
  xmlns="http://www.w3.org/2000/svg"
  width="24"
  height="24"
  viewBox="0 0 24 24"
  fill="none"
>
  <path
    fill-rule="evenodd"
    d="M16.792 19.667 C16.262 19.667 15.833 20.096 15.833 20.625 V22.542 C15.833 23.071 16.262 23.500 16.792 23.500 C17.322 23.500 17.750 23.071 17.750 22.542 V20.625 C17.750 20.096 17.322 19.667 16.792 19.667 Z M22.542 15.833 H17.750 V7.208 C17.750 6.679 17.322 6.250 16.792 6.250 H8.167 V1.458 C8.167 0.929 7.738 0.500 7.208 0.500 C6.678 0.500 6.250 0.929 6.250 1.458 V6.250 H1.458 C0.928 6.250 0.500 6.679 0.500 7.208 C0.500 7.737 0.928 8.167 1.458 8.167 H15.833 V15.833 H8.167 V11.042 C8.167 10.513 7.738 10.083 7.208 10.083 C6.678 10.083 6.250 10.513 6.250 11.042 V16.792 C6.250 17.321 6.678 17.750 7.208 17.750 H22.542 C23.072 17.750 23.500 17.321 23.500 16.792 C23.500 16.263 23.072 15.833 22.542 15.833 Z"
    fill="currentColor"
  />
</svg>
