<svg
  width="24"
  height="24"
  viewBox="0 0 24 24"
  fill="none"
  xmlns="http://www.w3.org/2000/svg"
>
  <path
    fill-rule="evenodd"
    clip-rule="evenodd"
    d="M11 4.5083C11 5.06059 10.5523 5.5083 10 5.5083H7V15.5083H16.0168L13.3417 13.2154C12.8861 12.8249 12.8861 12.1917 13.3417 11.8012C13.7973 11.4107 14.536 11.4107 14.9916 11.8012L19.6583 15.8012C20.1139 16.1917 20.1139 16.8249 19.6583 17.2154L14.9916 21.2154C14.536 21.6059 13.7973 21.6059 13.3417 21.2154C12.8861 20.8249 12.8861 20.1917 13.3417 19.8012L16.0168 17.5083H6C5.44771 17.5083 5 17.0606 5 16.5083V4.5083C5 3.95602 5.44771 3.5083 6 3.5083H10C10.5523 3.5083 11 3.95602 11 4.5083Z"
    fill="currentColor"
  />
</svg>
