<svg
  width="24"
  height="24"
  viewBox="0 0 24 24"
  fill="none"
  xmlns="http://www.w3.org/2000/svg"
>
  <path
    fill-rule="evenodd"
    clip-rule="evenodd"
    d="M13 4.5083C13 5.06059 13.4477 5.5083 14 5.5083H17V15.5083H7.98325L10.6583 13.2154C11.1139 12.8249 11.1139 12.1917 10.6583 11.8012C10.2027 11.4107 9.46399 11.4107 9.00838 11.8012L4.34171 15.8012C3.8861 16.1917 3.8861 16.8249 4.34171 17.2154L9.00837 21.2154C9.46399 21.6059 10.2027 21.6059 10.6583 21.2154C11.1139 20.8249 11.1139 20.1917 10.6583 19.8012L7.98325 17.5083H18C18.5523 17.5083 19 17.0606 19 16.5083V4.5083C19 3.95602 18.5523 3.5083 18 3.5083H14C13.4477 3.5083 13 3.95602 13 4.5083Z"
    fill="currentColor"
  />
</svg>
