<svg
  xmlns="http://www.w3.org/2000/svg"
  width="24"
  height="24"
  viewBox="0 0 24 24"
  fill="none"
>
  <path
    fill-rule="evenodd"
    clip-rule="evenodd"
    d="M12.000 1.458 C12.529 1.458 12.958 1.887 12.958 2.417 V4.333 C12.958 4.863 12.529 5.292 12.000 5.292 C11.471 5.292 11.042 4.863 11.042 4.333 V2.417 C11.042 1.887 11.471 1.458 12.000 1.458 Z"
    fill="currentColor"
  />
  <path
    fill-rule="evenodd"
    clip-rule="evenodd"
    d="M18.708 12.000 C18.708 11.471 19.137 11.042 19.667 11.042 H21.583 C22.113 11.042 22.542 11.471 22.542 12.000 C22.542 12.529 22.113 12.958 21.583 12.958 H19.667 C19.137 12.958 18.708 12.529 18.708 12.000 Z"
    fill="currentColor"
  />
  <path
    fill-rule="evenodd"
    clip-rule="evenodd"
    d="M1.458 12.000 C1.458 11.471 1.887 11.042 2.417 11.042 H4.333 C4.863 11.042 5.292 11.471 5.292 12.000 C5.292 12.529 4.863 12.958 4.333 12.958 H2.417 C1.887 12.958 1.458 12.529 1.458 12.000 Z"
    fill="currentColor"
  />
  <path
    fill-rule="evenodd"
    clip-rule="evenodd"
    d="M19.454 4.546 C19.829 4.920 19.829 5.527 19.454 5.901 L18.099 7.256 C17.725 7.631 17.118 7.631 16.744 7.256 C16.370 6.882 16.370 6.275 16.744 5.901 L18.099 4.546 C18.473 4.172 19.080 4.172 19.454 4.546 Z"
    fill="currentColor"
  />
  <path
    fill-rule="evenodd"
    clip-rule="evenodd"
    d="M4.546 4.546 C4.920 4.172 5.527 4.172 5.901 4.546 L7.257 5.901 C7.631 6.275 7.631 6.882 7.257 7.256 C6.882 7.631 6.276 7.631 5.901 7.256 L4.546 5.901 C4.172 5.527 4.172 4.920 4.546 4.546 Z"
    fill="currentColor"
  />
  <path
    fill-rule="evenodd"
    clip-rule="evenodd"
    d="M12.000 13.917 C11.471 13.917 11.042 14.346 11.042 14.875 C11.042 15.404 11.471 15.833 12.000 15.833 C12.529 15.833 12.958 15.404 12.958 14.875 C12.958 14.346 12.529 13.917 12.000 13.917 Z M9.125 14.875 C9.125 13.287 10.412 12.000 12.000 12.000 C13.588 12.000 14.875 13.287 14.875 14.875 C14.875 16.463 13.588 17.750 12.000 17.750 C10.412 17.750 9.125 16.463 9.125 14.875 Z"
    fill="currentColor"
  />
  <path
    fill-rule="evenodd"
    clip-rule="evenodd"
    d="M16.990 9.885 C17.364 10.259 17.364 10.866 16.990 11.240 L14.033 14.198 C13.658 14.572 13.052 14.572 12.677 14.198 C12.303 13.823 12.303 13.216 12.677 12.842 L15.635 9.885 C16.009 9.511 16.616 9.511 16.990 9.885 Z"
    fill="currentColor"
  />
  <path
    fill-rule="evenodd"
    clip-rule="evenodd"
    d="M12.000 2.417 C6.707 2.417 2.417 6.707 2.417 12.000 C2.417 17.293 6.707 21.583 12.000 21.583 C17.293 21.583 21.583 17.293 21.583 12.000 C21.583 6.707 17.293 2.417 12.000 2.417 Z M0.500 12.000 C0.500 5.649 5.649 0.500 12.000 0.500 C18.351 0.500 23.500 5.649 23.500 12.000 C23.500 18.351 18.351 23.500 12.000 23.500 C5.649 23.500 0.500 18.351 0.500 12.000 Z"
    fill="currentColor"
  />
</svg>
