<svg
  xmlns="http://www.w3.org/2000/svg"
  width="24"
  height="24"
  viewBox="0 0 24 24"
  fill="none"
>
  <path
    d="M16.511 18.031 C16.136 17.656 15.530 17.656 15.156 18.031 L12.958 20.228 V12.958 C12.958 12.429 12.529 12.000 12.000 12.000 C11.471 12.000 11.042 12.429 11.042 12.958 V20.228 L8.844 18.031 C8.470 17.656 7.864 17.656 7.489 18.031 C7.114 18.406 7.114 19.011 7.489 19.386 L11.322 23.219 C11.411 23.307 11.517 23.377 11.634 23.426 C11.751 23.474 11.875 23.500 12.000 23.500 C12.125 23.500 12.249 23.474 12.366 23.426 C12.483 23.377 12.589 23.307 12.678 23.219 L16.511 19.386 C16.886 19.011 16.886 18.406 16.511 18.031 Z M21.303 6.531 L15.553 0.781 C15.373 0.601 15.129 0.500 14.875 0.500 H5.292 C3.707 0.500 2.417 1.790 2.417 3.375 V20.625 C2.417 22.210 3.707 23.500 5.292 23.500 H7.208 C7.737 23.500 8.167 23.071 8.167 22.542 C8.167 22.013 7.737 21.583 7.208 21.583 H5.292 C4.764 21.583 4.333 21.153 4.333 20.625 V3.375 C4.333 2.847 4.764 2.417 5.292 2.417 H14.478 L19.667 7.605 V20.625 C19.667 21.153 19.236 21.583 18.708 21.583 H16.792 C16.263 21.583 15.833 22.013 15.833 22.542 C15.833 23.071 16.263 23.500 16.792 23.500 H18.708 C20.293 23.500 21.583 22.210 21.583 20.625 V7.208 C21.583 6.954 21.483 6.710 21.303 6.531 Z"
    fill="currentColor"
  />
</svg>
