<svg
  xmlns="http://www.w3.org/2000/svg"
  width="24"
  height="24"
  viewBox="0 0 24 24"
  fill="none"
>
  <path
    d="M15.833 17.750 C16.079 17.750 16.324 17.656 16.511 17.469 C16.886 17.095 16.886 16.489 16.511 16.114 L12.678 12.281 C12.589 12.193 12.483 12.123 12.366 12.074 C12.131 11.977 11.868 11.977 11.634 12.074 C11.517 12.123 11.411 12.193 11.322 12.281 L7.489 16.114 C7.114 16.489 7.114 17.095 7.489 17.469 C7.864 17.844 8.470 17.844 8.844 17.469 L11.042 15.272 V22.542 C11.042 23.071 11.471 23.500 12.000 23.500 C12.529 23.500 12.958 23.071 12.958 22.542 V15.272 L15.156 17.469 C15.343 17.656 15.588 17.750 15.833 17.750 Z M21.303 7.489 L14.594 0.781 C14.415 0.601 14.171 0.500 13.917 0.500 H5.292 C3.707 0.500 2.417 1.790 2.417 3.375 V20.625 C2.417 22.210 3.707 23.500 5.292 23.500 H8.167 C8.696 23.500 9.125 23.071 9.125 22.542 C9.125 22.013 8.696 21.583 8.167 21.583 H5.292 C4.764 21.583 4.333 21.153 4.333 20.625 V3.375 C4.333 2.847 4.764 2.417 5.292 2.417 H13.520 L19.667 8.563 V20.625 C19.667 21.153 19.236 21.583 18.708 21.583 H15.833 C15.304 21.583 14.875 22.013 14.875 22.542 C14.875 23.071 15.304 23.500 15.833 23.500 H18.708 C20.293 23.500 21.583 22.210 21.583 20.625 V8.167 C21.583 7.913 21.483 7.668 21.303 7.489 Z"
    fill="currentColor"
  />
</svg>
