<svg
  width="24"
  height="24"
  viewBox="0 0 24 24"
  fill="none"
  xmlns="http://www.w3.org/2000/svg"
>
  <path
    d="M11.292 16.2143C11.384 16.3073 11.495 16.3803 11.618 16.4313C11.74 16.4813 11.87 16.5083 12 16.5083C12.13 16.5083 12.26 16.4813 12.382 16.4313C12.505 16.3803 12.615 16.3073 12.708 16.2143L16.707 12.2153C17.098 11.8243 17.098 11.1923 16.707 10.8013C16.316 10.4103 15.684 10.4103 15.293 10.8013L13 13.0943V3.5083C13 2.9553 12.552 2.5083 12 2.5083C11.448 2.5083 11 2.9553 11 3.5083V13.0943L8.707 10.8013C8.316 10.4103 7.684 10.4103 7.293 10.8013C6.902 11.1923 6.902 11.8243 7.293 12.2153L11.292 16.2143ZM19 20.5083H5C4.448 20.5083 4 20.9553 4 21.5083C4 22.0613 4.448 22.5083 5 22.5083H19C19.552 22.5083 20 22.0613 20 21.5083C20 20.9553 19.552 20.5083 19 20.5083Z"
    fill="currentColor"
  />
</svg>
