<svg
  xmlns="http://www.w3.org/2000/svg"
  width="24"
  height="24"
  viewBox="0 0 24 24"
  fill="none"
>
  <path
    fill-rule="evenodd"
    clip-rule="evenodd"
    d="M2.939 9.125 C4.149 5.237 7.748 2.417 12.000 2.417 C13.350 2.417 14.635 2.701 15.798 3.214 V6.616 C15.798 6.944 15.536 7.208 15.211 7.208 C15.119 7.208 15.030 7.187 14.950 7.146 L13.701 6.517 L13.273 7.372 L13.698 6.515 L13.699 6.516 C13.352 6.339 12.970 6.250 12.587 6.250 C11.213 6.250 10.101 7.373 10.101 8.759 V10.449 C10.101 11.835 11.213 12.958 12.587 12.958 H15.165 C16.039 12.958 16.748 13.673 16.748 14.556 C16.748 15.059 16.513 15.532 16.115 15.833 L16.114 15.833 C14.306 17.203 13.172 19.280 12.979 21.533 C12.657 21.566 12.331 21.583 12.000 21.583 C10.650 21.583 9.365 21.299 8.202 20.786 V12.000 C8.202 10.412 6.927 9.125 5.353 9.125 H2.939 Z M2.551 11.042 C2.520 11.357 2.505 11.677 2.505 12.000 C2.505 15.135 3.996 17.919 6.303 19.667 V12.000 C6.303 11.470 5.878 11.042 5.353 11.042 H2.551 Z M14.950 21.112 C18.750 19.859 21.495 16.253 21.495 12.000 C21.495 8.865 20.004 6.081 17.697 4.333 V6.616 C17.697 8.002 16.585 9.125 15.211 9.125 C14.827 9.125 14.446 9.035 14.099 8.860 L14.098 8.859 L12.849 8.229 L12.846 8.228 C12.768 8.188 12.679 8.167 12.587 8.167 C12.262 8.167 12.000 8.431 12.000 8.759 V10.449 C12.000 10.777 12.262 11.042 12.587 11.042 H15.165 C17.088 11.042 18.647 12.615 18.647 14.556 C18.647 15.661 18.131 16.704 17.253 17.367 L17.254 17.367 L16.684 16.600 L17.253 17.367 C16.037 18.288 15.223 19.629 14.950 21.112 Z M12.000 0.500 C5.707 0.500 0.606 5.649 0.606 12.000 C0.606 18.351 5.707 23.500 12.000 23.500 C18.293 23.500 23.394 18.351 23.394 12.000 C23.394 5.649 18.293 0.500 12.000 0.500 Z"
    fill="currentColor"
  />
</svg>
