<svg
  xmlns="http://www.w3.org/2000/svg"
  width="24"
  height="24"
  viewBox="0 0 24 24"
  fill="none"
>
  <path
    fill-rule="evenodd"
    d="M21.807 2.223 C20.109 0.528 17.353 0.530 15.660 2.223 L2.722 15.160 C2.606 15.276 2.522 15.420 2.477 15.578 L0.594 22.253 C0.500 22.587 0.594 22.946 0.839 23.191 C1.021 23.373 1.266 23.472 1.517 23.472 C1.604 23.472 1.691 23.459 1.777 23.436 L8.451 21.553 C8.609 21.508 8.752 21.424 8.869 21.308 L21.807 8.370 C23.500 6.676 23.500 3.919 21.807 2.223 Z M7.690 19.775 L2.903 21.126 L4.254 16.339 L13.496 7.097 L16.933 10.533 L7.690 19.775 Z M20.452 7.014 L18.288 9.178 L14.851 5.742 L17.015 3.578 C17.962 2.631 19.505 2.631 20.452 3.578 C21.398 4.525 21.398 6.067 20.452 7.014 Z"
    fill="currentColor"
  />
</svg>
