<svg
  width="24"
  height="24"
  viewBox="0 0 24 24"
  fill="none"
  xmlns="http://www.w3.org/2000/svg"
>
  <path
    d="M21 2.20996H3C1.346 2.20996 0 3.55596 0 5.20996V19.21C0 20.864 1.346 22.21 3 22.21H21C22.654 22.21 24 20.864 24 19.21V5.20996C24 3.55596 22.654 2.20996 21 2.20996ZM22 19.21C22 19.761 21.551 20.21 21 20.21H3C2.449 20.21 2 19.761 2 19.21V9.69596L9.905 13.345C10.571 13.652 11.285 13.805 12 13.805C12.715 13.805 13.43 13.652 14.095 13.344L22 9.69596V19.21ZM22 7.49296L13.257 11.528C12.458 11.897 11.541 11.897 10.742 11.528L2 7.49296V5.20996C2 4.65896 2.449 4.20996 3 4.20996H21C21.551 4.20996 22 4.65896 22 5.20996V7.49296Z"
    fill="currentColor"
  />
</svg>
