<svg
  xmlns="http://www.w3.org/2000/svg"
  width="24"
  height="24"
  viewBox="0 0 24 24"
  fill="none"
>
  <path
    fill-rule="evenodd"
    clip-rule="evenodd"
    d="M9.346 4.923 C9.346 4.435 9.742 4.038 10.231 4.038 H17.308 C17.796 4.038 18.192 4.435 18.192 4.923 C18.192 5.412 17.796 5.808 17.308 5.808 H10.231 C9.742 5.808 9.346 5.412 9.346 4.923 Z"
    fill="currentColor"
  />
  <path
    fill-rule="evenodd"
    clip-rule="evenodd"
    d="M2.269 8.462 C2.758 8.462 3.154 8.858 3.154 9.346 V18.192 C3.154 18.681 2.758 19.077 2.269 19.077 C1.781 19.077 1.385 18.681 1.385 18.192 V9.346 C1.385 8.858 1.781 8.462 2.269 8.462 Z"
    fill="currentColor"
  />
  <path
    fill-rule="evenodd"
    clip-rule="evenodd"
    d="M1.385 13.769 C1.385 13.281 1.781 12.885 2.269 12.885 H5.808 C6.296 12.885 6.692 13.281 6.692 13.769 C6.692 14.258 6.296 14.654 5.808 14.654 H2.269 C1.781 14.654 1.385 14.258 1.385 13.769 Z"
    fill="currentColor"
  />
  <path
    fill-rule="evenodd"
    clip-rule="evenodd"
    d="M8.815 7.754 C8.969 7.639 9.155 7.577 9.346 7.577 H18.192 C18.681 7.577 19.077 7.973 19.077 8.462 V10.231 H21.731 C22.219 10.231 22.615 10.627 22.615 11.115 C22.615 11.604 22.219 12.000 21.731 12.000 H18.192 C17.704 12.000 17.308 11.604 17.308 11.115 V9.346 H9.641 L6.692 11.558 V15.981 L9.641 18.192 H15.172 L17.567 15.798 C17.733 15.632 17.958 15.538 18.192 15.538 H21.731 C22.219 15.538 22.615 15.934 22.615 16.423 C22.615 16.912 22.219 17.308 21.731 17.308 H18.559 L16.164 19.702 C15.998 19.868 15.773 19.962 15.538 19.962 H9.346 C9.155 19.962 8.969 19.899 8.815 19.785 L5.277 17.131 C5.054 16.964 4.923 16.702 4.923 16.423 V11.115 C4.923 10.837 5.054 10.575 5.277 10.408 L8.815 7.754 Z"
    fill="currentColor"
  />
  <path
    fill-rule="evenodd"
    clip-rule="evenodd"
    d="M10.231 12.885 C10.719 12.885 11.115 13.281 11.115 13.769 V13.778 C11.115 14.267 10.719 14.663 10.231 14.663 C9.742 14.663 9.346 14.267 9.346 13.778 V13.769 C9.346 13.281 9.742 12.885 10.231 12.885 Z"
    fill="currentColor"
  />
  <path
    fill-rule="evenodd"
    clip-rule="evenodd"
    d="M12.885 13.769 C12.885 13.281 13.281 12.885 13.769 12.885 H13.778 C14.267 12.885 14.663 13.281 14.663 13.769 C14.663 14.258 14.267 14.654 13.778 14.654 H13.769 C13.281 14.654 12.885 14.258 12.885 13.769 Z"
    fill="currentColor"
  />
  <path
    d="M21.731 9.346 V18.192"
    stroke="currentColor"
    stroke-width="2"
    stroke-miterlimit="10"
    stroke-linecap="round"
    stroke-linejoin="round"
  />
</svg>
