<svg
  xmlns="http://www.w3.org/2000/svg"
  width="24"
  height="24"
  viewBox="0 0 24 24"
  fill="none"
>
  <path
    fill-rule="evenodd"
    clip-rule="evenodd"
    d="M21.806 22.010 L17.094 14.875 H17.218 C17.742 14.875 18.168 14.446 18.168 13.917 C18.168 13.388 17.742 12.958 17.218 12.958 H16.087 L15.061 8.123 C15.478 8.022 15.794 7.661 15.794 7.208 C15.794 6.679 15.369 6.250 14.844 6.250 H13.420 V1.458 C13.420 0.929 12.995 0.500 12.471 0.500 C11.946 0.500 11.521 0.929 11.521 1.458 V6.250 H10.097 C9.572 6.250 9.147 6.679 9.147 7.208 C9.147 7.661 9.463 8.022 9.881 8.123 L8.854 12.958 H7.723 C7.199 12.958 6.773 13.388 6.773 13.917 C6.773 14.433 7.180 14.847 7.686 14.867 L2.225 21.953 C1.903 22.371 1.978 22.973 2.392 23.298 C2.565 23.434 2.771 23.500 2.975 23.500 C3.258 23.500 3.538 23.373 3.725 23.130 L10.086 14.875 H14.811 L20.226 23.074 C20.410 23.351 20.711 23.500 21.017 23.500 C21.198 23.500 21.381 23.448 21.543 23.339 C21.979 23.046 22.097 22.451 21.806 22.010 Z M10.796 12.958 L11.813 8.167 H13.126 L14.143 12.958 H10.796 Z M7.723 22.542 C7.723 19.900 9.853 17.750 12.471 17.750 C15.088 17.750 17.218 19.900 17.218 22.542 C17.218 23.071 16.793 23.500 16.269 23.500 C15.745 23.500 15.319 23.071 15.319 22.542 C15.319 20.957 14.041 19.667 12.471 19.667 C10.900 19.667 9.622 20.957 9.622 22.542 C9.622 23.071 9.196 23.500 8.672 23.500 C8.148 23.500 7.723 23.071 7.723 22.542 Z"
    fill="currentColor"
  />
</svg>
