<svg
  xmlns="http://www.w3.org/2000/svg"
  width="24"
  height="24"
  viewBox="0 0 24 24"
  fill="none"
>
  <path
    d="M9.406 13.239 L2.417 20.228 V15.833 C2.417 15.303 1.987 14.875 1.458 14.875 C0.929 14.875 0.500 15.303 0.500 15.833 V22.542 C0.500 22.666 0.526 22.791 0.574 22.908 C0.671 23.143 0.857 23.329 1.092 23.426 C1.209 23.474 1.334 23.500 1.458 23.500 H8.167 C8.696 23.500 9.125 23.072 9.125 22.542 C9.125 22.012 8.696 21.583 8.167 21.583 H3.772 L10.761 14.594 C11.136 14.219 11.136 13.614 10.761 13.239 C10.386 12.864 9.780 12.864 9.406 13.239 Z M23.426 1.092 C23.329 0.858 23.143 0.672 22.908 0.574 C22.791 0.526 22.666 0.500 22.542 0.500 H15.833 C15.304 0.500 14.875 0.929 14.875 1.458 C14.875 1.987 15.304 2.417 15.833 2.417 H20.228 L13.239 9.406 C12.864 9.780 12.864 10.386 13.239 10.761 C13.426 10.948 13.671 11.042 13.917 11.042 C14.162 11.042 14.407 10.948 14.594 10.761 L21.583 3.772 V8.167 C21.583 8.696 22.013 9.125 22.542 9.125 C23.071 9.125 23.500 8.696 23.500 8.167 V1.458 C23.500 1.334 23.474 1.209 23.426 1.092 Z"
    fill="currentColor"
  />
</svg>
