<svg
  xmlns="http://www.w3.org/2000/svg"
  width="24"
  height="24"
  viewBox="0 0 24 24"
  fill="none"
>
  <path
    d="M17.760 0.505 L14.772 0.500 C11.415 0.500 9.245 2.722 9.245 6.160 V8.770 H6.241 C5.981 8.770 5.771 8.980 5.771 9.239 V13.021 C5.771 13.280 5.981 13.490 6.241 13.490 H9.245 V23.031 C9.245 23.290 9.455 23.500 9.715 23.500 H13.635 C13.895 23.500 14.105 23.290 14.105 23.031 V13.490 H17.618 C17.877 13.490 18.088 13.280 18.088 13.021 L18.089 9.239 C18.089 9.115 18.040 8.996 17.952 8.908 C17.864 8.820 17.744 8.770 17.619 8.770 H14.105 V6.558 C14.105 5.494 14.359 4.955 15.747 4.955 L17.760 4.954 C18.019 4.954 18.229 4.744 18.229 4.485 V0.974 C18.229 0.715 18.019 0.505 17.760 0.505 Z"
    fill="currentColor"
  />
</svg>
