<svg
  xmlns="http://www.w3.org/2000/svg"
  width="24"
  height="24"
  viewBox="0 0 24 24"
  fill="none"
>
  <path
    fill-rule="evenodd"
    d="M20.571 7.451 C20.225 5.148 18.232 3.375 15.833 3.375 C15.525 3.375 15.215 3.406 14.909 3.469 C13.786 1.641 11.784 0.500 9.604 0.500 C6.170 0.500 3.375 3.295 3.375 6.729 C3.375 6.972 3.390 7.215 3.419 7.458 C1.718 8.043 0.500 9.664 0.500 11.521 C0.500 13.898 2.435 15.833 4.812 15.833 H6.812 L11.042 20.063 V22.542 C11.042 23.072 11.470 23.500 12.000 23.500 C12.530 23.500 12.958 23.072 12.958 22.542 V20.063 L17.188 15.833 H19.188 C21.565 15.833 23.500 13.898 23.500 11.521 C23.500 9.665 22.285 8.034 20.571 7.451 Z M12.000 18.312 L9.522 15.833 H14.478 L12.000 18.312 Z M19.188 13.917 H4.812 C3.491 13.917 2.417 12.842 2.417 11.521 C2.417 10.270 3.364 9.251 4.622 9.149 C4.908 9.126 5.169 8.976 5.333 8.739 C5.496 8.502 5.545 8.203 5.465 7.927 C5.350 7.531 5.292 7.129 5.292 6.729 C5.292 4.352 7.227 2.417 9.604 2.417 C11.311 2.417 12.861 3.429 13.551 4.994 C13.759 5.465 14.306 5.689 14.779 5.498 C15.128 5.362 15.483 5.292 15.833 5.292 C17.405 5.292 18.686 6.559 18.708 8.125 C18.705 8.156 18.704 8.189 18.704 8.215 C18.704 8.692 19.054 9.096 19.526 9.163 C20.699 9.331 21.583 10.344 21.583 11.521 C21.583 12.842 20.509 13.917 19.188 13.917 Z"
    fill="currentColor"
  />
</svg>
