<svg
  xmlns="http://www.w3.org/2000/svg"
  width="24"
  height="24"
  viewBox="0 0 24 24"
  fill="none"
>
  <path
    fill-rule="evenodd"
    clip-rule="evenodd"
    d="M4.085 0.873 C3.712 0.500 3.108 0.500 2.735 0.873 L0.826 2.782 C0.647 2.961 0.547 3.203 0.547 3.457 V22.546 C0.547 23.073 0.974 23.500 1.501 23.500 H5.319 C5.846 23.500 6.273 23.073 6.273 22.546 V18.728 H9.137 V22.546 C9.137 23.073 9.564 23.500 10.091 23.500 H13.909 C14.436 23.500 14.863 23.073 14.863 22.546 V18.728 H17.727 V22.546 C17.727 23.073 18.154 23.500 18.681 23.500 H22.499 C23.026 23.500 23.453 23.073 23.453 22.546 V3.457 C23.453 3.203 23.353 2.961 23.174 2.782 L21.265 0.873 C20.892 0.500 20.288 0.500 19.915 0.873 L18.006 2.782 C17.827 2.961 17.727 3.203 17.727 3.457 V8.229 H14.863 V3.457 C14.863 3.203 14.763 2.961 14.584 2.782 L12.675 0.873 C12.302 0.500 11.698 0.500 11.325 0.873 L9.416 2.782 C9.237 2.961 9.137 3.203 9.137 3.457 V8.229 H6.273 V3.457 C6.273 3.203 6.173 2.961 5.994 2.782 L4.085 0.873 Z M17.727 10.138 H14.863 V16.819 H17.727 V10.138 Z M19.636 17.773 V21.591 H21.545 V3.852 L20.590 2.897 L19.636 3.852 V9.183 V17.773 Z M11.046 21.591 V17.773 V9.183 V3.852 L12.000 2.897 L12.954 3.852 V9.183 V17.773 V21.591 H11.046 Z M9.137 16.819 V10.138 H6.273 V16.819 H9.137 Z M4.364 9.183 V3.852 L3.410 2.897 L2.455 3.852 V21.591 H4.364 V17.773 V9.183 Z"
    fill="currentColor"
  />
</svg>
