<svg
  xmlns="http://www.w3.org/2000/svg"
  width="24"
  height="24"
  viewBox="0 0 24 24"
  fill="none"
>
  <path
    d="M21.249 6.481 L14.541 0.731 C14.367 0.581 14.146 0.500 13.917 0.500 H5.292 C3.707 0.500 2.417 1.790 2.417 3.375 V20.625 C2.417 22.210 3.707 23.500 5.292 23.500 H18.708 C20.293 23.500 21.583 22.210 21.583 20.625 V7.208 C21.583 6.928 21.462 6.663 21.249 6.481 Z M19.667 20.625 C19.667 21.153 19.236 21.583 18.708 21.583 H5.292 C4.764 21.583 4.333 21.153 4.333 20.625 V3.375 C4.333 2.847 4.764 2.417 5.292 2.417 H13.562 L19.667 7.649 V20.625 Z"
    fill="currentColor"
  />
</svg>
