<svg
  width="24"
  height="24"
  viewBox="0 0 24 24"
  fill="none"
  xmlns="http://www.w3.org/2000/svg"
>
  <path
    d="M21.707 7.3096L14.707 0.309602C14.52 0.121602 14.266 0.0166016 14 0.0166016H5C3.346 0.0166016 2 1.3626 2 3.0166V21.0166C2 22.6706 3.346 24.0166 5 24.0166H19C20.654 24.0166 22 22.6706 22 21.0166V8.0166C22 7.7506 21.895 7.4966 21.707 7.3096ZM20 21.0166C20 21.5686 19.552 22.0166 19 22.0166H5C4.448 22.0166 4 21.5686 4 21.0166V3.0166C4 2.4646 4.448 2.0166 5 2.0166H13.586L20 8.4306V21.0166ZM10 12.0166V13.0166H9C8.447 13.0166 8 13.4636 8 14.0166C8 14.5696 8.447 15.0166 9 15.0166H10V16.0166H9C8.447 16.0166 8 16.4636 8 17.0166C8 17.5696 8.447 18.0166 9 18.0166H14C14.553 18.0166 15 17.5696 15 17.0166C15 16.4636 14.553 16.0166 14 16.0166H12V15.0166H13C13.553 15.0166 14 14.5696 14 14.0166C14 13.4636 13.553 13.0166 13 13.0166H12V12.0166C12 11.4646 12.448 11.0166 13 11.0166C13.355 11.0166 13.687 11.2086 13.867 11.5186C14.144 11.9956 14.756 12.1606 15.234 11.8816C15.712 11.6046 15.875 10.9916 15.597 10.5146C15.062 9.5906 14.066 9.0166 13 9.0166C11.346 9.0166 10 10.3626 10 12.0166Z"
    fill="currentColor"
  />
</svg>
