<svg
  xmlns="http://www.w3.org/2000/svg"
  width="24"
  height="24"
  viewBox="0 0 24 24"
  fill="none"
>
  <path
    fill-rule="evenodd"
    clip-rule="evenodd"
    d="M7.738 8.278 C8.028 8.115 8.382 8.115 8.672 8.278 L10.413 9.253 L12.428 9.438 C12.769 9.469 13.068 9.681 13.210 9.993 L14.006 11.739 L15.511 13.003 C15.787 13.234 15.909 13.602 15.827 13.953 L15.394 15.804 L15.827 17.654 C15.909 18.005 15.787 18.372 15.511 18.604 L14.006 19.868 L13.210 21.614 C13.068 21.926 12.769 22.138 12.427 22.169 L10.413 22.353 L9.999 22.585 L9.999 22.585 L8.672 23.329 C8.382 23.492 8.028 23.492 7.737 23.329 L6.410 22.585 L6.410 22.585 L5.996 22.353 L3.982 22.169 C3.641 22.138 3.342 21.926 3.199 21.614 L2.403 19.868 L0.898 18.604 C0.622 18.372 0.500 18.005 0.582 17.654 L1.016 15.804 L0.582 13.953 C0.500 13.602 0.622 13.234 0.898 13.003 L2.403 11.739 L3.199 9.993 C3.342 9.681 3.640 9.469 3.982 9.438 L5.996 9.253 L7.738 8.278 Z M8.205 10.207 L6.753 11.020 C6.636 11.086 6.507 11.126 6.374 11.138 L4.709 11.291 L4.053 12.729 C3.994 12.859 3.907 12.973 3.798 13.065 L2.578 14.089 L2.928 15.585 C2.962 15.729 2.962 15.878 2.928 16.022 L2.578 17.518 L3.798 18.542 C3.907 18.634 3.994 18.748 4.053 18.878 L4.709 20.316 L6.373 20.468 C6.507 20.480 6.636 20.520 6.754 20.586 L7.345 20.918 L7.345 20.918 L8.205 21.399 L9.064 20.918 L9.064 20.918 L9.656 20.586 C9.773 20.520 9.903 20.480 10.036 20.468 L11.701 20.316 L12.357 18.878 C12.416 18.748 12.503 18.634 12.612 18.542 L13.832 17.518 L13.481 16.022 C13.447 15.878 13.447 15.729 13.481 15.585 L13.832 14.089 L12.612 13.065 C12.503 12.973 12.416 12.859 12.357 12.729 L11.701 11.291 L10.036 11.138 C9.902 11.126 9.773 11.086 9.656 11.020 L8.205 10.207 Z"
    fill="currentColor"
  />
  <path
    fill-rule="evenodd"
    clip-rule="evenodd"
    d="M7.249 2.420 C6.720 2.420 6.293 2.848 6.293 3.376 V6.244 C6.293 6.772 5.865 7.200 5.337 7.200 C4.809 7.200 4.381 6.772 4.381 6.244 V3.376 C4.381 1.792 5.664 0.508 7.249 0.508 H16.808 C17.062 0.508 17.305 0.609 17.484 0.788 L23.220 6.524 C23.399 6.703 23.500 6.946 23.500 7.200 V20.583 C23.500 22.168 22.216 23.451 20.632 23.451 H15.852 C15.324 23.451 14.896 23.023 14.896 22.495 C14.896 21.967 15.324 21.539 15.852 21.539 H20.632 C21.160 21.539 21.588 21.112 21.588 20.583 V7.596 L16.412 2.420 H7.249 Z"
    fill="currentColor"
  />
</svg>
