<svg
  xmlns="http://www.w3.org/2000/svg"
  width="24"
  height="24"
  viewBox="0 0 24 24"
  fill="none"
>
  <path
    d="M23.022 3.209 C22.541 2.234 21.565 1.627 20.476 1.627 H3.525 C2.436 1.627 1.460 2.234 0.979 3.209 C0.500 4.180 0.612 5.317 1.274 6.180 L8.229 15.151 V21.430 C8.229 21.748 8.388 22.044 8.654 22.218 C8.810 22.320 8.991 22.373 9.172 22.373 C9.299 22.373 9.426 22.347 9.546 22.295 L14.124 20.313 C15.141 19.871 15.772 18.877 15.772 17.721 V15.150 L22.729 6.176 C23.389 5.317 23.500 4.180 23.022 3.209 Z M21.235 5.025 L14.084 14.252 C13.956 14.416 13.886 14.620 13.886 14.829 V17.721 C13.886 18.121 13.694 18.444 13.373 18.583 L10.115 19.995 V14.829 C10.115 14.620 10.045 14.416 9.917 14.252 L2.768 5.028 C2.546 4.738 2.509 4.369 2.671 4.042 C2.834 3.711 3.154 3.513 3.525 3.513 H20.476 C20.847 3.513 21.166 3.711 21.330 4.042 C21.491 4.369 21.455 4.738 21.235 5.025 Z"
    fill="currentColor"
  />
</svg>
