<svg
  xmlns="http://www.w3.org/2000/svg"
  width="24"
  height="24"
  viewBox="0 0 24 24"
  fill="none"
>
  <path
    fill-rule="evenodd"
    clip-rule="evenodd"
    d="M8.487 0.721 L10.003 2.496 C10.164 2.685 12.594 5.556 14.419 8.805 C15.176 7.722 15.796 6.954 15.918 6.804 C15.925 6.795 15.930 6.789 15.934 6.785 L15.941 6.776 L17.271 5.161 L18.603 6.778 C18.708 6.907 19.907 8.375 21.085 10.254 C21.674 11.194 22.269 12.255 22.719 13.316 C23.164 14.363 23.500 15.484 23.500 16.525 C23.500 18.434 22.892 20.124 21.779 21.348 C20.660 22.578 19.081 23.279 17.271 23.279 H8.487 C6.171 23.279 4.156 22.417 2.723 20.898 C1.295 19.384 0.500 17.276 0.500 14.870 C0.500 13.579 0.934 12.172 1.520 10.839 C2.113 9.491 2.899 8.140 3.679 6.939 C5.240 4.536 6.830 2.659 6.970 2.495 L8.487 0.721 Z M8.486 3.671 L8.428 3.739 C8.428 3.739 8.428 3.739 8.428 3.739 C8.308 3.880 6.780 5.684 5.286 7.983 C4.538 9.134 3.812 10.391 3.275 11.611 C2.731 12.846 2.417 13.968 2.417 14.870 C2.417 16.851 3.067 18.469 4.118 19.583 C5.165 20.693 6.664 21.363 8.487 21.363 H17.271 C18.564 21.363 19.621 20.873 20.361 20.058 C21.108 19.237 21.583 18.029 21.583 16.525 C21.583 15.860 21.358 15.015 20.955 14.065 C20.558 13.129 20.019 12.162 19.461 11.272 C18.555 9.826 17.631 8.632 17.271 8.180 C16.914 8.631 16.018 9.788 15.130 11.197 L14.203 12.666 L13.454 11.099 C11.756 7.542 8.725 3.951 8.545 3.741 L8.486 3.671 Z"
    fill="currentColor"
  />
  <path
    fill-rule="evenodd"
    clip-rule="evenodd"
    d="M9.765 11.302 L10.872 12.537 C10.942 12.616 11.901 13.693 12.770 15.029 C12.953 14.798 13.083 14.644 13.121 14.600 C13.124 14.596 13.127 14.593 13.129 14.590 L13.136 14.582 L14.156 13.402 L15.178 14.584 C15.236 14.651 15.852 15.369 16.458 16.291 C16.761 16.751 17.074 17.281 17.315 17.821 C17.548 18.345 17.750 18.958 17.750 19.561 C17.750 20.589 17.404 21.526 16.749 22.212 C16.091 22.902 15.175 23.279 14.156 23.279 H9.764 C8.498 23.279 7.366 22.829 6.550 22.005 C5.735 21.181 5.292 20.044 5.292 18.773 C5.292 18.047 5.544 17.296 5.850 16.635 C6.162 15.959 6.572 15.290 6.970 14.705 C7.769 13.534 8.581 12.622 8.656 12.537 L9.765 11.302 Z M9.763 14.189 C10.262 14.788 11.222 16.010 11.824 17.210 L12.566 18.689 L13.479 17.309 C13.719 16.947 13.960 16.621 14.157 16.367 C14.359 16.629 14.609 16.968 14.857 17.344 C15.127 17.755 15.381 18.190 15.564 18.601 C15.754 19.028 15.833 19.352 15.833 19.561 C15.833 20.158 15.637 20.601 15.363 20.889 C15.091 21.173 14.689 21.363 14.156 21.363 H9.764 C8.961 21.363 8.336 21.084 7.912 20.656 C7.488 20.228 7.208 19.591 7.208 18.773 C7.208 18.455 7.330 18.002 7.590 17.439 C7.842 16.893 8.189 16.320 8.554 15.785 C9.007 15.121 9.467 14.545 9.763 14.189 Z"
    fill="currentColor"
  />
</svg>
