<svg
  width="24"
  height="24"
  viewBox="0 0 24 24"
  fill="none"
  xmlns="http://www.w3.org/2000/svg"
>
  <path
    d="M21 5.31494H12.414L9.707 2.60794C9.52 2.41994 9.265 2.31494 9 2.31494H3C1.346 2.31494 0 3.66094 0 5.31494V20.3149C0 21.9689 1.346 23.3149 3 23.3149H21C22.654 23.3149 24 21.9689 24 20.3149V8.31494C24 6.66094 22.654 5.31494 21 5.31494ZM22 20.3149C22 20.8659 21.551 21.3149 21 21.3149H3C2.449 21.3149 2 20.8659 2 20.3149V5.31494C2 4.76394 2.449 4.31494 3 4.31494H8.586L11.293 7.02194C11.48 7.20994 11.735 7.31494 12 7.31494H21C21.551 7.31494 22 7.76394 22 8.31494V20.3149Z"
    fill="currentColor"
  />
</svg>
