<svg
  width="24"
  height="24"
  viewBox="0 0 24 24"
  fill="none"
  xmlns="http://www.w3.org/2000/svg"
>
  <path
    fill-rule="evenodd"
    d="M19 0.0498047H5C3.346 0.0498047 2 1.3958 2 3.0498V23.0498C2 23.6028 2.447 24.0498 3 24.0498H21C21.553 24.0498 22 23.6028 22 23.0498V3.0498C22 1.3958 20.654 0.0498047 19 0.0498047ZM20 22.0498H4V11.0498H6V15.0498C6 15.6028 6.447 16.0498 7 16.0498C7.553 16.0498 8 15.6028 8 15.0498V11.0498H20V22.0498ZM20 9.0498H8V5.0498C8 4.4968 7.553 4.0498 7 4.0498C6.447 4.0498 6 4.4968 6 5.0498V9.0498H4V3.0498C4 2.4978 4.448 2.0498 5 2.0498H19C19.552 2.0498 20 2.4978 20 3.0498V9.0498Z"
    fill="currentColor"
  />
</svg>
