<svg
  xmlns="http://www.w3.org/2000/svg"
  width="24"
  height="24"
  viewBox="0 0 24 24"
  fill="none"
>
  <path
    fill-rule="evenodd"
    clip-rule="evenodd"
    d="M19.386 2.697 L22.658 5.969 C23.200 6.512 23.500 7.234 23.500 8.003 V20.625 C23.500 22.210 22.210 23.500 20.625 23.500 C19.040 23.500 17.750 22.210 17.750 20.625 V15.833 C17.750 15.304 17.321 14.875 16.792 14.875 H15.833 V22.542 C15.833 23.072 15.405 23.500 14.875 23.500 H1.458 C0.928 23.500 0.500 23.072 0.500 22.542 V8.167 C0.500 3.939 3.939 0.500 8.167 0.500 C12.394 0.500 15.833 3.939 15.833 8.167 V12.958 H16.792 C18.377 12.958 19.667 14.248 19.667 15.833 V20.625 C19.667 21.154 20.096 21.583 20.625 21.583 C21.154 21.583 21.583 21.154 21.583 20.625 V10.865 C21.282 10.973 20.962 11.042 20.625 11.042 C19.040 11.042 17.750 9.752 17.750 8.167 C17.750 6.980 18.473 5.961 19.500 5.522 L18.031 4.053 C17.656 3.678 17.656 3.072 18.031 2.697 C18.405 2.323 19.011 2.323 19.386 2.697 Z M2.417 11.042 V21.583 H13.917 V11.042 H2.417 Z M13.917 9.125 H2.417 V8.167 C2.417 4.996 4.996 2.417 8.167 2.417 C11.338 2.417 13.917 4.996 13.917 8.167 V9.125 Z M19.667 8.167 C19.667 8.695 20.096 9.125 20.625 9.125 C21.154 9.125 21.583 8.695 21.583 8.167 C21.583 7.639 21.154 7.208 20.625 7.208 C20.096 7.208 19.667 7.639 19.667 8.167 Z"
    fill="currentColor"
  />
</svg>
