<svg
  width="24"
  height="24"
  viewBox="0 0 24 24"
  fill="none"
  xmlns="http://www.w3.org/2000/svg"
>
  <path
    fill-rule="evenodd"
    clip-rule="evenodd"
    d="M12 11.1216C12.5523 11.1216 13 11.5693 13 12.1216V22.1216C13 22.6739 12.5523 23.1216 12 23.1216C11.4477 23.1216 11 22.6739 11 22.1216V12.1216C11 11.5693 11.4477 11.1216 12 11.1216Z"
    fill="currentColor"
  />
  <path
    d="M12.7614 3.99886C13.7799 2.70731 15.4464 1.12158 17.6248 1.12158C20.1364 1.12158 21.9998 3.34676 21.9998 5.86658C21.9998 6.40963 21.9158 6.93591 21.7578 7.42759C21.5888 7.95338 21.0255 8.24261 20.4997 8.07361C19.974 7.90461 19.6847 7.34136 19.8537 6.81557C19.9477 6.52325 19.9998 6.20353 19.9998 5.86658C19.9998 4.25041 18.8411 3.12158 17.6248 3.12158C16.4282 3.12158 15.2821 4.03235 14.3318 5.23731C13.8805 5.80963 13.5219 6.38756 13.2753 6.82521C13.1527 7.04287 13.0595 7.22296 12.9978 7.34647C12.9671 7.40816 12.9443 7.45554 12.9298 7.48621L12.9143 7.51931L12.9115 7.52542C12.6844 8.02863 12.0923 8.25312 11.5889 8.02629C11.0854 7.79939 10.8611 7.20726 11.0881 6.70374L11.1219 6.63081C11.142 6.58834 11.1709 6.52844 11.2082 6.4536C11.2828 6.30407 11.3917 6.09407 11.5328 5.84364C11.8136 5.3451 12.2284 4.67478 12.7614 3.99886Z"
    fill="currentColor"
  />
  <path
    d="M11.2383 3.99886C10.2198 2.70731 8.5534 1.12158 6.375 1.12158C3.86334 1.12158 2 3.34676 2 5.86658C2 6.40963 2.08393 6.93591 2.24197 7.42759C2.41097 7.95338 2.97422 8.24261 3.50001 8.07361C4.0258 7.90461 4.31503 7.34136 4.14603 6.81557C4.05206 6.52325 4 6.20353 4 5.86658C4 4.25041 5.15866 3.12158 6.375 3.12158C7.57159 3.12158 8.71768 4.03235 9.66791 5.23731C10.1192 5.80963 10.4779 6.38756 10.7244 6.82521C10.847 7.04287 10.9403 7.22296 11.0019 7.34647C11.0327 7.40816 11.0555 7.45554 11.07 7.48621L11.0855 7.51931L11.0883 7.52542C11.3153 8.02863 11.9075 8.25312 12.4108 8.02629C12.9144 7.79939 13.1386 7.20726 12.9117 6.70374L12.8778 6.63081C12.8577 6.58834 12.8289 6.52844 12.7915 6.4536C12.7169 6.30407 12.608 6.09407 12.467 5.84364C12.1862 5.3451 11.7714 4.67478 11.2383 3.99886Z"
    fill="currentColor"
  />
  <path
    fill-rule="evenodd"
    clip-rule="evenodd"
    d="M2 11.1216C2.55228 11.1216 3 11.5693 3 12.1216V20.1216C3 20.6743 3.44728 21.1216 4 21.1216H20C20.5527 21.1216 21 20.6743 21 20.1216V12.1216C21 11.5693 21.4477 11.1216 22 11.1216C22.5523 11.1216 23 11.5693 23 12.1216V20.1216C23 21.7789 21.6573 23.1216 20 23.1216H4C2.34272 23.1216 1 21.7789 1 20.1216V12.1216C1 11.5693 1.44772 11.1216 2 11.1216Z"
    fill="currentColor"
  />
  <path
    fill-rule="evenodd"
    clip-rule="evenodd"
    d="M0 7.12158C0 6.5693 0.447715 6.12158 1 6.12158H23C23.5523 6.12158 24 6.5693 24 7.12158V12.1216C24 12.6739 23.5523 13.1216 23 13.1216H1C0.447715 13.1216 0 12.6739 0 12.1216V7.12158ZM2 8.12158V11.1216H22V8.12158H2Z"
    fill="currentColor"
  />
</svg>
