<svg
  xmlns="http://www.w3.org/2000/svg"
  width="24"
  height="24"
  viewBox="0 0 24 24"
  fill="none"
>
  <path
    d="M12.000 0.500 C5.717 0.500 0.606 5.659 0.606 12.000 C0.606 18.341 5.717 23.500 12.000 23.500 C18.283 23.500 23.394 18.341 23.394 12.000 C23.394 5.659 18.283 0.500 12.000 0.500 Z M20.697 8.167 H16.492 C16.220 6.142 15.725 4.297 15.018 2.922 C17.562 3.786 19.628 5.705 20.697 8.167 Z M12.000 2.417 C12.858 2.417 14.047 4.606 14.575 8.167 H9.425 C9.953 4.606 11.142 2.417 12.000 2.417 Z M2.505 12.000 C2.505 11.344 2.571 10.702 2.696 10.083 H7.317 C7.276 10.718 7.252 11.359 7.252 12.000 C7.252 12.641 7.276 13.282 7.317 13.917 H2.696 C2.571 13.298 2.505 12.656 2.505 12.000 Z M3.303 15.833 H7.508 C7.780 17.858 8.275 19.703 8.982 21.078 C6.438 20.214 4.372 18.295 3.303 15.833 Z M7.508 8.167 H3.303 C4.372 5.705 6.438 3.786 8.982 2.922 C8.274 4.297 7.780 6.142 7.508 8.167 Z M12.000 21.583 C11.142 21.583 9.953 19.394 9.425 15.833 H14.576 C14.047 19.394 12.858 21.583 12.000 21.583 Z M14.781 13.917 H9.219 C9.176 13.304 9.151 12.667 9.151 12.000 C9.151 11.333 9.176 10.696 9.219 10.083 H14.781 C14.824 10.696 14.849 11.333 14.849 12.000 C14.849 12.667 14.824 13.304 14.781 13.917 Z M15.018 21.078 C15.725 19.703 16.219 17.858 16.492 15.833 H20.697 C19.628 18.295 17.562 20.214 15.018 21.078 Z M16.683 13.917 C16.724 13.282 16.748 12.641 16.748 12.000 C16.748 11.359 16.724 10.718 16.683 10.083 H21.304 C21.429 10.702 21.495 11.344 21.495 12.000 C21.495 12.656 21.429 13.298 21.304 13.917 H16.683 Z"
    fill="currentColor"
  />
</svg>
