<svg
  width="24"
  height="24"
  viewBox="0 0 24 24"
  fill="none"
  xmlns="http://www.w3.org/2000/svg"
>
  <path
    d="M17.5 2.0498C14.841 2.0498 13.166 3.2548 12 4.3458C10.834 3.2548 9.159 2.0498 6.5 2.0498C2.034 2.0498 0 5.8338 0 9.3498C0 15.7268 7.61 20.4008 11.635 21.9808C11.752 22.0268 11.876 22.0498 12 22.0498C12.124 22.0498 12.248 22.0268 12.365 21.9808C16.39 20.4008 24 15.7268 24 9.3498C24 5.8338 21.966 2.0498 17.5 2.0498ZM12 19.9708C7.847 18.2378 2 14.1218 2 9.3498C2 6.7118 3.392 4.0498 6.5 4.0498C8.736 4.0498 9.991 5.1378 11.288 6.4518C11.663 6.8328 12.337 6.8328 12.712 6.4518C14.009 5.1378 15.264 4.0498 17.5 4.0498C20.608 4.0498 22 6.7118 22 9.3498C22 14.1218 16.153 18.2378 12 19.9708ZM16.241 7.3988L10.85 13.6878L7.6 11.2498C7.159 10.9168 6.532 11.0078 6.201 11.4498C5.869 11.8918 5.959 12.5188 6.401 12.8498L10.401 15.8498C10.58 15.9848 10.791 16.0498 11 16.0498C11.283 16.0498 11.563 15.9308 11.76 15.6998L17.76 8.6998C18.12 8.2808 18.072 7.6488 17.652 7.2898C17.232 6.9328 16.601 6.9808 16.241 7.3988Z"
    fill="currentColor"
  />
</svg>
