<svg
  xmlns="http://www.w3.org/2000/svg"
  width="24"
  height="24"
  viewBox="0 0 24 24"
  fill="none"
>
  <path
    fill-rule="evenodd"
    clip-rule="evenodd"
    d="M0.500 12.000 C0.500 5.659 5.659 0.500 12.000 0.500 C18.341 0.500 23.500 5.659 23.500 12.000 C23.500 18.341 18.341 23.500 12.000 23.500 C5.659 23.500 0.500 18.341 0.500 12.000 Z M2.417 12.000 C2.417 17.284 6.716 21.583 12.000 21.583 C17.284 21.583 21.583 17.284 21.583 12.000 C21.583 6.716 17.284 2.417 12.000 2.417 C6.716 2.417 2.417 6.716 2.417 12.000 Z"
    fill="currentColor"
  />
  <path
    d="M12.609 14.039 V13.947 C12.609 13.319 12.901 12.843 13.437 12.460 L14.066 12.015 C14.971 11.371 15.584 10.513 15.584 9.301 C15.584 7.753 14.342 6.250 11.965 6.250 C9.696 6.250 8.454 7.845 8.454 9.501 C8.454 9.731 8.469 9.976 8.531 10.191 L10.463 10.267 C10.417 10.129 10.401 9.961 10.401 9.777 C10.401 8.918 10.877 8.044 11.965 8.044 C12.993 8.044 13.499 8.719 13.499 9.424 C13.499 9.884 13.299 10.298 12.839 10.635 L12.103 11.187 C11.229 11.847 10.892 12.598 10.892 13.411 C10.892 13.641 10.923 13.840 10.953 14.039 H12.609 Z M10.601 16.263 C10.601 16.937 11.137 17.474 11.812 17.474 C12.487 17.474 13.039 16.937 13.039 16.263 C13.039 15.588 12.487 15.036 11.812 15.036 C11.137 15.036 10.601 15.588 10.601 16.263 Z"
    fill="currentColor"
  />
</svg>
