<svg
  xmlns="http://www.w3.org/2000/svg"
  width="24"
  height="24"
  viewBox="0 0 24 24"
  fill="none"
>
  <path
    fill-rule="evenodd"
    clip-rule="evenodd"
    d="M11.395 0.788 C11.747 0.500 12.253 0.500 12.605 0.788 L23.114 9.386 C23.335 9.567 23.464 9.839 23.464 10.125 V20.634 C23.464 22.217 22.181 23.500 20.598 23.500 H3.402 C1.819 23.500 0.536 22.217 0.536 20.634 V10.125 C0.536 9.839 0.665 9.567 0.886 9.386 L11.395 0.788 Z M2.447 10.578 V20.634 C2.447 21.162 2.874 21.589 3.402 21.589 H20.598 C21.126 21.589 21.553 21.162 21.553 20.634 V10.578 L12.000 2.762 L2.447 10.578 Z"
    fill="currentColor"
  />
  <path
    fill-rule="evenodd"
    clip-rule="evenodd"
    d="M8.854 11.360 C9.227 10.987 9.832 10.987 10.205 11.360 L15.609 16.765 C15.982 17.138 15.982 17.743 15.609 18.116 C15.236 18.489 14.631 18.489 14.258 18.116 L8.854 12.712 C8.481 12.338 8.481 11.734 8.854 11.360 Z"
    fill="currentColor"
  />
  <path
    fill-rule="evenodd"
    clip-rule="evenodd"
    d="M8.459 18.116 C8.086 17.743 8.086 17.138 8.459 16.765 L13.863 11.360 C14.236 10.987 14.841 10.987 15.214 11.360 C15.587 11.734 15.587 12.338 15.214 12.712 L9.810 18.116 C9.437 18.489 8.832 18.489 8.459 18.116 Z"
    fill="currentColor"
  />
</svg>
