<svg
  xmlns="http://www.w3.org/2000/svg"
  width="24"
  height="24"
  viewBox="0 0 24 24"
  fill="none"
>
  <path
    d="M23.034 9.523 L21.485 8.256 V2.432 C21.485 1.909 21.060 1.484 20.537 1.484 H16.743 C16.219 1.484 15.794 1.909 15.794 2.432 V3.600 L12.600 0.987 C12.251 0.700 11.749 0.700 11.399 0.987 L0.965 9.523 C0.560 9.855 0.500 10.452 0.831 10.858 C1.163 11.263 1.760 11.322 2.166 10.992 L2.515 10.707 V20.454 C2.515 22.023 3.791 23.300 5.360 23.300 H18.640 C20.209 23.300 21.485 22.023 21.485 20.454 V10.707 L21.833 10.992 C22.010 11.136 22.222 11.206 22.434 11.206 C22.709 11.206 22.981 11.088 23.168 10.858 C23.500 10.453 23.440 9.855 23.034 9.523 Z M14.846 21.403 H9.154 V17.609 C9.154 16.040 10.431 14.763 12.000 14.763 C13.569 14.763 14.846 16.040 14.846 17.609 V21.403 Z M19.588 20.454 C19.588 20.978 19.162 21.403 18.640 21.403 H16.743 V17.609 C16.743 14.994 14.615 12.866 12.000 12.866 C9.385 12.866 7.257 14.994 7.257 17.609 V21.403 H5.360 C4.838 21.403 4.412 20.978 4.412 20.454 V9.155 L12.000 2.946 L19.588 9.155 V20.454 Z M19.588 6.703 L17.691 5.152 V3.381 H19.588 V6.703 Z"
    fill="currentColor"
  />
</svg>
