<svg
  xmlns="http://www.w3.org/2000/svg"
  width="24"
  height="24"
  viewBox="0 0 24 24"
  fill="none"
>
  <path
    fill-rule="evenodd"
    clip-rule="evenodd"
    d="M16.620 0.931 C16.440 0.661 16.134 0.500 15.809 0.505 C15.484 0.510 15.183 0.679 15.010 0.955 L10.220 8.620 C9.939 9.069 10.076 9.660 10.524 9.940 C10.973 10.221 11.564 10.084 11.845 9.636 L15.849 3.229 L19.782 9.128 H18.718 C18.628 9.126 18.538 9.137 18.449 9.160 C18.224 9.221 18.031 9.361 17.904 9.548 C17.800 9.702 17.739 9.887 17.739 10.086 C17.739 10.116 17.740 10.145 17.743 10.175 L20.326 11.044 H21.559 C21.676 11.046 21.795 11.026 21.908 10.983 C21.985 10.955 22.057 10.916 22.124 10.869 C22.270 10.766 22.380 10.629 22.448 10.475 C22.482 10.398 22.506 10.316 22.519 10.231 C22.549 10.033 22.518 9.825 22.419 9.639 C22.404 9.610 22.387 9.582 22.369 9.555 L16.620 0.931 Z M7.626 10.247 C7.948 10.032 8.367 10.032 8.689 10.247 L14.438 14.079 C14.705 14.257 14.865 14.556 14.865 14.877 V22.542 C14.865 23.071 14.436 23.500 13.907 23.500 H10.074 H6.241 H2.409 C1.880 23.500 1.451 23.071 1.451 22.542 V14.877 C1.451 14.556 1.611 14.257 1.877 14.079 L7.626 10.247 Z M12.948 21.584 H11.032 V19.667 C11.032 18.080 9.746 16.793 8.158 16.793 C6.570 16.793 5.283 18.080 5.283 19.667 V21.584 H3.367 V15.390 L8.158 12.196 L12.948 15.390 V21.584 Z M7.200 19.667 V21.584 H9.116 V19.667 C9.116 19.138 8.687 18.709 8.158 18.709 C7.628 18.709 7.200 19.138 7.200 19.667 Z"
    fill="currentColor"
  />
</svg>
