<svg
  width="24"
  height="24"
  viewBox="0 0 24 24"
  fill="none"
  xmlns="http://www.w3.org/2000/svg"
>
  <path
    fill-rule="evenodd"
    clip-rule="evenodd"
    d="M14.0005 8.99951C14.0005 8.44723 14.4482 7.99951 15.0005 7.99951H19.0005C19.5528 7.99951 20.0005 8.44723 20.0005 8.99951C20.0005 9.5518 19.5528 9.99951 19.0005 9.99951H15.0005C14.4482 9.99951 14.0005 9.5518 14.0005 8.99951Z"
    fill="currentColor"
  />
  <path
    fill-rule="evenodd"
    clip-rule="evenodd"
    d="M14.0005 12.9998C14.0005 12.4475 14.4482 11.9998 15.0005 11.9998H19.0005C19.5528 11.9998 20.0005 12.4475 20.0005 12.9998C20.0005 13.552 19.5528 13.9998 19.0005 13.9998H15.0005C14.4482 13.9998 14.0005 13.552 14.0005 12.9998Z"
    fill="currentColor"
  />
  <path
    fill-rule="evenodd"
    clip-rule="evenodd"
    d="M8.5 9C7.67157 9 7 9.67157 7 10.5C7 11.3284 7.67157 12 8.5 12C9.32843 12 10 11.3284 10 10.5C10 9.67157 9.32843 9 8.5 9ZM5 10.5C5 8.567 6.567 7 8.5 7C10.433 7 12 8.567 12 10.5C12 12.433 10.433 14 8.5 14C6.567 14 5 12.433 5 10.5Z"
    fill="currentColor"
  />
  <path
    fill-rule="evenodd"
    clip-rule="evenodd"
    d="M3.00049 20.0002C3.00049 17.239 5.2392 15.0002 8.00049 15.0002C10.7618 15.0002 13.0005 17.239 13.0005 20.0002C13.0005 20.5525 12.5528 21.0002 12.0005 21.0002C11.4482 21.0002 11.0005 20.5525 11.0005 20.0002C11.0005 18.3435 9.65721 17.0002 8.00049 17.0002C6.34377 17.0002 5.00049 18.3435 5.00049 20.0002C5.00049 20.5525 4.55277 21.0002 4.00049 21.0002C3.4482 21.0002 3.00049 20.5525 3.00049 20.0002Z"
    fill="currentColor"
  />
  <path
    fill-rule="evenodd"
    clip-rule="evenodd"
    d="M3 4.99951C2.44728 4.99951 2 5.4468 2 5.99951V17.9995C2 18.5522 2.44728 18.9995 3 18.9995H21C21.5527 18.9995 22 18.5522 22 17.9995V5.99951C22 5.4468 21.5527 4.99951 21 4.99951H3ZM0 5.99951C0 4.34223 1.34272 2.99951 3 2.99951H21C22.6573 2.99951 24 4.34223 24 5.99951V17.9995C24 19.6568 22.6573 20.9995 21 20.9995H3C1.34272 20.9995 0 19.6568 0 17.9995V5.99951Z"
    fill="currentColor"
  />
</svg>
