<svg
  xmlns="http://www.w3.org/2000/svg"
  width="24"
  height="24"
  viewBox="0 0 24 24"
  fill="none"
>
  <path
    fill-rule="evenodd"
    clip-rule="evenodd"
    d="M12.000 0.500 C5.659 0.500 0.500 5.659 0.500 12.000 C0.500 18.341 5.659 23.500 12.000 23.500 C18.341 23.500 23.500 18.341 23.500 12.000 C23.500 5.659 18.341 0.500 12.000 0.500 Z M11.042 7.199 C11.042 6.669 11.470 6.240 12.000 6.240 C12.530 6.240 12.958 6.669 12.958 7.199 C12.958 7.729 12.530 8.162 12.000 8.162 C11.470 8.162 11.042 7.738 11.042 7.208 V7.199 Z M11.042 11.042 C11.042 10.512 11.470 10.083 12.000 10.083 C12.530 10.083 12.958 10.512 12.958 11.042 V17.750 C12.958 18.280 12.530 18.708 12.000 18.708 C11.470 18.708 11.042 18.280 11.042 17.750 V11.042 Z M2.417 12.000 C2.417 17.284 6.716 21.583 12.000 21.583 C17.284 21.583 21.583 17.284 21.583 12.000 C21.583 6.716 17.284 2.417 12.000 2.417 C6.716 2.417 2.417 6.716 2.417 12.000 Z"
    fill="currentColor"
  />
</svg>
