<svg
  width="24"
  height="24"
  viewBox="0 0 24 24"
  fill="none"
  xmlns="http://www.w3.org/2000/svg"
>
  <path
    fill-rule="evenodd"
    d="M18.2221 14.2374L21.1716 17.1869L16.3636 21.9949L13.4141 19.0454L11.9999 20.4596L14.9494 23.4091C15.7305 24.1902 16.9968 24.1902 17.7779 23.4091L22.5858 18.6011C23.3669 17.8201 23.3669 16.5538 22.5858 15.7727L19.6363 12.8232L18.2221 14.2374Z"
    fill="currentColor"
  />
  <path
    fill-rule="evenodd"
    d="M10.5857 6.60098L7.63631 3.65161L2.82832 8.45959L5.7777 11.409L4.36348 12.8232L1.41411 9.87381C0.633062 9.09276 0.633064 7.82643 1.41411 7.04538L6.2221 2.2374C7.00315 1.45635 8.26948 1.45635 9.05053 2.2374L11.9999 5.18677L10.5857 6.60098Z"
    fill="currentColor"
  />
  <path
    fill-rule="evenodd"
    clip-rule="evenodd"
    d="M11.8284 12.6519L11.8284 12.6519L11.8285 12.6519L11.8284 12.6518L11.8284 12.6519ZM9.70711 11.9447C9.31658 12.3353 9.31658 12.9684 9.70711 13.359L11.1213 14.7732C11.5119 15.1637 12.145 15.1637 12.5356 14.7732L13.9498 13.359C14.3403 12.9684 14.3403 12.3353 13.9498 11.9447L12.5356 10.5305C12.145 10.14 11.5119 10.14 11.1213 10.5305L9.70711 11.9447Z"
    fill="currentColor"
  />

  <rect
    x="15"
    y="7.5"
    width="1"
    height="2"
    rx="0.2"
    transform="rotate(-45 15 7)"
    fill="currentColor"
    stroke="currentColor"
    stroke-width="2"
    mask="url(#path-3-inside-1_269_383)"
  />

  <rect
    x="5"
    y="17.5"
    width="1"
    height="2"
    rx="0.2"
    transform="rotate(-45 5 17)"
    fill="currentColor"
    stroke="currentColor"
    stroke-width="2"
  />
  <path
    fill-rule="evenodd"
    clip-rule="evenodd"
    d="M7.63638 21.9949L21.1717 8.4596L16.3637 3.6516L2.82839 17.1869L7.63638 21.9949ZM22.5859 9.87381C23.367 9.09276 23.367 7.82643 22.5859 7.04538L17.7779 2.23739C16.9969 1.45634 15.7305 1.45634 14.9495 2.23739L1.41418 15.7727C0.633135 16.5538 0.633132 17.8201 1.41418 18.6011L6.22217 23.4091C7.00321 24.1902 8.26954 24.1902 9.05059 23.4091L22.5859 9.87381Z"
    fill="currentColor"
  />
</svg>
