<svg
  width="24"
  height="24"
  viewBox="0 0 24 24"
  fill="none"
  xmlns="http://www.w3.org/2000/svg"
>
  <path
    fill-rule="evenodd"
    d="M15.735 7.9258L17.899 3.4878C18.086 3.1038 18.009 2.6438 17.707 2.3418L15.707 0.341805C15.52 0.154805 15.265 0.0498047 15 0.0498047H9C8.735 0.0498047 8.48 0.154805 8.293 0.342805L6.293 2.3428C5.991 2.6438 5.914 3.1038 6.101 3.4878L8.262 7.9278C5.447 9.3138 3.5 12.2048 3.5 15.5498C3.5 20.2368 7.313 24.0498 12 24.0498C16.687 24.0498 20.5 20.2368 20.5 15.5498C20.5 12.2038 18.552 9.3118 15.735 7.9258ZM8.211 3.2528L9.414 2.0498H14.586L15.789 3.2528L13.837 7.2558C13.244 7.1238 12.631 7.0498 12 7.0498C11.367 7.0498 10.753 7.1248 10.159 7.2558L8.211 3.2528ZM12 22.0498C8.416 22.0498 5.5 19.1338 5.5 15.5498C5.5 11.9658 8.416 9.0498 12 9.0498C15.584 9.0498 18.5 11.9658 18.5 15.5498C18.5 19.1338 15.584 22.0498 12 22.0498Z"
    fill="currentColor"
  />
</svg>
