<svg
  xmlns="http://www.w3.org/2000/svg"
  width="24"
  height="24"
  viewBox="0 0 24 24"
  fill="none"
>
  <path
    fill-rule="evenodd"
    clip-rule="evenodd"
    d="M22.560 8.209 L15.910 1.559 C14.852 0.501 13.005 0.500 11.947 1.559 L8.079 5.427 C7.050 6.455 6.990 8.090 7.896 9.190 L0.897 16.191 C0.719 16.368 0.619 16.610 0.619 16.861 V22.552 C0.619 23.075 1.044 23.500 1.567 23.500 H7.258 C7.781 23.500 8.206 23.075 8.206 22.552 V19.706 H11.052 C11.575 19.706 12.000 19.281 12.000 18.758 V16.861 H16.742 H16.758 C17.488 16.849 18.175 16.558 18.692 16.041 L22.560 12.173 C23.089 11.644 23.381 10.940 23.381 10.191 C23.381 9.442 23.089 8.738 22.560 8.209 Z M21.219 10.831 L17.351 14.699 C17.185 14.865 16.966 14.959 16.733 14.964 H11.052 C10.528 14.964 10.103 15.389 10.103 15.913 V17.810 H7.258 C6.734 17.810 6.310 18.234 6.310 18.758 V21.603 H2.516 V17.254 L9.899 9.869 C10.270 9.499 10.270 8.899 9.899 8.528 L9.420 8.049 C9.250 7.878 9.155 7.651 9.155 7.408 C9.155 7.166 9.250 6.939 9.420 6.768 L13.288 2.900 C13.643 2.548 14.216 2.548 14.569 2.900 L21.219 9.551 C21.390 9.721 21.484 9.948 21.484 10.190 C21.484 10.433 21.389 10.659 21.219 10.831 Z M14.145 6.756 C14.516 6.385 15.116 6.385 15.486 6.756 L17.383 8.653 C17.754 9.023 17.754 9.623 17.383 9.994 C17.198 10.179 16.955 10.272 16.713 10.272 C16.470 10.272 16.227 10.179 16.042 9.994 L14.145 8.097 C13.774 7.726 13.774 7.127 14.145 6.756 Z"
    fill="currentColor"
  />
</svg>
