<svg
  width="24"
  height="24"
  viewBox="0 0 24 24"
  fill="none"
  xmlns="http://www.w3.org/2000/svg"
>
  <path
    d="M23.3492 19.7014L22.0002 14.3084V4.42944C22.0002 2.77544 20.6542 1.42944 19.0002 1.42944H5.00017C3.34617 1.42944 2.00017 2.77544 2.00017 4.42944V14.3084L0.651175 19.7024C0.425175 20.6044 0.624175 21.5434 1.19718 22.2764C1.77017 23.0084 2.63217 23.4294 3.56218 23.4294H20.4392C21.3692 23.4294 22.2312 23.0084 22.8032 22.2764C23.3762 21.5424 23.5742 20.6044 23.3492 19.7014ZM4.00017 4.42944C4.00017 3.87844 4.44817 3.42944 5.00017 3.42944H19.0002C19.5522 3.42944 20.0002 3.87844 20.0002 4.42944V13.4294H4.00017V4.42944ZM21.2272 21.0444C21.0362 21.2884 20.7482 21.4294 20.4382 21.4294H3.56218C3.25218 21.4294 2.96417 21.2884 2.77417 21.0444C2.58317 20.8004 2.51618 20.4864 2.59118 20.1864L3.78017 15.4294H20.2202L21.4092 20.1864C21.4842 20.4874 21.4182 20.8004 21.2272 21.0444Z"
    fill="currentColor"
  />
</svg>
