<svg
  xmlns="http://www.w3.org/2000/svg"
  width="24"
  height="24"
  viewBox="0 0 24 24"
  fill="none"
>
  <path
    fill-rule="evenodd"
    d="M5.407 9.338 L4.757 8.915 C4.537 8.772 4.264 8.732 4.014 8.806 C3.762 8.880 3.555 9.060 3.448 9.300 L3.130 10.009 C2.858 10.615 0.500 16.016 1.371 18.977 C2.130 21.555 4.180 23.124 6.547 23.124 C7.072 23.124 7.613 23.046 8.158 22.886 C11.162 22.001 12.671 19.073 11.745 15.923 C10.869 12.952 5.967 9.702 5.407 9.338 Z M7.651 21.165 C5.577 21.773 3.747 20.692 3.093 18.470 C2.541 16.594 3.946 12.657 4.657 10.994 C6.156 12.003 9.468 14.547 10.023 16.430 C10.676 18.652 9.723 20.554 7.651 21.165 Z M17.494 12.433 C17.937 12.433 18.373 12.379 18.795 12.267 C20.156 11.908 21.303 10.980 22.025 9.656 C23.500 6.951 22.512 3.866 19.677 2.320 C17.022 0.873 11.347 2.012 10.708 2.146 L9.963 2.304 C9.706 2.359 9.486 2.522 9.360 2.753 C9.235 2.983 9.216 3.256 9.309 3.502 L9.580 4.213 C9.812 4.822 11.920 10.205 14.586 11.658 C15.527 12.171 16.526 12.433 17.494 12.433 Z M11.363 3.845 C13.644 3.399 17.305 3.072 18.818 3.897 C20.802 4.979 21.457 6.948 20.448 8.798 C19.958 9.697 19.228 10.298 18.336 10.533 C17.427 10.775 16.426 10.620 15.445 10.083 C13.772 9.170 12.027 5.499 11.363 3.845 Z M21.390 16.165 C19.815 14.590 15.699 14.234 15.235 14.198 L14.704 14.156 C14.442 14.137 14.186 14.231 14.001 14.417 C13.815 14.601 13.721 14.859 13.740 15.120 L13.782 15.652 C13.842 16.411 14.217 20.275 15.749 21.806 C16.570 22.627 17.595 23.097 18.635 23.125 C18.670 23.126 18.705 23.127 18.740 23.127 C19.762 23.127 20.744 22.705 21.517 21.933 C23.152 20.299 23.099 17.873 21.390 16.165 Z M20.248 20.664 C19.795 21.117 19.248 21.349 18.686 21.332 C18.097 21.315 17.521 21.041 17.018 20.537 C16.268 19.788 15.800 17.606 15.621 16.037 C17.155 16.211 19.374 16.686 20.121 17.433 C20.625 17.937 20.899 18.513 20.916 19.102 C20.932 19.671 20.700 20.211 20.248 20.664 Z"
    fill="currentColor"
  />
</svg>
