<svg
  width="24"
  height="24"
  viewBox="0 0 24 24"
  fill="none"
  xmlns="http://www.w3.org/2000/svg"
  stroke="currentColor"
  stroke-width="2"
  stroke-linecap="round"
  stroke-linejoin="round"
>
  <path
    fill-rule="evenodd"
    d="M16.1532 19.1216C16.4682 17.2296 17.2642 15.4416 18.4252 13.8816C19.4142 12.5526 20.0002 10.9066 20.0002 9.12159C20.0002 4.40259 15.9142 0.637585 11.0862 1.17259C7.56921 1.56159 4.6442 4.34359 4.1002 7.83959C3.7522 10.0796 4.3362 12.1766 5.5222 13.8086C6.6832 15.4046 7.5122 17.2076 7.8412 19.1216"
  />
  <path
    fill-rule="evenodd"
    d="M7.84131 19.1216C7.94231 19.7126 8.00031 20.3126 8.00031 20.9226V21.1216C8.00031 22.2266 8.89631 23.1216 10.0003 23.1216H14.0003C15.1043 23.1216 16.0003 22.2266 16.0003 21.1216V20.9186C16.0003 20.3116 16.0543 19.7126 16.1533 19.1216H7.84131Z"
  />
</svg>
