<svg
  xmlns="http://www.w3.org/2000/svg"
  width="24"
  height="24"
  viewBox="0 0 24 24"
  fill="none"
>
  <path
    d="M14.334 17.045 L11.322 20.056 C9.288 22.090 5.979 22.090 3.944 20.056 C2.959 19.070 2.417 17.761 2.417 16.367 C2.417 14.974 2.959 13.664 3.944 12.678 L6.955 9.666 C7.330 9.291 7.330 8.685 6.955 8.310 C6.581 7.936 5.975 7.936 5.600 8.310 L2.589 11.322 C1.242 12.670 0.500 14.461 0.500 16.367 C0.500 18.273 1.242 20.063 2.589 21.411 C3.937 22.758 5.729 23.500 7.634 23.500 C9.539 23.500 11.330 22.758 12.678 21.410 L15.689 18.399 C16.063 18.024 16.063 17.418 15.689 17.044 C15.314 16.669 14.708 16.670 14.334 17.045 Z M16.511 7.489 C16.136 7.114 15.530 7.114 15.156 7.489 L7.489 15.156 C7.114 15.530 7.114 16.136 7.489 16.511 C7.676 16.698 7.921 16.792 8.167 16.792 C8.412 16.792 8.657 16.698 8.844 16.511 L16.511 8.844 C16.886 8.470 16.886 7.864 16.511 7.489 Z M21.411 2.590 C20.063 1.242 18.271 0.500 16.366 0.500 C14.461 0.500 12.670 1.242 11.322 2.590 L8.311 5.600 C7.937 5.975 7.937 6.581 8.311 6.955 C8.686 7.330 9.292 7.330 9.666 6.955 L12.678 3.944 C14.712 1.910 18.021 1.910 20.056 3.944 C21.041 4.930 21.583 6.239 21.583 7.633 C21.583 9.026 21.041 10.336 20.056 11.322 L17.045 14.334 C16.670 14.709 16.670 15.315 17.045 15.690 C17.232 15.876 17.477 15.970 17.722 15.970 C17.968 15.970 18.213 15.876 18.400 15.690 L21.411 12.678 C22.758 11.330 23.500 9.539 23.500 7.633 C23.500 5.727 22.758 3.937 21.411 2.590 Z"
    fill="currentColor"
  />
</svg>
