<svg
  xmlns="http://www.w3.org/2000/svg"
  width="24"
  height="24"
  viewBox="0 0 24 24"
  fill="none"
>
  <path
    fill-rule="evenodd"
    clip-rule="evenodd"
    d="M11.999 2.249 C8.552 2.250 6.071 2.637 4.627 3.400 C4.071 3.693 3.713 4.267 3.694 4.898 L3.286 18.319 C3.272 18.779 3.454 19.227 3.783 19.547 C5.290 21.010 8.048 21.751 11.983 21.751 H12.017 C15.951 21.751 18.710 21.010 20.217 19.547 C20.546 19.227 20.728 18.779 20.714 18.319 L20.306 4.898 C20.287 4.267 19.929 3.693 19.373 3.400 C17.929 2.637 15.448 2.250 11.999 2.249 Z M12.017 23.500 H11.983 C7.516 23.500 4.435 22.617 2.565 20.802 C1.884 20.140 1.510 19.216 1.538 18.266 L1.946 4.845 C1.984 3.586 2.699 2.440 3.811 1.853 C5.533 0.944 8.212 0.502 11.999 0.500 C15.789 0.502 18.467 0.944 20.189 1.853 C21.301 2.440 22.016 3.586 22.054 4.845 L22.462 18.266 C22.490 19.216 22.116 20.140 21.435 20.802 C19.565 22.617 16.484 23.500 12.017 23.500 Z"
    fill="currentColor"
  />
</svg>
