<svg
  xmlns="http://www.w3.org/2000/svg"
  width="24"
  height="24"
  viewBox="0 0 24 24"
  fill="none"
>
  <path
    fill-rule="evenodd"
    clip-rule="evenodd"
    d="M1.458 0.500 C0.929 0.500 0.500 0.929 0.500 1.458 V7.208 C0.500 7.738 0.929 8.167 1.458 8.167 C1.988 8.167 2.417 7.738 2.417 7.208 V2.417 H7.208 C7.738 2.417 8.167 1.988 8.167 1.458 C8.167 0.929 7.738 0.500 7.208 0.500 H1.458 Z M16.792 0.500 C16.262 0.500 15.833 0.929 15.833 1.458 C15.833 1.988 16.262 2.417 16.792 2.417 H21.583 V7.208 C21.583 7.738 22.012 8.167 22.542 8.167 C23.071 8.167 23.500 7.738 23.500 7.208 V1.458 C23.500 0.929 23.071 0.500 22.542 0.500 H16.792 Z M22.542 15.833 C23.071 15.833 23.500 16.262 23.500 16.792 V22.542 C23.500 23.071 23.071 23.500 22.542 23.500 H16.792 C16.262 23.500 15.833 23.071 15.833 22.542 C15.833 22.012 16.262 21.583 16.792 21.583 H21.583 V16.792 C21.583 16.262 22.012 15.833 22.542 15.833 Z M2.417 16.792 C2.417 16.262 1.988 15.833 1.458 15.833 C0.929 15.833 0.500 16.262 0.500 16.792 V22.542 C0.500 23.071 0.929 23.500 1.458 23.500 H7.208 C7.738 23.500 8.167 23.071 8.167 22.542 C8.167 22.012 7.738 21.583 7.208 21.583 H2.417 V16.792 Z"
    fill="currentColor"
  />
</svg>
