<svg
  xmlns="http://www.w3.org/2000/svg"
  width="24"
  height="24"
  viewBox="0 0 24 24"
  fill="none"
>
  <path
    d="M15.833 12.958 H12.958 V10.083 C12.958 9.554 12.529 9.125 12.000 9.125 C11.471 9.125 11.042 9.554 11.042 10.083 V12.958 H8.167 C7.638 12.958 7.208 13.388 7.208 13.917 C7.208 14.446 7.638 14.875 8.167 14.875 H11.042 V17.750 C11.042 18.279 11.471 18.708 12.000 18.708 C12.529 18.708 12.958 18.279 12.958 17.750 V14.875 H15.833 C16.362 14.875 16.792 14.446 16.792 13.917 C16.792 13.388 16.362 12.958 15.833 12.958 Z M12.000 6.245 C12.529 6.245 12.958 5.811 12.958 5.282 C12.958 4.753 12.529 4.324 12.000 4.324 C11.471 4.324 11.042 4.753 11.042 5.282 V5.292 C11.042 5.821 11.471 6.245 12.000 6.245 Z M18.708 3.375 H16.378 C15.627 1.651 13.920 0.500 12.000 0.500 C10.080 0.500 8.373 1.651 7.622 3.375 H5.292 C3.707 3.375 2.417 4.665 2.417 6.250 V20.625 C2.417 22.210 3.707 23.500 5.292 23.500 H18.708 C20.293 23.500 21.583 22.210 21.583 20.625 V6.250 C21.583 4.665 20.293 3.375 18.708 3.375 Z M19.667 20.625 C19.667 21.153 19.236 21.583 18.708 21.583 H5.292 C4.764 21.583 4.333 21.153 4.333 20.625 V6.250 C4.333 5.722 4.764 5.292 5.292 5.292 H8.303 C8.739 5.292 9.121 4.997 9.230 4.573 C9.559 3.303 10.698 2.417 12.000 2.417 C13.302 2.417 14.441 3.304 14.771 4.574 C14.880 4.997 15.261 5.292 15.698 5.292 H18.708 C19.236 5.292 19.667 5.722 19.667 6.250 V20.625 Z"
    fill="currentColor"
  />
</svg>
