<svg
  width="24"
  height="24"
  viewBox="0 0 24 24"
  fill="none"
  xmlns="http://www.w3.org/2000/svg"
>
  <path
    fill-rule="evenodd"
    clip-rule="evenodd"
    d="M3 6.40332H21C21.552 6.40332 22 5.95632 22 5.40332C22 4.85032 21.552 4.40332 21 4.40332H3C2.448 4.40332 2 4.85032 2 5.40332C2 5.95632 2.448 6.40332 3 6.40332ZM21 11.4033H3C2.448 11.4033 2 11.8503 2 12.4033C2 12.9563 2.448 13.4033 3 13.4033H21C21.552 13.4033 22 12.9563 22 12.4033C22 11.8503 21.552 11.4033 21 11.4033ZM3 18.4033H21C21.552 18.4033 22 18.8503 22 19.4033C22 19.9563 21.552 20.4033 21 20.4033H3C2.448 20.4033 2 19.9563 2 19.4033C2 18.8503 2.448 18.4033 3 18.4033Z"
    fill="currentColor"
  />
</svg>
