<svg
  xmlns="http://www.w3.org/2000/svg"
  width="24"
  height="24"
  viewBox="0 0 24 24"
  fill="none"
>
  <path
    fill-rule="evenodd"
    clip-rule="evenodd"
    d="M7.208 0.500 C7.738 0.500 8.167 0.929 8.167 1.458 V7.208 C8.167 7.738 7.738 8.167 7.208 8.167 H1.458 C0.929 8.167 0.500 7.738 0.500 7.208 C0.500 6.679 0.929 6.250 1.458 6.250 H6.250 V1.458 C6.250 0.929 6.679 0.500 7.208 0.500 Z"
    fill="currentColor"
  />
  <path
    fill-rule="evenodd"
    clip-rule="evenodd"
    d="M16.792 0.500 C17.321 0.500 17.750 0.929 17.750 1.458 V6.250 H22.542 C23.071 6.250 23.500 6.679 23.500 7.208 C23.500 7.738 23.071 8.167 22.542 8.167 H16.792 C16.262 8.167 15.833 7.738 15.833 7.208 V1.458 C15.833 0.929 16.262 0.500 16.792 0.500 Z"
    fill="currentColor"
  />
  <path
    fill-rule="evenodd"
    clip-rule="evenodd"
    d="M15.833 16.792 C15.833 16.262 16.262 15.833 16.792 15.833 H22.542 C23.071 15.833 23.500 16.262 23.500 16.792 C23.500 17.321 23.071 17.750 22.542 17.750 H17.750 V22.542 C17.750 23.071 17.321 23.500 16.792 23.500 C16.262 23.500 15.833 23.071 15.833 22.542 V16.792 Z"
    fill="currentColor"
  />
  <path
    fill-rule="evenodd"
    clip-rule="evenodd"
    d="M0.500 16.792 C0.500 16.262 0.929 15.833 1.458 15.833 H7.208 C7.738 15.833 8.167 16.262 8.167 16.792 V22.542 C8.167 23.071 7.738 23.500 7.208 23.500 C6.679 23.500 6.250 23.071 6.250 22.542 V17.750 H1.458 C0.929 17.750 0.500 17.321 0.500 16.792 Z"
    fill="currentColor"
  />
</svg>
