<svg
  xmlns="http://www.w3.org/2000/svg"
  width="24"
  height="24"
  viewBox="0 0 24 24"
  fill="none"
>
  <path
    fill-rule="evenodd"
    clip-rule="evenodd"
    d="M6.250 0.500 H17.750 C19.335 0.500 20.625 1.790 20.625 3.375 V20.625 C20.625 22.210 19.335 23.500 17.750 23.500 H6.250 C4.665 23.500 3.375 22.210 3.375 20.625 V3.375 C3.375 1.790 4.665 0.500 6.250 0.500 Z M11.636 20.548 C11.521 20.500 11.415 20.433 11.320 20.347 C11.233 20.250 11.166 20.146 11.118 20.031 C11.070 19.916 11.042 19.791 11.042 19.667 C11.042 19.542 11.070 19.418 11.118 19.303 C11.166 19.178 11.233 19.073 11.320 18.986 C11.684 18.632 12.316 18.632 12.680 18.986 C12.853 19.167 12.958 19.418 12.958 19.667 C12.958 19.791 12.939 19.916 12.882 20.031 C12.834 20.146 12.767 20.250 12.680 20.347 C12.498 20.528 12.259 20.625 12.000 20.625 C11.875 20.625 11.751 20.596 11.636 20.548 Z M18.708 20.625 C18.708 21.154 18.278 21.583 17.750 21.583 H6.250 C5.722 21.583 5.292 21.154 5.292 20.625 V17.750 H18.708 V20.625 Z M5.292 15.833 H18.708 V3.375 C18.708 2.847 18.278 2.417 17.750 2.417 H6.250 C5.722 2.417 5.292 2.847 5.292 3.375 V15.833 Z"
    fill="currentColor"
  />
</svg>
