<svg
  xmlns="http://www.w3.org/2000/svg"
  width="24"
  height="24"
  viewBox="0 0 24 24"
  fill="none"
>
  <path
    fill-rule="evenodd"
    d="M21.820 5.386 C20.694 3.894 19.099 2.936 17.443 2.759 C15.421 2.543 13.757 2.732 11.989 4.253 C10.385 2.906 8.871 2.510 6.558 2.759 C4.901 2.936 3.306 3.894 2.180 5.386 C1.002 6.950 0.500 8.841 0.802 10.577 C1.725 15.874 6.530 18.907 11.584 21.393 C11.716 21.458 11.858 21.490 12.000 21.490 C12.142 21.490 12.284 21.458 12.415 21.393 C17.469 18.906 22.274 15.874 23.197 10.577 C23.500 8.841 22.998 6.950 21.820 5.386 Z M21.345 10.254 C20.629 14.364 17.103 16.948 12.000 19.500 C6.897 16.947 3.371 14.363 2.655 10.254 C2.444 9.047 2.829 7.651 3.682 6.518 C4.495 5.440 5.616 4.750 6.757 4.628 C7.130 4.589 7.468 4.567 7.781 4.567 C9.220 4.567 10.130 5.018 11.342 6.207 C11.520 6.383 11.735 6.469 12.013 6.476 C12.264 6.472 12.503 6.368 12.677 6.189 C14.053 4.765 15.122 4.401 17.243 4.628 C18.384 4.750 19.505 5.440 20.318 6.518 C21.171 7.651 21.556 9.047 21.345 10.254 Z M12.470 12.105 H11.530 C11.270 12.105 11.060 11.894 11.060 11.635 C11.060 11.375 11.270 11.165 11.530 11.165 H13.410 C13.929 11.165 14.351 10.743 14.351 10.224 C14.351 9.705 13.929 9.284 13.410 9.284 H12.940 V8.814 C12.940 8.295 12.519 7.874 12.000 7.874 C11.481 7.874 11.060 8.295 11.060 8.814 V9.332 C9.988 9.549 9.179 10.499 9.179 11.635 C9.179 12.930 10.234 13.985 11.530 13.985 H12.470 C12.730 13.985 12.940 14.197 12.940 14.455 C12.940 14.714 12.730 14.926 12.470 14.926 H10.590 C10.071 14.926 9.649 15.346 9.649 15.866 C9.649 16.386 10.071 16.806 10.590 16.806 H11.060 V17.276 C11.060 17.796 11.481 18.216 12.000 18.216 C12.519 18.216 12.940 17.796 12.940 17.276 V16.758 C14.012 16.540 14.821 15.590 14.821 14.455 C14.821 13.159 13.766 12.105 12.470 12.105 Z"
    fill="currentColor"
  />
</svg>
