<svg
  width="24"
  height="24"
  viewBox="0 0 24 24"
  fill="none"
  xmlns="http://www.w3.org/2000/svg"
>
  <path
    d="M16.368 5.6826C16.368 5.6816 16.368 5.6796 16.369 5.6786L18.857 1.5326C19.043 1.2236 19.047 0.838602 18.87 0.525602C18.693 0.210602 18.36 0.0166016 18 0.0166016H6C5.64 0.0166016 5.307 0.210602 5.13 0.523602C4.952 0.837602 4.957 1.2226 5.143 1.5316L7.647 5.6636C3.847 8.1156 0 12.8356 0 17.1136C0 18.4446 0.237 19.5556 0.723 20.5026C0.77 20.6806 0.865 20.8416 0.991 20.9686C2.793 23.7756 6.635 24.0166 10.428 24.0166H13.571C17.472 24.0166 24 24.0166 24 17.1136C24 12.8356 20.153 8.1156 16.368 5.6826ZM16.234 2.0166L14.655 4.6486C14.583 4.7676 14.526 4.8906 14.482 5.0166H9.518C9.474 4.8906 9.417 4.7676 9.345 4.6486L7.766 2.0166H16.234ZM13.571 22.0166H10.428C6.375 22.0166 3.645 21.6306 2.567 19.7106C2.565 19.7076 2.563 19.7036 2.561 19.6996C2.184 19.0216 2 18.1756 2 17.1136C2 13.5896 5.468 9.4496 8.73 7.3436C8.875 7.2506 8.998 7.1376 9.109 7.0166H14.891C15.002 7.1376 15.125 7.2506 15.27 7.3446C18.533 9.4496 22 13.5896 22 17.1146C22 21.2826 19.282 22.0166 13.571 22.0166Z"
    fill="currentColor"
  />
</svg>
