<svg
  width="24"
  height="24"
  viewBox="0 0 24 24"
  fill="none"
  xmlns="http://www.w3.org/2000/svg"
>
  <path
    d="M21.923 3.02132C21.822 2.77632 21.627 2.58132 21.382 2.48032C21.26 2.42932 21.13 2.40332 21 2.40332H15C14.447 2.40332 14 2.85032 14 3.40332C14 3.95632 14.447 4.40332 15 4.40332H18.586L10.293 12.6963C9.902 13.0873 9.902 13.7193 10.293 14.1103C10.488 14.3053 10.744 14.4033 11 14.4033C11.256 14.4033 11.512 14.3053 11.707 14.1103L20 5.81732V9.40332C20 9.95632 20.447 10.4033 21 10.4033C21.553 10.4033 22 9.95632 22 9.40332V3.40332C22 3.27332 21.974 3.14332 21.923 3.02132ZM19 17.4033C18.447 17.4033 18 17.8503 18 18.4033V19.4033C18 19.9553 17.552 20.4033 17 20.4033H5C4.448 20.4033 4 19.9553 4 19.4033V7.40332C4 6.85132 4.448 6.40332 5 6.40332H6C6.553 6.40332 7 5.95632 7 5.40332C7 4.85032 6.553 4.40332 6 4.40332H5C3.346 4.40332 2 5.74932 2 7.40332V19.4033C2 21.0573 3.346 22.4033 5 22.4033H17C18.654 22.4033 20 21.0573 20 19.4033V18.4033C20 17.8503 19.553 17.4033 19 17.4033Z"
    fill="currentColor"
  />
</svg>
