<svg
  xmlns="http://www.w3.org/2000/svg"
  width="24"
  height="24"
  viewBox="0 0 24 24"
  fill="none"
>
  <path
    fill-rule="evenodd"
    clip-rule="evenodd"
    d="M0.872 0.918 C1.243 0.547 1.844 0.547 2.216 0.918 L23.128 21.831 C23.500 22.202 23.500 22.803 23.128 23.175 C22.943 23.360 22.700 23.453 22.456 23.453 C22.213 23.453 21.969 23.360 21.784 23.175 L0.872 2.262 C0.500 1.891 0.500 1.290 0.872 0.918 Z M21.293 2.731 C18.328 2.168 15.004 2.966 11.785 3.739 L11.772 3.742 L11.246 3.869 C10.736 3.991 10.421 4.504 10.543 5.015 C10.666 5.526 11.179 5.842 11.688 5.719 L12.217 5.592 C15.243 4.864 18.374 4.111 20.937 4.600 C21.213 4.651 21.506 5.028 21.506 5.331 V15.781 C21.506 16.306 21.931 16.732 22.456 16.732 C22.982 16.732 23.407 16.306 23.407 15.781 V5.331 C23.407 4.120 22.459 2.954 21.293 2.731 Z M12.311 18.376 L11.785 18.503 L11.768 18.507 C8.746 19.233 5.623 19.983 3.061 19.493 C2.739 19.432 2.495 19.117 2.495 18.762 V8.312 C2.495 7.787 2.070 7.361 1.544 7.361 C1.018 7.361 0.593 7.787 0.593 8.312 V18.762 C0.593 20.035 1.482 21.128 2.706 21.361 C3.404 21.494 4.122 21.551 4.854 21.551 C7.232 21.551 9.760 20.944 12.223 20.353 L12.231 20.351 L12.754 20.225 C13.264 20.104 13.579 19.590 13.457 19.080 C13.334 18.569 12.822 18.258 12.311 18.376 Z"
    fill="currentColor"
  />
</svg>
