<svg
  xmlns="http://www.w3.org/2000/svg"
  width="24"
  height="24"
  viewBox="0 0 24 24"
  fill="none"
>
  <path
    fill-rule="evenodd"
    clip-rule="evenodd"
    d="M6.250 2.554 H5.429 C4.775 2.554 4.148 2.813 3.686 3.276 C3.224 3.738 2.964 4.365 2.964 5.018 V21.036 C2.964 21.690 3.224 22.316 3.686 22.779 C4.148 23.240 4.775 23.500 5.429 23.500 H18.571 C19.225 23.500 19.852 23.240 20.314 22.779 C20.776 22.316 21.036 21.690 21.036 21.036 V5.018 C21.036 4.365 20.776 3.738 20.314 3.276 C19.852 2.813 19.225 2.554 18.571 2.554 H17.750 V1.321 C17.750 0.868 17.382 0.500 16.929 0.500 C16.475 0.500 16.107 0.868 16.107 1.321 V2.554 H12.822 V1.321 C12.822 0.868 12.453 0.500 12.000 0.500 C11.547 0.500 11.179 0.868 11.179 1.321 V2.554 H7.893 V1.321 C7.893 0.868 7.525 0.500 7.072 0.500 C6.618 0.500 6.250 0.868 6.250 1.321 L6.250 2.554 Z M6.250 4.196 H5.429 C5.211 4.196 5.002 4.283 4.848 4.437 C4.693 4.592 4.607 4.800 4.607 5.018 V21.036 C4.607 21.254 4.693 21.463 4.848 21.616 C5.002 21.771 5.211 21.857 5.429 21.857 H18.571 C18.789 21.857 18.998 21.771 19.152 21.616 C19.307 21.463 19.393 21.254 19.393 21.036 V5.018 C19.393 4.800 19.307 4.592 19.152 4.437 C18.998 4.283 18.789 4.196 18.571 4.196 H17.750 V5.429 C17.750 5.882 17.382 6.250 16.929 6.250 C16.475 6.250 16.107 5.882 16.107 5.429 V4.196 H12.822 V5.429 C12.822 5.882 12.453 6.250 12.000 6.250 C11.547 6.250 11.179 5.882 11.179 5.429 V4.196 H7.893 V5.429 C7.893 5.882 7.525 6.250 7.072 6.250 C6.618 6.250 6.250 5.882 6.250 5.429 L6.250 4.196 Z M16.929 16.929 H7.072 C6.618 16.929 6.250 17.297 6.250 17.750 C6.250 18.203 6.618 18.571 7.072 18.571 H16.929 C17.382 18.571 17.750 18.203 17.750 17.750 C17.750 17.297 17.382 16.929 16.929 16.929 Z M16.929 12.821 H7.072 C6.618 12.821 6.250 13.189 6.250 13.643 C6.250 14.096 6.618 14.464 7.072 14.464 H16.929 C17.382 14.464 17.750 14.096 17.750 13.643 C17.750 13.189 17.382 12.821 16.929 12.821 Z M16.929 8.714 H7.072 C6.618 8.714 6.250 9.082 6.250 9.536 C6.250 9.989 6.618 10.357 7.072 10.357 H16.929 C17.382 10.357 17.750 9.989 17.750 9.536 C17.750 9.082 17.382 8.714 16.929 8.714 Z"
    fill="currentColor"
  />
</svg>
