<svg
  xmlns="http://www.w3.org/2000/svg"
  width="24"
  height="24"
  viewBox="0 0 24 24"
  fill="none"
>
  <path
    fill-rule="evenodd"
    d="M18.647 7.218 C19.171 7.218 19.596 6.790 19.596 6.260 V6.250 C19.596 5.720 19.171 5.296 18.647 5.296 C18.123 5.296 17.697 5.730 17.697 6.260 C17.697 6.790 18.123 7.218 18.647 7.218 Z M8.202 8.167 C8.202 7.637 7.776 7.208 7.252 7.208 H1.555 C1.031 7.208 0.606 7.637 0.606 8.167 V22.542 C0.606 23.072 1.031 23.500 1.555 23.500 H7.252 C7.776 23.500 8.202 23.072 8.202 22.542 C8.202 22.012 7.776 21.583 7.252 21.583 H2.505 V9.125 H7.252 C7.776 9.125 8.202 8.697 8.202 8.167 Z M18.647 11.042 C19.171 11.042 19.596 10.613 19.596 10.083 V10.074 C19.596 9.544 19.171 9.120 18.647 9.120 C18.123 9.120 17.697 9.553 17.697 10.083 C17.697 10.613 18.123 11.042 18.647 11.042 Z M5.353 15.829 C4.829 15.829 4.404 16.262 4.404 16.792 C4.404 17.322 4.829 17.750 5.353 17.750 C5.877 17.750 6.303 17.322 6.303 16.792 V16.782 C6.303 16.253 5.877 15.829 5.353 15.829 Z M6.303 12.949 C6.303 12.419 5.877 11.995 5.353 11.995 C4.829 11.995 4.404 12.428 4.404 12.958 C4.404 13.488 4.829 13.917 5.353 13.917 C5.877 13.917 6.303 13.488 6.303 12.958 V12.949 Z M18.647 14.875 C19.171 14.875 19.596 14.447 19.596 13.917 V13.907 C19.596 13.377 19.171 12.954 18.647 12.954 C18.123 12.954 17.697 13.387 17.697 13.917 C17.697 14.447 18.123 14.875 18.647 14.875 Z M14.849 14.875 C15.373 14.875 15.798 14.447 15.798 13.917 V13.907 C15.798 13.377 15.373 12.954 14.849 12.954 C14.324 12.954 13.899 13.387 13.899 13.917 C13.899 14.447 14.324 14.875 14.849 14.875 Z M22.445 0.500 H11.050 C10.526 0.500 10.101 0.928 10.101 1.458 V22.542 C10.101 23.072 10.526 23.500 11.050 23.500 H22.445 C22.969 23.500 23.394 23.072 23.394 22.542 V1.458 C23.394 0.928 22.969 0.500 22.445 0.500 Z M21.495 21.583 H12.000 V2.417 H21.495 V21.583 Z M14.849 11.042 C15.373 11.042 15.798 10.613 15.798 10.083 V10.074 C15.798 9.544 15.373 9.120 14.849 9.120 C14.324 9.120 13.899 9.553 13.899 10.083 C13.899 10.613 14.324 11.042 14.849 11.042 Z M14.849 7.218 C15.373 7.218 15.798 6.790 15.798 6.260 V6.250 C15.798 5.720 15.373 5.296 14.849 5.296 C14.324 5.296 13.899 5.730 13.899 6.260 C13.899 6.790 14.324 7.218 14.849 7.218 Z"
    fill="currentColor"
  />
</svg>
