<svg
  width="24"
  height="24"
  viewBox="0 0 24 24"
  fill="none"
  xmlns="http://www.w3.org/2000/svg"
  stroke="currentColor"
  stroke-width="2"
  stroke-linecap="round"
  stroke-linejoin="round"
>
  <path fill-rule="evenodd" d="M5.27515 15.7079L5.27715 15.7159" />
  <path fill-rule="evenodd" d="M17.1641 12.5219L17.1661 12.5299" />
  <path
    fill-rule="evenodd"
    d="M22.3841 18.4139L19.7431 8.55686C19.6841 8.33586 19.5821 8.12986 19.4441 7.94786L15.7681 3.11386C15.3361 2.54586 14.6031 2.29486 13.9131 2.47986L3.07008 5.38586C2.38008 5.56986 1.87008 6.15386 1.78008 6.86186L1.01408 12.8859C0.985084 13.1119 1.00108 13.3419 1.06008 13.5629L3.70108 23.4199"
  />
  <path fill-rule="evenodd" d="M21.473 15.0168L2.79102 20.0228" />
  <path fill-rule="evenodd" d="M1.39502 13.1159L19.228 8.33691" />
  <path
    fill-rule="evenodd"
    d="M17.3411 23.4199C17.7531 22.2549 18.8641 21.4199 20.1701 21.4199C21.4761 21.4199 22.5871 22.2549 22.9991 23.4199"
  />
</svg>
