<svg
  width="24"
  height="24"
  viewBox="0 0 24 24"
  fill="none"
  xmlns="http://www.w3.org/2000/svg"
  stroke="currentColor"
  stroke-width="2"
  stroke-linecap="round"
  stroke-linejoin="round"
>
  <path
    d="M19 23.2266H5C3.895 23.2266 3 22.3316 3 21.2266V11.2266C3 10.1216 3.895 9.22656 5 9.22656H19C20.105 9.22656 21 10.1216 21 11.2266V21.2266C21 22.3316 20.105 23.2266 19 23.2266Z"
  />
  <path
    d="M7 9.22656V6.22656C7 3.46556 9.239 1.22656 12 1.22656C14.761 1.22656 17 3.46556 17 6.22656V9.22656"
  />
  <path
    d="M12 19.2266C13.6569 19.2266 15 17.8834 15 16.2266C15 14.5697 13.6569 13.2266 12 13.2266C10.3431 13.2266 9 14.5697 9 16.2266C9 17.8834 10.3431 19.2266 12 19.2266Z"
  />
</svg>
