<svg
  xmlns="http://www.w3.org/2000/svg"
  width="24"
  height="24"
  viewBox="0 0 24 24"
  fill="none"
>
  <path
    fill-rule="evenodd"
    clip-rule="evenodd"
    d="M14.352 0.500 H5.292 C3.704 0.500 2.417 1.787 2.417 3.375 V20.625 C2.417 22.213 3.704 23.500 5.292 23.500 H18.708 C20.296 23.500 21.583 22.213 21.583 20.625 V8.765 L14.352 0.500 Z M19.351 9.125 H13.917 V2.913 L19.351 9.125 Z M4.333 20.625 C4.333 21.154 4.762 21.583 5.292 21.583 H18.708 C19.238 21.583 19.667 21.154 19.667 20.625 V11.042 H12.000 V2.417 H5.292 C4.762 2.417 4.333 2.846 4.333 3.375 V20.625 Z"
    fill="currentColor"
  />
</svg>
