<svg
  xmlns="http://www.w3.org/2000/svg"
  width="24"
  height="24"
  viewBox="0 0 24 24"
  fill="none"
>
  <path
    fill-rule="evenodd"
    d="M23.420 1.172 C23.410 1.146 23.400 1.121 23.388 1.095 C23.341 0.993 23.284 0.896 23.202 0.815 C23.121 0.734 23.024 0.677 22.924 0.630 C22.896 0.617 22.870 0.606 22.842 0.596 C22.745 0.563 22.645 0.540 22.542 0.538 C22.532 0.538 22.523 0.538 22.513 0.538 C22.435 0.539 22.356 0.548 22.278 0.568 L2.230 5.976 C2.222 5.978 2.215 5.980 2.207 5.982 C1.268 6.261 0.621 7.071 0.559 8.047 C0.500 8.989 1.017 9.843 1.897 10.229 L10.317 13.698 L13.795 22.140 C14.154 22.956 14.940 23.462 15.823 23.462 C15.872 23.462 15.922 23.460 15.970 23.457 C16.945 23.396 17.755 22.749 18.041 21.787 L23.448 1.740 C23.500 1.549 23.484 1.353 23.420 1.172 Z M2.646 8.473 C2.518 8.415 2.457 8.313 2.466 8.167 C2.471 8.086 2.508 7.891 2.741 7.818 L19.323 3.344 L10.826 11.841 L2.646 8.473 Z M16.203 21.267 C16.132 21.507 15.933 21.546 15.851 21.550 C15.694 21.564 15.601 21.499 15.554 21.392 L12.176 13.192 L20.673 4.695 L16.203 21.267 Z"
    fill="currentColor"
  />
</svg>
