<svg
  width="24"
  height="24"
  viewBox="0 0 24 24"
  fill="none"
  xmlns="http://www.w3.org/2000/svg"
  stroke="currentColor"
  stroke-width="2"
  stroke-linecap="round"
  stroke-linejoin="round"
>
  <path
    fill-rule="evenodd"
    d="M22.4091 17.202L19.4971 14.29C18.7091 13.502 17.4321 13.502 16.6441 14.29L14.2291 16.705C11.1981 15.438 8.77106 13.011 7.50406 9.97996L9.92006 7.56496C10.7081 6.77696 10.7081 5.49996 9.92006 4.71296L7.00806 1.80096C6.22006 1.01296 4.94306 1.01296 4.15506 1.80096L2.77106 3.18496C1.33306 4.62296 0.726058 6.68596 1.11606 8.68196C2.53306 15.942 8.26806 21.677 15.5281 23.095C17.5241 23.485 19.5871 22.878 21.0251 21.44L22.4101 20.055C23.1971 19.267 23.1971 17.99 22.4091 17.202Z"
  />
</svg>
