<svg
  xmlns="http://www.w3.org/2000/svg"
  width="24"
  height="24"
  viewBox="0 0 24 24"
  fill="none"
>
  <path
    fill-rule="evenodd"
    d="M6.653 16.163 L2.642 20.174 V17.758 C2.642 17.241 2.223 16.823 1.707 16.823 C1.191 16.823 0.773 17.241 0.773 17.758 V22.430 C0.773 22.551 0.798 22.673 0.845 22.787 C0.939 23.015 1.121 23.198 1.350 23.292 C1.464 23.339 1.586 23.364 1.707 23.364 H6.379 C6.895 23.364 7.314 22.946 7.314 22.430 C7.314 21.913 6.895 21.495 6.379 21.495 H3.963 L7.974 17.484 C8.340 17.119 8.340 16.528 7.974 16.163 C7.609 15.797 7.018 15.797 6.653 16.163 Z M23.073 15.269 C21.685 8.161 15.976 2.451 8.868 1.064 C6.682 0.635 4.449 1.312 2.892 2.867 L1.598 4.160 C0.500 5.260 0.500 7.048 1.598 8.148 L4.319 10.868 C5.419 11.967 7.206 11.967 8.306 10.868 L10.106 9.069 C12.252 10.119 14.018 11.885 15.068 14.032 L13.268 15.831 C12.737 16.364 12.443 17.072 12.443 17.825 C12.443 18.578 12.737 19.285 13.269 19.818 L15.990 22.539 C16.523 23.072 17.231 23.365 17.984 23.365 C18.737 23.365 19.446 23.072 19.977 22.539 L21.271 21.245 C22.825 19.689 23.500 17.456 23.073 15.269 Z M19.948 19.923 L18.654 21.217 C18.295 21.577 17.670 21.577 17.311 21.217 L14.590 18.496 C14.410 18.316 14.311 18.078 14.311 17.824 C14.311 17.570 14.410 17.332 14.590 17.151 L16.846 14.896 C17.114 14.627 17.194 14.224 17.047 13.874 C15.776 10.834 13.303 8.361 10.262 7.088 C10.146 7.040 10.023 7.017 9.902 7.017 C9.659 7.017 9.420 7.112 9.241 7.291 L6.985 9.547 C6.614 9.918 6.011 9.917 5.641 9.547 L2.920 6.826 C2.550 6.456 2.550 5.853 2.920 5.483 L4.213 4.189 C5.329 3.074 6.934 2.591 8.511 2.898 C14.880 4.142 19.996 9.258 21.239 15.627 C21.546 17.202 21.064 18.808 19.948 19.923 Z"
    fill="currentColor"
  />
</svg>
