<svg
  xmlns="http://www.w3.org/2000/svg"
  width="24"
  height="24"
  viewBox="0 0 24 24"
  fill="none"
>
  <path
    fill-rule="evenodd"
    d="M13.883 6.513 C15.944 6.513 17.620 8.189 17.620 10.251 C17.620 10.767 18.038 11.185 18.555 11.185 C19.071 11.185 19.489 10.767 19.489 10.251 C19.489 7.159 16.975 4.645 13.883 4.645 C13.366 4.645 12.949 5.062 12.949 5.579 C12.949 6.096 13.366 6.513 13.883 6.513 Z M13.883 2.776 C18.004 2.776 21.358 6.129 21.358 10.251 C21.358 10.767 21.775 11.185 22.292 11.185 C22.809 11.185 23.226 10.767 23.226 10.251 C23.226 5.099 19.035 0.907 13.883 0.907 C13.366 0.907 12.949 1.325 12.949 1.842 C12.949 2.358 13.366 2.776 13.883 2.776 Z M19.680 13.402 C18.581 12.303 16.793 12.303 15.693 13.402 L13.894 15.201 C11.747 14.151 9.981 12.385 8.931 10.238 L10.732 8.440 C11.829 7.340 11.829 5.552 10.731 4.453 L8.012 1.733 C6.946 0.667 5.090 0.667 4.024 1.733 L2.730 3.027 C1.175 4.583 0.500 6.817 0.927 9.002 C2.314 16.111 8.023 21.820 15.131 23.207 C15.564 23.292 15.997 23.333 16.428 23.333 C18.173 23.333 19.858 22.652 21.106 21.404 L22.400 20.110 C23.500 19.011 23.500 17.223 22.400 16.124 L19.680 13.402 Z M21.079 18.788 L19.785 20.082 C18.671 21.197 17.069 21.681 15.489 21.373 C9.120 20.128 4.006 15.014 2.762 8.643 C2.455 7.069 2.937 5.463 4.052 4.348 L5.346 3.054 C5.526 2.874 5.765 2.776 6.018 2.776 C6.271 2.776 6.510 2.874 6.690 3.054 L9.411 5.775 C9.781 6.145 9.781 6.749 9.411 7.119 L7.154 9.374 C6.886 9.643 6.807 10.046 6.952 10.395 C8.224 13.437 10.697 15.909 13.738 17.181 C14.089 17.325 14.491 17.248 14.759 16.979 L17.015 14.724 C17.385 14.352 17.988 14.353 18.358 14.723 L21.079 17.444 C21.450 17.815 21.450 18.417 21.079 18.788 Z"
    fill="currentColor"
  />
</svg>
