<svg
  xmlns="http://www.w3.org/2000/svg"
  width="24"
  height="24"
  viewBox="0 0 24 24"
  fill="none"
>
  <path
    fill-rule="evenodd"
    d="M22.920 21.815 L2.200 1.095 C1.832 0.727 1.236 0.727 0.868 1.095 C0.500 1.463 0.500 2.059 0.868 2.427 L21.588 23.147 C21.772 23.330 22.013 23.423 22.254 23.423 C22.495 23.423 22.736 23.330 22.920 23.147 C23.288 22.779 23.288 22.183 22.920 21.815 Z M14.995 9.895 C15.364 10.263 15.959 10.263 16.327 9.895 C16.695 9.526 16.695 8.931 16.327 8.563 L14.621 6.856 C14.332 6.567 14.217 6.037 14.511 5.735 L14.520 5.726 L17.262 2.984 C17.623 2.621 18.254 2.621 18.617 2.984 L19.920 4.287 C21.044 5.411 21.532 7.029 21.223 8.613 C20.899 10.274 20.306 11.883 19.463 13.393 C19.209 13.846 19.372 14.421 19.827 14.674 C19.972 14.755 20.129 14.794 20.285 14.794 C20.615 14.794 20.935 14.620 21.108 14.311 C22.049 12.626 22.710 10.830 23.071 8.973 C23.500 6.772 22.820 4.522 21.252 2.954 L19.948 1.651 C18.874 0.576 17.002 0.576 15.930 1.651 L13.195 4.385 C13.184 4.395 13.174 4.405 13.164 4.415 C12.170 5.432 12.227 7.124 13.289 8.186 L14.995 9.895 Z M13.166 19.689 C11.656 20.533 10.047 21.125 8.387 21.449 C6.800 21.756 5.185 21.271 4.060 20.146 L2.757 18.843 C2.575 18.662 2.476 18.421 2.476 18.166 C2.476 17.910 2.575 17.670 2.757 17.488 L5.507 14.738 C5.510 14.735 5.512 14.732 5.516 14.729 C5.818 14.444 6.343 14.561 6.629 14.847 L8.336 16.553 C8.704 16.921 9.299 16.921 9.668 16.553 C10.036 16.185 10.036 15.590 9.668 15.221 L7.960 13.515 C6.900 12.455 5.209 12.396 4.167 13.414 L1.425 16.156 C0.887 16.693 C L2.728 21.479 C3.987 22.737 5.686 23.424 7.446 23.424 C7.877 23.424 8.312 23.382 8.747 23.298 C10.604 22.936 12.400 22.275 14.085 21.334 C14.539 21.080 14.702 20.506 14.448 20.053 C14.193 19.598 13.619 19.436 13.166 19.689 Z"
    fill="currentColor"
  />
</svg>
