<svg
  xmlns="http://www.w3.org/2000/svg"
  width="24"
  height="24"
  viewBox="0 0 24 24"
  fill="none"
>
  <path
    fill-rule="evenodd"
    d="M23.154 1.485 C23.060 1.256 22.878 1.074 22.649 0.979 C22.535 0.932 22.413 0.907 22.292 0.907 H17.620 C17.104 0.907 16.686 1.325 16.686 1.842 C16.686 2.358 17.104 2.776 17.620 2.776 H20.036 L16.025 6.787 C15.660 7.152 15.660 7.743 16.025 8.108 C16.208 8.290 16.447 8.382 16.686 8.382 C16.925 8.382 17.164 8.290 17.347 8.108 L21.358 4.097 V6.513 C21.358 7.030 21.775 7.448 22.292 7.448 C22.809 7.448 23.226 7.030 23.226 6.513 V1.842 C23.226 1.720 23.202 1.599 23.154 1.485 Z M19.680 13.402 C18.581 12.303 16.793 12.303 15.693 13.402 L13.894 15.201 C11.747 14.151 9.981 12.385 8.931 10.238 L10.732 8.440 C11.829 7.340 11.829 5.552 10.731 4.453 L8.012 1.733 C6.946 0.667 5.090 0.667 4.024 1.733 L2.730 3.027 C1.175 4.583 0.500 6.817 0.927 9.002 C2.314 16.111 8.023 21.820 15.131 23.207 C15.564 23.292 15.997 23.333 16.428 23.333 C18.173 23.333 19.858 22.652 21.106 21.404 L22.400 20.110 C23.500 19.011 23.500 17.223 22.400 16.124 L19.680 13.402 Z M21.079 18.788 L19.785 20.082 C18.671 21.197 17.069 21.681 15.489 21.373 C9.120 20.128 4.006 15.014 2.762 8.643 C2.455 7.069 2.937 5.463 4.052 4.348 L5.346 3.054 C5.526 2.874 5.765 2.776 6.018 2.776 C6.271 2.776 6.510 2.874 6.690 3.054 L9.411 5.775 C9.781 6.145 9.781 6.749 9.411 7.119 L7.154 9.374 C6.886 9.643 6.807 10.046 6.952 10.395 C8.224 13.437 10.697 15.909 13.738 17.181 C14.089 17.325 14.491 17.248 14.759 16.979 L17.015 14.724 C17.385 14.352 17.988 14.353 18.358 14.723 L21.079 17.444 C21.450 17.815 21.450 18.417 21.079 18.788 Z"
    fill="currentColor"
  />
</svg>
