<svg
  xmlns="http://www.w3.org/2000/svg"
  width="24"
  height="24"
  viewBox="0 0 24 24"
  fill="none"
>
  <path
    d="M15.833 4.333 C14.248 4.333 12.958 5.623 12.958 7.208 C12.958 8.793 14.248 10.083 15.833 10.083 C17.418 10.083 18.708 8.793 18.708 7.208 C18.708 5.623 17.418 4.333 15.833 4.333 Z M15.833 8.167 C15.304 8.167 14.875 7.737 14.875 7.208 C14.875 6.679 15.304 6.250 15.833 6.250 C16.362 6.250 16.792 6.679 16.792 7.208 C16.792 7.737 16.362 8.167 15.833 8.167 Z M20.625 0.500 H3.375 C1.790 0.500 0.500 1.790 0.500 3.375 V20.625 C0.500 22.210 1.790 23.500 3.375 23.500 H20.625 C22.210 23.500 23.500 22.210 23.500 20.625 V3.375 C23.500 1.790 22.210 0.500 20.625 0.500 Z M21.583 20.625 C21.583 21.154 21.154 21.583 20.625 21.583 H3.375 C2.846 21.583 2.417 21.154 2.417 20.625 V17.750 H21.583 V20.625 Z M3.418 15.833 L8.167 9.728 L12.915 15.833 H3.418 Z M21.583 15.833 H15.344 L8.923 7.578 C8.560 7.112 7.774 7.112 7.411 7.578 L2.417 13.999 V3.375 C2.417 2.846 2.846 2.417 3.375 2.417 H20.625 C21.154 2.417 21.583 2.846 21.583 3.375 V15.833 Z"
    fill="currentColor"
  />
</svg>
