<svg
  xmlns="http://www.w3.org/2000/svg"
  width="24"
  height="24"
  viewBox="0 0 24 24"
  fill="none"
>
  <path
    fill-rule="evenodd"
    clip-rule="evenodd"
    d="M17.750 15.833 H6.250 V19.667 C6.250 20.725 7.108 21.583 8.167 21.583 H15.833 C16.892 21.583 17.750 20.725 17.750 19.667 V15.833 Z M4.333 13.917 V19.667 C4.333 21.784 6.050 23.500 8.167 23.500 H15.833 C17.950 23.500 19.667 21.784 19.667 19.667 V13.917 H4.333 Z"
    fill="currentColor"
  />
  <path
    fill-rule="evenodd"
    clip-rule="evenodd"
    d="M7.082 9.608 L8.999 12.962 L9.957 14.639 L8.293 15.590 L7.335 13.913 L5.418 10.559 L7.082 9.608 Z"
    fill="currentColor"
  />
  <path
    fill-rule="evenodd"
    clip-rule="evenodd"
    d="M16.869 9.706 L15.432 13.060 L14.713 14.737 L16.474 15.492 L17.193 13.815 L18.631 10.461 L16.869 9.706 Z"
    fill="currentColor"
  />
  <path
    fill-rule="evenodd"
    clip-rule="evenodd"
    d="M12.958 10.083 V14.875 H11.042 V10.083 H12.958 Z"
    fill="currentColor"
  />
  <path
    fill-rule="evenodd"
    clip-rule="evenodd"
    d="M12.000 2.417 C8.295 2.417 4.333 5.420 4.333 9.125 V9.380 C6.498 8.369 9.998 8.548 12.000 9.855 C14.002 8.548 17.502 8.369 19.667 9.380 V9.125 C19.667 5.420 15.705 2.417 12.000 2.417 Z M12.000 11.042 L12.608 11.783 C14.258 10.429 17.544 10.271 19.361 11.390 L21.583 12.756 V9.125 C21.583 4.362 16.763 0.500 12.000 0.500 C7.237 0.500 2.417 4.362 2.417 9.125 V12.756 L4.639 11.390 C6.456 10.271 9.742 10.429 11.392 11.783 L12.000 11.042 Z"
    fill="currentColor"
  />
  <path
    d="M8.554 17.750 H7.992 V18.418 L7.377 18.213 L7.208 18.728 L7.829 18.928 L7.445 19.448 L7.881 19.774 L8.270 19.243 L8.670 19.774 L9.106 19.453 L8.717 18.928 L9.337 18.728 L9.164 18.213 L8.554 18.418 V17.750 Z"
    fill="currentColor"
  />
  <path
    d="M11.039 17.750 H10.476 V18.418 L9.861 18.213 L9.693 18.728 L10.313 18.928 L9.930 19.448 L10.366 19.774 L10.755 19.243 L11.155 19.774 L11.591 19.453 L11.202 18.928 L11.822 18.728 L11.649 18.213 L11.039 18.418 V17.750 Z"
    fill="currentColor"
  />
  <path
    d="M13.524 17.750 H12.961 V18.418 L12.346 18.213 L12.178 18.728 L12.798 18.928 L12.414 19.448 L12.851 19.774 L13.240 19.243 L13.639 19.774 L14.076 19.453 L13.687 18.928 L14.307 18.728 L14.133 18.213 L13.524 18.418 V17.750 Z"
    fill="currentColor"
  />
  <path
    d="M16.008 17.750 H15.446 V18.418 L14.831 18.213 L14.663 18.728 L15.283 18.928 L14.899 19.448 L15.335 19.774 L15.724 19.243 L16.124 19.774 L16.560 19.453 L16.171 18.928 L16.792 18.728 L16.618 18.213 L16.008 18.418 V17.750 Z"
    fill="currentColor"
  />
</svg>
