<svg
  xmlns="http://www.w3.org/2000/svg"
  width="24"
  height="24"
  viewBox="0 0 24 24"
  fill="none"
>
  <path
    fill-rule="evenodd"
    clip-rule="evenodd"
    d="M5.148 0.500 H18.852 C20.361 0.500 21.583 1.734 21.583 3.255 V20.745 C21.583 22.267 20.361 23.500 18.852 23.500 H5.148 C3.639 23.500 2.417 22.267 2.417 20.745 V3.255 C2.417 1.734 3.639 0.500 5.148 0.500 Z M5.148 2.337 C4.645 2.337 4.237 2.748 4.237 3.255 V20.745 C4.237 21.252 4.645 21.663 5.148 21.663 H18.852 C19.355 21.663 19.763 21.252 19.763 20.745 V3.255 C19.763 2.748 19.355 2.337 18.852 2.337 H5.148 Z"
    fill="currentColor"
  />
  <path
    fill-rule="evenodd"
    clip-rule="evenodd"
    d="M5.148 0.500 H18.852 C20.361 0.500 21.583 1.734 21.583 3.255 V20.745 C21.583 22.267 20.361 23.500 18.852 23.500 H5.148 C3.639 23.500 2.417 22.267 2.417 20.745 V3.255 C2.417 1.734 3.639 0.500 5.148 0.500 Z M5.148 2.337 C4.645 2.337 4.237 2.748 4.237 3.255 V20.745 C4.237 21.252 4.645 21.663 5.148 21.663 H18.852 C19.355 21.663 19.763 21.252 19.763 20.745 V3.255 C19.763 2.748 19.355 2.337 18.852 2.337 H5.148 Z"
    fill="currentColor"
  />
  <path
    fill-rule="evenodd"
    clip-rule="evenodd"
    d="M6.250 12.958 C6.250 12.429 6.679 12.000 7.208 12.000 H16.792 C17.321 12.000 17.750 12.429 17.750 12.958 C17.750 13.488 17.321 13.917 16.792 13.917 H7.208 C6.679 13.917 6.250 13.488 6.250 12.958 Z"
    fill="currentColor"
  />
  <path
    fill-rule="evenodd"
    clip-rule="evenodd"
    d="M6.250 16.792 C6.250 16.262 6.679 15.833 7.208 15.833 H16.792 C17.321 15.833 17.750 16.262 17.750 16.792 C17.750 17.321 17.321 17.750 16.792 17.750 H7.208 C6.679 17.750 6.250 17.321 6.250 16.792 Z"
    fill="currentColor"
  />
</svg>
