<svg
  width="24"
  height="24"
  viewBox="0 0 24 24"
  fill="none"
  xmlns="http://www.w3.org/2000/svg"
>
  <path
    d="M15.9901 15.8925L17.6586 16.0604C17.6586 16.746 17.5047 17.3827 17.1969 17.9703C16.8961 18.558 16.4274 19.0477 15.7907 19.4394C15.1541 19.8242 14.4091 20.0166 13.5556 20.0166H6V18.3796C6.78354 17.9878 7.43066 17.3966 7.94136 16.6061C8.45905 15.8156 8.7179 14.9901 8.7179 14.1296C8.7179 13.6608 8.64794 13.1466 8.50802 12.587H6.06296V10.9709H7.97284C7.80494 10.5092 7.67551 10.1419 7.58457 9.86907C7.49362 9.59623 7.40617 9.24993 7.32222 8.83018C7.23827 8.41043 7.1963 8.01866 7.1963 7.65487C7.1963 6.78039 7.42016 5.98635 7.8679 5.27277C8.31564 4.55919 8.91379 4.00652 9.66235 3.61475C10.4109 3.21598 11.2259 3.0166 12.1074 3.0166C13.5626 3.0166 14.7064 3.39438 15.5389 4.14993C16.3714 4.90549 16.8121 5.88491 16.8611 7.08821L15.1716 7.38203C15.1576 7.03924 15.0981 6.72092 14.9932 6.4271C14.8953 6.12627 14.7379 5.83594 14.521 5.55611C14.3111 5.27627 14.0033 5.0559 13.5975 4.895C13.1918 4.7271 12.7126 4.64314 12.1599 4.64314C11.2714 4.64314 10.5228 4.93697 9.9142 5.52463C9.31255 6.11228 9.01173 6.84335 9.01173 7.71784C9.01173 7.84376 9.01872 7.97668 9.03272 8.1166C9.04671 8.24952 9.0607 8.37195 9.07469 8.48389C9.09568 8.58882 9.12716 8.72874 9.16914 8.90364C9.21811 9.07854 9.25309 9.20796 9.27407 9.29191C9.29506 9.36887 9.34053 9.51228 9.41049 9.72216C9.48045 9.93203 9.52243 10.065 9.53642 10.1209C9.55741 10.1699 9.60988 10.3168 9.69383 10.5617C9.77778 10.7995 9.82675 10.9359 9.84074 10.9709H14.5525V12.587H10.3444C10.4774 13.0977 10.5438 13.5804 10.5438 14.0351C10.5438 15.8191 9.83374 17.2672 8.41358 18.3796H13.3247C13.8424 18.3796 14.2866 18.3026 14.6574 18.1487C15.0282 17.9878 15.3045 17.7744 15.4864 17.5086C15.6683 17.2427 15.7977 16.9804 15.8747 16.7215C15.9516 16.4557 15.9901 16.1794 15.9901 15.8925Z"
    fill="currentColor"
  />
</svg>
