<svg
  width="24"
  height="24"
  viewBox="0 0 24 24"
  fill="none"
  xmlns="http://www.w3.org/2000/svg"
>
  <path
    fill-rule="evenodd"
    clip-rule="evenodd"
    d="M12 22.0166C17.5228 22.0166 22 17.5394 22 12.0166C22 6.49375 17.5228 2.0166 12 2.0166C6.47715 2.0166 2 6.49375 2 12.0166C2 17.5394 6.47715 22.0166 12 22.0166ZM24 12.0166C24 18.644 18.6274 24.0166 12 24.0166C5.37258 24.0166 0 18.644 0 12.0166C0 5.38919 5.37258 0.0166016 12 0.0166016C18.6274 0.0166016 24 5.38919 24 12.0166Z"
    fill="currentColor"
  />
  <path
    d="M17 14.8284C17 15.7632 16.711 16.5283 16.1329 17.1236C15.5598 17.7189 14.8148 18.0166 13.8978 18.0166H8V16.4077C8.53821 16.1519 8.99419 15.7829 9.36794 15.3007C9.74668 14.8186 9.93605 14.302 9.93605 13.7509C9.93605 13.5295 9.90615 13.2712 9.84635 12.976H8.07475V11.441H9.33056C9.01163 10.5996 8.85216 9.92804 8.85216 9.4262C8.85216 8.92435 8.95183 8.45941 9.15116 8.03136C9.35548 7.60332 9.62708 7.24415 9.96595 6.95387C10.3098 6.65867 10.706 6.42989 11.1545 6.26752C11.608 6.10024 12.0839 6.0166 12.5822 6.0166C13.2699 6.0166 13.8904 6.14698 14.4435 6.40775C15.0017 6.66851 15.4427 7.03997 15.7666 7.52214C16.0905 7.99938 16.255 8.54797 16.26 9.16789L14.4286 9.47786C14.4186 8.98585 14.2467 8.57257 13.9128 8.238C13.5839 7.89852 13.1478 7.72878 12.6047 7.72878C12.0914 7.72878 11.6603 7.8936 11.3115 8.22324C10.9676 8.55289 10.7957 8.97109 10.7957 9.47786C10.7957 9.6845 10.8256 9.91328 10.8854 10.1642C10.9452 10.4151 11 10.6144 11.0498 10.762C11.1047 10.9096 11.1944 11.1359 11.3189 11.441H14.6304V12.976H11.8272C11.8621 13.2073 11.8796 13.4065 11.8796 13.5738C11.8796 14.6857 11.3912 15.6082 10.4145 16.3413H13.5689C14.0822 16.3413 14.4809 16.1716 14.765 15.8321C15.049 15.4926 15.191 15.1064 15.191 14.6734L17 14.8284Z"
    fill="currentColor"
  />
</svg>
