<svg
  xmlns="http://www.w3.org/2000/svg"
  width="24"
  height="24"
  viewBox="0 0 24 24"
  fill="none"
>
  <path
    d="M12.000 6.245 C12.530 6.245 12.958 5.811 12.958 5.282 C12.958 4.753 12.530 4.324 12.000 4.324 C11.470 4.324 11.042 4.753 11.042 5.282 V5.292 C11.042 5.821 11.470 6.245 12.000 6.245 Z M18.708 3.375 H16.378 C15.626 1.651 13.920 0.500 12.000 0.500 C10.080 0.500 8.374 1.651 7.622 3.375 H5.292 C3.707 3.375 2.417 4.665 2.417 6.250 V20.625 C2.417 22.210 3.707 23.500 5.292 23.500 H18.708 C20.293 23.500 21.583 22.210 21.583 20.625 V6.250 C21.583 4.665 20.293 3.375 18.708 3.375 Z M15.833 21.583 H8.167 V21.429 C8.167 19.954 9.922 18.708 12.000 18.708 C14.078 18.708 15.833 19.954 15.833 21.429 V21.583 Z M19.667 20.625 C19.667 21.154 19.237 21.583 18.708 21.583 H17.750 V21.429 C17.750 18.872 15.171 16.792 12.000 16.792 C8.829 16.792 6.250 18.872 6.250 21.429 V21.583 H5.292 C4.763 21.583 4.333 21.154 4.333 20.625 V6.250 C4.333 5.722 4.763 5.292 5.292 5.292 H8.303 C8.740 5.292 9.121 4.996 9.230 4.574 C9.559 3.304 10.699 2.417 12.000 2.417 C13.301 2.417 14.441 3.304 14.771 4.574 C14.880 4.996 15.260 5.292 15.697 5.292 H18.708 C19.237 5.292 19.667 5.722 19.667 6.250 V20.625 Z M12.000 9.125 C10.150 9.125 8.646 10.630 8.646 12.479 C8.646 14.329 10.150 15.833 12.000 15.833 C13.850 15.833 15.354 14.329 15.354 12.479 C15.354 10.630 13.850 9.125 12.000 9.125 Z M12.000 13.917 C11.207 13.917 10.563 13.272 10.563 12.479 C10.563 11.687 11.207 11.042 12.000 11.042 C12.793 11.042 13.437 11.687 13.437 12.479 C13.437 13.272 12.793 13.917 12.000 13.917 Z"
    fill="currentColor"
  />
</svg>
