<svg
  xmlns="http://www.w3.org/2000/svg"
  width="24"
  height="24"
  viewBox="0 0 24 24"
  fill="none"
>
  <path
    d="M2.216 23.082 L9.148 16.149 V20.509 C9.148 21.034 9.574 21.459 10.099 21.459 C10.624 21.459 11.050 21.034 11.050 20.509 V13.855 C11.050 13.731 11.024 13.607 10.976 13.491 C10.880 13.258 10.695 13.073 10.462 12.977 C10.346 12.930 10.223 12.904 10.099 12.904 H3.445 C2.920 12.904 2.494 13.329 2.494 13.855 C2.494 14.380 2.920 14.805 3.445 14.805 H7.804 L0.872 21.738 C0.500 22.109 0.500 22.710 0.872 23.082 C1.243 23.454 1.844 23.454 2.216 23.082 Z M13.023 10.415 C13.119 10.647 13.305 10.833 13.538 10.930 C13.654 10.977 13.777 11.003 13.901 11.003 H20.555 C21.080 11.003 21.506 10.577 21.506 10.052 C21.506 9.528 21.080 9.102 20.555 9.102 H16.196 L23.128 2.169 C23.500 1.797 23.500 1.197 23.128 0.825 C22.943 0.640 22.700 0.546 22.456 0.546 C22.213 0.546 21.970 0.640 21.784 0.825 L14.852 7.758 V3.398 C14.852 2.873 14.426 2.448 13.901 2.448 C13.376 2.448 12.950 2.873 12.950 3.398 V10.052 C12.950 10.176 12.976 10.299 13.023 10.415 Z"
    fill="currentColor"
  />
</svg>
