<svg
  width="24"
  height="24"
  viewBox="0 0 24 24"
  fill="none"
  xmlns="http://www.w3.org/2000/svg"
>
  <path
    fill-rule="evenodd"
    clip-rule="evenodd"
    d="M3 5.0166C2.44728 5.0166 2 5.46389 2 6.0166V18.0166C2 18.5693 2.44728 19.0166 3 19.0166H21C21.5527 19.0166 22 18.5693 22 18.0166V6.0166C22 5.46389 21.5527 5.0166 21 5.0166H3ZM0 6.0166C0 4.35932 1.34272 3.0166 3 3.0166H21C22.6573 3.0166 24 4.35932 24 6.0166V18.0166C24 19.6739 22.6573 21.0166 21 21.0166H3C1.34272 21.0166 0 19.6739 0 18.0166V6.0166Z"
    fill="currentColor"
  />
  <path
    fill-rule="evenodd"
    clip-rule="evenodd"
    d="M12.2428 9.27273C12.5156 9.58446 12.484 10.0583 12.1722 10.331L10.2459 12.0166L12.1722 13.7022C12.484 13.9749 12.5156 14.4488 12.2428 14.7605C11.97 15.0722 11.4962 15.1038 11.1845 14.831L8.61306 12.581C8.45029 12.4386 8.35693 12.2329 8.35693 12.0166C8.35693 11.8003 8.45029 11.5946 8.61306 11.4522L11.1845 9.20218C11.4962 8.92942 11.97 8.96101 12.2428 9.27273Z"
    fill="currentColor"
  />
  <path
    fill-rule="evenodd"
    clip-rule="evenodd"
    d="M8.35693 12.0166C8.35693 11.6024 8.69272 11.2666 9.10693 11.2666H14.8926C15.3069 11.2666 15.6426 11.6024 15.6426 12.0166C15.6426 12.4308 15.3069 12.7666 14.8926 12.7666H9.10693C8.69272 12.7666 8.35693 12.4308 8.35693 12.0166Z"
    fill="currentColor"
  />
</svg>
