<svg
  width="24"
  height="24"
  viewBox="0 0 24 24"
  fill="none"
  xmlns="http://www.w3.org/2000/svg"
>
  <path
    fill-rule="evenodd"
    clip-rule="evenodd"
    d="M6 15.8716V7.62158H7.5V15.8716H6Z"
    fill="currentColor"
  />
  <path
    d="M11.9519 9.50295L12.6869 9.49695V13.6039H11.9489L11.9399 11.8992V11.8932L11.9369 11.8842V11.8759L11.9339 11.8699V11.8579L11.9309 11.8519V11.8467L11.9286 11.8437V11.8407L11.9256 11.8377L11.9226 11.8347L11.9196 11.8317H11.9136L11.9076 11.8287H11.9046L11.8994 11.8257L11.8934 11.8287L11.8874 11.8317L11.8844 11.8377L11.8784 11.8437L11.8724 11.8519L11.8671 11.8639L11.8641 11.8759L11.6819 12.6844H11.0639L10.8764 11.8782L10.8704 11.8669L10.8681 11.8609V11.8549L10.8621 11.8467L10.8591 11.8407L10.8561 11.8377L10.8501 11.8347L10.8471 11.8317L10.8411 11.8287H10.8359L10.8269 11.8317L10.8209 11.8347L10.8179 11.8377L10.8149 11.8407L10.8119 11.8437L10.8089 11.8467V11.8489L10.8059 11.8519V11.8609L10.8036 11.8669V11.8729L10.8006 11.8812V11.8902L10.7976 11.9022L10.8126 13.6099H10.0941L10.0791 9.5112L10.8269 9.5082L11.3519 11.3307V11.3367L11.3541 11.3397V11.3457L11.3571 11.3509V11.3569L11.3601 11.3659L11.3631 11.3719L11.3661 11.3779L11.3691 11.3832L11.3744 11.3892L11.3774 11.3922L11.3834 11.3952H11.3894L11.3984 11.3982H11.4126V11.3952H11.4186L11.4216 11.3922L11.4246 11.3892L11.4276 11.3862L11.4306 11.3832V11.3802L11.4329 11.3749V11.3689L11.4389 11.3599L11.4419 11.3449L11.4449 11.3397L11.4479 11.3337L11.9519 9.50295ZM15.6546 9.50295L16.3896 9.49695V13.6039H15.6516L15.6433 11.8992V11.8932L15.6403 11.8842V11.8759L15.6374 11.8699V11.8579L15.6344 11.8519V11.8467L15.6314 11.8437V11.8407L15.6284 11.8377L15.6254 11.8347L15.6223 11.8317H15.6171L15.6111 11.8287H15.6081L15.6021 11.8257L15.5961 11.8287L15.5901 11.8317L15.5879 11.8377L15.5819 11.8437L15.5759 11.8519L15.5698 11.8639L15.5669 11.8759L15.3853 12.6844H14.7674L14.5799 11.8782L14.5739 11.8669L14.5709 11.8609V11.8549L14.5649 11.8467L14.5619 11.8407L14.5589 11.8377L14.5536 11.8347L14.5506 11.8317L14.5446 11.8287H14.5386L14.5296 11.8317L14.5236 11.8347L14.5214 11.8377L14.5184 11.8407L14.5154 11.8437L14.5124 11.8467V11.8489L14.5094 11.8519V11.8609L14.5064 11.8669V11.8729L14.5034 11.8812V11.8902L14.5004 11.9022L14.5154 13.6099H13.7976L13.7826 9.5112L14.5296 9.5082L15.0546 11.3307V11.3367L15.0568 11.3397V11.3457L15.0598 11.3509V11.3569L15.0629 11.3659L15.0659 11.3719L15.0689 11.3779L15.0719 11.3832L15.0778 11.3892L15.0808 11.3922L15.0869 11.3952H15.0921L15.1011 11.3982H15.1161V11.3952H15.1214L15.1244 11.3922L15.1273 11.3892L15.1303 11.3862L15.1334 11.3832V11.3802L15.1364 11.3749V11.3689L15.1424 11.3599L15.1453 11.3449L15.1483 11.3397L15.1506 11.3337L15.6546 9.50295ZM19.8088 9.80145L19.8411 9.83895L19.8531 9.85695L19.8681 9.8772L19.8831 9.8952L19.8944 9.91545L19.9056 9.93345L19.9146 9.9537L19.9266 9.97395L19.9348 9.99495L19.9468 10.0152L19.9558 10.0384L19.9641 10.0624L19.9761 10.0849L19.9851 10.1089L19.9941 10.1352L20.0023 10.1592L20.0113 10.1854L20.0173 10.2117L20.0233 10.2349L20.0286 10.2612L20.0346 10.2874L20.0376 10.3144L20.0406 10.3407V10.3669L20.0436 10.3932V10.4194L20.0466 10.4494V10.4779L20.0496 10.5042V10.5664L20.0406 12.6754V12.7287L20.0376 12.7812L20.0346 12.8074L20.0316 12.8187V12.8337L20.0286 12.8457V12.8607L20.0256 12.8719L20.0233 12.8832L20.0203 12.8952V12.9072L20.0173 12.9184L20.0143 12.9304L20.0113 12.9417L20.0084 12.9447V12.9537L20.0053 12.9657H20.0031V12.9769L19.9941 12.9979L19.9858 13.0182L19.9798 13.0414L19.9708 13.0624L19.9596 13.0849L19.9506 13.1089L19.9416 13.1322L19.9304 13.1562L19.9243 13.1674L19.9183 13.1794L19.9153 13.1854L19.9123 13.1914L19.9063 13.2027L19.9003 13.2117L19.8921 13.2229L19.8891 13.2289L19.8861 13.2349L19.8801 13.2469L19.8771 13.2499L19.8711 13.2552L19.8658 13.2642L19.8629 13.2702L19.8598 13.2762L19.8508 13.2852L19.8448 13.2904L19.8419 13.2964L19.8366 13.3054L19.8306 13.3114L19.8276 13.3144L19.8186 13.3227L19.8156 13.3287L19.8096 13.3317L19.8013 13.3407L19.7983 13.3467L19.7923 13.3519L19.7833 13.3609L19.7661 13.3759L19.7511 13.3932L19.7308 13.4104L19.7136 13.4254L19.7106 13.4284L19.7046 13.4344L19.6956 13.4404L19.6783 13.4554L19.6663 13.4629L19.6573 13.4697L19.6491 13.4779L19.6371 13.4839L19.6281 13.4899L19.6221 13.4929L19.6168 13.4959L19.5928 13.5109L19.5816 13.5162L19.5696 13.5222L19.5463 13.5334L19.5201 13.5424L19.5081 13.5484L19.4991 13.5514L19.4931 13.5544L19.4788 13.5604L19.4669 13.5634L19.4556 13.5687L19.4406 13.5717L19.4293 13.5747L19.4173 13.5807L19.4053 13.5837L19.3971 13.5867L19.3851 13.5897H19.3761L19.3679 13.5927L19.3588 13.5957H19.3498L19.3408 13.5979H19.3326L19.3266 13.6009H19.2591L19.2418 13.6039H19.2238L18.3688 13.6099H18.2916L18.2766 13.6069H18.2504L18.2391 13.6039H18.2241L18.2091 13.6009H18.2009L18.1948 13.5979H18.1798L18.1746 13.5957H18.1656L18.1506 13.5927L18.1356 13.5897L18.1214 13.5867L18.1063 13.5837L18.0921 13.5807L18.0808 13.5777L18.0659 13.5747L18.0508 13.5687L18.0396 13.5664L18.0134 13.5574L17.9901 13.5454L17.9639 13.5364L17.9518 13.5312L17.9398 13.5252L17.9166 13.5132L17.8964 13.4982L17.8754 13.4869L17.8551 13.4719L17.8348 13.4577L17.8138 13.4427L17.7936 13.4277L17.7756 13.4134L17.7584 13.3962L17.7411 13.3812L17.7231 13.3639L17.7081 13.3489L17.6939 13.3317L17.6788 13.3167L17.6676 13.3017L17.6556 13.2844L17.6444 13.2672L17.6323 13.2499L17.6204 13.2319L17.6091 13.2147L17.5971 13.1937L17.5858 13.1734L17.5769 13.1532L17.5648 13.1322L17.5536 13.1097L17.5446 13.0857L17.5356 13.0624L17.5266 13.0414L17.5183 13.0152L17.5124 12.9919L17.5034 12.9687L17.4973 12.9424L17.4921 12.9184L17.4861 12.8952L17.4831 12.8719L17.4771 12.8509L17.4741 12.8307L17.4711 12.8134L17.4681 12.7954L17.4651 12.7804L17.4629 12.7662V12.7549L17.4599 12.7429V12.7219L17.4621 10.3669L17.4681 10.3257L17.4741 10.2882L17.4801 10.2499L17.4891 10.2147L17.4951 10.1884L17.5004 10.1614L17.5064 10.1352L17.5153 10.1119L17.5244 10.0887L17.5326 10.0624L17.5446 10.0384L17.5536 10.0159L17.5648 9.99195L17.5769 9.9687L17.5881 9.9447L17.6001 9.92445L17.6121 9.9042L17.6271 9.8862L17.6384 9.86595L17.6533 9.84795L17.6646 9.8307L17.6796 9.81345L17.6946 9.79545L17.7119 9.78045L17.7291 9.7632L17.7441 9.74595L17.7614 9.72795L17.7816 9.71295L17.8026 9.6957L17.8198 9.6807L17.8401 9.66345L17.8611 9.6522L17.8784 9.6372L17.9016 9.62595L17.9196 9.61395L17.9428 9.60495L17.9631 9.5937L17.9871 9.5847L18.0073 9.5757L18.0336 9.5667L18.0568 9.56145L18.0808 9.55245L18.1071 9.54345L18.1364 9.53745L18.1596 9.5322L18.1859 9.5292L18.2121 9.5232L18.2391 9.5202L18.2653 9.5172L18.2916 9.5142L18.3178 9.5112H19.1968L19.2321 9.5142L19.2493 9.5172H19.2673L19.2846 9.5202L19.3048 9.5232L19.3259 9.5262L19.3431 9.5292L19.3671 9.5322L19.3873 9.53745L19.4076 9.54345L19.4316 9.54945L19.4541 9.55545L19.4781 9.56445L19.5013 9.5697L19.5134 9.5757L19.5246 9.5787L19.5486 9.5907L19.5568 9.5937L19.5688 9.59895L19.5921 9.61095L19.6131 9.62295L19.6213 9.62895L19.6334 9.6342L19.6423 9.6432L19.6506 9.6492L19.6596 9.6582L19.6716 9.66345L19.6888 9.67845L19.7069 9.6957L19.7241 9.7107L19.7421 9.72795L19.7593 9.74595L19.7766 9.7632L19.7916 9.7812L19.8088 9.80145ZM19.2171 10.2852L19.2111 10.2792L19.2058 10.2762L19.1938 10.2702L19.1848 10.2642L19.1736 10.2582L19.1586 10.2552L19.1473 10.2529L19.1413 10.2499L19.1323 10.2469H19.1061C18.9976 10.243 18.8891 10.241 18.7806 10.2409H18.4379L18.4296 10.2379H18.4206L18.4116 10.2409H18.3884L18.3793 10.2439L18.3681 10.2469L18.3561 10.2499L18.3441 10.2529L18.3328 10.2552L18.3239 10.2582L18.3118 10.2642L18.2946 10.2702L18.2856 10.2762L18.2796 10.2822L18.2714 10.2852L18.2624 10.2904L18.2564 10.2964L18.2504 10.3054L18.2443 10.3144L18.2391 10.3227L18.2331 10.3317L18.2271 10.3437L18.2151 10.3662L18.2069 10.3902L18.2039 10.4022L18.2009 10.4134L18.1948 10.4284V10.4404L18.1918 10.4427V10.5042L18.1889 10.5162V10.7652L18.1859 10.7914V12.5142L18.1829 12.6049V12.6612L18.1859 12.6874L18.1889 12.6987L18.1918 12.7137L18.1948 12.7249L18.2009 12.7369L18.2039 12.7489L18.2099 12.7602L18.2151 12.7722L18.2211 12.7834L18.2271 12.7924L18.2331 12.8044L18.2421 12.8134L18.2504 12.8217L18.2593 12.8307L18.2683 12.8397L18.2766 12.8457L18.2886 12.8539L18.2916 12.8569L18.2976 12.8599L18.3006 12.8629L18.3066 12.8659L18.3148 12.8689L18.3178 12.8719H18.3209L18.3268 12.8749H18.3299L18.3358 12.8779H18.3411V12.8802H18.4236L19.0798 12.8832H19.1384L19.1496 12.8802L19.1586 12.8779L19.1706 12.8719L19.1818 12.8689L19.1938 12.8629L19.1998 12.8599L19.2058 12.8569L19.2119 12.8509L19.2171 12.8479L19.2231 12.8427L19.2291 12.8397L19.2321 12.8367L19.2381 12.8307L19.2411 12.8277L19.2463 12.8217L19.2493 12.8157L19.2553 12.8134L19.2584 12.8074L19.2643 12.8014L19.2673 12.7954L19.2703 12.7894L19.2786 12.7782L19.2846 12.7662L19.2936 12.7429L19.2996 12.7309L19.3026 12.7279V12.7219L19.3056 12.7167L19.3078 12.7047L19.3109 12.6987L19.3138 12.6927L19.3168 12.6814V12.6694H19.3198V12.6544L19.3228 12.6432V12.6282L19.3259 12.6169V12.5442L19.3228 12.5352V11.4889L19.3259 11.4447V10.5364L19.3228 10.5072V10.4809L19.3198 10.4517L19.3168 10.4404V10.4254L19.3109 10.4134L19.3078 10.4022L19.3056 10.3902L19.2996 10.3789L19.2936 10.3669L19.2876 10.3579L19.2786 10.3467L19.2703 10.3377L19.2643 10.3257L19.2553 10.3167L19.2463 10.3084L19.2381 10.2994L19.2261 10.2904L19.2171 10.2844V10.2852Z"
    fill="currentColor"
  />
  <path
    fill-rule="evenodd"
    clip-rule="evenodd"
    d="M0 7.62158C0 6.79315 0.671573 6.12158 1.5 6.12158H22.5C23.3284 6.12158 24 6.79315 24 7.62158V15.8716C24 16.7 23.3284 17.3716 22.5 17.3716H1.5C0.671573 17.3716 0 16.7 0 15.8716V7.62158ZM22.5 7.62158H1.5V15.8716H22.5V7.62158Z"
    fill="currentColor"
  />
</svg>
