<svg
  width="24"
  height="24"
  viewBox="0 0 24 24"
  fill="none"
  xmlns="http://www.w3.org/2000/svg"
>
  <path
    fill-rule="evenodd"
    clip-rule="evenodd"
    d="M9 9.5166C9 8.85356 9.26339 8.21768 9.73223 7.74883C10.2011 7.27999 10.837 7.0166 11.5 7.0166H13.5C13.7652 7.0166 14.0196 7.12196 14.2071 7.30949C14.3946 7.49703 14.5 7.75139 14.5 8.0166C14.5 8.28182 14.3946 8.53617 14.2071 8.72371C14.0196 8.91124 13.7652 9.0166 13.5 9.0166H11.5C11.3674 9.0166 11.2402 9.06928 11.1464 9.16305C11.0527 9.25682 11 9.38399 11 9.5166C11 9.64921 11.0527 9.77639 11.1464 9.87016C11.2402 9.96392 11.3674 10.0166 11.5 10.0166H12.5C13.163 10.0166 13.7989 10.28 14.2678 10.7488C14.7366 11.2177 15 11.8536 15 12.5166C15 13.1796 14.7366 13.8155 14.2678 14.2844C13.7989 14.7532 13.163 15.0166 12.5 15.0166H10.5C10.2348 15.0166 9.98043 14.9112 9.79289 14.7237C9.60536 14.5362 9.5 14.2818 9.5 14.0166C9.5 13.7514 9.60536 13.497 9.79289 13.3095C9.98043 13.122 10.2348 13.0166 10.5 13.0166H12.5C12.6326 13.0166 12.7598 12.9639 12.8536 12.8702C12.9473 12.7764 13 12.6492 13 12.5166C13 12.384 12.9473 12.2568 12.8536 12.163C12.7598 12.0693 12.6326 12.0166 12.5 12.0166H11.5C10.837 12.0166 10.2011 11.7532 9.73223 11.2844C9.26339 10.8155 9 10.1796 9 9.5166Z"
    fill="currentColor"
  />
  <path
    fill-rule="evenodd"
    clip-rule="evenodd"
    d="M12 5.5166C12.2652 5.5166 12.5196 5.62196 12.7071 5.80949C12.8946 5.99703 13 6.25139 13 6.5166V8.0166C13 8.28182 12.8946 8.53617 12.7071 8.72371C12.5196 8.91124 12.2652 9.0166 12 9.0166C11.7348 9.0166 11.4804 8.91124 11.2929 8.72371C11.1054 8.53617 11 8.28182 11 8.0166V6.5166C11 6.25139 11.1054 5.99703 11.2929 5.80949C11.4804 5.62196 11.7348 5.5166 12 5.5166ZM12 13.0166C12.2652 13.0166 12.5196 13.122 12.7071 13.3095C12.8946 13.497 13 13.7514 13 14.0166V15.5166C13 15.7818 12.8946 16.0362 12.7071 16.2237C12.5196 16.4112 12.2652 16.5166 12 16.5166C11.7348 16.5166 11.4804 16.4112 11.2929 16.2237C11.1054 16.0362 11 15.7818 11 15.5166V14.0166C11 13.7514 11.1054 13.497 11.2929 13.3095C11.4804 13.122 11.7348 13.0166 12 13.0166ZM7 0.0166016C7.26522 0.0166016 7.51957 0.121959 7.70711 0.309495C7.89464 0.497031 8 0.751385 8 1.0166V3.0166C8 3.28182 7.89464 3.53617 7.70711 3.72371C7.51957 3.91124 7.26522 4.0166 7 4.0166C6.73478 4.0166 6.48043 3.91124 6.29289 3.72371C6.10536 3.53617 6 3.28182 6 3.0166V1.0166C6 0.751385 6.10536 0.497031 6.29289 0.309495C6.48043 0.121959 6.73478 0.0166016 7 0.0166016ZM12 0.0166016C12.2652 0.0166016 12.5196 0.121959 12.7071 0.309495C12.8946 0.497031 13 0.751385 13 1.0166V3.0166C13 3.28182 12.8946 3.53617 12.7071 3.72371C12.5196 3.91124 12.2652 4.0166 12 4.0166C11.7348 4.0166 11.4804 3.91124 11.2929 3.72371C11.1054 3.53617 11 3.28182 11 3.0166V1.0166C11 0.751385 11.1054 0.497031 11.2929 0.309495C11.4804 0.121959 11.7348 0.0166016 12 0.0166016ZM17 0.0166016C17.2652 0.0166016 17.5196 0.121959 17.7071 0.309495C17.8946 0.497031 18 0.751385 18 1.0166V3.0166C18 3.28182 17.8946 3.53617 17.7071 3.72371C17.5196 3.91124 17.2652 4.0166 17 4.0166C16.7348 4.0166 16.4804 3.91124 16.2929 3.72371C16.1054 3.53617 16 3.28182 16 3.0166V1.0166C16 0.751385 16.1054 0.497031 16.2929 0.309495C16.4804 0.121959 16.7348 0.0166016 17 0.0166016Z"
    fill="currentColor"
  />
  <path
    fill-rule="evenodd"
    clip-rule="evenodd"
    d="M5 4.0166C4.73478 4.0166 4.48043 4.12196 4.29289 4.30949C4.10536 4.49703 4 4.75138 4 5.0166V21.0166C4 21.2818 4.10536 21.5362 4.29289 21.7237C4.48043 21.9112 4.73478 22.0166 5 22.0166H19C19.2652 22.0166 19.5196 21.9112 19.7071 21.7237C19.8946 21.5362 20 21.2818 20 21.0166V5.0166C20 4.75138 19.8946 4.49703 19.7071 4.30949C19.5196 4.12196 19.2652 4.0166 19 4.0166H5ZM2 5.0166C2 4.22095 2.31607 3.45789 2.87868 2.89528C3.44129 2.33267 4.20435 2.0166 5 2.0166H19C19.7956 2.0166 20.5587 2.33267 21.1213 2.89528C21.6839 3.45789 22 4.22095 22 5.0166V21.0166C22 21.8123 21.6839 22.5753 21.1213 23.1379C20.5587 23.7005 19.7956 24.0166 19 24.0166H5C4.20435 24.0166 3.44129 23.7005 2.87868 23.1379C2.31607 22.5753 2 21.8123 2 21.0166V5.0166Z"
    fill="currentColor"
  />
  <path
    fill-rule="evenodd"
    clip-rule="evenodd"
    d="M6 19.0166C6 18.7514 6.10536 18.497 6.29289 18.3095C6.48043 18.122 6.73478 18.0166 7 18.0166H17C17.2652 18.0166 17.5196 18.122 17.7071 18.3095C17.8946 18.497 18 18.7514 18 19.0166C18 19.2818 17.8946 19.5362 17.7071 19.7237C17.5196 19.9112 17.2652 20.0166 17 20.0166H7C6.73478 20.0166 6.48043 19.9112 6.29289 19.7237C6.10536 19.5362 6 19.2818 6 19.0166Z"
    fill="currentColor"
  />
</svg>
