<svg
  width="24"
  height="24"
  viewBox="0 0 24 24"
  fill="none"
  xmlns="http://www.w3.org/2000/svg"
>
  <path
    fill-rule="evenodd"
    clip-rule="evenodd"
    d="M3 10.7017C3 6.83567 6.13401 3.70166 10 3.70166C13.866 3.70166 17 6.83567 17 10.7017C17 14.5677 13.866 17.7017 10 17.7017C6.13401 17.7017 3 14.5677 3 10.7017ZM10 1.70166C5.02944 1.70166 1 5.7311 1 10.7017C1 15.6722 5.02944 19.7017 10 19.7017C12.125 19.7017 14.078 18.9652 15.6177 17.7336L21.2929 23.4088C21.6834 23.7993 22.3166 23.7993 22.7071 23.4088C23.0976 23.0182 23.0976 22.3851 22.7071 21.9946L17.0319 16.3193C18.2635 14.7797 19 12.8267 19 10.7017C19 5.7311 14.9706 1.70166 10 1.70166Z"
    fill="currentColor"
  />
</svg>
