<svg
  xmlns="http://www.w3.org/2000/svg"
  width="24"
  height="24"
  viewBox="0 0 24 24"
  fill="none"
>
  <path
    d="M21.989 15.823 C21.463 15.823 21.036 16.250 21.036 16.776 V18.543 L17.227 16.572 V12.915 L21.056 11.528 C22.537 10.992 23.306 9.350 22.770 7.869 L20.817 2.472 C20.557 1.755 20.033 1.182 19.342 0.858 C18.651 0.534 17.875 0.500 17.157 0.760 L2.836 5.970 C2.526 6.083 2.296 6.348 2.229 6.670 C2.162 6.993 2.267 7.327 2.507 7.555 L4.483 9.434 L1.443 10.541 C0.949 10.720 0.694 11.267 0.874 11.761 L2.828 17.131 C2.969 17.516 3.334 17.757 3.724 17.757 C3.832 17.757 3.942 17.738 4.049 17.699 L11.209 15.094 L15.323 13.603 V17.150 C15.323 17.506 15.521 17.832 15.837 17.995 L21.037 20.687 V22.548 C21.037 23.073 21.464 23.500 21.990 23.500 C22.515 23.500 22.942 23.073 22.942 22.548 V16.775 C22.941 16.250 22.514 15.823 21.989 15.823 Z M4.292 15.583 L2.989 12.004 L6.025 10.899 L9.111 13.830 L4.292 15.583 Z M11.112 13.102 L4.933 7.234 L17.808 2.548 C18.048 2.461 18.305 2.473 18.536 2.581 C18.767 2.688 18.941 2.880 19.028 3.119 L20.980 8.516 C21.159 9.010 20.903 9.557 20.410 9.736 L11.112 13.102 Z"
    fill="currentColor"
  />
</svg>
