<svg
  xmlns="http://www.w3.org/2000/svg"
  width="24"
  height="24"
  viewBox="0 0 24 24"
  fill="none"
  stroke="currentColor"
  stroke-width="2"
  stroke-miterlimit="10"
  stroke-linecap="round"
  stroke-linejoin="round"
>
  <path
    fill-rule="evenodd"
    d="M18.930 13.381 C19.018 12.934 19.067 12.472 19.067 12.000 C19.067 11.528 19.018 11.066 18.930 10.619 L20.527 9.302 C20.971 8.936 21.086 8.301 20.799 7.802 L20.030 6.468 C19.743 5.969 19.136 5.750 18.597 5.953 L16.653 6.683 C15.964 6.078 15.159 5.605 14.272 5.303 L13.932 3.255 C13.836 2.686 13.345 2.269 12.769 2.269 H11.232 C10.656 2.269 10.165 2.686 10.070 3.255 L9.729 5.303 C8.842 5.605 8.037 6.078 7.348 6.683 L5.404 5.953 C4.864 5.751 4.258 5.969 3.971 6.468 L3.201 7.802 C2.914 8.301 3.029 8.936 3.473 9.302 L5.070 10.619 C4.982 11.066 4.933 11.527 4.933 12.000 C4.933 12.473 4.982 12.934 5.070 13.381 L3.473 14.698 C3.029 15.064 2.914 15.699 3.201 16.198 L3.970 17.532 C4.257 18.031 4.864 18.250 5.403 18.047 L7.347 17.317 C8.036 17.922 8.841 18.395 9.728 18.697 L10.068 20.745 C10.165 21.314 10.656 21.731 11.232 21.731 H12.769 C13.345 21.731 13.836 21.314 13.931 20.745 L14.271 18.697 C15.158 18.395 15.964 17.922 16.652 17.317 L18.596 18.047 C19.135 18.250 19.742 18.032 20.029 17.532 L20.798 16.198 C21.085 15.699 20.971 15.064 20.526 14.698 L18.930 13.381 Z"
  />
  <path
    fill-rule="evenodd"
    d="M12.000 14.654 C13.466 14.654 14.654 13.466 14.654 12.000 C14.654 10.534 13.466 9.346 12.000 9.346 C10.535 9.346 9.347 10.534 9.347 12.000 C9.347 13.466 10.535 14.654 12.000 14.654 Z"
  />
</svg>
