<svg
  xmlns="http://www.w3.org/2000/svg"
  width="24"
  height="24"
  viewBox="0 0 24 24"
  fill="none"
>
  <path
    d="M21.085 5.422 L12.465 0.633 C12.445 0.623 12.424 0.619 12.404 0.609 C12.379 0.598 12.354 0.588 12.329 0.579 C12.115 0.500 11.884 0.500 11.671 0.579 C11.645 0.588 11.620 0.597 11.595 0.609 C11.575 0.619 11.554 0.623 11.535 0.633 L2.914 5.422 C2.611 5.591 2.422 5.912 2.422 6.259 V12.031 C2.527 15.970 3.678 20.829 11.702 23.452 C11.799 23.484 11.900 23.500 12.000 23.500 C12.100 23.500 12.201 23.484 12.298 23.452 C20.322 20.829 21.473 15.971 21.578 12.006 V6.259 C21.578 5.912 21.389 5.591 21.085 5.422 Z M11.042 21.173 C5.878 19.121 4.644 16.071 4.391 12.964 H11.042 V21.173 Z M11.042 11.048 H4.337 V6.823 L11.042 3.098 V11.048 Z M12.958 21.173 V12.964 H19.607 C19.350 16.083 18.112 19.125 12.958 21.173 Z M19.663 11.048 H12.958 V3.098 L19.663 6.823 V11.048 Z"
    fill="currentColor"
  />
</svg>
