<svg
  xmlns="http://www.w3.org/2000/svg"
  width="24"
  height="24"
  viewBox="0 0 24 24"
  fill="none"
>
  <path
    fill-rule="evenodd"
    clip-rule="evenodd"
    d="M4.333 11.974 C4.393 14.100 4.784 15.893 5.870 17.425 C6.898 18.876 8.705 20.308 12.000 21.475 C15.295 20.308 17.102 18.876 18.130 17.425 C19.216 15.893 19.607 14.100 19.667 11.974 V7.335 L12.000 2.735 L4.333 7.335 V11.974 Z M12.000 0.500 L21.583 6.250 V12.000 C21.458 16.662 19.864 20.928 12.000 23.500 C4.136 20.928 2.542 16.662 2.417 12.000 V6.250 L12.000 0.500 Z"
    fill="currentColor"
  />
  <path
    d="M14.914 9.246 C15.245 9.466 15.334 9.912 15.113 10.243 L11.839 15.153 L9.085 13.317 C8.754 13.097 8.665 12.650 8.886 12.320 C9.105 11.989 9.551 11.900 9.883 12.121 L11.441 13.159 L13.917 9.445 C14.137 9.115 14.583 9.025 14.914 9.246 Z"
    fill="currentColor"
  />
</svg>
