<svg
  xmlns="http://www.w3.org/2000/svg"
  width="24"
  height="24"
  viewBox="0 0 24 24"
  fill="none"
>
  <path
    fill-rule="evenodd"
    d="M12.000 15.842 C11.471 15.842 11.043 16.274 11.043 16.803 C11.043 17.332 11.471 17.760 12.000 17.760 C12.529 17.760 12.957 17.332 12.957 16.803 V16.794 C12.957 16.266 12.529 15.842 12.000 15.842 Z M11.043 7.237 V12.977 C11.043 13.506 11.471 13.933 12.000 13.933 C12.529 13.933 12.957 13.506 12.957 12.977 V7.237 C12.957 6.708 12.529 6.280 12.000 6.280 C11.471 6.280 11.043 6.708 11.043 7.237 Z M21.074 5.444 L12.464 0.661 C12.176 0.500 11.823 0.500 11.535 0.661 L2.925 5.444 C2.622 5.612 2.433 5.933 2.433 6.280 V12.045 C2.539 15.979 3.689 20.832 11.702 23.452 C11.799 23.484 11.901 23.500 12.000 23.500 C12.099 23.500 12.201 23.484 12.298 23.452 C20.311 20.832 21.461 15.980 21.567 12.020 V6.280 C21.567 5.933 21.378 5.612 21.074 5.444 Z M19.653 11.995 C19.556 15.630 18.554 19.295 12.000 21.535 C5.446 19.295 4.444 15.629 4.347 12.020 V6.844 L12.000 2.591 L19.653 6.844 V11.995 Z"
    fill="currentColor"
  />
</svg>
