<svg
  width="24"
  height="24"
  viewBox="0 0 24 24"
  fill="none"
  xmlns="http://www.w3.org/2000/svg"
>
  <path
    d="M22 11.2338V8.0498C22 5.2928 19.757 3.0498 17 3.0498H7C4.243 3.0498 2 5.2928 2 8.0498V11.2338C0.839 11.6478 0 12.7478 0 14.0498V20.0498C0 20.6028 0.448 21.0498 1 21.0498H23C23.552 21.0498 24 20.6028 24 20.0498V14.0498C24 12.7478 23.161 11.6478 22 11.2338ZM4 8.0498C4 6.3958 5.346 5.0498 7 5.0498H17C18.654 5.0498 20 6.3958 20 8.0498V11.2338C18.839 11.6478 18 12.7478 18 14.0498V15.0498H6V14.0498C6 12.7478 5.161 11.6478 4 11.2338V8.0498ZM22 19.0498H2V14.0498C2 13.4978 2.449 13.0498 3 13.0498C3.551 13.0498 4 13.4978 4 14.0498V16.0498C4 16.6028 4.448 17.0498 5 17.0498H19C19.552 17.0498 20 16.6028 20 16.0498V14.0498C20 13.4978 20.449 13.0498 21 13.0498C21.551 13.0498 22 13.4978 22 14.0498V19.0498Z"
    fill="currentColor"
  />
</svg>
