<svg
  xmlns="http://www.w3.org/2000/svg"
  width="24"
  height="24"
  viewBox="0 0 24 24"
  fill="none"
>
  <path
    fill-rule="evenodd"
    d="M21.536 12.411 L12.000 15.780 L2.464 12.411 C1.967 12.234 1.420 12.494 1.244 12.993 C1.068 13.491 1.329 14.037 1.827 14.212 L11.682 17.695 C11.784 17.732 11.892 17.751 12.000 17.751 C12.108 17.751 12.216 17.732 12.318 17.695 L22.173 14.212 C22.671 14.037 22.932 13.490 22.756 12.993 C22.579 12.495 22.034 12.234 21.536 12.411 Z M1.826 8.464 L11.681 11.957 C11.784 11.994 11.892 12.013 12.000 12.013 C12.108 12.013 12.216 11.994 12.319 11.957 L22.174 8.464 C22.940 8.192 23.450 7.494 23.475 6.686 C23.500 5.877 23.033 5.149 22.286 4.832 L12.375 0.613 C12.136 0.511 11.865 0.511 11.626 0.613 L1.714 4.831 C0.967 5.148 0.500 5.877 0.525 6.686 C0.550 7.494 1.061 8.193 1.826 8.464 Z M11.997 2.534 L21.535 6.661 L12.000 10.042 L2.465 6.661 L2.462 6.590 L11.997 2.534 Z M21.532 18.110 L12.000 21.517 L2.468 18.110 C1.974 17.932 1.424 18.192 1.246 18.687 C1.068 19.185 1.327 19.732 1.825 19.910 L11.679 23.434 C11.782 23.470 11.891 23.489 12.000 23.489 C12.109 23.489 12.218 23.470 12.321 23.433 L22.175 19.909 C22.673 19.732 22.932 19.184 22.754 18.687 C22.577 18.192 22.027 17.932 21.532 18.110 Z"
    fill="currentColor"
  />
</svg>
