<svg
  xmlns="http://www.w3.org/2000/svg"
  width="24"
  height="24"
  viewBox="0 0 24 24"
  fill="none"
>
  <path
    fill-rule="evenodd"
    d="M12.000 2.269 C17.374 2.269 21.731 6.626 21.731 12.000 C21.731 17.374 17.374 21.731 12.000 21.731 C6.626 21.731 2.269 17.374 2.269 12.000 C2.269 6.626 6.626 2.269 12.000 2.269 Z"
    stroke="currentColor"
    stroke-width="2"
  />
  <path
    fill-rule="evenodd"
    d="M3.154 14.654 H7.950 C8.396 15.672 9.213 16.489 10.231 16.934 V21.519 C10.800 21.652 11.390 21.731 12.000 21.731 C12.610 21.731 13.200 21.652 13.769 21.519 V16.934 C14.787 16.489 15.604 15.672 16.050 14.654 H20.846 M2.269 11.558 H4.923 C6.487 11.437 8.005 10.431 9.228 9.442 C9.986 8.829 10.949 8.462 12.000 8.462 C13.051 8.462 14.014 8.829 14.772 9.442 C15.995 10.431 17.513 11.437 19.077 11.558 H21.731"
    stroke="currentColor"
    stroke-width="2"
    stroke-linecap="round"
    stroke-linejoin="round"
  />
  <path
    fill-rule="evenodd"
    d="M12.000 14.654 C12.977 14.654 13.769 13.862 13.769 12.885 C13.769 11.907 12.977 11.115 12.000 11.115 C11.023 11.115 10.231 11.907 10.231 12.885 C10.231 13.862 11.023 14.654 12.000 14.654 Z"
    fill="currentColor"
  />
</svg>
