<svg
  width="24"
  height="24"
  viewBox="0 0 24 24"
  fill="none"
  xmlns="http://www.w3.org/2000/svg"
>
  <path
    d="M18.708 9.05924C19.134 8.70724 19.194 8.07824 18.842 7.65224C18.029 6.66824 16.9 6.03924 15.674 5.86924C14.852 3.48424 12.578 1.82324 10 1.82324C7.423 1.82324 5.149 3.48424 4.327 5.86824C1.887 6.19824 0 8.29424 0 10.8232C0 13.5802 2.243 15.8232 5 15.8232H13C13.552 15.8232 14 15.3762 14 14.8232C14 14.2702 13.552 13.8232 13 13.8232H5C3.346 13.8232 2 12.4772 2 10.8232C2 9.16924 3.346 7.82324 5 7.82324H5.101C5.577 7.82324 5.986 7.48824 6.081 7.02224C6.458 5.16924 8.105 3.82324 10 3.82324C11.895 3.82324 13.543 5.16924 13.919 7.02224C14.014 7.48824 14.424 7.82324 14.899 7.82324H15C15.883 7.82324 16.721 8.22524 17.3 8.92624C17.652 9.35124 18.283 9.41324 18.708 9.05924ZM23.993 15.7862C23.99 15.7142 23.969 15.6462 23.951 15.5762C23.936 15.5192 23.929 15.4602 23.904 15.4072C23.88 15.3552 23.841 15.3122 23.808 15.2652C23.766 15.2042 23.728 15.1432 23.674 15.0932C23.665 15.0842 23.661 15.0722 23.652 15.0642C23.616 15.0332 23.571 15.0222 23.532 14.9962C23.472 14.9572 23.415 14.9172 23.346 14.8922C23.277 14.8662 23.207 14.8592 23.135 14.8492C23.088 14.8442 23.047 14.8232 23 14.8232H19.135L22.768 10.4642C23.122 10.0392 23.064 9.40824 22.64 9.05524C22.215 8.70224 21.585 8.75924 21.232 9.18324L16.232 15.1832C16.202 15.2192 16.192 15.2632 16.167 15.3022C16.129 15.3622 16.092 15.4192 16.068 15.4862C16.044 15.5532 16.037 15.6202 16.027 15.6892C16.021 15.7342 16 15.7752 16 15.8232C16 15.8392 16.008 15.8522 16.009 15.8672C16.012 15.9382 16.033 16.0042 16.051 16.0732C16.067 16.1312 16.076 16.1912 16.101 16.2442C16.126 16.2982 16.166 16.3432 16.201 16.3932C16.242 16.4512 16.28 16.5082 16.332 16.5562C16.343 16.5662 16.348 16.5812 16.36 16.5912C16.408 16.6302 16.463 16.6502 16.515 16.6792C16.557 16.7032 16.593 16.7312 16.638 16.7492C16.755 16.7962 16.877 16.8232 17 16.8232C17 16.8232 17.123 16.8232 17 16.8232H20.826L16.241 22.1732C15.882 22.5922 15.93 23.2232 16.349 23.5822C16.538 23.7442 16.769 23.8232 17 23.8232C17.282 23.8232 17.562 23.7052 17.76 23.4732L23.76 16.4732C23.791 16.4372 23.802 16.3922 23.827 16.3532C23.866 16.2932 23.906 16.2352 23.931 16.1672C23.956 16.0992 23.963 16.0312 23.973 15.9602C23.979 15.9132 24 15.8722 24 15.8232C24 15.8102 23.993 15.7992 23.993 15.7862Z"
    fill="currentColor"
  />
</svg>
