<svg
  xmlns="http://www.w3.org/2000/svg"
  width="24"
  height="24"
  viewBox="0 0 24 24"
  fill="none"
>
  <path
    fill-rule="evenodd"
    clip-rule="evenodd"
    d="M9.328 3.642 C9.576 3.282 10.039 3.140 10.447 3.297 L22.768 8.035 C23.256 8.223 23.500 8.772 23.312 9.260 C23.124 9.749 22.576 9.992 22.087 9.804 L10.462 5.333 L2.356 17.041 C2.058 17.472 1.468 17.579 1.038 17.281 C0.607 16.983 0.500 16.393 0.798 15.962 L9.328 3.642 Z"
    fill="currentColor"
  />
  <path
    fill-rule="evenodd"
    clip-rule="evenodd"
    d="M15.793 2.996 C15.793 2.473 16.218 2.049 16.741 2.049 H20.532 C21.055 2.049 21.480 2.473 21.480 2.996 V19.108 C21.480 20.679 20.207 21.951 18.637 21.951 H5.368 C3.797 21.951 2.525 20.679 2.525 19.108 V14.132 C2.525 13.609 2.949 13.185 3.473 13.185 C3.996 13.185 4.420 13.609 4.420 14.132 V19.108 C4.420 19.632 4.844 20.056 5.368 20.056 H18.637 C19.160 20.056 19.584 19.632 19.584 19.108 V3.944 H17.689 V6.077 C17.689 6.600 17.265 7.024 16.741 7.024 C16.218 7.024 15.793 6.600 15.793 6.077 V2.996 Z"
    fill="currentColor"
  />
  <path
    fill-rule="evenodd"
    clip-rule="evenodd"
    d="M13.586 13.737 C14.742 13.544 15.793 14.435 15.793 15.607 V21.122 H13.898 L13.898 15.607 L10.107 16.238 V21.122 H8.211 V16.238 C8.211 15.312 8.881 14.521 9.795 14.369 L13.586 13.737 Z"
    fill="currentColor"
  />
</svg>
