<svg
  xmlns="http://www.w3.org/2000/svg"
  width="24"
  height="24"
  viewBox="0 0 24 24"
  fill="none"
  stroke="currentColor"
  stroke-width="2"
>
  <path
    d="M19.099 9.301 H11.882 L13.275 5.620 C13.632 4.677 13.315 3.599 12.516 3.036 C11.603 2.393 10.373 2.632 9.736 3.574 L5.865 9.301 H5.847 V17.821 C5.847 19.912 7.543 21.607 9.634 21.607 H15.976 C16.723 21.607 17.402 21.166 17.706 20.482 L20.830 13.454 C20.937 13.213 20.993 12.950 20.993 12.685 V11.194 C20.993 10.148 20.145 9.301 19.099 9.301 V9.301 Z"
  />
  <path
    d="M4.901 21.607 H3.007 C2.485 21.607 2.061 21.183 2.061 20.660 V10.248 C2.061 9.725 2.485 9.301 3.007 9.301 H5.847 V20.660 C5.847 21.183 5.423 21.607 4.901 21.607 Z"
    fill="currentColor"
  />
</svg>
