<svg
  xmlns="http://www.w3.org/2000/svg"
  width="24"
  height="24"
  viewBox="0 0 24 24"
  fill="none"
  stroke="currentColor"
  stroke-width="2"
>
  <path
    d="M4.901 14.699 L12.118 14.699 L10.725 18.380 C10.368 19.323 10.685 20.401 11.484 20.964 C12.397 21.607 13.627 21.368 14.264 20.426 L18.135 14.699 L18.153 14.699 L18.153 6.179 C18.153 4.088 16.457 2.393 14.366 2.393 L8.024 2.393 C7.277 2.393 6.598 2.834 6.294 3.518 L3.170 10.546 C3.063 10.787 3.007 11.050 3.007 11.315 L3.007 12.806 C3.007 13.852 3.855 14.699 4.901 14.699 V14.699 Z"
  />
  <path
    d="M19.099 2.393 L20.993 2.393 C21.515 2.393 21.939 2.817 21.939 3.340 L21.939 13.752 C21.939 14.275 21.515 14.699 20.993 14.699 L18.153 14.699 L18.153 3.340 C18.153 2.817 18.577 2.393 19.099 2.393 Z"
    fill="currentColor"
  />
</svg>
