<svg
  xmlns="http://www.w3.org/2000/svg"
  width="24"
  height="24"
  viewBox="0 0 24 24"
  fill="none"
>
  <path
    fill-rule="evenodd"
    d="M23.500 12.958 C23.500 12.834 23.474 12.709 23.426 12.592 C23.377 12.474 23.307 12.369 23.218 12.280 L19.386 8.447 C19.207 8.267 18.962 8.167 18.708 8.167 H14.875 C14.346 8.167 13.917 8.595 13.917 9.125 C13.917 9.655 14.346 10.083 14.875 10.083 H18.312 L20.228 12.000 H14.875 C14.346 12.000 13.917 12.428 13.917 12.958 C13.917 13.488 14.346 13.917 14.875 13.917 H21.583 V16.366 C21.017 16.037 20.368 15.833 19.667 15.833 C17.886 15.833 16.398 17.059 15.969 18.708 H9.947 C9.519 17.059 8.031 15.833 6.250 15.833 C5.549 15.833 4.900 16.037 4.333 16.366 V14.581 L10.083 12.425 V14.875 C10.083 15.405 10.513 15.833 11.042 15.833 C11.571 15.833 12.000 15.405 12.000 14.875 V1.458 C12.000 0.928 11.571 0.500 11.042 0.500 H3.375 C2.846 0.500 2.417 0.928 2.417 1.458 V6.250 C2.417 6.780 2.846 7.208 3.375 7.208 C3.903 7.208 4.333 7.638 4.333 8.167 C4.333 8.696 3.903 9.125 3.375 9.125 H1.458 C0.929 9.125 0.500 9.553 0.500 10.083 C0.500 10.613 0.929 11.042 1.458 11.042 H3.375 C4.960 11.042 6.250 9.752 6.250 8.167 C6.250 6.917 5.449 5.851 4.333 5.456 V2.417 H10.083 V10.378 L3.039 13.020 C2.665 13.160 2.417 13.517 2.417 13.917 V19.667 C2.417 21.781 4.136 23.500 6.250 23.500 C8.031 23.500 9.519 22.274 9.947 20.625 H15.969 C16.398 22.274 17.886 23.500 19.667 23.500 C21.781 23.500 23.500 21.781 23.500 19.667 C23.500 19.448 23.470 19.237 23.436 19.028 C23.471 18.927 23.500 18.821 23.500 18.708 V12.958 Z M6.250 21.583 C5.193 21.583 4.333 20.724 4.333 19.667 C4.333 18.610 5.193 17.750 6.250 17.750 C7.307 17.750 8.167 18.610 8.167 19.667 C8.167 20.724 7.307 21.583 6.250 21.583 Z M19.667 21.583 C18.610 21.583 17.750 20.724 17.750 19.667 C17.750 18.610 18.610 17.750 19.667 17.750 C20.724 17.750 21.583 18.610 21.583 19.667 C21.583 20.724 20.724 21.583 19.667 21.583 Z"
    fill="currentColor"
  />
</svg>
