<svg
  xmlns="http://www.w3.org/2000/svg"
  width="24"
  height="24"
  viewBox="0 0 24 24"
  fill="none"
>
  <path
    fill-rule="evenodd"
    d="M22.778 19.664 C20.241 18.648 18.056 17.470 16.203 16.281 C16.616 15.904 17.021 15.523 17.408 15.139 C19.421 13.137 20.530 10.566 20.530 7.898 C20.530 3.888 16.704 0.627 12.000 0.627 C7.296 0.627 3.470 3.888 3.470 7.898 C3.470 10.566 4.579 13.137 6.592 15.139 C6.947 15.492 7.354 15.874 7.786 16.270 C5.719 17.596 3.522 18.744 1.222 19.664 C0.736 19.859 0.500 20.410 0.694 20.897 C0.844 21.267 1.199 21.493 1.575 21.493 C1.692 21.493 1.812 21.472 1.927 21.425 C4.513 20.390 6.976 19.085 9.277 17.562 C9.629 17.853 9.998 18.148 10.386 18.448 C8.671 19.612 6.858 20.665 4.972 21.571 C4.500 21.798 4.301 22.365 4.528 22.836 C4.692 23.175 5.030 23.373 5.385 23.373 C5.522 23.373 5.662 23.344 5.794 23.279 C7.968 22.235 10.050 21.006 12.002 19.635 C13.773 20.879 15.828 22.136 18.208 23.279 C18.339 23.344 18.479 23.373 18.615 23.373 C18.969 23.373 19.307 23.175 19.470 22.836 C19.697 22.365 19.498 21.798 19.026 21.571 C13.785 19.053 10.097 15.952 7.928 13.795 C6.276 12.152 5.366 10.058 5.366 7.898 C5.366 4.934 8.343 2.522 12.000 2.522 C15.657 2.522 18.634 4.934 18.634 7.898 C18.634 10.058 17.724 12.152 16.072 13.795 C15.601 14.263 15.099 14.727 14.587 15.183 C14.204 14.909 13.833 14.635 13.486 14.366 C13.832 14.059 14.168 13.752 14.491 13.444 C15.940 12.059 16.739 10.268 16.739 8.401 C16.739 6.205 14.613 4.418 12.000 4.418 C9.387 4.418 7.261 6.205 7.261 8.401 C7.261 10.268 8.060 12.058 9.510 13.443 C11.938 15.762 16.089 19.029 22.073 21.424 C22.188 21.471 22.308 21.492 22.425 21.492 C22.801 21.492 23.156 21.267 23.306 20.897 C23.500 20.411 23.264 19.860 22.778 19.664 Z M11.999 13.146 C11.567 12.771 11.174 12.411 10.819 12.072 C9.747 11.048 9.157 9.745 9.157 8.401 C9.157 7.270 10.459 6.313 12.000 6.313 C13.541 6.313 14.843 7.270 14.843 8.401 C14.843 9.745 14.253 11.048 13.181 12.072 C12.806 12.430 12.410 12.790 11.999 13.146 Z"
    fill="currentColor"
  />
</svg>
