<svg
  xmlns="http://www.w3.org/2000/svg"
  width="24"
  height="24"
  viewBox="0 0 24 24"
  fill="none"
>
  <path
    fill-rule="evenodd"
    d="M18.708 8.167 H8.167 V6.250 C8.167 4.136 9.886 2.417 12.000 2.417 C13.216 2.417 14.334 2.974 15.066 3.948 C15.384 4.370 15.985 4.456 16.407 4.137 C16.830 3.819 16.915 3.218 16.596 2.795 C15.499 1.337 13.824 0.500 12.000 0.500 C8.829 0.500 6.250 3.079 6.250 6.250 V8.167 H5.292 C3.707 8.167 2.417 9.457 2.417 11.042 V20.625 C2.417 22.210 3.707 23.500 5.292 23.500 H18.708 C20.293 23.500 21.583 22.210 21.583 20.625 V11.042 C21.583 9.457 20.293 8.167 18.708 8.167 Z M19.667 20.625 C19.667 21.154 19.236 21.583 18.708 21.583 H5.292 C4.764 21.583 4.333 21.154 4.333 20.625 V11.042 C4.333 10.513 4.764 10.083 5.292 10.083 H18.708 C19.236 10.083 19.667 10.513 19.667 11.042 V20.625 Z M12.000 12.000 C9.886 12.000 8.167 13.719 8.167 15.833 C8.167 17.947 9.886 19.667 12.000 19.667 C14.114 19.667 15.833 17.947 15.833 15.833 C15.833 13.719 14.114 12.000 12.000 12.000 Z M12.000 17.750 C10.943 17.750 10.083 16.890 10.083 15.833 C10.083 14.776 10.943 13.917 12.000 13.917 C13.057 13.917 13.917 14.776 13.917 15.833 C13.917 16.890 13.057 17.750 12.000 17.750 Z"
    fill="currentColor"
  />
</svg>
