<svg
  xmlns="http://www.w3.org/2000/svg"
  width="24"
  height="24"
  viewBox="0 0 24 24"
  fill="none"
>
  <path
    d="M23.095 8.888 L12.584 0.766 C12.241 0.500 11.759 0.500 11.415 0.766 L0.904 8.888 C0.671 9.069 0.533 9.348 0.533 9.645 V20.633 C0.533 22.214 1.820 23.500 3.400 23.500 H8.178 C8.706 23.500 9.133 23.072 9.133 22.544 C9.133 22.017 8.706 21.589 8.178 21.589 H3.400 C2.873 21.589 2.445 21.160 2.445 20.633 V11.799 L7.661 15.155 C7.820 15.258 7.999 15.307 8.177 15.307 C8.491 15.307 8.798 15.152 8.981 14.869 C9.267 14.425 9.139 13.834 8.695 13.548 L2.858 9.793 L12.000 2.730 L21.142 9.795 L15.305 13.550 C14.861 13.836 14.733 14.426 15.019 14.870 C15.201 15.154 15.509 15.309 15.823 15.309 C16.001 15.309 16.180 15.260 16.339 15.157 L21.555 11.799 V20.633 C21.555 21.160 21.127 21.589 20.600 21.589 H15.822 C15.294 21.589 14.867 22.017 14.867 22.544 C14.867 23.072 15.294 23.500 15.822 23.500 H20.600 C22.180 23.500 23.467 22.214 23.467 20.633 V9.645 C23.467 9.348 23.329 9.069 23.095 8.888 Z M15.821 11.078 C16.113 11.078 16.398 10.946 16.587 10.696 C16.904 10.273 16.818 9.674 16.396 9.358 L12.573 6.491 C12.534 6.462 12.489 6.448 12.447 6.425 C12.410 6.405 12.376 6.383 12.337 6.368 C12.230 6.327 12.119 6.302 12.007 6.301 C12.004 6.301 12.002 6.300 12.000 6.300 C11.998 6.300 11.996 6.301 11.994 6.301 C11.882 6.302 11.771 6.327 11.664 6.368 C11.624 6.383 11.591 6.405 11.554 6.425 C11.512 6.448 11.466 6.463 11.427 6.491 L7.604 9.358 C7.182 9.674 7.096 10.273 7.413 10.696 C7.729 11.116 8.329 11.204 8.750 10.887 L11.044 9.167 V22.544 C11.044 23.072 11.472 23.500 12.000 23.500 C12.528 23.500 12.956 23.072 12.956 22.544 V9.167 L15.249 10.887 C15.421 11.016 15.622 11.078 15.821 11.078 Z"
    fill="currentColor"
  />
</svg>
