<svg
  width="24"
  height="24"
  viewBox="0 0 24 24"
  fill="none"
  xmlns="http://www.w3.org/2000/svg"
>
  <path
    d="M8.707 8.21405L11 5.92105V15.507C11 16.06 11.448 16.507 12 16.507C12.552 16.507 13 16.06 13 15.507V5.92105L15.293 8.21405C15.488 8.40905 15.744 8.50705 16 8.50705C16.256 8.50705 16.512 8.40905 16.707 8.21405C17.098 7.82305 17.098 7.19105 16.707 6.80005L12.708 2.80105C12.616 2.70805 12.505 2.63505 12.382 2.58405C12.138 2.48305 11.862 2.48305 11.618 2.58405C11.495 2.63505 11.385 2.70805 11.292 2.80105L7.293 6.80005C6.902 7.19105 6.902 7.82305 7.293 8.21405C7.684 8.60505 8.316 8.60505 8.707 8.21405ZM19 20.507H5C4.448 20.507 4 20.9541 4 21.507C4 22.06 4.448 22.507 5 22.507H19C19.552 22.507 20 22.06 20 21.507C20 20.9541 19.552 20.507 19 20.507Z"
    fill="currentColor"
  />
</svg>
