<svg
  width="24"
  height="24"
  viewBox="0 0 24 24"
  fill="none"
  xmlns="http://www.w3.org/2000/svg"
>
  <path
    fill-rule="evenodd"
    clip-rule="evenodd"
    d="M8 12.7515C11.033 12.7515 13.5 10.2845 13.5 7.25146C13.5 4.21846 11.033 1.75146 8 1.75146C4.967 1.75146 2.5 4.21846 2.5 7.25146C2.5 10.2845 4.967 12.7515 8 12.7515ZM8 14.7515C3.589 14.7515 0 17.6105 0 21.1265V22.7515C0 23.3045 0.448 23.7515 1 23.7515C1.552 23.7515 2 23.3045 2 22.7515V21.1265C2 18.7145 4.691 16.7515 8 16.7515C11.309 16.7515 14 18.7145 14 21.1265V22.7515C14 23.3045 14.448 23.7515 15 23.7515C15.552 23.7515 16 23.3045 16 22.7515V21.1265C16 17.6105 12.411 14.7515 8 14.7515ZM11.5 7.25146C11.5 5.32147 9.93 3.75146 8 3.75146C6.07 3.75146 4.5 5.32147 4.5 7.25146C4.5 9.18146 6.07 10.7515 8 10.7515C9.93 10.7515 11.5 9.18146 11.5 7.25146ZM17.174 14.8265C16.625 14.7625 16.129 15.1545 16.065 15.7035C16.001 16.2525 16.393 16.7485 16.942 16.8125C19.825 17.1505 22 19.0055 22 21.1265V22.7515C22 23.3045 22.448 23.7515 23 23.7515C23.552 23.7515 24 23.3045 24 22.7515V21.1265C24 17.9395 21.129 15.2905 17.174 14.8265ZM16 1.75146C19.033 1.75146 21.5 4.21846 21.5 7.25146C21.5 10.2845 19.033 12.7515 16 12.7515C15.657 12.7515 15.34 12.7055 15.077 12.6615C14.532 12.5685 14.166 12.0515 14.259 11.5075C14.352 10.9635 14.862 10.5955 15.413 10.6895C15.604 10.7215 15.799 10.7515 16 10.7515C17.93 10.7515 19.5 9.18146 19.5 7.25146C19.5 5.32147 17.93 3.75146 16 3.75146C15.798 3.75146 15.604 3.78146 15.412 3.81346C14.866 3.90646 14.351 3.53946 14.259 2.99546C14.166 2.45146 14.533 1.93446 15.077 1.84246C15.341 1.79746 15.657 1.75146 16 1.75146Z"
    fill="currentColor"
  />
</svg>
