<svg
  xmlns="http://www.w3.org/2000/svg"
  width="24"
  height="24"
  viewBox="0 0 24 24"
  fill="none"
>
  <path
    fill-rule="evenodd"
    clip-rule="evenodd"
    d="M12.000 12.000 C15.171 12.000 17.750 9.421 17.750 6.250 C17.750 3.079 15.171 0.500 12.000 0.500 C8.829 0.500 6.250 3.079 6.250 6.250 C6.250 9.421 8.829 12.000 12.000 12.000 Z M12.000 2.417 C14.114 2.417 15.833 4.136 15.833 6.250 C15.833 8.364 14.114 10.083 12.000 10.083 C9.886 10.083 8.167 8.364 8.167 6.250 C8.167 4.136 9.886 2.417 12.000 2.417 Z M2.417 19.906 C2.417 16.547 6.627 13.917 12.000 13.917 C17.373 13.917 21.583 16.547 21.583 19.906 V22.542 C21.583 23.071 21.154 23.500 20.625 23.500 C20.096 23.500 19.667 23.071 19.667 22.542 V19.906 C19.667 17.737 16.084 15.833 12.000 15.833 C7.916 15.833 4.333 17.737 4.333 19.906 V22.542 C4.333 23.071 3.904 23.500 3.375 23.500 C2.846 23.500 2.417 23.071 2.417 22.542 V19.906 Z"
    fill="currentColor"
  />
</svg>
