<svg
  xmlns="http://www.w3.org/2000/svg"
  width="24"
  height="24"
  viewBox="0 0 24 24"
  fill="none"
>
  <path
    fill-rule="evenodd"
    d="M21.583 6.245 C21.054 6.245 20.625 6.678 20.625 7.208 C20.625 7.738 21.054 8.167 21.583 8.167 C22.112 8.167 22.542 7.738 22.542 7.208 V7.199 C22.542 6.670 22.112 6.245 21.583 6.245 Z M21.583 10.088 C21.054 10.088 20.625 10.521 20.625 11.051 C20.625 11.581 21.054 12.010 21.583 12.010 C22.112 12.010 22.542 11.581 22.542 11.051 V11.042 C22.542 10.512 22.112 10.088 21.583 10.088 Z M21.583 2.421 C21.054 2.421 20.625 2.855 20.625 3.385 C20.625 3.915 21.054 4.343 21.583 4.343 C22.112 4.343 22.542 3.915 22.542 3.385 V3.375 C22.542 2.845 22.112 2.421 21.583 2.421 Z M17.750 2.421 C17.221 2.421 16.792 2.855 16.792 3.385 C16.792 3.915 17.221 4.343 17.750 4.343 C18.279 4.343 18.708 3.915 18.708 3.385 V3.375 C18.708 2.845 18.279 2.421 17.750 2.421 Z M11.042 5.948 V2.417 C11.042 1.360 10.182 0.500 9.125 0.500 H7.208 C6.151 0.500 5.292 1.360 5.292 2.417 V5.948 C3.029 7.028 1.458 9.331 1.458 12.000 V22.542 C1.458 23.072 1.888 23.500 2.417 23.500 H13.917 C14.446 23.500 14.875 23.072 14.875 22.542 V12.000 C14.875 9.331 13.304 7.028 11.042 5.948 Z M7.208 2.417 H9.125 V5.368 C8.811 5.323 8.493 5.292 8.167 5.292 C7.841 5.292 7.523 5.323 7.208 5.368 V2.417 Z M12.958 21.583 H3.375 V19.667 H12.958 V21.583 Z M12.958 17.750 H3.375 V12.958 H12.958 V17.750 Z M3.472 11.042 C3.917 8.858 5.853 7.208 8.167 7.208 C10.480 7.208 12.416 8.858 12.862 11.042 H3.472 Z M17.750 6.245 C17.221 6.245 16.792 6.678 16.792 7.208 C16.792 7.738 17.221 8.167 17.750 8.167 C18.279 8.167 18.708 7.738 18.708 7.208 V7.199 C18.708 6.670 18.279 6.245 17.750 6.245 Z M13.917 2.421 C13.388 2.421 12.958 2.855 12.958 3.385 C12.958 3.915 13.388 4.343 13.917 4.343 C14.446 4.343 14.875 3.915 14.875 3.385 V3.375 C14.875 2.845 14.446 2.421 13.917 2.421 Z"
    fill="currentColor"
  />
</svg>
