<svg
  xmlns="http://www.w3.org/2000/svg"
  width="24"
  height="24"
  viewBox="0 0 24 24"
  fill="none"
>
  <path
    fill-rule="evenodd"
    clip-rule="evenodd"
    d="M15.361 0.682 C15.059 0.500 14.680 0.500 14.377 0.682 L9.595 3.551 C9.307 3.724 9.131 4.035 9.131 4.371 V8.197 C9.131 8.725 9.559 9.153 10.087 9.153 C10.615 9.153 11.044 8.725 11.044 8.197 V4.913 L14.869 2.617 L18.695 4.913 V12.979 C18.695 13.299 18.855 13.598 19.121 13.775 L21.564 15.404 V21.587 H16.782 C16.254 21.587 15.826 22.015 15.826 22.544 C15.826 23.072 16.254 23.500 16.782 23.500 H22.521 C23.049 23.500 23.477 23.072 23.477 22.544 V14.892 C23.477 14.572 23.317 14.274 23.051 14.096 L20.608 12.467 V4.371 C20.608 4.035 20.432 3.724 20.144 3.551 L15.361 0.682 Z M6.261 19.674 C6.261 19.146 6.689 18.718 7.218 18.718 C7.746 18.718 8.174 19.146 8.174 19.674 V21.587 H6.261 V19.674 Z M10.087 19.674 V21.587 H12.000 V15.404 L7.218 12.216 L2.436 15.404 V21.587 H4.348 V19.674 C4.348 18.089 5.633 16.805 7.218 16.805 C8.803 16.805 10.087 18.089 10.087 19.674 Z M12.956 23.500 H9.131 H5.305 H1.479 C0.951 23.500 0.523 23.072 0.523 22.544 V14.892 C0.523 14.572 0.683 14.274 0.949 14.096 L6.687 10.270 C7.009 10.056 7.427 10.056 7.748 10.270 L13.487 14.096 C13.753 14.274 13.913 14.572 13.913 14.892 V22.544 C13.913 23.072 13.485 23.500 12.956 23.500 Z M15.826 7.241 C15.826 6.712 15.398 6.284 14.869 6.284 C14.341 6.284 13.913 6.712 13.913 7.241 V7.250 C13.913 7.778 14.341 8.207 14.869 8.207 C15.398 8.207 15.826 7.778 15.826 7.250 V7.241 Z"
    fill="currentColor"
  />
</svg>
