<svg
  xmlns="http://www.w3.org/2000/svg"
  width="24"
  height="24"
  viewBox="0 0 24 24"
  fill="none"
>
  <path
    d="M12.000 7.286 C11.479 7.286 11.057 7.708 11.057 8.229 V13.886 C11.057 14.407 11.479 14.828 12.000 14.828 C12.521 14.828 12.943 14.407 12.943 13.886 V8.229 C12.943 7.708 12.521 7.286 12.000 7.286 Z M12.000 16.719 C11.479 16.719 11.057 17.145 11.057 17.666 C11.057 18.187 11.479 18.609 12.000 18.609 C12.521 18.609 12.943 18.187 12.943 17.666 V17.657 C12.943 17.135 12.521 16.719 12.000 16.719 Z M22.767 16.244 L15.564 3.690 C14.824 2.400 13.491 1.629 12.000 1.629 C10.509 1.629 9.176 2.400 8.436 3.690 L1.233 16.244 C0.500 17.523 0.503 19.048 1.242 20.324 C1.984 21.605 3.313 22.371 4.797 22.371 H19.203 C20.687 22.371 22.016 21.605 22.758 20.324 C23.497 19.048 23.500 17.523 22.767 16.244 Z M21.127 19.378 C20.725 20.072 20.006 20.485 19.203 20.485 H4.797 C3.993 20.485 3.275 20.072 2.873 19.378 C2.475 18.691 2.473 17.871 2.868 17.183 L10.071 4.629 C10.472 3.931 11.193 3.515 12.000 3.515 C12.807 3.515 13.528 3.931 13.929 4.629 L21.132 17.183 C21.526 17.872 21.525 18.692 21.127 19.378 Z"
    fill="currentColor"
  />
</svg>
