<svg
  width="24"
  height="24"
  viewBox="0 0 24 24"
  fill="none"
  xmlns="http://www.w3.org/2000/svg"
>
  <path
    fill-rule="evenodd"
    d="M12 8.0498C11.447 8.0498 11 8.49681 11 9.0498V12.0498H9C8.447 12.0498 8 12.4968 8 13.0498C8 13.6028 8.447 14.0498 9 14.0498H12C12.553 14.0498 13 13.6028 13 13.0498V9.0498C13 8.49681 12.553 8.0498 12 8.0498ZM17 4.5718V3.0498C17 1.3958 15.654 0.0498047 14 0.0498047H10C8.346 0.0498047 7 1.3958 7 3.0498V4.5718C4.59 6.1878 3 8.9358 3 12.0498C3 15.1638 4.59 17.9118 7 19.5278V21.0498C7 22.7038 8.346 24.0498 10 24.0498H14C15.654 24.0498 17 22.7038 17 21.0498V19.5278C19.41 17.9108 21 15.1628 21 12.0498C21 8.9368 19.41 6.1878 17 4.5718ZM9 3.0498C9 2.4978 9.448 2.0498 10 2.0498H14C14.552 2.0498 15 2.4978 15 3.0498V3.5748C14.06 3.2408 13.053 3.0498 12 3.0498C10.947 3.0498 9.94 3.2408 9 3.5748V3.0498ZM15 21.0498C15 21.6018 14.552 22.0498 14 22.0498H10C9.448 22.0498 9 21.6018 9 21.0498V20.5248C9.94 20.8588 10.947 21.0498 12 21.0498C13.053 21.0498 14.06 20.8588 15 20.5248V21.0498ZM12 19.0498C8.141 19.0498 5 15.9088 5 12.0498C5 8.1908 8.141 5.0498 12 5.0498C15.859 5.0498 19 8.1908 19 12.0498C19 15.9088 15.859 19.0498 12 19.0498Z"
    fill="currentColor"
  />
</svg>
