<svg
  xmlns="http://www.w3.org/2000/svg"
  width="24"
  height="24"
  viewBox="0 0 24 24"
  fill="none"
>
  <path
    fill-rule="evenodd"
    clip-rule="evenodd"
    d="M4.314 5.326 C4.214 5.326 4.112 5.310 4.012 5.276 C3.513 5.110 3.243 4.571 3.410 4.071 C3.457 3.927 4.631 0.559 9.081 0.559 C9.608 0.559 10.034 0.985 10.034 1.512 C10.034 2.039 9.608 2.466 9.081 2.466 C5.990 2.466 5.225 4.652 5.217 4.674 C5.085 5.073 4.713 5.326 4.314 5.326 Z M21.524 19.326 C21.691 18.827 22.227 18.557 22.731 18.724 C23.230 18.890 23.500 19.429 23.333 19.929 C23.285 20.073 22.112 23.441 17.662 23.441 C17.135 23.441 16.709 23.015 16.709 22.488 C16.709 21.961 17.135 21.534 17.662 21.534 C20.753 21.534 21.518 19.348 21.524 19.326 Z M22.388 10.611 C22.199 10.421 21.983 10.278 21.757 10.159 C22.556 9.124 22.493 7.635 21.545 6.686 C21.342 6.483 21.111 6.332 20.868 6.210 C21.480 5.195 21.356 3.859 20.481 2.984 C19.485 1.988 17.746 1.988 16.750 2.984 L16.150 3.584 C16.033 3.370 15.895 3.164 15.714 2.984 C14.718 1.988 12.979 1.988 11.982 2.984 L5.992 8.974 C5.555 7.952 4.541 7.233 3.360 7.233 C1.783 7.233 0.500 8.516 0.500 10.093 V13.907 C0.500 16.610 2.112 19.028 4.607 20.067 L9.270 22.010 C10.049 22.335 10.864 22.493 11.672 22.493 C13.288 22.493 14.872 21.861 16.066 20.666 L22.389 14.343 C23.417 13.314 23.417 11.640 22.388 10.611 Z M14.717 19.318 L21.040 12.994 C21.325 12.708 21.325 12.245 21.040 11.959 C20.755 11.674 20.290 11.674 20.005 11.959 L17.383 14.581 C17.010 14.954 16.407 14.954 16.035 14.581 C15.662 14.208 15.662 13.606 16.035 13.233 L20.197 9.070 C20.336 8.931 20.412 8.748 20.412 8.552 C20.412 8.357 20.336 8.174 20.197 8.035 C19.920 7.759 19.439 7.759 19.162 8.035 L15.476 11.721 C15.103 12.093 14.500 12.093 14.128 11.721 C13.755 11.348 13.755 10.745 14.128 10.372 L19.133 5.367 C19.418 5.081 19.418 4.617 19.133 4.331 C18.848 4.046 18.383 4.046 18.098 4.331 L12.615 9.814 C12.430 10.000 12.185 10.093 11.941 10.093 C11.697 10.093 11.453 10.000 11.267 9.814 C10.894 9.441 10.894 8.838 11.267 8.466 L14.366 5.367 C14.651 5.081 14.651 4.617 14.366 4.331 C14.081 4.046 13.616 4.046 13.331 4.331 L5.942 11.720 C5.855 11.808 5.749 11.878 5.631 11.927 C5.515 11.975 5.391 12.000 5.267 12.000 C5.143 12.000 5.019 11.975 4.903 11.927 C4.669 11.830 4.484 11.644 4.387 11.411 C4.339 11.294 4.314 11.170 4.314 11.047 V10.093 C4.314 9.567 3.887 9.140 3.360 9.140 C2.834 9.140 2.407 9.567 2.407 10.093 V13.907 C2.407 15.837 3.559 17.564 5.341 18.308 L10.003 20.251 C11.622 20.924 13.474 20.561 14.717 19.318 Z"
    fill="currentColor"
  />
</svg>
