<svg
  width="24"
  height="24"
  viewBox="0 0 24 24"
  fill="none"
  xmlns="http://www.w3.org/2000/svg"
>
  <path
    fill-rule="evenodd"
    clip-rule="evenodd"
    d="M12 12.4199C11.4477 12.4199 11 12.8676 11 13.4199C11 13.9722 11.4477 14.4199 12 14.4199C12.5523 14.4199 13 13.9722 13 13.4199C13 12.8676 12.5523 12.4199 12 12.4199ZM9 13.4199C9 11.7631 10.3431 10.4199 12 10.4199C13.6569 10.4199 15 11.7631 15 13.4199C15 15.0768 13.6569 16.4199 12 16.4199C10.3431 16.4199 9 15.0768 9 13.4199Z"
    fill="currentColor"
  />
  <path
    fill-rule="evenodd"
    clip-rule="evenodd"
    d="M12.9511 13.7288C13.1217 13.2036 13.6859 12.9161 14.2111 13.0868L18.9661 14.6318C19.4914 14.8025 19.7788 15.3666 19.6082 15.8919C19.4375 16.4171 18.8734 16.7046 18.3481 16.5339L13.5931 14.9889C13.0679 14.8183 12.7804 14.2541 12.9511 13.7288Z"
    fill="currentColor"
  />
  <path
    fill-rule="evenodd"
    clip-rule="evenodd"
    d="M16.7015 6.94781C17.1484 7.27237 17.2475 7.89773 16.923 8.34458L13.985 12.3896C13.6604 12.8364 13.035 12.9356 12.5882 12.611C12.1413 12.2864 12.0422 11.6611 12.3668 11.2142L15.3048 7.16923C15.6293 6.72238 16.2547 6.62325 16.7015 6.94781Z"
    fill="currentColor"
  />
  <path
    fill-rule="evenodd"
    clip-rule="evenodd"
    d="M7.29814 6.94781C7.74499 6.62325 8.37035 6.72238 8.69491 7.16923L11.6329 11.2142C11.9575 11.6611 11.8583 12.2864 11.4115 12.611C10.9646 12.9356 10.3393 12.8364 10.0147 12.3896L7.07671 8.34458C6.75215 7.89773 6.85129 7.27237 7.29814 6.94781Z"
    fill="currentColor"
  />
  <path
    fill-rule="evenodd"
    clip-rule="evenodd"
    d="M11.0491 13.7288C11.2198 14.2541 10.9323 14.8183 10.4071 14.9889L5.65206 16.5339C5.12681 16.7046 4.56265 16.4171 4.39199 15.8919C4.22132 15.3666 4.50877 14.8025 5.03403 14.6318L9.78902 13.0868C10.3143 12.9161 10.8784 13.2036 11.0491 13.7288Z"
    fill="currentColor"
  />
  <path
    fill-rule="evenodd"
    clip-rule="evenodd"
    d="M17.7069 11.5659C16.6826 8.41437 13.2979 6.69046 10.1458 7.714C6.99432 8.73736 5.26971 12.122 6.29402 15.2738L6.29405 15.2739C6.59117 16.1885 7.08552 16.9803 7.71374 17.6205C8.10056 18.0147 8.09458 18.6478 7.70038 19.0346C7.30619 19.4215 6.67305 19.4155 6.28623 19.0213C5.44647 18.1655 4.78683 17.1074 4.39195 15.892M17.7069 11.5659C18.4204 13.7621 17.7994 16.074 16.286 17.6218C15.8999 18.0166 15.907 18.6498 16.3019 19.0359C16.6967 19.422 17.3299 19.4149 17.716 19.02C19.7286 16.9617 20.5615 13.8797 19.6091 10.9479L19.609 10.9478C18.2433 6.74537 13.73 4.44733 9.52814 5.81178C5.32568 7.1764 3.02629 11.6897 4.39192 15.8919"
    fill="currentColor"
  />
  <path
    d="M1 22.4199H23"
    stroke="currentColor"
    stroke-width="2"
    stroke-miterlimit="10"
    stroke-linecap="round"
    stroke-linejoin="round"
  />
  <path
    fill-rule="evenodd"
    clip-rule="evenodd"
    d="M0 13.4199C0 6.79264 5.37272 1.41992 12 1.41992C18.6273 1.41992 24 6.79264 24 13.4199C24 17.4849 21.9726 21.0698 18.8869 23.2381C18.7186 23.3564 18.5178 23.4199 18.312 23.4199H5.687C5.48116 23.4199 5.28033 23.3564 5.11193 23.238C2.02732 21.0698 0 17.4849 0 13.4199ZM12 3.41992C6.47728 3.41992 2 7.89721 2 13.4199C2 16.6921 3.57606 19.5939 6.01156 21.4199H17.9875C20.4239 19.5939 22 16.6921 22 13.4199C22 7.89721 17.5227 3.41992 12 3.41992Z"
    fill="currentColor"
  />
</svg>
