<svg
  width="24"
  height="24"
  viewBox="0 0 24 24"
  fill="none"
  xmlns="http://www.w3.org/2000/svg"
>
  <path
    d="M23 20.0498V3.0498C23 2.4978 22.553 2.0498 22 2.0498H2C1.447 2.0498 1 2.4978 1 3.0498V20.0498C0.447 20.0498 0 20.4978 0 21.0498C0 21.6018 0.447 22.0498 1 22.0498H23C23.553 22.0498 24 21.6018 24 21.0498C24 20.4978 23.553 20.0498 23 20.0498ZM17 20.0498H11V18.0498H17V20.0498ZM21 20.0498H19V17.0498C19 16.4978 18.553 16.0498 18 16.0498H10C9.447 16.0498 9 16.4978 9 17.0498V20.0498H3V4.0498H21V20.0498Z"
    fill="currentColor"
  />
</svg>
