<svg
  width="24"
  height="24"
  viewBox="0 0 24 24"
  fill="none"
  xmlns="http://www.w3.org/2000/svg"
>
  <path
    fill-rule="evenodd"
    clip-rule="evenodd"
    d="M0 19.1699C0 19.2123 0.00263041 19.254 0.00773671 19.2949C0.00263041 19.3359 0 19.3776 0 19.4199C0 19.9722 0.447715 20.4199 1 20.4199H23C23.5523 20.4199 24 19.9722 24 19.4199C24 19.3776 23.9974 19.3359 23.9923 19.2949C23.9974 19.254 24 19.2123 24 19.1699V10.9199C24 7.33026 21.0897 4.41992 17.5 4.41992H6.5C2.91034 4.41992 0 7.33026 0 10.9199V19.1699ZM22 10.9199V18.4199H10.0392L14.8077 13.6515C15.1982 13.2609 15.1982 12.6278 14.8077 12.2372C14.4172 11.8467 13.784 11.8467 13.3935 12.2372L7.21079 18.4199H2V10.9199C2 8.43483 4.01491 6.41992 6.5 6.41992H17.5C19.9851 6.41992 22 8.43483 22 10.9199ZM10 7.41992C9.44772 7.41992 9 7.86764 9 8.41992C9 8.97221 9.44772 9.41992 10 9.41992H14C14.5523 9.41992 15 8.97221 15 8.41992C15 7.86764 14.5523 7.41992 14 7.41992H10Z"
    fill="currentColor"
  />
</svg>
