<svg
  width="24"
  height="24"
  viewBox="0 0 24 24"
  fill="none"
  xmlns="http://www.w3.org/2000/svg"
>
  <path
    fill-rule="evenodd"
    clip-rule="evenodd"
    d="M17.2597 4.18398C17.1589 3.97277 16.9622 3.82356 16.7317 3.78391C16.5047 3.74282 16.2663 3.81851 16.1006 3.98358L13.6714 6.41142L12.6658 6.07621L12.3308 5.0728L14.752 2.65361C14.917 2.48781 14.9927 2.25065 14.9523 2.01998C14.9119 1.7893 14.7621 1.59107 14.5496 1.49159C12.6658 0.602051 10.3886 0.803891 8.74253 2.00484C6.92354 3.33337 6.0598 5.53559 6.47333 7.70899L1.54081 12.636C0.271479 13.9047 0.174947 15.895 1.32253 17.1687C1.61663 17.4949 1.96432 17.7523 2.34757 17.9326V22.3327C2.34757 23.0531 2.93155 23.6371 3.65192 23.6371H22.4345C23.1549 23.6371 23.7389 23.0531 23.7389 22.3327V15.0284C23.7389 11.7146 21.0526 9.02836 17.7389 9.02836H17.3001C17.9891 7.51772 18.0032 5.74135 17.2597 4.18398ZM16.2413 10.5936C16.2092 10.6272 16.1768 10.6604 16.1438 10.6933C14.8068 12.0298 12.879 12.613 11.0326 12.264L5.99928 17.2942C5.44216 17.8503 4.69439 18.1837 3.91279 18.2312V22.0718H9.58425C9.60658 22.0435 9.63079 22.0161 9.65698 21.9899L15.3091 16.3378C15.6637 15.9832 16.2385 15.9832 16.5931 16.3378C16.9477 16.6923 16.9477 17.2671 16.5931 17.6217L12.143 22.0718H22.1737V15.0284C22.1737 12.5791 20.1881 10.5936 17.7389 10.5936H16.2413ZM14.6661 9.66807C13.6741 10.6594 12.2091 11.0493 10.8464 10.6867C10.7838 10.6695 10.7202 10.6431 10.6576 10.617C10.4892 10.5468 10.327 10.4793 10.2043 10.6014L5.29608 15.5022C4.97473 15.8242 4.30151 16.3607 3.84708 16.3434C3.39065 16.3315 2.99082 16.1967 2.66477 15.7979C2.12695 15.0142 2.57294 14.175 3.23296 13.517L8.04804 8.70869C8.21573 8.54038 8.34402 8.04478 8.28215 7.81527C7.85766 6.22381 8.21567 4.64221 9.55634 3.66485C10.2157 3.18315 11.0261 2.93698 11.8458 2.93698C11.963 2.93698 11.9862 2.92689 12.0008 2.92055C12.0183 2.91295 12.0234 2.91071 12.1626 2.93753L11.3663 3.66485L10.8543 4.21754C10.631 4.45865 10.5315 4.79153 10.6032 5.11226C10.6325 5.24322 10.6639 5.37017 10.6914 5.45258L11.2363 7.08462C11.3029 7.28356 11.4585 7.43925 11.6575 7.50577L13.2916 8.04932C13.5304 8.12784 14.3126 8.07066 14.4908 7.89363L16.1539 6.26367C16.4034 7.53379 15.6096 8.72664 14.6661 9.66807Z"
    fill="currentColor"
  />
</svg>
