<svg
  width="24"
  height="24"
  viewBox="0 0 24 24"
  fill="none"
  xmlns="http://www.w3.org/2000/svg"
>
  <path
    fill-rule="evenodd"
    clip-rule="evenodd"
    d="M12.6425 7.77017L12.5841 3.76446L8.72978 4.85666L5.56162 2.40479L4.01239 6.0992L0.120117 7.04746L2.04261 10.5622L0.357195 14.1965L2.33047 14.5406L2.34719 14.5435V22.3329C2.34719 23.0533 2.93117 23.6373 3.65154 23.6373H22.4341C23.1545 23.6373 23.7385 23.0533 23.7385 22.3329V15.0286C23.7385 11.7148 21.0522 9.02856 17.7385 9.02856H14.3998L12.6425 7.77017ZM15.3018 10.5938L12.8042 12.6458L13.0113 16.6465L9.09312 15.8121L6.09432 18.4685L4.30374 14.8848L3.91241 14.8165V22.072H9.58387C9.6062 22.0437 9.63041 22.0163 9.6566 21.9901L15.3088 16.338C15.6633 15.9834 16.2381 15.9834 16.5927 16.338C16.9473 16.6925 16.9473 17.2673 16.5927 17.6219L12.1426 22.072H22.1733V15.0286C22.1733 12.5793 20.1877 10.5938 17.7385 10.5938H15.3018ZM13.3303 10.1879L11.089 8.58278L11.0488 5.82638L8.39655 6.57795L6.21641 4.89074L5.15035 7.43297L2.47197 8.08551L3.7949 10.504L2.63512 13.0049L5.35084 13.4786L6.58298 15.9446L8.64651 14.1167L11.3428 14.6909L11.2003 11.9378L13.3303 10.1879ZM10.0062 8.47269C10.2815 8.72052 10.3001 9.14057 10.0477 9.41089L7.39074 12.2568C7.26609 12.3903 7.09131 12.468 6.90688 12.4719C6.72244 12.4758 6.54437 12.4057 6.41394 12.2776L5.2062 11.0918C4.94208 10.8325 4.94208 10.4121 5.2062 10.1527C5.47032 9.89344 5.89856 9.89344 6.16267 10.1527L6.87093 10.8481L9.0506 8.5135C9.30302 8.24318 9.73084 8.22492 10.0062 8.47269Z"
    fill="currentColor"
  />
</svg>
